<?xml version="1.0" encoding="utf-8"?>
<!-- Generator: Adobe Illustrator 13.0.2, SVG Export Plug-In . SVG Version: 6.00 Build 14948)  -->
<!DOCTYPE svg PUBLIC "-//W3C//DTD SVG 1.1//EN" "http://www.w3.org/Graphics/SVG/1.1/DTD/svg11.dtd">
<svg version="1.1" xmlns="http://www.w3.org/2000/svg" xmlns:xlink="http://www.w3.org/1999/xlink" x="0px" y="0px"
	 width="156.529px" height="160.609px" viewBox="0 0 156.529 160.609" enable-background="new 0 0 156.529 160.609"
	 xml:space="preserve">
<g id="type">
	<circle fill="none" cx="78.537" cy="81.719" r="63.688"/>
	<text transform="matrix(-0.1607 -0.8957 0.9843 -0.1766 16.2808 95.4277)" font-family="'Helvetica-Black'" font-size="16"> </text>
	<text transform="matrix(-0.0748 -0.9069 0.9966 -0.0822 15.3667 90.6504)" font-family="'Helvetica-Black'" font-size="16">•</text>
	<text transform="matrix(0.0823 -0.9063 0.9959 0.0904 14.5649 81.9248)" font-family="'Helvetica-Black'" font-size="16">N</text>
	<text transform="matrix(0.2544 -0.8737 0.9601 0.2795 15.6855 69.7051)" font-family="'Helvetica-Black'" font-size="16">O</text>
	<text transform="matrix(0.4124 -0.8112 0.8914 0.4532 19.1631 57.9463)" font-family="'Helvetica-Black'" font-size="16">R</text>
	<text transform="matrix(0.5458 -0.7281 0.8002 0.5998 24.3926 47.7617)" font-family="'Helvetica-Black'" font-size="16">T</text>
	<text transform="matrix(0.6663 -0.6198 0.6811 0.7322 30.7305 39.209)" font-family="'Helvetica-Black'" font-size="16">H</text>
	<text transform="matrix(0.7657 -0.4917 0.5404 0.8414 39.7471 30.9307)" font-family="'Helvetica-Black'" font-size="16">E</text>
	<text transform="matrix(0.8392 -0.3519 0.3867 0.9222 48.7026 25.1504)" font-family="'Helvetica-Black'" font-size="16">R</text>
	<text transform="matrix(0.89 -0.1898 0.2085 0.978 59.2617 20.6953)" font-family="'Helvetica-Black'" font-size="16">N</text>
	<text transform="matrix(0.9074 -0.0683 0.0751 0.9972 71.2705 18.3955)" font-family="'Helvetica-Black'" font-size="16"> </text>
	<text transform="matrix(0.9088 0.0468 -0.0514 0.9987 76.209 17.8242)" font-family="'Helvetica-Black'" font-size="16">C</text>
	<text transform="matrix(0.8858 0.2085 -0.2291 0.9734 87.6714 18.4258)" font-family="'Helvetica-Black'" font-size="16">A</text>
	<text transform="matrix(0.8385 0.3535 -0.3885 0.9214 98.7861 21.1211)" font-family="'Helvetica-Black'" font-size="16">L</text>
	<text transform="matrix(0.7889 0.4536 -0.4985 0.8669 107.7832 25.0586)" font-family="'Helvetica-Black'" font-size="16">I</text>
	<text transform="matrix(0.7277 0.5464 -0.6004 0.7997 112.8545 27.8408)" font-family="'Helvetica-Black'" font-size="16">F</text>
	<text transform="matrix(0.6235 0.6628 -0.7284 0.6852 120.7793 33.6738)" font-family="'Helvetica-Black'" font-size="16">O</text>
	<text transform="matrix(0.4908 0.7663 -0.8421 0.5394 129.1484 42.6426)" font-family="'Helvetica-Black'" font-size="16">R</text>
	<text transform="matrix(0.3403 0.844 -0.9274 0.374 135.3604 52.291)" font-family="'Helvetica-Black'" font-size="16">N</text>
	<text transform="matrix(0.2171 0.8837 -0.9711 0.2386 139.7119 63.7207)" font-family="'Helvetica-Black'" font-size="16">I</text>
	<text transform="matrix(0.0959 0.9049 -0.9944 0.1053 141.2705 69.2979)" font-family="'Helvetica-Black'" font-size="16">A</text>
	<text transform="matrix(-0.0801 0.9065 -0.9961 -0.0881 142.2949 83.7754)" font-family="'Helvetica-Black'" font-size="16">•</text>
	<ellipse fill="none" cx="77.693" cy="78.469" rx="76.344" ry="78.469"/>
	<text transform="matrix(0.2767 0.8669 -0.9526 0.3041 3.4155 97.5557)" font-family="'Helvetica-Black'" font-size="16">D</text>
	<text transform="matrix(0.4135 0.8106 -0.8908 0.4544 7.46 109.8057)" font-family="'Helvetica-Black'" font-size="16">X</text>
	<text transform="matrix(0.5094 0.7541 -0.8286 0.5598 13.582 121.1602)" font-family="'Helvetica-Black'" font-size="16"> </text>
	<text transform="matrix(0.5911 0.6919 -0.7603 0.6495 17.1499 126.5283)" font-family="'Helvetica-Black'" font-size="16">F</text>
	<text transform="matrix(0.694 0.5886 -0.6469 0.7626 24.5063 135.0967)" font-family="'Helvetica-Black'" font-size="16">O</text>
	<text transform="matrix(0.7878 0.4555 -0.5005 0.8657 35.0684 143.8721)" font-family="'Helvetica-Black'" font-size="16">U</text>
	<text transform="matrix(0.8575 0.3047 -0.3348 0.9423 47.022 150.6182)" font-family="'Helvetica-Black'" font-size="16">N</text>
	<text transform="matrix(0.8981 0.147 -0.1615 0.9869 60.0029 155.043)" font-family="'Helvetica-Black'" font-size="16">D</text>
	<text transform="matrix(0.9099 -0.0152 0.0167 0.9999 72.8003 157.0273)" font-family="'Helvetica-Black'" font-size="16">A</text>
	<text transform="matrix(0.8958 -0.1604 0.1762 0.9843 85.7095 156.6963)" font-family="'Helvetica-Black'" font-size="16">T</text>
	<text transform="matrix(0.8673 -0.2754 0.3026 0.9531 97.5557 154.3125)" font-family="'Helvetica-Black'" font-size="16">I</text>
	<text transform="matrix(0.8203 -0.394 0.433 0.9014 104.5137 152.2207)" font-family="'Helvetica-Black'" font-size="16">O</text>
	<text transform="matrix(0.7361 -0.535 0.588 0.8089 116.8184 146.1455)" font-family="'Helvetica-Black'" font-size="16">N</text>
	<text transform="matrix(0.6603 -0.6262 0.6881 0.7256 127.6885 137.8232)" font-family="'Helvetica-Black'" font-size="16">,</text>
	<text transform="matrix(0.6066 -0.6783 0.7454 0.6666 132.2988 133.3613)" font-family="'Helvetica-Black'" font-size="16"> </text>
	<text transform="matrix(0.5452 -0.7286 0.8007 0.5991 136.5498 128.5303)" font-family="'Helvetica-Black'" font-size="16">I</text>
	<text transform="matrix(0.444 -0.7943 0.8729 0.4879 140.9775 122.7939)" font-family="'Helvetica-Black'" font-size="16">N</text>
	<text transform="matrix(0.3047 -0.8575 0.9423 0.3349 147.5283 110.7295)" font-family="'Helvetica-Black'" font-size="16">C</text>
	<text transform="matrix(0.1988 -0.888 0.9759 0.2184 151.5664 98.4961)" font-family="'Helvetica-Black'" font-size="16">.</text>
</g>
<g id="compass">
	<ellipse fill="none" stroke="#000000" stroke-width="1.5" cx="78.246" cy="81.583" rx="59.542" ry="59.906"/>
	<ellipse fill="none" stroke="#000000" stroke-width="1.5" cx="78.287" cy="81.906" rx="52.167" ry="52.333"/>
	<polygon points="81.871,134.239 78.204,141.823 74.287,134.239 	"/>
	<polygon points="117.623,115.755 120.637,123.957 112.259,121.118 	"/>
	<polygon points="130.287,78.364 138.204,82.032 130.287,85.948 	"/>
	<polygon points="112.51,42.529 120.879,39.349 117.873,47.893 	"/>
	<polygon points="74.788,29.491 78.455,21.324 82.371,29.491 	"/>
	<polygon points="38.786,47.476 35.604,39.107 44.148,42.113 	"/>
	<polygon points="25.912,85.697 18.162,82.031 25.912,78.114 	"/>
	<polygon points="44.147,121.451 36.113,124.3 38.785,116.089 	"/>
	<line fill="none" stroke="#000000" x1="33.537" y1="55.156" x2="26.538" y2="51.072"/>
	<line fill="none" stroke="#000000" x1="29.204" y1="63.739" x2="22.454" y2="61.239"/>
	<line fill="none" stroke="#000000" x1="27.204" y1="72.989" x2="19.621" y2="71.572"/>
	<line fill="none" stroke="#000000" x1="26.871" y1="90.572" x2="19.787" y2="92.072"/>
	<line fill="none" stroke="#000000" x1="29.204" y1="99.822" x2="22.537" y2="102.322"/>
	<line fill="none" stroke="#000000" x1="33.037" y1="108.156" x2="26.871" y2="111.822"/>
	<line fill="none" stroke="#000000" x1="38.121" y1="115.572" x2="33.121" y2="119.739"/>
	<line fill="none" stroke="#000000" x1="44.371" y1="121.906" x2="40.121" y2="126.906"/>
	<line fill="none" stroke="#000000" x1="51.787" y1="127.156" x2="48.287" y2="133.156"/>
	<line fill="none" stroke="#000000" x1="59.954" y1="131.239" x2="57.537" y2="137.739"/>
	<line fill="none" stroke="#000000" x1="68.704" y1="133.489" x2="67.537" y2="140.322"/>
	<line fill="none" stroke="#000000" x1="86.871" y1="133.656" x2="87.871" y2="140.072"/>
	<line fill="none" stroke="#000000" x1="96.371" y1="131.156" x2="98.454" y2="137.739"/>
	<line fill="none" stroke="#000000" x1="104.537" y1="127.156" x2="108.037" y2="133.073"/>
	<line fill="none" stroke="#000000" x1="111.704" y1="121.906" x2="116.287" y2="127.239"/>
	<line fill="none" stroke="#000000" x1="118.204" y1="115.323" x2="123.954" y2="119.823"/>
	<line fill="none" stroke="#000000" x1="123.62" y1="108.239" x2="129.704" y2="111.656"/>
	<line fill="none" stroke="#000000" x1="134.037" y1="102.573" x2="127.12" y2="99.989"/>
	<line fill="none" stroke="#000000" x1="136.954" y1="91.989" x2="129.62" y2="90.989"/>
	<line fill="none" stroke="#000000" x1="136.954" y1="71.489" x2="129.87" y2="72.823"/>
	<line fill="none" stroke="#000000" x1="134.12" y1="61.239" x2="127.454" y2="63.739"/>
	<line fill="none" stroke="#000000" x1="129.871" y1="51.906" x2="123.371" y2="55.489"/>
	<line fill="none" stroke="#000000" x1="123.954" y1="43.406" x2="118.037" y2="48.156"/>
	<line fill="none" stroke="#000000" x1="117.121" y1="36.239" x2="112.371" y2="41.823"/>
	<line fill="none" stroke="#000000" x1="108.787" y1="30.239" x2="104.871" y2="36.739"/>
	<line fill="none" stroke="#000000" x1="99.037" y1="25.489" x2="96.454" y2="32.822"/>
	<line fill="none" stroke="#000000" x1="89.037" y1="22.906" x2="87.704" y2="30.156"/>
	<line fill="none" stroke="#000000" x1="67.787" y1="22.822" x2="69.204" y2="30.405"/>
	<line fill="none" stroke="#000000" x1="57.537" y1="25.323" x2="60.204" y2="32.823"/>
	<line fill="none" stroke="#000000" x1="48.371" y1="29.906" x2="52.287" y2="36.573"/>
	<line fill="none" stroke="#000000" x1="39.871" y1="35.906" x2="44.871" y2="41.489"/>
	<line fill="none" stroke="#000000" x1="32.787" y1="42.739" x2="38.537" y2="47.656"/>
	<path d="M72.412,37.656c0,0,1.25,0.208,1.188,1.666s-1.146,1.896-2.146,1.896s-2.771-0.312-2.75-2.104s0.75-2.771,1.25-3.312
		s1.979-1.167,3.375-1s2.834,0.479,4.417,2.271s3.167,4.167,3.167,4.167s1.178-3.052,1.344-3.427
		c0.594-1.344,1.219-2.114,2.198-2.406s1.833-0.229,2.312,0.083s0.988,1.068,0.771,1.917c-0.156,0.609-0.484,1.375-2.266,1.094
		c-0.87-0.138-0.922-1.198-0.63-1.698s1.327-0.502,1.229-0.042c-0.068,0.318-1.115,1.115,0,0.938
		c0.569-0.09,0.646-0.459,0.646-0.813s-0.419-0.898-1.183-0.869c-0.969,0.037-1.406,0.562-1.938,1.516
		c-0.529,0.95-1.13,2.021-1.047,4.021s1.104,3.125,1.875,3.354s1.771,0.5,2.292-0.125s0.5-1.167,0.833-1.042s0.688,0.729-0.167,1.5
		s-2.396,1.624-4.667,0.521c-2.354-1.145-2.412-1.89-3.354-3.083c-1.021-1.292-1.771-2.354-1.896-2.458s-1.062-1.562-0.958-1.125
		s0.188,0.312,0.146,1.5s-0.448,3.047-0.698,3.453c-0.518,0.841-1.708,2.182-3.312,2.328s-1.843-0.281-2.489-1.073
		s-0.5-1.542-0.312-1.896c0.334-0.63,0.855-0.863,1.562-0.917c1.646-0.125,0.816,1.494,0.292,1.188
		c-1.615-0.942-1.198,1.438,0.01,1.729c1.071,0.259,1.797-0.078,2.573-0.938c0.676-0.748,1.312-1.375,1.312-4.271
		c0-1.021-0.25-2.375-0.875-3.083s-1.42-1.075-2.042-1.208c-0.875-0.188-2.025,0.285-2.438,1.291c-0.406,0.99-0.477,2.211-0.188,2.6
		c0.667,0.896,2.141,0.422,2.281,0.344c0.473-0.263,0.51-1.667,0.094-1.688c-0.31-0.016-0.636,0.047-0.719,0.422
		s0,0.625-0.359,0.781c-0.519,0.226-1-0.609-0.734-1.146c0.27-0.545,1-0.916,1.479-0.916S72.412,37.656,72.412,37.656z"/>
</g>
<g id="bridge">
	<polygon points="87.35,129.948 69.1,129.948 73.662,131.281 83.475,131.281 	"/>
	<polygon points="101.975,124.906 54.371,124.906 55.805,126.24 100.777,126.24 	"/>
	<polygon points="108.725,120.156 47.287,120.156 48.229,121.615 107.658,121.615 	"/>
	<polygon points="114.412,115.031 42.162,115.031 43.037,116.406 114.037,116.406 	"/>
	<line fill="none" stroke="#000000" x1="125.537" y1="103.531" x2="30.537" y2="103.531"/>
	<line fill="none" stroke="#000000" x1="126.412" y1="101.906" x2="30.037" y2="101.906"/>
	<line fill="none" stroke="#000000" stroke-linecap="round" x1="113.62" y1="46.656" x2="85.787" y2="74.489"/>
	<line fill="none" stroke="#000000" stroke-linecap="round" x1="43.287" y1="46.489" x2="70.954" y2="74.156"/>
	<line fill="none" stroke="#000000" stroke-linecap="round" x1="127.954" y1="81.989" x2="115.12" y2="81.989"/>
	<line fill="none" stroke="#000000" stroke-linecap="round" x1="102.121" y1="81.989" x2="89.287" y2="81.989"/>
	<line fill="none" stroke="#000000" stroke-linecap="round" x1="67.954" y1="81.989" x2="54.62" y2="81.989"/>
	<line fill="none" stroke="#000000" stroke-linecap="round" x1="42.621" y1="81.989" x2="29.12" y2="81.989"/>
	<line fill="none" stroke="#000000" stroke-linecap="round" x1="78.454" y1="31.989" x2="78.454" y2="36.822"/>
	<line fill="none" stroke="#000000" stroke-linecap="round" x1="78.454" y1="42.989" x2="78.454" y2="71.823"/>
	<circle cx="78.37" cy="81.823" r="8.333"/>
	<line fill="none" stroke="#000000" stroke-linecap="round" x1="78.287" y1="92.156" x2="78.287" y2="98.656"/>
	<line fill="none" stroke="#000000" stroke-linecap="round" x1="78.121" y1="105.156" x2="78.121" y2="114.156"/>
	<line fill="none" stroke="#000000" stroke-linecap="round" x1="92.121" y1="94.989" x2="86.037" y2="88.906"/>
	<line fill="none" stroke="#000000" stroke-linecap="round" x1="71.121" y1="88.989" x2="65.287" y2="94.823"/>
	<line fill="none" stroke="#000000" stroke-linecap="round" x1="51.954" y1="108.489" x2="55.787" y2="104.656"/>
	<line fill="none" stroke="#000000" stroke-linecap="round" x1="61.068" y1="99.406" x2="63.287" y2="97.156"/>
	<line fill="none" stroke="#000000" stroke-linecap="round" x1="58.621" y1="101.823" x2="59.443" y2="101"/>
	<line fill="none" stroke="#000000" stroke-linecap="round" x1="104.287" y1="107.156" x2="101.537" y2="104.406"/>
	<line fill="none" stroke="#000000" stroke-linecap="round" x1="98.443" y1="101.031" x2="97.516" y2="100.386"/>
	<line fill="none" stroke="#000000" stroke-linecap="round" x1="95.954" y1="98.989" x2="93.787" y2="96.822"/>
	<line fill="none" stroke="#000000" x1="120.287" y1="101.656" x2="120.287" y2="93.989"/>
	<line fill="none" stroke="#000000" x1="96.621" y1="101.989" x2="96.621" y2="94.489"/>
	<line fill="none" stroke="#000000" x1="87.287" y1="102.156" x2="87.287" y2="99.156"/>
	<line fill="none" stroke="#000000" x1="68.787" y1="102.156" x2="68.787" y2="99.031"/>
	<line fill="none" stroke="#000000" x1="59.949" y1="101.989" x2="59.949" y2="93.989"/>
	<line fill="none" stroke="#000000" x1="35.621" y1="101.989" x2="35.621" y2="94.489"/>
	<path fill="none" stroke="#000000" d="M127.371,98.739c0,0-11.121-4.014-15.396-16.833h-5.688c0,0-7.583,18.833-28.083,18.833
		S50.537,81.573,50.537,81.573h-5.5c0,0-8,16.666-16.333,16.666"/>
	<rect x="105.996" y="82.156" width="6.208" height="33.583"/>
	<rect x="44.496" y="81.656" width="6.208" height="34.083"/>
</g>
</svg>
