G75*
%MOIN*%
%OFA0B0*%
%FSLAX25Y25*%
%IPPOS*%
%LPD*%
%AMOC8*
5,1,8,0,0,1.08239X$1,22.5*
%
%ADD10R,0.07800X0.02100*%
%ADD11R,0.05118X0.05906*%
%ADD12R,0.05906X0.05118*%
%ADD13R,0.03150X0.03543*%
%ADD14R,0.03150X0.04724*%
%ADD15R,0.04724X0.03150*%
%ADD16R,0.04800X0.02000*%
%ADD17R,0.04900X0.01700*%
%ADD18R,0.07200X0.08100*%
%ADD19R,0.05906X0.08661*%
%ADD20R,0.03937X0.04724*%
%ADD21R,0.04724X0.07874*%
%ADD22R,0.08900X0.09500*%
%ADD23R,0.07874X0.03937*%
%ADD24C,0.06811*%
%ADD25R,0.09252X0.07480*%
%ADD26R,0.05906X0.13386*%
%ADD27R,0.03937X0.03937*%
%ADD28R,0.04724X0.04724*%
%ADD29R,0.07098X0.06299*%
%ADD30R,0.04724X0.03937*%
%ADD31R,0.05787X0.05000*%
%ADD32R,0.03268X0.02480*%
D10*
X0172300Y0037500D03*
X0172300Y0042500D03*
X0172300Y0047500D03*
X0172300Y0052500D03*
X0172300Y0057500D03*
X0172300Y0062500D03*
X0172300Y0067500D03*
X0191700Y0067500D03*
X0191700Y0062500D03*
X0191700Y0057500D03*
X0191700Y0052500D03*
X0191700Y0047500D03*
X0191700Y0042500D03*
X0191700Y0037500D03*
D11*
X0185740Y0075000D03*
X0178260Y0075000D03*
X0145740Y0050000D03*
X0138260Y0050000D03*
X0105740Y0020000D03*
X0098260Y0020000D03*
X0088240Y0020000D03*
X0080760Y0020000D03*
D12*
X0034500Y0063760D03*
X0034500Y0071240D03*
X0034500Y0101260D03*
X0034500Y0108740D03*
X0037000Y0196260D03*
X0037000Y0203740D03*
X0097000Y0211260D03*
X0097000Y0218740D03*
X0107000Y0218740D03*
X0107000Y0211260D03*
X0117000Y0211260D03*
X0117000Y0218740D03*
X0184500Y0136240D03*
X0184500Y0128760D03*
X0207000Y0056240D03*
X0207000Y0048760D03*
D13*
X0145740Y0038937D03*
X0142000Y0030669D03*
X0138260Y0038937D03*
X0130740Y0038937D03*
X0123260Y0038937D03*
X0127000Y0030669D03*
X0115740Y0038937D03*
X0108260Y0038937D03*
X0112000Y0030669D03*
D14*
X0138457Y0060000D03*
X0145543Y0060000D03*
X0145543Y0085000D03*
X0138457Y0085000D03*
X0143457Y0162500D03*
X0150543Y0162500D03*
D15*
X0144500Y0141043D03*
X0144500Y0133957D03*
X0134500Y0133957D03*
X0134500Y0141043D03*
X0124500Y0143957D03*
X0124500Y0151043D03*
X0104500Y0143543D03*
X0104500Y0136457D03*
X0094500Y0143957D03*
X0094500Y0151043D03*
X0054500Y0138543D03*
X0054500Y0131457D03*
X0044500Y0136457D03*
X0044500Y0143543D03*
X0142000Y0098543D03*
X0142000Y0091457D03*
X0174500Y0093543D03*
X0174500Y0086457D03*
X0164500Y0133957D03*
X0164500Y0141043D03*
D16*
X0154000Y0148800D03*
X0154000Y0152500D03*
X0154000Y0156200D03*
X0145000Y0156200D03*
X0145000Y0152500D03*
X0145000Y0148800D03*
X0154700Y0093700D03*
X0154700Y0086300D03*
X0164300Y0086300D03*
X0164300Y0090000D03*
X0164300Y0093700D03*
D17*
X0083400Y0141200D03*
X0083400Y0143700D03*
X0083400Y0146300D03*
X0083400Y0148800D03*
X0065600Y0148800D03*
X0065600Y0146300D03*
X0065600Y0143700D03*
X0065600Y0141200D03*
D18*
X0074500Y0145000D03*
D19*
X0084598Y0192500D03*
X0059402Y0192500D03*
D20*
X0157000Y0071831D03*
X0157000Y0063169D03*
D21*
X0148299Y0072500D03*
X0135701Y0072500D03*
X0068299Y0165000D03*
X0055701Y0165000D03*
X0143201Y0182500D03*
X0155799Y0182500D03*
D22*
X0102900Y0165000D03*
X0086100Y0165000D03*
D23*
X0062472Y0114075D03*
X0062472Y0108169D03*
X0062472Y0102264D03*
X0062472Y0096358D03*
X0062472Y0090453D03*
X0062472Y0084547D03*
X0062472Y0078642D03*
X0062472Y0072736D03*
X0062472Y0066831D03*
X0062472Y0060925D03*
X0121528Y0060925D03*
X0121528Y0066831D03*
X0121528Y0072736D03*
X0121528Y0078642D03*
X0121528Y0084547D03*
X0121528Y0090453D03*
X0121528Y0096358D03*
X0121528Y0102264D03*
X0121528Y0108169D03*
X0121528Y0114075D03*
D24*
X0054500Y0030000D03*
D25*
X0045150Y0019764D03*
X0063850Y0019764D03*
X0063850Y0040236D03*
X0045150Y0040236D03*
D26*
X0043476Y0030000D03*
X0065524Y0030000D03*
D27*
X0047000Y0113563D03*
X0047000Y0121437D03*
D28*
X0034500Y0091634D03*
X0034500Y0083366D03*
D29*
X0184500Y0176902D03*
X0184500Y0188098D03*
D30*
X0153831Y0172500D03*
X0145169Y0172500D03*
D31*
X0184500Y0165965D03*
X0184500Y0149035D03*
D32*
X0164500Y0145472D03*
X0164500Y0154528D03*
M02*
