G75*
%MOIN*%
%OFA0B0*%
%FSLAX25Y25*%
%IPPOS*%
%LPD*%
%AMOC8*
5,1,8,0,0,1.08239X$1,22.5*
%
%ADD10C,0.06000*%
%ADD11C,0.01600*%
%ADD12C,0.03962*%
%ADD13C,0.04000*%
D10*
X0017000Y0045000D03*
X0017000Y0055000D03*
X0017000Y0065000D03*
X0017000Y0075000D03*
X0017000Y0085000D03*
X0017000Y0095000D03*
X0017000Y0105000D03*
X0017000Y0115000D03*
X0017000Y0125000D03*
X0017000Y0135000D03*
X0017000Y0150000D03*
X0017000Y0160000D03*
X0017000Y0170000D03*
X0017000Y0180000D03*
X0017000Y0190000D03*
X0017000Y0200000D03*
X0017000Y0210000D03*
X0017000Y0220000D03*
X0042000Y0220000D03*
X0052000Y0220000D03*
X0097000Y0230000D03*
X0107000Y0230000D03*
X0117000Y0230000D03*
X0127000Y0230000D03*
X0137000Y0230000D03*
X0147000Y0230000D03*
X0157000Y0230000D03*
X0167000Y0230000D03*
X0207000Y0220000D03*
X0207000Y0210000D03*
X0207000Y0200000D03*
X0207000Y0190000D03*
X0207000Y0180000D03*
X0207000Y0170000D03*
X0207000Y0150000D03*
X0207000Y0140000D03*
X0207000Y0130000D03*
X0207000Y0120000D03*
X0207000Y0110000D03*
X0207000Y0100000D03*
X0207000Y0090000D03*
X0207000Y0080000D03*
X0187000Y0020000D03*
X0177000Y0020000D03*
X0167000Y0020000D03*
X0157000Y0020000D03*
X0147000Y0020000D03*
X0137000Y0020000D03*
X0127000Y0020000D03*
X0117000Y0020000D03*
D11*
X0014142Y0015000D02*
X0012050Y0017092D01*
X0012050Y0022145D01*
X0014986Y0021076D01*
X0019014Y0021076D01*
X0022800Y0022454D01*
X0025886Y0025044D01*
X0027900Y0028533D01*
X0028600Y0032500D01*
X0027900Y0036467D01*
X0025886Y0039956D01*
X0025886Y0039956D01*
X0022800Y0042546D01*
X0021210Y0043125D01*
X0021607Y0044084D01*
X0021607Y0045916D01*
X0020906Y0047610D01*
X0019610Y0048906D01*
X0017916Y0049607D01*
X0016084Y0049607D01*
X0014390Y0048906D01*
X0013094Y0047610D01*
X0012393Y0045916D01*
X0012393Y0044084D01*
X0012790Y0043125D01*
X0012050Y0042855D01*
X0012050Y0222908D01*
X0014092Y0224950D01*
X0058005Y0224950D01*
X0059861Y0225719D01*
X0065669Y0231528D01*
X0065400Y0230000D01*
X0065400Y0230000D01*
X0066100Y0226033D01*
X0066100Y0226033D01*
X0068114Y0222544D01*
X0068114Y0222544D01*
X0071200Y0219954D01*
X0074986Y0218576D01*
X0079014Y0218576D01*
X0082800Y0219954D01*
X0085886Y0222544D01*
X0087900Y0226033D01*
X0088600Y0230000D01*
X0087900Y0233967D01*
X0087333Y0234950D01*
X0176667Y0234950D01*
X0176100Y0233967D01*
X0175400Y0230000D01*
X0175400Y0230000D01*
X0176100Y0226033D01*
X0176100Y0226033D01*
X0178114Y0222544D01*
X0178114Y0222544D01*
X0181200Y0219954D01*
X0184986Y0218576D01*
X0189014Y0218576D01*
X0192800Y0219954D01*
X0192800Y0219954D01*
X0195886Y0222544D01*
X0197900Y0226033D01*
X0198600Y0230000D01*
X0198331Y0231528D01*
X0202719Y0227139D01*
X0204139Y0225719D01*
X0205995Y0224950D01*
X0211950Y0224950D01*
X0211950Y0035355D01*
X0209014Y0036424D01*
X0204986Y0036424D01*
X0201200Y0035046D01*
X0198114Y0032456D01*
X0196100Y0028967D01*
X0195400Y0025000D01*
X0195400Y0025000D01*
X0196100Y0021033D01*
X0196100Y0021033D01*
X0198114Y0017544D01*
X0198114Y0017544D01*
X0201200Y0014954D01*
X0204986Y0013576D01*
X0208434Y0013576D01*
X0204908Y0010050D01*
X0019450Y0010050D01*
X0014500Y0015000D01*
X0014142Y0015000D01*
X0013844Y0015297D02*
X0186008Y0015297D01*
X0185876Y0015318D02*
X0186622Y0015200D01*
X0186800Y0015200D01*
X0186800Y0019800D01*
X0182200Y0019800D01*
X0182200Y0019622D01*
X0182318Y0018876D01*
X0182552Y0018157D01*
X0182895Y0017484D01*
X0183339Y0016873D01*
X0183873Y0016339D01*
X0184484Y0015895D01*
X0185157Y0015552D01*
X0185876Y0015318D01*
X0186800Y0015297D02*
X0187200Y0015297D01*
X0187200Y0015200D02*
X0187378Y0015200D01*
X0188124Y0015318D01*
X0188843Y0015552D01*
X0189516Y0015895D01*
X0190127Y0016339D01*
X0190661Y0016873D01*
X0191105Y0017484D01*
X0191448Y0018157D01*
X0191682Y0018876D01*
X0191800Y0019622D01*
X0191800Y0019800D01*
X0187200Y0019800D01*
X0187200Y0020200D01*
X0186800Y0020200D01*
X0186800Y0024800D01*
X0186622Y0024800D01*
X0185876Y0024682D01*
X0185157Y0024448D01*
X0184484Y0024105D01*
X0183873Y0023661D01*
X0183339Y0023127D01*
X0182895Y0022516D01*
X0182552Y0021843D01*
X0182318Y0021124D01*
X0182200Y0020378D01*
X0182200Y0020200D01*
X0186800Y0020200D01*
X0186800Y0019800D01*
X0187200Y0019800D01*
X0187200Y0015200D01*
X0187992Y0015297D02*
X0200791Y0015297D01*
X0201200Y0014954D02*
X0201200Y0014954D01*
X0198886Y0016896D02*
X0190678Y0016896D01*
X0191558Y0018494D02*
X0197565Y0018494D01*
X0198114Y0017544D02*
X0198114Y0017544D01*
X0196642Y0020093D02*
X0187200Y0020093D01*
X0187200Y0020200D02*
X0191800Y0020200D01*
X0191800Y0020378D01*
X0191682Y0021124D01*
X0191448Y0021843D01*
X0191105Y0022516D01*
X0190661Y0023127D01*
X0190127Y0023661D01*
X0189516Y0024105D01*
X0188843Y0024448D01*
X0188124Y0024682D01*
X0187378Y0024800D01*
X0187200Y0024800D01*
X0187200Y0020200D01*
X0186800Y0020093D02*
X0181607Y0020093D01*
X0181607Y0020916D02*
X0180906Y0022610D01*
X0179610Y0023906D01*
X0177916Y0024607D01*
X0176084Y0024607D01*
X0174390Y0023906D01*
X0173094Y0022610D01*
X0172393Y0020916D01*
X0172393Y0019084D01*
X0173094Y0017390D01*
X0174390Y0016094D01*
X0176084Y0015393D01*
X0177916Y0015393D01*
X0179610Y0016094D01*
X0180906Y0017390D01*
X0181607Y0019084D01*
X0181607Y0020916D01*
X0181286Y0021691D02*
X0182503Y0021691D01*
X0183502Y0023290D02*
X0180226Y0023290D01*
X0181832Y0026942D02*
X0183157Y0026393D01*
X0184592Y0026393D01*
X0185918Y0026942D01*
X0186933Y0027957D01*
X0187482Y0029282D01*
X0187482Y0030717D01*
X0186933Y0032043D01*
X0185918Y0033058D01*
X0184592Y0033607D01*
X0183157Y0033607D01*
X0181832Y0033058D01*
X0180817Y0032043D01*
X0180268Y0030717D01*
X0180268Y0029282D01*
X0180817Y0027957D01*
X0181832Y0026942D01*
X0182931Y0026487D02*
X0158588Y0026487D01*
X0158418Y0026317D02*
X0159433Y0027332D01*
X0159982Y0028657D01*
X0159982Y0030092D01*
X0159433Y0031418D01*
X0158418Y0032433D01*
X0157092Y0032982D01*
X0155657Y0032982D01*
X0154332Y0032433D01*
X0153317Y0031418D01*
X0152768Y0030092D01*
X0152768Y0028657D01*
X0153317Y0027332D01*
X0154332Y0026317D01*
X0155657Y0025768D01*
X0157092Y0025768D01*
X0158418Y0026317D01*
X0157916Y0024607D02*
X0156084Y0024607D01*
X0154390Y0023906D01*
X0153094Y0022610D01*
X0152393Y0020916D01*
X0152393Y0019084D01*
X0153094Y0017390D01*
X0154390Y0016094D01*
X0156084Y0015393D01*
X0157916Y0015393D01*
X0159610Y0016094D01*
X0160906Y0017390D01*
X0161607Y0019084D01*
X0161607Y0020916D01*
X0160906Y0022610D01*
X0159610Y0023906D01*
X0157916Y0024607D01*
X0160226Y0023290D02*
X0163774Y0023290D01*
X0164390Y0023906D02*
X0163094Y0022610D01*
X0162393Y0020916D01*
X0162393Y0019084D01*
X0163094Y0017390D01*
X0164390Y0016094D01*
X0166084Y0015393D01*
X0167916Y0015393D01*
X0169610Y0016094D01*
X0170906Y0017390D01*
X0171607Y0019084D01*
X0171607Y0020916D01*
X0170906Y0022610D01*
X0169610Y0023906D01*
X0167916Y0024607D01*
X0166084Y0024607D01*
X0164390Y0023906D01*
X0162714Y0021691D02*
X0161286Y0021691D01*
X0161607Y0020093D02*
X0162393Y0020093D01*
X0162637Y0018494D02*
X0161363Y0018494D01*
X0160411Y0016896D02*
X0163589Y0016896D01*
X0170411Y0016896D02*
X0173589Y0016896D01*
X0172637Y0018494D02*
X0171363Y0018494D01*
X0171607Y0020093D02*
X0172393Y0020093D01*
X0172714Y0021691D02*
X0171286Y0021691D01*
X0170226Y0023290D02*
X0173774Y0023290D01*
X0180764Y0028085D02*
X0159745Y0028085D01*
X0159982Y0029684D02*
X0180268Y0029684D01*
X0180502Y0031282D02*
X0159489Y0031282D01*
X0157337Y0032881D02*
X0181655Y0032881D01*
X0186095Y0032881D02*
X0198620Y0032881D01*
X0198114Y0032456D02*
X0198114Y0032456D01*
X0197436Y0031282D02*
X0187248Y0031282D01*
X0187482Y0029684D02*
X0196513Y0029684D01*
X0196100Y0028967D02*
X0196100Y0028967D01*
X0195944Y0028085D02*
X0186986Y0028085D01*
X0184819Y0026487D02*
X0195662Y0026487D01*
X0195420Y0024888D02*
X0025701Y0024888D01*
X0025886Y0025044D02*
X0025886Y0025044D01*
X0026719Y0026487D02*
X0053605Y0026487D01*
X0053786Y0026412D02*
X0052467Y0026958D01*
X0051458Y0027967D01*
X0050912Y0029286D01*
X0050912Y0030714D01*
X0051458Y0032033D01*
X0052467Y0033042D01*
X0053786Y0033588D01*
X0055214Y0033588D01*
X0056533Y0033042D01*
X0057542Y0032033D01*
X0058088Y0030714D01*
X0058088Y0029286D01*
X0057542Y0027967D01*
X0056533Y0026958D01*
X0055214Y0026412D01*
X0053786Y0026412D01*
X0055395Y0026487D02*
X0154162Y0026487D01*
X0153005Y0028085D02*
X0057591Y0028085D01*
X0058088Y0029684D02*
X0152768Y0029684D01*
X0153261Y0031282D02*
X0057853Y0031282D01*
X0056694Y0032881D02*
X0155413Y0032881D01*
X0161458Y0035467D02*
X0160912Y0036786D01*
X0160912Y0038214D01*
X0161458Y0039533D01*
X0162467Y0040542D01*
X0162643Y0040615D01*
X0162457Y0040692D01*
X0161442Y0041707D01*
X0160893Y0043032D01*
X0160893Y0044467D01*
X0161442Y0045793D01*
X0162457Y0046808D01*
X0163782Y0047357D01*
X0165217Y0047357D01*
X0166543Y0046808D01*
X0167558Y0045793D01*
X0168107Y0044467D01*
X0168107Y0043032D01*
X0167558Y0041707D01*
X0166543Y0040692D01*
X0166357Y0040615D01*
X0166533Y0040542D01*
X0167542Y0039533D01*
X0168088Y0038214D01*
X0168088Y0036786D01*
X0167542Y0035467D01*
X0166533Y0034458D01*
X0165214Y0033912D01*
X0163786Y0033912D01*
X0162467Y0034458D01*
X0161458Y0035467D01*
X0161205Y0036078D02*
X0027969Y0036078D01*
X0027900Y0036467D02*
X0027900Y0036467D01*
X0027202Y0037676D02*
X0160912Y0037676D01*
X0161351Y0039275D02*
X0026280Y0039275D01*
X0025886Y0039956D02*
X0025886Y0039956D01*
X0024793Y0040873D02*
X0128525Y0040873D01*
X0128707Y0040692D02*
X0130032Y0040143D01*
X0131467Y0040143D01*
X0132793Y0040692D01*
X0133808Y0041707D01*
X0134357Y0043032D01*
X0134357Y0044467D01*
X0133808Y0045793D01*
X0132793Y0046808D01*
X0131467Y0047357D01*
X0130032Y0047357D01*
X0128707Y0046808D01*
X0127692Y0045793D01*
X0127143Y0044467D01*
X0127143Y0043032D01*
X0127692Y0041707D01*
X0128707Y0040692D01*
X0127375Y0042472D02*
X0022888Y0042472D01*
X0022800Y0042546D02*
X0022800Y0042546D01*
X0021602Y0044070D02*
X0127143Y0044070D01*
X0127641Y0045669D02*
X0021607Y0045669D01*
X0021047Y0047268D02*
X0129816Y0047268D01*
X0131684Y0047268D02*
X0146066Y0047268D01*
X0146282Y0047357D02*
X0144957Y0046808D01*
X0143942Y0045793D01*
X0143393Y0044467D01*
X0143393Y0043032D01*
X0143942Y0041707D01*
X0144957Y0040692D01*
X0146282Y0040143D01*
X0147717Y0040143D01*
X0149043Y0040692D01*
X0150058Y0041707D01*
X0150607Y0043032D01*
X0150607Y0044467D01*
X0150058Y0045793D01*
X0149043Y0046808D01*
X0147717Y0047357D01*
X0146282Y0047357D01*
X0147934Y0047268D02*
X0163566Y0047268D01*
X0165434Y0047268D02*
X0175893Y0047268D01*
X0175893Y0046782D02*
X0175893Y0048217D01*
X0176442Y0049543D01*
X0176899Y0050000D01*
X0176442Y0050457D01*
X0175893Y0051782D01*
X0175893Y0053217D01*
X0176442Y0054543D01*
X0177457Y0055558D01*
X0178782Y0056107D01*
X0180217Y0056107D01*
X0181543Y0055558D01*
X0182558Y0054543D01*
X0183107Y0053217D01*
X0183107Y0051782D01*
X0182558Y0050457D01*
X0182101Y0050000D01*
X0182558Y0049543D01*
X0183107Y0048217D01*
X0183107Y0046782D01*
X0182558Y0045457D01*
X0181543Y0044442D01*
X0180217Y0043893D01*
X0178782Y0043893D01*
X0177457Y0044442D01*
X0176442Y0045457D01*
X0175893Y0046782D01*
X0176354Y0045669D02*
X0167609Y0045669D01*
X0168107Y0044070D02*
X0178354Y0044070D01*
X0180646Y0044070D02*
X0203767Y0044070D01*
X0203958Y0044533D02*
X0203412Y0043214D01*
X0203412Y0041786D01*
X0203958Y0040467D01*
X0204967Y0039458D01*
X0206286Y0038912D01*
X0207714Y0038912D01*
X0209033Y0039458D01*
X0210042Y0040467D01*
X0210588Y0041786D01*
X0210588Y0043214D01*
X0210042Y0044533D01*
X0209033Y0045542D01*
X0207714Y0046088D01*
X0206286Y0046088D01*
X0204967Y0045542D01*
X0203958Y0044533D01*
X0205274Y0045669D02*
X0182646Y0045669D01*
X0183107Y0047268D02*
X0211950Y0047268D01*
X0211950Y0048866D02*
X0182838Y0048866D01*
X0182561Y0050465D02*
X0195814Y0050465D01*
X0195817Y0050457D02*
X0196832Y0049442D01*
X0198157Y0048893D01*
X0199592Y0048893D01*
X0200918Y0049442D01*
X0201933Y0050457D01*
X0202482Y0051782D01*
X0202482Y0053217D01*
X0201933Y0054543D01*
X0200918Y0055558D01*
X0199592Y0056107D01*
X0198157Y0056107D01*
X0196832Y0055558D01*
X0195817Y0054543D01*
X0195268Y0053217D01*
X0195268Y0051782D01*
X0195817Y0050457D01*
X0195268Y0052063D02*
X0183107Y0052063D01*
X0182923Y0053662D02*
X0195452Y0053662D01*
X0196534Y0055260D02*
X0181841Y0055260D01*
X0183782Y0058893D02*
X0185217Y0058893D01*
X0186543Y0059442D01*
X0187558Y0060457D01*
X0188107Y0061782D01*
X0188107Y0063217D01*
X0187558Y0064543D01*
X0186543Y0065558D01*
X0185217Y0066107D01*
X0183782Y0066107D01*
X0182457Y0065558D01*
X0181442Y0064543D01*
X0180893Y0063217D01*
X0180893Y0061782D01*
X0181442Y0060457D01*
X0182457Y0059442D01*
X0183782Y0058893D01*
X0181843Y0060056D02*
X0154519Y0060056D01*
X0154033Y0060542D02*
X0152714Y0061088D01*
X0151286Y0061088D01*
X0149967Y0060542D01*
X0148958Y0059533D01*
X0148412Y0058214D01*
X0148412Y0056786D01*
X0148958Y0055467D01*
X0149967Y0054458D01*
X0151286Y0053912D01*
X0152714Y0053912D01*
X0154033Y0054458D01*
X0155042Y0055467D01*
X0155588Y0056786D01*
X0155588Y0058214D01*
X0155042Y0059533D01*
X0154033Y0060542D01*
X0155487Y0058457D02*
X0211950Y0058457D01*
X0211950Y0056859D02*
X0155588Y0056859D01*
X0154835Y0055260D02*
X0177159Y0055260D01*
X0176077Y0053662D02*
X0133043Y0053662D01*
X0133418Y0053817D02*
X0134433Y0054832D01*
X0134982Y0056157D01*
X0134982Y0057592D01*
X0134433Y0058918D01*
X0133418Y0059933D01*
X0132092Y0060482D01*
X0130657Y0060482D01*
X0129332Y0059933D01*
X0128317Y0058918D01*
X0127768Y0057592D01*
X0127768Y0056157D01*
X0128317Y0054832D01*
X0129332Y0053817D01*
X0130657Y0053268D01*
X0132092Y0053268D01*
X0133418Y0053817D01*
X0134610Y0055260D02*
X0149165Y0055260D01*
X0148412Y0056859D02*
X0134982Y0056859D01*
X0134624Y0058457D02*
X0148513Y0058457D01*
X0149481Y0060056D02*
X0133122Y0060056D01*
X0129628Y0060056D02*
X0058732Y0060056D01*
X0058732Y0059907D02*
X0058183Y0058582D01*
X0057168Y0057567D01*
X0055842Y0057018D01*
X0054407Y0057018D01*
X0053251Y0057497D01*
X0053183Y0057332D01*
X0052168Y0056317D01*
X0050842Y0055768D01*
X0049407Y0055768D01*
X0048082Y0056317D01*
X0047067Y0057332D01*
X0046518Y0058657D01*
X0046518Y0060092D01*
X0047067Y0061418D01*
X0048082Y0062433D01*
X0049407Y0062982D01*
X0050842Y0062982D01*
X0051999Y0062503D01*
X0052067Y0062668D01*
X0053082Y0063683D01*
X0054407Y0064232D01*
X0055842Y0064232D01*
X0057168Y0063683D01*
X0058183Y0062668D01*
X0058732Y0061342D01*
X0058732Y0059907D01*
X0058058Y0058457D02*
X0128126Y0058457D01*
X0127768Y0056859D02*
X0052710Y0056859D01*
X0047540Y0056859D02*
X0021217Y0056859D01*
X0020906Y0057610D02*
X0019610Y0058906D01*
X0017916Y0059607D01*
X0016084Y0059607D01*
X0014390Y0058906D01*
X0013094Y0057610D01*
X0012393Y0055916D01*
X0012393Y0054084D01*
X0013094Y0052390D01*
X0014390Y0051094D01*
X0016084Y0050393D01*
X0017916Y0050393D01*
X0019610Y0051094D01*
X0020906Y0052390D01*
X0021607Y0054084D01*
X0021607Y0055916D01*
X0020906Y0057610D01*
X0020058Y0058457D02*
X0046601Y0058457D01*
X0046518Y0060056D02*
X0012050Y0060056D01*
X0012050Y0061654D02*
X0013830Y0061654D01*
X0014390Y0061094D02*
X0016084Y0060393D01*
X0017916Y0060393D01*
X0019610Y0061094D01*
X0020906Y0062390D01*
X0021607Y0064084D01*
X0021607Y0065916D01*
X0020906Y0067610D01*
X0019610Y0068906D01*
X0017916Y0069607D01*
X0016084Y0069607D01*
X0014390Y0068906D01*
X0013094Y0067610D01*
X0012393Y0065916D01*
X0012393Y0064084D01*
X0013094Y0062390D01*
X0014390Y0061094D01*
X0013942Y0058457D02*
X0012050Y0058457D01*
X0012050Y0056859D02*
X0012783Y0056859D01*
X0012393Y0055260D02*
X0012050Y0055260D01*
X0012050Y0053662D02*
X0012568Y0053662D01*
X0012050Y0052063D02*
X0013422Y0052063D01*
X0012050Y0050465D02*
X0015911Y0050465D01*
X0018089Y0050465D02*
X0176439Y0050465D01*
X0176162Y0048866D02*
X0019649Y0048866D01*
X0020578Y0052063D02*
X0175893Y0052063D01*
X0180946Y0061654D02*
X0058603Y0061654D01*
X0057599Y0063253D02*
X0180907Y0063253D01*
X0181750Y0064851D02*
X0021607Y0064851D01*
X0021386Y0066450D02*
X0211950Y0066450D01*
X0211950Y0068048D02*
X0168696Y0068048D01*
X0169043Y0068192D02*
X0170058Y0069207D01*
X0170607Y0070532D01*
X0170607Y0071967D01*
X0170058Y0073293D01*
X0169043Y0074308D01*
X0167717Y0074857D01*
X0166282Y0074857D01*
X0164957Y0074308D01*
X0163942Y0073293D01*
X0163393Y0071967D01*
X0163393Y0070532D01*
X0163942Y0069207D01*
X0164957Y0068192D01*
X0166282Y0067643D01*
X0167717Y0067643D01*
X0169043Y0068192D01*
X0170240Y0069647D02*
X0211950Y0069647D01*
X0211950Y0071245D02*
X0170607Y0071245D01*
X0170244Y0072844D02*
X0191582Y0072844D01*
X0191458Y0072967D02*
X0192467Y0071958D01*
X0193786Y0071412D01*
X0195214Y0071412D01*
X0196533Y0071958D01*
X0197542Y0072967D01*
X0198088Y0074286D01*
X0198088Y0075714D01*
X0197542Y0077033D01*
X0196533Y0078042D01*
X0195214Y0078588D01*
X0193786Y0078588D01*
X0192467Y0078042D01*
X0191458Y0077033D01*
X0190912Y0075714D01*
X0190912Y0074286D01*
X0191458Y0072967D01*
X0190912Y0074442D02*
X0168719Y0074442D01*
X0165281Y0074442D02*
X0021771Y0074442D01*
X0021800Y0074622D02*
X0021800Y0074800D01*
X0017200Y0074800D01*
X0017200Y0075200D01*
X0016800Y0075200D01*
X0016800Y0079800D01*
X0016622Y0079800D01*
X0015876Y0079682D01*
X0015157Y0079448D01*
X0014484Y0079105D01*
X0013873Y0078661D01*
X0013339Y0078127D01*
X0012895Y0077516D01*
X0012552Y0076843D01*
X0012318Y0076124D01*
X0012200Y0075378D01*
X0012200Y0075200D01*
X0016800Y0075200D01*
X0016800Y0074800D01*
X0012200Y0074800D01*
X0012200Y0074622D01*
X0012318Y0073876D01*
X0012552Y0073157D01*
X0012895Y0072484D01*
X0013339Y0071873D01*
X0013873Y0071339D01*
X0014484Y0070895D01*
X0015157Y0070552D01*
X0015876Y0070318D01*
X0016622Y0070200D01*
X0016800Y0070200D01*
X0016800Y0074800D01*
X0017200Y0074800D01*
X0017200Y0070200D01*
X0017378Y0070200D01*
X0018124Y0070318D01*
X0018843Y0070552D01*
X0019516Y0070895D01*
X0020127Y0071339D01*
X0020661Y0071873D01*
X0021105Y0072484D01*
X0021448Y0073157D01*
X0021682Y0073876D01*
X0021800Y0074622D01*
X0021800Y0075200D02*
X0021800Y0075378D01*
X0021682Y0076124D01*
X0021448Y0076843D01*
X0021105Y0077516D01*
X0020661Y0078127D01*
X0020127Y0078661D01*
X0019516Y0079105D01*
X0018843Y0079448D01*
X0018124Y0079682D01*
X0017378Y0079800D01*
X0017200Y0079800D01*
X0017200Y0075200D01*
X0021800Y0075200D01*
X0021695Y0076041D02*
X0023358Y0076041D01*
X0023317Y0076082D02*
X0024332Y0075067D01*
X0025657Y0074518D01*
X0027092Y0074518D01*
X0028418Y0075067D01*
X0029433Y0076082D01*
X0029982Y0077407D01*
X0029982Y0078842D01*
X0029433Y0080168D01*
X0028418Y0081183D01*
X0027092Y0081732D01*
X0026857Y0081732D01*
X0026857Y0082592D01*
X0026308Y0083918D01*
X0025293Y0084933D01*
X0023967Y0085482D01*
X0022532Y0085482D01*
X0021607Y0085099D01*
X0021607Y0085916D01*
X0020906Y0087610D01*
X0019610Y0088906D01*
X0017916Y0089607D01*
X0016084Y0089607D01*
X0014390Y0088906D01*
X0013094Y0087610D01*
X0012393Y0085916D01*
X0012393Y0084084D01*
X0013094Y0082390D01*
X0014390Y0081094D01*
X0016084Y0080393D01*
X0017916Y0080393D01*
X0019610Y0081094D01*
X0019652Y0081136D01*
X0020192Y0079832D01*
X0021207Y0078817D01*
X0022532Y0078268D01*
X0022768Y0078268D01*
X0022768Y0077407D01*
X0023317Y0076082D01*
X0022768Y0077639D02*
X0021016Y0077639D01*
X0020786Y0079238D02*
X0019256Y0079238D01*
X0018987Y0080836D02*
X0019776Y0080836D01*
X0017200Y0079238D02*
X0016800Y0079238D01*
X0016800Y0077639D02*
X0017200Y0077639D01*
X0017200Y0076041D02*
X0016800Y0076041D01*
X0016800Y0074442D02*
X0017200Y0074442D01*
X0017200Y0072844D02*
X0016800Y0072844D01*
X0016800Y0071245D02*
X0017200Y0071245D01*
X0019998Y0071245D02*
X0163393Y0071245D01*
X0163756Y0072844D02*
X0021288Y0072844D01*
X0020467Y0068048D02*
X0165304Y0068048D01*
X0163760Y0069647D02*
X0012050Y0069647D01*
X0012050Y0071245D02*
X0014002Y0071245D01*
X0012712Y0072844D02*
X0012050Y0072844D01*
X0012050Y0074442D02*
X0012229Y0074442D01*
X0012305Y0076041D02*
X0012050Y0076041D01*
X0012050Y0077639D02*
X0012984Y0077639D01*
X0012050Y0079238D02*
X0014744Y0079238D01*
X0015013Y0080836D02*
X0012050Y0080836D01*
X0012050Y0082435D02*
X0013076Y0082435D01*
X0012414Y0084033D02*
X0012050Y0084033D01*
X0012050Y0085632D02*
X0012393Y0085632D01*
X0012050Y0087230D02*
X0012937Y0087230D01*
X0012050Y0088829D02*
X0014313Y0088829D01*
X0014390Y0091094D02*
X0016084Y0090393D01*
X0017916Y0090393D01*
X0019610Y0091094D01*
X0020906Y0092390D01*
X0021607Y0094084D01*
X0021607Y0095916D01*
X0020906Y0097610D01*
X0019610Y0098906D01*
X0017916Y0099607D01*
X0016084Y0099607D01*
X0014390Y0098906D01*
X0013094Y0097610D01*
X0012393Y0095916D01*
X0012393Y0094084D01*
X0013094Y0092390D01*
X0014390Y0091094D01*
X0013459Y0092026D02*
X0012050Y0092026D01*
X0012050Y0093624D02*
X0012583Y0093624D01*
X0012393Y0095223D02*
X0012050Y0095223D01*
X0012050Y0096821D02*
X0012768Y0096821D01*
X0012050Y0098420D02*
X0013904Y0098420D01*
X0012050Y0100018D02*
X0053288Y0100018D01*
X0053082Y0099933D02*
X0052067Y0098918D01*
X0051518Y0097592D01*
X0051518Y0096157D01*
X0052067Y0094832D01*
X0053082Y0093817D01*
X0054407Y0093268D01*
X0055842Y0093268D01*
X0057168Y0093817D01*
X0058183Y0094832D01*
X0058732Y0096157D01*
X0058732Y0097592D01*
X0058183Y0098918D01*
X0057168Y0099933D01*
X0055842Y0100482D01*
X0054407Y0100482D01*
X0053082Y0099933D01*
X0051861Y0098420D02*
X0020096Y0098420D01*
X0021232Y0096821D02*
X0051518Y0096821D01*
X0051905Y0095223D02*
X0021607Y0095223D01*
X0021417Y0093624D02*
X0053547Y0093624D01*
X0056703Y0093624D02*
X0083630Y0093624D01*
X0083993Y0094979D02*
X0083263Y0092256D01*
X0083263Y0089437D01*
X0083993Y0086714D01*
X0085402Y0084273D01*
X0087395Y0082280D01*
X0089836Y0080871D01*
X0092559Y0080141D01*
X0095378Y0080141D01*
X0098101Y0080871D01*
X0100542Y0082280D01*
X0102535Y0084273D01*
X0103944Y0086714D01*
X0104674Y0089437D01*
X0104674Y0092256D01*
X0103944Y0094979D01*
X0102535Y0097420D01*
X0100542Y0099413D01*
X0098101Y0100822D01*
X0095378Y0101552D01*
X0092559Y0101552D01*
X0089836Y0100822D01*
X0087395Y0099413D01*
X0085402Y0097420D01*
X0083993Y0094979D01*
X0084134Y0095223D02*
X0058345Y0095223D01*
X0058732Y0096821D02*
X0085056Y0096821D01*
X0086402Y0098420D02*
X0058389Y0098420D01*
X0056962Y0100018D02*
X0088444Y0100018D01*
X0083263Y0092026D02*
X0020541Y0092026D01*
X0017999Y0090427D02*
X0083263Y0090427D01*
X0083426Y0088829D02*
X0019687Y0088829D01*
X0021063Y0087230D02*
X0083854Y0087230D01*
X0084618Y0085632D02*
X0021607Y0085632D01*
X0026193Y0084033D02*
X0085642Y0084033D01*
X0087240Y0082435D02*
X0026857Y0082435D01*
X0028765Y0080836D02*
X0089964Y0080836D01*
X0097973Y0080836D02*
X0202393Y0080836D01*
X0202393Y0080916D02*
X0202393Y0079084D01*
X0203094Y0077390D01*
X0204390Y0076094D01*
X0206084Y0075393D01*
X0207916Y0075393D01*
X0209610Y0076094D01*
X0210906Y0077390D01*
X0211607Y0079084D01*
X0211607Y0080916D01*
X0210906Y0082610D01*
X0209610Y0083906D01*
X0207916Y0084607D01*
X0206084Y0084607D01*
X0204390Y0083906D01*
X0203094Y0082610D01*
X0202393Y0080916D01*
X0203022Y0082435D02*
X0172009Y0082435D01*
X0171533Y0081958D02*
X0172542Y0082967D01*
X0173088Y0084286D01*
X0173088Y0085714D01*
X0172542Y0087033D01*
X0171533Y0088042D01*
X0170214Y0088588D01*
X0168786Y0088588D01*
X0167467Y0088042D01*
X0166458Y0087033D01*
X0165912Y0085714D01*
X0165912Y0084286D01*
X0166458Y0082967D01*
X0167467Y0081958D01*
X0168786Y0081412D01*
X0170214Y0081412D01*
X0171533Y0081958D01*
X0172983Y0084033D02*
X0204698Y0084033D01*
X0205507Y0085632D02*
X0173088Y0085632D01*
X0172344Y0087230D02*
X0203254Y0087230D01*
X0203094Y0087390D02*
X0204390Y0086094D01*
X0206084Y0085393D01*
X0207916Y0085393D01*
X0209610Y0086094D01*
X0210906Y0087390D01*
X0211607Y0089084D01*
X0211607Y0090916D01*
X0210906Y0092610D01*
X0209610Y0093906D01*
X0207916Y0094607D01*
X0206084Y0094607D01*
X0204390Y0093906D01*
X0203094Y0092610D01*
X0202393Y0090916D01*
X0202393Y0089084D01*
X0203094Y0087390D01*
X0202498Y0088829D02*
X0104511Y0088829D01*
X0104674Y0090427D02*
X0180846Y0090427D01*
X0180817Y0090457D02*
X0181832Y0089442D01*
X0183157Y0088893D01*
X0184592Y0088893D01*
X0185918Y0089442D01*
X0186933Y0090457D01*
X0187482Y0091782D01*
X0187482Y0093217D01*
X0186933Y0094543D01*
X0185918Y0095558D01*
X0184592Y0096107D01*
X0183157Y0096107D01*
X0181832Y0095558D01*
X0180817Y0094543D01*
X0180268Y0093217D01*
X0180268Y0091782D01*
X0180817Y0090457D01*
X0180268Y0092026D02*
X0104674Y0092026D01*
X0104307Y0093624D02*
X0180436Y0093624D01*
X0181497Y0095223D02*
X0167297Y0095223D01*
X0167542Y0095467D02*
X0168088Y0096786D01*
X0168088Y0098214D01*
X0167542Y0099533D01*
X0166533Y0100542D01*
X0165214Y0101088D01*
X0163786Y0101088D01*
X0162467Y0100542D01*
X0161458Y0099533D01*
X0160912Y0098214D01*
X0160912Y0096786D01*
X0161458Y0095467D01*
X0162467Y0094458D01*
X0163786Y0093912D01*
X0165214Y0093912D01*
X0166533Y0094458D01*
X0167542Y0095467D01*
X0168088Y0096821D02*
X0203663Y0096821D01*
X0203094Y0097390D02*
X0204390Y0096094D01*
X0206084Y0095393D01*
X0207916Y0095393D01*
X0209610Y0096094D01*
X0210906Y0097390D01*
X0211607Y0099084D01*
X0211607Y0100916D01*
X0210906Y0102610D01*
X0209610Y0103906D01*
X0207916Y0104607D01*
X0206084Y0104607D01*
X0204390Y0103906D01*
X0203094Y0102610D01*
X0202393Y0100916D01*
X0202393Y0099084D01*
X0203094Y0097390D01*
X0202668Y0098420D02*
X0168003Y0098420D01*
X0167056Y0100018D02*
X0202393Y0100018D01*
X0202683Y0101617D02*
X0020132Y0101617D01*
X0019610Y0101094D02*
X0017916Y0100393D01*
X0016084Y0100393D01*
X0014390Y0101094D01*
X0013094Y0102390D01*
X0012393Y0104084D01*
X0012393Y0105916D01*
X0013094Y0107610D01*
X0014390Y0108906D01*
X0016084Y0109607D01*
X0017916Y0109607D01*
X0019610Y0108906D01*
X0020906Y0107610D01*
X0021607Y0105916D01*
X0021607Y0104084D01*
X0020906Y0102390D01*
X0019610Y0101094D01*
X0021247Y0103215D02*
X0203700Y0103215D01*
X0204390Y0106094D02*
X0206084Y0105393D01*
X0207916Y0105393D01*
X0209610Y0106094D01*
X0210906Y0107390D01*
X0211607Y0109084D01*
X0211607Y0110916D01*
X0210906Y0112610D01*
X0209610Y0113906D01*
X0207916Y0114607D01*
X0206084Y0114607D01*
X0204390Y0113906D01*
X0203094Y0112610D01*
X0202393Y0110916D01*
X0202393Y0109084D01*
X0203094Y0107390D01*
X0204390Y0106094D01*
X0204072Y0106412D02*
X0142715Y0106412D01*
X0142714Y0106412D02*
X0144033Y0106958D01*
X0145042Y0107967D01*
X0145588Y0109286D01*
X0145588Y0110714D01*
X0145042Y0112033D01*
X0144033Y0113042D01*
X0142714Y0113588D01*
X0141286Y0113588D01*
X0139967Y0113042D01*
X0138958Y0112033D01*
X0138412Y0110714D01*
X0138412Y0109286D01*
X0138958Y0107967D01*
X0139967Y0106958D01*
X0141286Y0106412D01*
X0142714Y0106412D01*
X0141285Y0106412D02*
X0021402Y0106412D01*
X0021607Y0104814D02*
X0211950Y0104814D01*
X0211950Y0106412D02*
X0209928Y0106412D01*
X0211163Y0108011D02*
X0211950Y0108011D01*
X0211950Y0109609D02*
X0211607Y0109609D01*
X0211486Y0111208D02*
X0211950Y0111208D01*
X0211950Y0112806D02*
X0210709Y0112806D01*
X0211950Y0114405D02*
X0208404Y0114405D01*
X0207916Y0115393D02*
X0209610Y0116094D01*
X0210906Y0117390D01*
X0211607Y0119084D01*
X0211607Y0120916D01*
X0210906Y0122610D01*
X0209610Y0123906D01*
X0207916Y0124607D01*
X0206084Y0124607D01*
X0204390Y0123906D01*
X0203094Y0122610D01*
X0202393Y0120916D01*
X0202393Y0119084D01*
X0203094Y0117390D01*
X0204390Y0116094D01*
X0206084Y0115393D01*
X0207916Y0115393D01*
X0209390Y0116003D02*
X0211950Y0116003D01*
X0211950Y0117602D02*
X0210993Y0117602D01*
X0211607Y0119201D02*
X0211950Y0119201D01*
X0211950Y0120799D02*
X0211607Y0120799D01*
X0211950Y0122398D02*
X0210994Y0122398D01*
X0211950Y0123996D02*
X0209392Y0123996D01*
X0208843Y0125552D02*
X0209516Y0125895D01*
X0210127Y0126339D01*
X0210661Y0126873D01*
X0211105Y0127484D01*
X0211448Y0128157D01*
X0211682Y0128876D01*
X0211800Y0129622D01*
X0211800Y0129800D01*
X0207200Y0129800D01*
X0207200Y0130200D01*
X0206800Y0130200D01*
X0206800Y0134800D01*
X0206622Y0134800D01*
X0205876Y0134682D01*
X0205157Y0134448D01*
X0204484Y0134105D01*
X0203873Y0133661D01*
X0203339Y0133127D01*
X0202895Y0132516D01*
X0202552Y0131843D01*
X0202318Y0131124D01*
X0202200Y0130378D01*
X0202200Y0130200D01*
X0206800Y0130200D01*
X0206800Y0129800D01*
X0202200Y0129800D01*
X0202200Y0129622D01*
X0202318Y0128876D01*
X0202552Y0128157D01*
X0202895Y0127484D01*
X0203339Y0126873D01*
X0203873Y0126339D01*
X0204484Y0125895D01*
X0205157Y0125552D01*
X0205876Y0125318D01*
X0206622Y0125200D01*
X0206800Y0125200D01*
X0206800Y0129800D01*
X0207200Y0129800D01*
X0207200Y0125200D01*
X0207378Y0125200D01*
X0208124Y0125318D01*
X0208843Y0125552D01*
X0208927Y0125595D02*
X0211950Y0125595D01*
X0211950Y0127193D02*
X0210894Y0127193D01*
X0211654Y0128792D02*
X0211950Y0128792D01*
X0211800Y0130200D02*
X0211800Y0130378D01*
X0211682Y0131124D01*
X0211448Y0131843D01*
X0211105Y0132516D01*
X0210661Y0133127D01*
X0210127Y0133661D01*
X0209516Y0134105D01*
X0208843Y0134448D01*
X0208124Y0134682D01*
X0207378Y0134800D01*
X0207200Y0134800D01*
X0207200Y0130200D01*
X0211800Y0130200D01*
X0211798Y0130390D02*
X0211950Y0130390D01*
X0211950Y0131989D02*
X0211374Y0131989D01*
X0211950Y0133587D02*
X0210201Y0133587D01*
X0211950Y0135186D02*
X0021607Y0135186D01*
X0021607Y0135916D02*
X0021607Y0134084D01*
X0020906Y0132390D01*
X0019610Y0131094D01*
X0017916Y0130393D01*
X0016084Y0130393D01*
X0014390Y0131094D01*
X0013094Y0132390D01*
X0012393Y0134084D01*
X0012393Y0135916D01*
X0013094Y0137610D01*
X0014390Y0138906D01*
X0016084Y0139607D01*
X0017916Y0139607D01*
X0019610Y0138906D01*
X0020906Y0137610D01*
X0021607Y0135916D01*
X0021248Y0136784D02*
X0087887Y0136784D01*
X0087467Y0136958D02*
X0088786Y0136412D01*
X0090214Y0136412D01*
X0091533Y0136958D01*
X0092542Y0137967D01*
X0093088Y0139286D01*
X0093088Y0140714D01*
X0092542Y0142033D01*
X0091533Y0143042D01*
X0090214Y0143588D01*
X0088786Y0143588D01*
X0087467Y0143042D01*
X0086458Y0142033D01*
X0085912Y0140714D01*
X0085912Y0139286D01*
X0086458Y0137967D01*
X0087467Y0136958D01*
X0086286Y0138383D02*
X0020133Y0138383D01*
X0021401Y0133587D02*
X0120486Y0133587D01*
X0120192Y0133293D02*
X0119643Y0131967D01*
X0119643Y0130532D01*
X0120192Y0129207D01*
X0121207Y0128192D01*
X0122532Y0127643D01*
X0123967Y0127643D01*
X0125293Y0128192D01*
X0126308Y0129207D01*
X0126857Y0130532D01*
X0126857Y0131967D01*
X0126308Y0133293D01*
X0125293Y0134308D01*
X0123967Y0134857D01*
X0122532Y0134857D01*
X0121207Y0134308D01*
X0120192Y0133293D01*
X0119652Y0131989D02*
X0020504Y0131989D01*
X0019610Y0128906D02*
X0017916Y0129607D01*
X0016084Y0129607D01*
X0014390Y0128906D01*
X0013094Y0127610D01*
X0012393Y0125916D01*
X0012393Y0124084D01*
X0013094Y0122390D01*
X0014390Y0121094D01*
X0016084Y0120393D01*
X0017916Y0120393D01*
X0019610Y0121094D01*
X0020906Y0122390D01*
X0021607Y0124084D01*
X0021607Y0125916D01*
X0020906Y0127610D01*
X0019610Y0128906D01*
X0019724Y0128792D02*
X0104643Y0128792D01*
X0104643Y0128842D02*
X0104643Y0127407D01*
X0105192Y0126082D01*
X0106207Y0125067D01*
X0107532Y0124518D01*
X0108967Y0124518D01*
X0110293Y0125067D01*
X0111308Y0126082D01*
X0111857Y0127407D01*
X0111857Y0128842D01*
X0111308Y0130168D01*
X0110293Y0131183D01*
X0108967Y0131732D01*
X0107532Y0131732D01*
X0106207Y0131183D01*
X0105192Y0130168D01*
X0104643Y0128842D01*
X0104732Y0127193D02*
X0021078Y0127193D01*
X0021607Y0125595D02*
X0037595Y0125595D01*
X0037467Y0125542D02*
X0036458Y0124533D01*
X0035912Y0123214D01*
X0035912Y0121786D01*
X0036458Y0120467D01*
X0037467Y0119458D01*
X0038786Y0118912D01*
X0040214Y0118912D01*
X0041533Y0119458D01*
X0042542Y0120467D01*
X0043088Y0121786D01*
X0043088Y0123214D01*
X0042542Y0124533D01*
X0041533Y0125542D01*
X0040214Y0126088D01*
X0038786Y0126088D01*
X0037467Y0125542D01*
X0036236Y0123996D02*
X0021571Y0123996D01*
X0020909Y0122398D02*
X0035912Y0122398D01*
X0036321Y0120799D02*
X0034427Y0120799D01*
X0034043Y0121183D02*
X0035058Y0120168D01*
X0035607Y0118842D01*
X0035607Y0117407D01*
X0035058Y0116082D01*
X0034043Y0115067D01*
X0032717Y0114518D01*
X0031282Y0114518D01*
X0029957Y0115067D01*
X0028942Y0116082D01*
X0028393Y0117407D01*
X0028393Y0118842D01*
X0028942Y0120168D01*
X0029957Y0121183D01*
X0031282Y0121732D01*
X0032717Y0121732D01*
X0034043Y0121183D01*
X0035459Y0119201D02*
X0038089Y0119201D01*
X0040911Y0119201D02*
X0202393Y0119201D01*
X0202393Y0120799D02*
X0042679Y0120799D01*
X0043088Y0122398D02*
X0203006Y0122398D01*
X0204608Y0123996D02*
X0042764Y0123996D01*
X0041405Y0125595D02*
X0105679Y0125595D01*
X0105414Y0130390D02*
X0012050Y0130390D01*
X0012050Y0128792D02*
X0014276Y0128792D01*
X0012922Y0127193D02*
X0012050Y0127193D01*
X0012050Y0125595D02*
X0012393Y0125595D01*
X0012429Y0123996D02*
X0012050Y0123996D01*
X0012050Y0122398D02*
X0013091Y0122398D01*
X0012050Y0120799D02*
X0015103Y0120799D01*
X0016084Y0119607D02*
X0014390Y0118906D01*
X0013094Y0117610D01*
X0012393Y0115916D01*
X0012393Y0114084D01*
X0013094Y0112390D01*
X0014390Y0111094D01*
X0016084Y0110393D01*
X0017916Y0110393D01*
X0019610Y0111094D01*
X0020906Y0112390D01*
X0021607Y0114084D01*
X0021607Y0115916D01*
X0020906Y0117610D01*
X0019610Y0118906D01*
X0017916Y0119607D01*
X0016084Y0119607D01*
X0015102Y0119201D02*
X0012050Y0119201D01*
X0012050Y0117602D02*
X0013091Y0117602D01*
X0012429Y0116003D02*
X0012050Y0116003D01*
X0012050Y0114405D02*
X0012393Y0114405D01*
X0012050Y0112806D02*
X0012922Y0112806D01*
X0012050Y0111208D02*
X0014277Y0111208D01*
X0012050Y0109609D02*
X0126039Y0109609D01*
X0125817Y0109832D02*
X0126832Y0108817D01*
X0128157Y0108268D01*
X0129592Y0108268D01*
X0130918Y0108817D01*
X0131933Y0109832D01*
X0132482Y0111157D01*
X0132482Y0112592D01*
X0131933Y0113918D01*
X0130918Y0114933D01*
X0129592Y0115482D01*
X0128157Y0115482D01*
X0126832Y0114933D01*
X0125817Y0113918D01*
X0125268Y0112592D01*
X0125268Y0111157D01*
X0125817Y0109832D01*
X0125268Y0111208D02*
X0019723Y0111208D01*
X0021078Y0112806D02*
X0125357Y0112806D01*
X0126304Y0114405D02*
X0021607Y0114405D01*
X0021571Y0116003D02*
X0029020Y0116003D01*
X0028393Y0117602D02*
X0020909Y0117602D01*
X0018898Y0119201D02*
X0028541Y0119201D01*
X0029573Y0120799D02*
X0018897Y0120799D01*
X0013496Y0131989D02*
X0012050Y0131989D01*
X0012050Y0133587D02*
X0012599Y0133587D01*
X0012393Y0135186D02*
X0012050Y0135186D01*
X0012050Y0136784D02*
X0012752Y0136784D01*
X0012050Y0138383D02*
X0013867Y0138383D01*
X0012050Y0139981D02*
X0085912Y0139981D01*
X0086271Y0141580D02*
X0012050Y0141580D01*
X0012050Y0143178D02*
X0087796Y0143178D01*
X0091204Y0143178D02*
X0153225Y0143178D01*
X0153317Y0142957D02*
X0154332Y0141942D01*
X0155657Y0141393D01*
X0157092Y0141393D01*
X0158418Y0141942D01*
X0159433Y0142957D01*
X0159982Y0144282D01*
X0159982Y0145717D01*
X0159433Y0147043D01*
X0158418Y0148058D01*
X0157092Y0148607D01*
X0155657Y0148607D01*
X0154332Y0148058D01*
X0153317Y0147043D01*
X0152768Y0145717D01*
X0152768Y0144282D01*
X0153317Y0142957D01*
X0152768Y0144777D02*
X0012050Y0144777D01*
X0012050Y0146375D02*
X0014109Y0146375D01*
X0014390Y0146094D02*
X0016084Y0145393D01*
X0017916Y0145393D01*
X0019610Y0146094D01*
X0020906Y0147390D01*
X0021607Y0149084D01*
X0021607Y0150916D01*
X0020906Y0152610D01*
X0019610Y0153906D01*
X0017916Y0154607D01*
X0016084Y0154607D01*
X0014390Y0153906D01*
X0013094Y0152610D01*
X0012393Y0150916D01*
X0012393Y0149084D01*
X0013094Y0147390D01*
X0014390Y0146094D01*
X0012853Y0147974D02*
X0012050Y0147974D01*
X0012050Y0149572D02*
X0012393Y0149572D01*
X0012498Y0151171D02*
X0012050Y0151171D01*
X0012050Y0152769D02*
X0013254Y0152769D01*
X0012050Y0154368D02*
X0015506Y0154368D01*
X0016084Y0155393D02*
X0014390Y0156094D01*
X0013094Y0157390D01*
X0012393Y0159084D01*
X0012393Y0160916D01*
X0013094Y0162610D01*
X0014390Y0163906D01*
X0016084Y0164607D01*
X0017916Y0164607D01*
X0019610Y0163906D01*
X0020906Y0162610D01*
X0021607Y0160916D01*
X0021607Y0159084D01*
X0020906Y0157390D01*
X0019610Y0156094D01*
X0017916Y0155393D01*
X0016084Y0155393D01*
X0014699Y0155966D02*
X0012050Y0155966D01*
X0012050Y0157565D02*
X0013022Y0157565D01*
X0012393Y0159163D02*
X0012050Y0159163D01*
X0012050Y0160762D02*
X0012393Y0160762D01*
X0012050Y0162360D02*
X0012991Y0162360D01*
X0012050Y0163959D02*
X0014519Y0163959D01*
X0015687Y0165557D02*
X0012050Y0165557D01*
X0012050Y0167156D02*
X0013329Y0167156D01*
X0013094Y0167390D02*
X0014390Y0166094D01*
X0016084Y0165393D01*
X0017916Y0165393D01*
X0019610Y0166094D01*
X0020906Y0167390D01*
X0021607Y0169084D01*
X0021607Y0170916D01*
X0020906Y0172610D01*
X0019610Y0173906D01*
X0017916Y0174607D01*
X0016084Y0174607D01*
X0014390Y0173906D01*
X0013094Y0172610D01*
X0012393Y0170916D01*
X0012393Y0169084D01*
X0013094Y0167390D01*
X0012529Y0168754D02*
X0012050Y0168754D01*
X0012050Y0170353D02*
X0012393Y0170353D01*
X0012050Y0171951D02*
X0012822Y0171951D01*
X0012050Y0173550D02*
X0014035Y0173550D01*
X0012050Y0175148D02*
X0211950Y0175148D01*
X0211950Y0173550D02*
X0209965Y0173550D01*
X0209610Y0173906D02*
X0207916Y0174607D01*
X0206084Y0174607D01*
X0204390Y0173906D01*
X0203094Y0172610D01*
X0202393Y0170916D01*
X0202393Y0169084D01*
X0203094Y0167390D01*
X0204390Y0166094D01*
X0206084Y0165393D01*
X0207916Y0165393D01*
X0209610Y0166094D01*
X0210906Y0167390D01*
X0211607Y0169084D01*
X0211607Y0170916D01*
X0210906Y0172610D01*
X0209610Y0173906D01*
X0209610Y0176094D02*
X0207916Y0175393D01*
X0206084Y0175393D01*
X0204390Y0176094D01*
X0203094Y0177390D01*
X0202393Y0179084D01*
X0202393Y0180916D01*
X0203094Y0182610D01*
X0204390Y0183906D01*
X0206084Y0184607D01*
X0207916Y0184607D01*
X0209610Y0183906D01*
X0210906Y0182610D01*
X0211607Y0180916D01*
X0211607Y0179084D01*
X0210906Y0177390D01*
X0209610Y0176094D01*
X0210262Y0176747D02*
X0211950Y0176747D01*
X0211950Y0178345D02*
X0211301Y0178345D01*
X0211607Y0179944D02*
X0211950Y0179944D01*
X0211950Y0181542D02*
X0211348Y0181542D01*
X0211950Y0183141D02*
X0210374Y0183141D01*
X0211950Y0184739D02*
X0012050Y0184739D01*
X0012050Y0183141D02*
X0013626Y0183141D01*
X0013094Y0182610D02*
X0014390Y0183906D01*
X0016084Y0184607D01*
X0017916Y0184607D01*
X0019610Y0183906D01*
X0020906Y0182610D01*
X0021607Y0180916D01*
X0021607Y0179084D01*
X0020906Y0177390D01*
X0019610Y0176094D01*
X0017916Y0175393D01*
X0016084Y0175393D01*
X0014390Y0176094D01*
X0013094Y0177390D01*
X0012393Y0179084D01*
X0012393Y0180916D01*
X0013094Y0182610D01*
X0012652Y0181542D02*
X0012050Y0181542D01*
X0012050Y0179944D02*
X0012393Y0179944D01*
X0012699Y0178345D02*
X0012050Y0178345D01*
X0012050Y0176747D02*
X0013738Y0176747D01*
X0019965Y0173550D02*
X0204035Y0173550D01*
X0202822Y0171951D02*
X0021178Y0171951D01*
X0021607Y0170353D02*
X0202393Y0170353D01*
X0202529Y0168754D02*
X0037722Y0168754D01*
X0038183Y0168293D02*
X0037168Y0169308D01*
X0035842Y0169857D01*
X0034407Y0169857D01*
X0033082Y0169308D01*
X0032067Y0168293D01*
X0031518Y0166967D01*
X0031518Y0165532D01*
X0032067Y0164207D01*
X0033082Y0163192D01*
X0034407Y0162643D01*
X0035842Y0162643D01*
X0037168Y0163192D01*
X0038183Y0164207D01*
X0038732Y0165532D01*
X0038732Y0166967D01*
X0038183Y0168293D01*
X0038654Y0167156D02*
X0156581Y0167156D01*
X0156458Y0167033D02*
X0155912Y0165714D01*
X0155912Y0164286D01*
X0156458Y0162967D01*
X0157467Y0161958D01*
X0158786Y0161412D01*
X0160214Y0161412D01*
X0161533Y0161958D01*
X0162542Y0162967D01*
X0163088Y0164286D01*
X0163088Y0165714D01*
X0162542Y0167033D01*
X0161533Y0168042D01*
X0160214Y0168588D01*
X0158786Y0168588D01*
X0157467Y0168042D01*
X0156458Y0167033D01*
X0155912Y0165557D02*
X0055495Y0165557D01*
X0055533Y0165542D02*
X0054214Y0166088D01*
X0052786Y0166088D01*
X0051467Y0165542D01*
X0050458Y0164533D01*
X0049912Y0163214D01*
X0049912Y0161786D01*
X0050458Y0160467D01*
X0051467Y0159458D01*
X0052786Y0158912D01*
X0054214Y0158912D01*
X0055533Y0159458D01*
X0056542Y0160467D01*
X0057088Y0161786D01*
X0057088Y0163214D01*
X0056542Y0164533D01*
X0055533Y0165542D01*
X0056780Y0163959D02*
X0156047Y0163959D01*
X0157065Y0162360D02*
X0057088Y0162360D01*
X0056664Y0160762D02*
X0187786Y0160762D01*
X0187768Y0160717D02*
X0187768Y0159282D01*
X0188317Y0157957D01*
X0189332Y0156942D01*
X0190657Y0156393D01*
X0192092Y0156393D01*
X0193418Y0156942D01*
X0194433Y0157957D01*
X0194982Y0159282D01*
X0194982Y0160717D01*
X0194433Y0162043D01*
X0193418Y0163058D01*
X0192092Y0163607D01*
X0190657Y0163607D01*
X0189332Y0163058D01*
X0188317Y0162043D01*
X0187768Y0160717D01*
X0187817Y0159163D02*
X0054821Y0159163D01*
X0054033Y0158042D02*
X0052714Y0158588D01*
X0051286Y0158588D01*
X0049967Y0158042D01*
X0048958Y0157033D01*
X0048412Y0155714D01*
X0048412Y0154286D01*
X0048958Y0152967D01*
X0049967Y0151958D01*
X0051286Y0151412D01*
X0052714Y0151412D01*
X0054033Y0151958D01*
X0055042Y0152967D01*
X0055588Y0154286D01*
X0055588Y0155714D01*
X0055042Y0157033D01*
X0054033Y0158042D01*
X0054510Y0157565D02*
X0188709Y0157565D01*
X0188634Y0162360D02*
X0161935Y0162360D01*
X0162953Y0163959D02*
X0211950Y0163959D01*
X0211950Y0165557D02*
X0208313Y0165557D01*
X0205687Y0165557D02*
X0163088Y0165557D01*
X0162419Y0167156D02*
X0203329Y0167156D01*
X0194964Y0160762D02*
X0211950Y0160762D01*
X0211950Y0162360D02*
X0194116Y0162360D01*
X0194933Y0159163D02*
X0211950Y0159163D01*
X0211950Y0157565D02*
X0194041Y0157565D01*
X0203094Y0152610D02*
X0202393Y0150916D01*
X0202393Y0149084D01*
X0203094Y0147390D01*
X0204390Y0146094D01*
X0206084Y0145393D01*
X0207916Y0145393D01*
X0209610Y0146094D01*
X0210906Y0147390D01*
X0211607Y0149084D01*
X0211607Y0150916D01*
X0210906Y0152610D01*
X0209610Y0153906D01*
X0207916Y0154607D01*
X0206084Y0154607D01*
X0204390Y0153906D01*
X0203094Y0152610D01*
X0203254Y0152769D02*
X0179305Y0152769D01*
X0179033Y0153042D02*
X0180042Y0152033D01*
X0180588Y0150714D01*
X0180588Y0149286D01*
X0180042Y0147967D01*
X0179033Y0146958D01*
X0177714Y0146412D01*
X0176286Y0146412D01*
X0174967Y0146958D01*
X0173958Y0147967D01*
X0173412Y0149286D01*
X0173412Y0150714D01*
X0173958Y0152033D01*
X0174967Y0153042D01*
X0176286Y0153588D01*
X0177714Y0153588D01*
X0179033Y0153042D01*
X0180399Y0151171D02*
X0202498Y0151171D01*
X0202393Y0149572D02*
X0180588Y0149572D01*
X0180045Y0147974D02*
X0202853Y0147974D01*
X0204109Y0146375D02*
X0159710Y0146375D01*
X0159982Y0144777D02*
X0206475Y0144777D01*
X0206622Y0144800D02*
X0205876Y0144682D01*
X0205157Y0144448D01*
X0204484Y0144105D01*
X0203873Y0143661D01*
X0203339Y0143127D01*
X0202895Y0142516D01*
X0202552Y0141843D01*
X0202318Y0141124D01*
X0202200Y0140378D01*
X0202200Y0140200D01*
X0206800Y0140200D01*
X0206800Y0144800D01*
X0206622Y0144800D01*
X0206800Y0144777D02*
X0207200Y0144777D01*
X0207200Y0144800D02*
X0207200Y0140200D01*
X0206800Y0140200D01*
X0206800Y0139800D01*
X0202200Y0139800D01*
X0202200Y0139622D01*
X0202318Y0138876D01*
X0202552Y0138157D01*
X0202895Y0137484D01*
X0203339Y0136873D01*
X0203873Y0136339D01*
X0204484Y0135895D01*
X0205157Y0135552D01*
X0205876Y0135318D01*
X0206622Y0135200D01*
X0206800Y0135200D01*
X0206800Y0139800D01*
X0207200Y0139800D01*
X0207200Y0140200D01*
X0211800Y0140200D01*
X0211800Y0140378D01*
X0211682Y0141124D01*
X0211448Y0141843D01*
X0211105Y0142516D01*
X0210661Y0143127D01*
X0210127Y0143661D01*
X0209516Y0144105D01*
X0208843Y0144448D01*
X0208124Y0144682D01*
X0207378Y0144800D01*
X0207200Y0144800D01*
X0207525Y0144777D02*
X0211950Y0144777D01*
X0211950Y0146375D02*
X0209891Y0146375D01*
X0211147Y0147974D02*
X0211950Y0147974D01*
X0211950Y0149572D02*
X0211607Y0149572D01*
X0211502Y0151171D02*
X0211950Y0151171D01*
X0211950Y0152769D02*
X0210746Y0152769D01*
X0211950Y0154368D02*
X0208494Y0154368D01*
X0211950Y0155966D02*
X0098008Y0155966D01*
X0097714Y0156088D02*
X0096286Y0156088D01*
X0094967Y0155542D01*
X0093958Y0154533D01*
X0093412Y0153214D01*
X0093412Y0151786D01*
X0093958Y0150467D01*
X0094967Y0149458D01*
X0096286Y0148912D01*
X0097714Y0148912D01*
X0099033Y0149458D01*
X0100042Y0150467D01*
X0100588Y0151786D01*
X0100588Y0153214D01*
X0100042Y0154533D01*
X0099033Y0155542D01*
X0097714Y0156088D01*
X0095992Y0155966D02*
X0055484Y0155966D01*
X0055588Y0154368D02*
X0093890Y0154368D01*
X0093412Y0152769D02*
X0054844Y0152769D01*
X0049490Y0157565D02*
X0020978Y0157565D01*
X0021607Y0159163D02*
X0052179Y0159163D01*
X0050336Y0160762D02*
X0021607Y0160762D01*
X0021009Y0162360D02*
X0049912Y0162360D01*
X0050220Y0163959D02*
X0037935Y0163959D01*
X0038732Y0165557D02*
X0051505Y0165557D01*
X0048516Y0155966D02*
X0019301Y0155966D01*
X0018494Y0154368D02*
X0048412Y0154368D01*
X0049156Y0152769D02*
X0020746Y0152769D01*
X0021502Y0151171D02*
X0093667Y0151171D01*
X0094853Y0149572D02*
X0021607Y0149572D01*
X0021147Y0147974D02*
X0154248Y0147974D01*
X0153040Y0146375D02*
X0019891Y0146375D01*
X0019481Y0163959D02*
X0032315Y0163959D01*
X0031518Y0165557D02*
X0018313Y0165557D01*
X0020671Y0167156D02*
X0031596Y0167156D01*
X0032528Y0168754D02*
X0021471Y0168754D01*
X0020262Y0176747D02*
X0203738Y0176747D01*
X0202699Y0178345D02*
X0021301Y0178345D01*
X0021607Y0179944D02*
X0202393Y0179944D01*
X0202652Y0181542D02*
X0021348Y0181542D01*
X0020374Y0183141D02*
X0203626Y0183141D01*
X0204390Y0186094D02*
X0203094Y0187390D01*
X0202393Y0189084D01*
X0202393Y0190916D01*
X0203094Y0192610D01*
X0204390Y0193906D01*
X0206084Y0194607D01*
X0207916Y0194607D01*
X0209610Y0193906D01*
X0210906Y0192610D01*
X0211607Y0190916D01*
X0211607Y0189084D01*
X0210906Y0187390D01*
X0209610Y0186094D01*
X0207916Y0185393D01*
X0206084Y0185393D01*
X0204390Y0186094D01*
X0204147Y0186338D02*
X0019853Y0186338D01*
X0019610Y0186094D02*
X0020906Y0187390D01*
X0021607Y0189084D01*
X0021607Y0190916D01*
X0020906Y0192610D01*
X0019610Y0193906D01*
X0017916Y0194607D01*
X0016084Y0194607D01*
X0014390Y0193906D01*
X0013094Y0192610D01*
X0012393Y0190916D01*
X0012393Y0189084D01*
X0013094Y0187390D01*
X0014390Y0186094D01*
X0016084Y0185393D01*
X0017916Y0185393D01*
X0019610Y0186094D01*
X0021132Y0187937D02*
X0202868Y0187937D01*
X0202393Y0189535D02*
X0119109Y0189535D01*
X0119033Y0189458D02*
X0120042Y0190467D01*
X0120588Y0191786D01*
X0120588Y0193214D01*
X0120042Y0194533D01*
X0119033Y0195542D01*
X0117714Y0196088D01*
X0116286Y0196088D01*
X0114967Y0195542D01*
X0113958Y0194533D01*
X0113412Y0193214D01*
X0113412Y0191786D01*
X0113958Y0190467D01*
X0114967Y0189458D01*
X0116286Y0188912D01*
X0117714Y0188912D01*
X0119033Y0189458D01*
X0120318Y0191134D02*
X0202483Y0191134D01*
X0203217Y0192732D02*
X0120588Y0192732D01*
X0120126Y0194331D02*
X0205416Y0194331D01*
X0206084Y0195393D02*
X0204390Y0196094D01*
X0203094Y0197390D01*
X0202393Y0199084D01*
X0202393Y0200916D01*
X0203094Y0202610D01*
X0204390Y0203906D01*
X0206084Y0204607D01*
X0207916Y0204607D01*
X0209610Y0203906D01*
X0210906Y0202610D01*
X0211607Y0200916D01*
X0211607Y0199084D01*
X0210906Y0197390D01*
X0209610Y0196094D01*
X0207916Y0195393D01*
X0206084Y0195393D01*
X0204789Y0195929D02*
X0118098Y0195929D01*
X0115902Y0195929D02*
X0019211Y0195929D01*
X0019610Y0196094D02*
X0020906Y0197390D01*
X0021607Y0199084D01*
X0021607Y0200916D01*
X0020906Y0202610D01*
X0019610Y0203906D01*
X0017916Y0204607D01*
X0016084Y0204607D01*
X0014390Y0203906D01*
X0013094Y0202610D01*
X0012393Y0200916D01*
X0012393Y0199084D01*
X0013094Y0197390D01*
X0014390Y0196094D01*
X0016084Y0195393D01*
X0017916Y0195393D01*
X0019610Y0196094D01*
X0020963Y0197528D02*
X0203037Y0197528D01*
X0202393Y0199126D02*
X0021607Y0199126D01*
X0021607Y0200725D02*
X0202393Y0200725D01*
X0202976Y0202323D02*
X0021024Y0202323D01*
X0019571Y0203922D02*
X0099227Y0203922D01*
X0098942Y0204207D02*
X0099957Y0203192D01*
X0101282Y0202643D01*
X0102717Y0202643D01*
X0104043Y0203192D01*
X0105058Y0204207D01*
X0105607Y0205532D01*
X0105607Y0206967D01*
X0105058Y0208293D01*
X0104043Y0209308D01*
X0102717Y0209857D01*
X0101282Y0209857D01*
X0099957Y0209308D01*
X0098942Y0208293D01*
X0098393Y0206967D01*
X0098393Y0205532D01*
X0098942Y0204207D01*
X0098398Y0205520D02*
X0018224Y0205520D01*
X0017916Y0205393D02*
X0019610Y0206094D01*
X0020906Y0207390D01*
X0021607Y0209084D01*
X0021607Y0210916D01*
X0020906Y0212610D01*
X0019610Y0213906D01*
X0017916Y0214607D01*
X0016084Y0214607D01*
X0014390Y0213906D01*
X0013094Y0212610D01*
X0012393Y0210916D01*
X0012393Y0209084D01*
X0013094Y0207390D01*
X0014390Y0206094D01*
X0016084Y0205393D01*
X0017916Y0205393D01*
X0015776Y0205520D02*
X0012050Y0205520D01*
X0012050Y0203922D02*
X0014429Y0203922D01*
X0012976Y0202323D02*
X0012050Y0202323D01*
X0012050Y0200725D02*
X0012393Y0200725D01*
X0012393Y0199126D02*
X0012050Y0199126D01*
X0012050Y0197528D02*
X0013037Y0197528D01*
X0012050Y0195929D02*
X0014789Y0195929D01*
X0015416Y0194331D02*
X0012050Y0194331D01*
X0012050Y0192732D02*
X0013217Y0192732D01*
X0012483Y0191134D02*
X0012050Y0191134D01*
X0012050Y0189535D02*
X0012393Y0189535D01*
X0012050Y0187937D02*
X0012868Y0187937D01*
X0012050Y0186338D02*
X0014147Y0186338D01*
X0021607Y0189535D02*
X0114891Y0189535D01*
X0113682Y0191134D02*
X0021517Y0191134D01*
X0020783Y0192732D02*
X0113412Y0192732D01*
X0113874Y0194331D02*
X0018584Y0194331D01*
X0020634Y0207119D02*
X0098456Y0207119D01*
X0099366Y0208717D02*
X0021455Y0208717D01*
X0021607Y0210316D02*
X0202393Y0210316D01*
X0202393Y0210916D02*
X0202393Y0209084D01*
X0203094Y0207390D01*
X0204390Y0206094D01*
X0206084Y0205393D01*
X0207916Y0205393D01*
X0209610Y0206094D01*
X0210906Y0207390D01*
X0211607Y0209084D01*
X0211607Y0210916D01*
X0210906Y0212610D01*
X0209610Y0213906D01*
X0207916Y0214607D01*
X0206084Y0214607D01*
X0204390Y0213906D01*
X0203094Y0212610D01*
X0202393Y0210916D01*
X0202806Y0211914D02*
X0021194Y0211914D01*
X0020003Y0213513D02*
X0203997Y0213513D01*
X0204390Y0216094D02*
X0206084Y0215393D01*
X0207916Y0215393D01*
X0209610Y0216094D01*
X0210906Y0217390D01*
X0211607Y0219084D01*
X0211607Y0220916D01*
X0210906Y0222610D01*
X0209610Y0223906D01*
X0207916Y0224607D01*
X0206084Y0224607D01*
X0204390Y0223906D01*
X0203094Y0222610D01*
X0202393Y0220916D01*
X0202393Y0219084D01*
X0203094Y0217390D01*
X0204390Y0216094D01*
X0203775Y0216710D02*
X0055225Y0216710D01*
X0054610Y0216094D02*
X0055906Y0217390D01*
X0056607Y0219084D01*
X0056607Y0220916D01*
X0055906Y0222610D01*
X0054610Y0223906D01*
X0052916Y0224607D01*
X0051084Y0224607D01*
X0049390Y0223906D01*
X0048094Y0222610D01*
X0047393Y0220916D01*
X0047393Y0219084D01*
X0048094Y0217390D01*
X0049390Y0216094D01*
X0051084Y0215393D01*
X0052916Y0215393D01*
X0054610Y0216094D01*
X0056286Y0218308D02*
X0202714Y0218308D01*
X0202393Y0219907D02*
X0192670Y0219907D01*
X0194649Y0221505D02*
X0202637Y0221505D01*
X0203588Y0223104D02*
X0196209Y0223104D01*
X0195886Y0222544D02*
X0195886Y0222544D01*
X0197132Y0224702D02*
X0211950Y0224702D01*
X0211950Y0223104D02*
X0210412Y0223104D01*
X0211363Y0221505D02*
X0211950Y0221505D01*
X0211950Y0219907D02*
X0211607Y0219907D01*
X0211286Y0218308D02*
X0211950Y0218308D01*
X0211950Y0216710D02*
X0210225Y0216710D01*
X0211950Y0215111D02*
X0012050Y0215111D01*
X0012050Y0213513D02*
X0013997Y0213513D01*
X0012806Y0211914D02*
X0012050Y0211914D01*
X0012050Y0210316D02*
X0012393Y0210316D01*
X0012545Y0208717D02*
X0012050Y0208717D01*
X0012050Y0207119D02*
X0013366Y0207119D01*
X0016084Y0215393D02*
X0014390Y0216094D01*
X0013094Y0217390D01*
X0012393Y0219084D01*
X0012393Y0220916D01*
X0013094Y0222610D01*
X0014390Y0223906D01*
X0016084Y0224607D01*
X0017916Y0224607D01*
X0019610Y0223906D01*
X0020906Y0222610D01*
X0021607Y0220916D01*
X0021607Y0219084D01*
X0020906Y0217390D01*
X0019610Y0216094D01*
X0017916Y0215393D01*
X0016084Y0215393D01*
X0013775Y0216710D02*
X0012050Y0216710D01*
X0012050Y0218308D02*
X0012714Y0218308D01*
X0012393Y0219907D02*
X0012050Y0219907D01*
X0012050Y0221505D02*
X0012637Y0221505D01*
X0012246Y0223104D02*
X0013588Y0223104D01*
X0013844Y0224702D02*
X0066868Y0224702D01*
X0066052Y0226301D02*
X0060443Y0226301D01*
X0062041Y0227899D02*
X0065770Y0227899D01*
X0065489Y0229498D02*
X0063640Y0229498D01*
X0065238Y0231096D02*
X0065593Y0231096D01*
X0067791Y0223104D02*
X0055412Y0223104D01*
X0056363Y0221505D02*
X0069351Y0221505D01*
X0068114Y0222544D02*
X0068114Y0222544D01*
X0071200Y0219954D02*
X0071200Y0219954D01*
X0071330Y0219907D02*
X0056607Y0219907D01*
X0048775Y0216710D02*
X0045225Y0216710D01*
X0044610Y0216094D02*
X0045906Y0217390D01*
X0046607Y0219084D01*
X0046607Y0220916D01*
X0045906Y0222610D01*
X0044610Y0223906D01*
X0042916Y0224607D01*
X0041084Y0224607D01*
X0039390Y0223906D01*
X0038094Y0222610D01*
X0037393Y0220916D01*
X0037393Y0219084D01*
X0038094Y0217390D01*
X0039390Y0216094D01*
X0041084Y0215393D01*
X0042916Y0215393D01*
X0044610Y0216094D01*
X0046286Y0218308D02*
X0047714Y0218308D01*
X0047393Y0219907D02*
X0046607Y0219907D01*
X0046363Y0221505D02*
X0047637Y0221505D01*
X0048588Y0223104D02*
X0045412Y0223104D01*
X0038588Y0223104D02*
X0020412Y0223104D01*
X0021363Y0221505D02*
X0037637Y0221505D01*
X0037393Y0219907D02*
X0021607Y0219907D01*
X0021286Y0218308D02*
X0037714Y0218308D01*
X0038775Y0216710D02*
X0020225Y0216710D01*
X0082670Y0219907D02*
X0181330Y0219907D01*
X0181200Y0219954D02*
X0181200Y0219954D01*
X0179351Y0221505D02*
X0084649Y0221505D01*
X0085886Y0222544D02*
X0085886Y0222544D01*
X0086209Y0223104D02*
X0177791Y0223104D01*
X0178114Y0222544D02*
X0178114Y0222544D01*
X0176868Y0224702D02*
X0087132Y0224702D01*
X0087900Y0226033D02*
X0087900Y0226033D01*
X0087948Y0226301D02*
X0094184Y0226301D01*
X0094390Y0226094D02*
X0096084Y0225393D01*
X0097916Y0225393D01*
X0099610Y0226094D01*
X0100906Y0227390D01*
X0101607Y0229084D01*
X0101607Y0230916D01*
X0100906Y0232610D01*
X0099610Y0233906D01*
X0097916Y0234607D01*
X0096084Y0234607D01*
X0094390Y0233906D01*
X0093094Y0232610D01*
X0092393Y0230916D01*
X0092393Y0229084D01*
X0093094Y0227390D01*
X0094390Y0226094D01*
X0092883Y0227899D02*
X0088230Y0227899D01*
X0088511Y0229498D02*
X0092393Y0229498D01*
X0092467Y0231096D02*
X0088407Y0231096D01*
X0088125Y0232695D02*
X0093179Y0232695D01*
X0095326Y0234293D02*
X0087712Y0234293D01*
X0087900Y0233967D02*
X0087900Y0233967D01*
X0098674Y0234293D02*
X0105326Y0234293D01*
X0106084Y0234607D02*
X0104390Y0233906D01*
X0103094Y0232610D01*
X0102393Y0230916D01*
X0102393Y0229084D01*
X0103094Y0227390D01*
X0104390Y0226094D01*
X0106084Y0225393D01*
X0107916Y0225393D01*
X0109610Y0226094D01*
X0110906Y0227390D01*
X0111607Y0229084D01*
X0111607Y0230916D01*
X0110906Y0232610D01*
X0109610Y0233906D01*
X0107916Y0234607D01*
X0106084Y0234607D01*
X0108674Y0234293D02*
X0115326Y0234293D01*
X0116084Y0234607D02*
X0114390Y0233906D01*
X0113094Y0232610D01*
X0112393Y0230916D01*
X0112393Y0229084D01*
X0113094Y0227390D01*
X0114390Y0226094D01*
X0116084Y0225393D01*
X0117916Y0225393D01*
X0119610Y0226094D01*
X0120906Y0227390D01*
X0121607Y0229084D01*
X0121607Y0230916D01*
X0120906Y0232610D01*
X0119610Y0233906D01*
X0117916Y0234607D01*
X0116084Y0234607D01*
X0118674Y0234293D02*
X0124853Y0234293D01*
X0125157Y0234448D02*
X0124484Y0234105D01*
X0123873Y0233661D01*
X0123339Y0233127D01*
X0122895Y0232516D01*
X0122552Y0231843D01*
X0122318Y0231124D01*
X0122200Y0230378D01*
X0122200Y0230200D01*
X0126800Y0230200D01*
X0126800Y0234800D01*
X0126622Y0234800D01*
X0125876Y0234682D01*
X0125157Y0234448D01*
X0126800Y0234293D02*
X0127200Y0234293D01*
X0127200Y0234800D02*
X0127200Y0230200D01*
X0126800Y0230200D01*
X0126800Y0229800D01*
X0122200Y0229800D01*
X0122200Y0229622D01*
X0122318Y0228876D01*
X0122552Y0228157D01*
X0122895Y0227484D01*
X0123339Y0226873D01*
X0123873Y0226339D01*
X0124484Y0225895D01*
X0125157Y0225552D01*
X0125876Y0225318D01*
X0126622Y0225200D01*
X0126800Y0225200D01*
X0126800Y0229800D01*
X0127200Y0229800D01*
X0127200Y0230200D01*
X0131800Y0230200D01*
X0131800Y0230378D01*
X0131682Y0231124D01*
X0131448Y0231843D01*
X0131105Y0232516D01*
X0130661Y0233127D01*
X0130127Y0233661D01*
X0129516Y0234105D01*
X0128843Y0234448D01*
X0128124Y0234682D01*
X0127378Y0234800D01*
X0127200Y0234800D01*
X0129147Y0234293D02*
X0135326Y0234293D01*
X0136084Y0234607D02*
X0134390Y0233906D01*
X0133094Y0232610D01*
X0132393Y0230916D01*
X0132393Y0229084D01*
X0133094Y0227390D01*
X0134390Y0226094D01*
X0136084Y0225393D01*
X0137916Y0225393D01*
X0139610Y0226094D01*
X0140906Y0227390D01*
X0141607Y0229084D01*
X0141607Y0230916D01*
X0140906Y0232610D01*
X0139610Y0233906D01*
X0137916Y0234607D01*
X0136084Y0234607D01*
X0138674Y0234293D02*
X0144853Y0234293D01*
X0145157Y0234448D02*
X0144484Y0234105D01*
X0143873Y0233661D01*
X0143339Y0233127D01*
X0142895Y0232516D01*
X0142552Y0231843D01*
X0142318Y0231124D01*
X0142200Y0230378D01*
X0142200Y0230200D01*
X0146800Y0230200D01*
X0146800Y0234800D01*
X0146622Y0234800D01*
X0145876Y0234682D01*
X0145157Y0234448D01*
X0146800Y0234293D02*
X0147200Y0234293D01*
X0147200Y0234800D02*
X0147200Y0230200D01*
X0146800Y0230200D01*
X0146800Y0229800D01*
X0142200Y0229800D01*
X0142200Y0229622D01*
X0142318Y0228876D01*
X0142552Y0228157D01*
X0142895Y0227484D01*
X0143339Y0226873D01*
X0143873Y0226339D01*
X0144484Y0225895D01*
X0145157Y0225552D01*
X0145876Y0225318D01*
X0146622Y0225200D01*
X0146800Y0225200D01*
X0146800Y0229800D01*
X0147200Y0229800D01*
X0147200Y0230200D01*
X0151800Y0230200D01*
X0151800Y0230378D01*
X0151682Y0231124D01*
X0151448Y0231843D01*
X0151105Y0232516D01*
X0150661Y0233127D01*
X0150127Y0233661D01*
X0149516Y0234105D01*
X0148843Y0234448D01*
X0148124Y0234682D01*
X0147378Y0234800D01*
X0147200Y0234800D01*
X0149147Y0234293D02*
X0155326Y0234293D01*
X0156084Y0234607D02*
X0154390Y0233906D01*
X0153094Y0232610D01*
X0152393Y0230916D01*
X0152393Y0229084D01*
X0153094Y0227390D01*
X0154390Y0226094D01*
X0156084Y0225393D01*
X0157916Y0225393D01*
X0159610Y0226094D01*
X0160906Y0227390D01*
X0161607Y0229084D01*
X0161607Y0230916D01*
X0160906Y0232610D01*
X0159610Y0233906D01*
X0157916Y0234607D01*
X0156084Y0234607D01*
X0158674Y0234293D02*
X0165326Y0234293D01*
X0166084Y0234607D02*
X0164390Y0233906D01*
X0163094Y0232610D01*
X0162393Y0230916D01*
X0162393Y0229084D01*
X0163094Y0227390D01*
X0164390Y0226094D01*
X0166084Y0225393D01*
X0167916Y0225393D01*
X0169610Y0226094D01*
X0170906Y0227390D01*
X0171607Y0229084D01*
X0171607Y0230916D01*
X0170906Y0232610D01*
X0169610Y0233906D01*
X0167916Y0234607D01*
X0166084Y0234607D01*
X0168674Y0234293D02*
X0176288Y0234293D01*
X0176100Y0233967D02*
X0176100Y0233967D01*
X0175875Y0232695D02*
X0170821Y0232695D01*
X0171533Y0231096D02*
X0175593Y0231096D01*
X0175489Y0229498D02*
X0171607Y0229498D01*
X0171117Y0227899D02*
X0175770Y0227899D01*
X0176052Y0226301D02*
X0169816Y0226301D01*
X0164184Y0226301D02*
X0159816Y0226301D01*
X0161117Y0227899D02*
X0162883Y0227899D01*
X0162393Y0229498D02*
X0161607Y0229498D01*
X0161533Y0231096D02*
X0162467Y0231096D01*
X0163179Y0232695D02*
X0160821Y0232695D01*
X0153179Y0232695D02*
X0150975Y0232695D01*
X0151686Y0231096D02*
X0152467Y0231096D01*
X0151800Y0229800D02*
X0151800Y0229622D01*
X0151682Y0228876D01*
X0151448Y0228157D01*
X0151105Y0227484D01*
X0150661Y0226873D01*
X0150127Y0226339D01*
X0149516Y0225895D01*
X0148843Y0225552D01*
X0148124Y0225318D01*
X0147378Y0225200D01*
X0147200Y0225200D01*
X0147200Y0229800D01*
X0151800Y0229800D01*
X0151780Y0229498D02*
X0152393Y0229498D01*
X0152883Y0227899D02*
X0151317Y0227899D01*
X0150075Y0226301D02*
X0154184Y0226301D01*
X0147200Y0226301D02*
X0146800Y0226301D01*
X0146800Y0227899D02*
X0147200Y0227899D01*
X0147200Y0229498D02*
X0146800Y0229498D01*
X0146800Y0231096D02*
X0147200Y0231096D01*
X0147200Y0232695D02*
X0146800Y0232695D01*
X0143025Y0232695D02*
X0140821Y0232695D01*
X0141533Y0231096D02*
X0142314Y0231096D01*
X0142220Y0229498D02*
X0141607Y0229498D01*
X0141117Y0227899D02*
X0142683Y0227899D01*
X0143925Y0226301D02*
X0139816Y0226301D01*
X0134184Y0226301D02*
X0130075Y0226301D01*
X0130127Y0226339D02*
X0130661Y0226873D01*
X0131105Y0227484D01*
X0131448Y0228157D01*
X0131682Y0228876D01*
X0131800Y0229622D01*
X0131800Y0229800D01*
X0127200Y0229800D01*
X0127200Y0225200D01*
X0127378Y0225200D01*
X0128124Y0225318D01*
X0128843Y0225552D01*
X0129516Y0225895D01*
X0130127Y0226339D01*
X0131317Y0227899D02*
X0132883Y0227899D01*
X0132393Y0229498D02*
X0131780Y0229498D01*
X0131686Y0231096D02*
X0132467Y0231096D01*
X0133179Y0232695D02*
X0130975Y0232695D01*
X0127200Y0232695D02*
X0126800Y0232695D01*
X0126800Y0231096D02*
X0127200Y0231096D01*
X0127200Y0229498D02*
X0126800Y0229498D01*
X0126800Y0227899D02*
X0127200Y0227899D01*
X0127200Y0226301D02*
X0126800Y0226301D01*
X0123925Y0226301D02*
X0119816Y0226301D01*
X0121117Y0227899D02*
X0122683Y0227899D01*
X0122220Y0229498D02*
X0121607Y0229498D01*
X0121533Y0231096D02*
X0122314Y0231096D01*
X0123025Y0232695D02*
X0120821Y0232695D01*
X0113179Y0232695D02*
X0110821Y0232695D01*
X0111533Y0231096D02*
X0112467Y0231096D01*
X0112393Y0229498D02*
X0111607Y0229498D01*
X0111117Y0227899D02*
X0112883Y0227899D01*
X0114184Y0226301D02*
X0109816Y0226301D01*
X0104184Y0226301D02*
X0099816Y0226301D01*
X0101117Y0227899D02*
X0102883Y0227899D01*
X0102393Y0229498D02*
X0101607Y0229498D01*
X0101533Y0231096D02*
X0102467Y0231096D01*
X0103179Y0232695D02*
X0100821Y0232695D01*
X0082800Y0219954D02*
X0082800Y0219954D01*
X0104634Y0208717D02*
X0202545Y0208717D01*
X0203366Y0207119D02*
X0105544Y0207119D01*
X0105602Y0205520D02*
X0205776Y0205520D01*
X0204429Y0203922D02*
X0104773Y0203922D01*
X0100110Y0154368D02*
X0205506Y0154368D01*
X0206800Y0143178D02*
X0207200Y0143178D01*
X0207200Y0141580D02*
X0206800Y0141580D01*
X0206800Y0139981D02*
X0093088Y0139981D01*
X0092729Y0141580D02*
X0155207Y0141580D01*
X0157543Y0141580D02*
X0202466Y0141580D01*
X0203390Y0143178D02*
X0159525Y0143178D01*
X0158502Y0147974D02*
X0173955Y0147974D01*
X0173412Y0149572D02*
X0099147Y0149572D01*
X0100333Y0151171D02*
X0173601Y0151171D01*
X0174695Y0152769D02*
X0100588Y0152769D01*
X0092714Y0138383D02*
X0202478Y0138383D01*
X0203428Y0136784D02*
X0091113Y0136784D01*
X0111086Y0130390D02*
X0119702Y0130390D01*
X0120607Y0128792D02*
X0111857Y0128792D01*
X0111768Y0127193D02*
X0203106Y0127193D01*
X0202346Y0128792D02*
X0125893Y0128792D01*
X0126798Y0130390D02*
X0202202Y0130390D01*
X0202626Y0131989D02*
X0126848Y0131989D01*
X0126014Y0133587D02*
X0203799Y0133587D01*
X0206800Y0133587D02*
X0207200Y0133587D01*
X0207200Y0131989D02*
X0206800Y0131989D01*
X0206800Y0130390D02*
X0207200Y0130390D01*
X0207200Y0128792D02*
X0206800Y0128792D01*
X0206800Y0127193D02*
X0207200Y0127193D01*
X0207200Y0125595D02*
X0206800Y0125595D01*
X0205073Y0125595D02*
X0110821Y0125595D01*
X0131446Y0114405D02*
X0147143Y0114405D01*
X0147143Y0114467D02*
X0147143Y0113032D01*
X0147692Y0111707D01*
X0148707Y0110692D01*
X0150032Y0110143D01*
X0151467Y0110143D01*
X0152793Y0110692D01*
X0153250Y0111149D01*
X0153707Y0110692D01*
X0155032Y0110143D01*
X0156467Y0110143D01*
X0157793Y0110692D01*
X0158808Y0111707D01*
X0159357Y0113032D01*
X0159357Y0114467D01*
X0158808Y0115793D01*
X0157793Y0116808D01*
X0156467Y0117357D01*
X0155032Y0117357D01*
X0153707Y0116808D01*
X0153250Y0116351D01*
X0152793Y0116808D01*
X0151467Y0117357D01*
X0150032Y0117357D01*
X0148707Y0116808D01*
X0147692Y0115793D01*
X0147143Y0114467D01*
X0147237Y0112806D02*
X0144268Y0112806D01*
X0145383Y0111208D02*
X0148191Y0111208D01*
X0147902Y0116003D02*
X0034980Y0116003D01*
X0035607Y0117602D02*
X0203007Y0117602D01*
X0204610Y0116003D02*
X0158598Y0116003D01*
X0159357Y0114405D02*
X0205596Y0114405D01*
X0203291Y0112806D02*
X0159263Y0112806D01*
X0158309Y0111208D02*
X0202514Y0111208D01*
X0202393Y0109609D02*
X0145588Y0109609D01*
X0145060Y0108011D02*
X0202837Y0108011D01*
X0210300Y0103215D02*
X0211950Y0103215D01*
X0211950Y0101617D02*
X0211317Y0101617D01*
X0211607Y0100018D02*
X0211950Y0100018D01*
X0211950Y0098420D02*
X0211332Y0098420D01*
X0211950Y0096821D02*
X0210337Y0096821D01*
X0211950Y0095223D02*
X0186253Y0095223D01*
X0187314Y0093624D02*
X0204109Y0093624D01*
X0202852Y0092026D02*
X0187482Y0092026D01*
X0186904Y0090427D02*
X0202393Y0090427D01*
X0208493Y0085632D02*
X0211950Y0085632D01*
X0211950Y0087230D02*
X0210746Y0087230D01*
X0211502Y0088829D02*
X0211950Y0088829D01*
X0211950Y0090427D02*
X0211607Y0090427D01*
X0211950Y0092026D02*
X0211148Y0092026D01*
X0211950Y0093624D02*
X0209891Y0093624D01*
X0209302Y0084033D02*
X0211950Y0084033D01*
X0211950Y0082435D02*
X0210978Y0082435D01*
X0211607Y0080836D02*
X0211950Y0080836D01*
X0211950Y0079238D02*
X0211607Y0079238D01*
X0211950Y0077639D02*
X0211009Y0077639D01*
X0211950Y0076041D02*
X0209480Y0076041D01*
X0211950Y0074442D02*
X0198088Y0074442D01*
X0197953Y0076041D02*
X0204520Y0076041D01*
X0202991Y0077639D02*
X0196935Y0077639D01*
X0197418Y0072844D02*
X0211950Y0072844D01*
X0211950Y0064851D02*
X0201625Y0064851D01*
X0201933Y0064543D02*
X0200918Y0065558D01*
X0199592Y0066107D01*
X0198157Y0066107D01*
X0196832Y0065558D01*
X0195817Y0064543D01*
X0195268Y0063217D01*
X0195268Y0061782D01*
X0195817Y0060457D01*
X0196832Y0059442D01*
X0198157Y0058893D01*
X0199592Y0058893D01*
X0200918Y0059442D01*
X0201933Y0060457D01*
X0202482Y0061782D01*
X0202482Y0063217D01*
X0201933Y0064543D01*
X0202468Y0063253D02*
X0211950Y0063253D01*
X0211950Y0061654D02*
X0202429Y0061654D01*
X0201532Y0060056D02*
X0211950Y0060056D01*
X0211950Y0055260D02*
X0201216Y0055260D01*
X0202298Y0053662D02*
X0211950Y0053662D01*
X0211950Y0052063D02*
X0202482Y0052063D01*
X0201936Y0050465D02*
X0211950Y0050465D01*
X0211950Y0045669D02*
X0208726Y0045669D01*
X0210233Y0044070D02*
X0211950Y0044070D01*
X0211950Y0042472D02*
X0210588Y0042472D01*
X0210210Y0040873D02*
X0211950Y0040873D01*
X0211950Y0039275D02*
X0208590Y0039275D01*
X0209964Y0036078D02*
X0211950Y0036078D01*
X0211950Y0037676D02*
X0168088Y0037676D01*
X0167795Y0036078D02*
X0204036Y0036078D01*
X0205410Y0039275D02*
X0167649Y0039275D01*
X0166725Y0040873D02*
X0203790Y0040873D01*
X0203412Y0042472D02*
X0167875Y0042472D01*
X0162275Y0040873D02*
X0149225Y0040873D01*
X0150375Y0042472D02*
X0161125Y0042472D01*
X0160893Y0044070D02*
X0150607Y0044070D01*
X0150109Y0045669D02*
X0161391Y0045669D01*
X0162446Y0034479D02*
X0028251Y0034479D01*
X0028533Y0032881D02*
X0052306Y0032881D01*
X0051147Y0031282D02*
X0028385Y0031282D01*
X0028103Y0029684D02*
X0050912Y0029684D01*
X0051409Y0028085D02*
X0027642Y0028085D01*
X0027900Y0028533D02*
X0027900Y0028533D01*
X0023796Y0023290D02*
X0073066Y0023290D01*
X0072467Y0023042D02*
X0071458Y0022033D01*
X0070912Y0020714D01*
X0070912Y0019286D01*
X0071458Y0017967D01*
X0072467Y0016958D01*
X0073786Y0016412D01*
X0075214Y0016412D01*
X0076533Y0016958D01*
X0077542Y0017967D01*
X0078088Y0019286D01*
X0078088Y0020714D01*
X0077542Y0022033D01*
X0076533Y0023042D01*
X0075214Y0023588D01*
X0073786Y0023588D01*
X0072467Y0023042D01*
X0071317Y0021691D02*
X0020704Y0021691D01*
X0022800Y0022454D02*
X0022800Y0022454D01*
X0015801Y0013699D02*
X0204649Y0013699D01*
X0206958Y0012100D02*
X0017400Y0012100D01*
X0018998Y0010502D02*
X0205360Y0010502D01*
X0195983Y0021691D02*
X0191497Y0021691D01*
X0190498Y0023290D02*
X0195702Y0023290D01*
X0187200Y0023290D02*
X0186800Y0023290D01*
X0186800Y0021691D02*
X0187200Y0021691D01*
X0187200Y0018494D02*
X0186800Y0018494D01*
X0186800Y0016896D02*
X0187200Y0016896D01*
X0183322Y0016896D02*
X0180411Y0016896D01*
X0181363Y0018494D02*
X0182442Y0018494D01*
X0166554Y0034479D02*
X0200525Y0034479D01*
X0201200Y0035046D02*
X0201200Y0035046D01*
X0196218Y0060056D02*
X0187157Y0060056D01*
X0188054Y0061654D02*
X0195321Y0061654D01*
X0195282Y0063253D02*
X0188093Y0063253D01*
X0187250Y0064851D02*
X0196125Y0064851D01*
X0191047Y0076041D02*
X0029392Y0076041D01*
X0029982Y0077639D02*
X0192065Y0077639D01*
X0202393Y0079238D02*
X0029818Y0079238D01*
X0016001Y0090427D02*
X0012050Y0090427D01*
X0012050Y0101617D02*
X0013868Y0101617D01*
X0012753Y0103215D02*
X0012050Y0103215D01*
X0012050Y0104814D02*
X0012393Y0104814D01*
X0012598Y0106412D02*
X0012050Y0106412D01*
X0012050Y0108011D02*
X0013496Y0108011D01*
X0020504Y0108011D02*
X0138940Y0108011D01*
X0138412Y0109609D02*
X0131711Y0109609D01*
X0132482Y0111208D02*
X0138617Y0111208D01*
X0139732Y0112806D02*
X0132393Y0112806D01*
X0160997Y0098420D02*
X0101535Y0098420D01*
X0102881Y0096821D02*
X0160912Y0096821D01*
X0161703Y0095223D02*
X0103803Y0095223D01*
X0099493Y0100018D02*
X0161944Y0100018D01*
X0166656Y0087230D02*
X0104083Y0087230D01*
X0103319Y0085632D02*
X0165912Y0085632D01*
X0166017Y0084033D02*
X0102295Y0084033D01*
X0100697Y0082435D02*
X0166991Y0082435D01*
X0143891Y0045669D02*
X0133859Y0045669D01*
X0134357Y0044070D02*
X0143393Y0044070D01*
X0143625Y0042472D02*
X0134125Y0042472D01*
X0132975Y0040873D02*
X0144775Y0040873D01*
X0146084Y0024607D02*
X0144390Y0023906D01*
X0143094Y0022610D01*
X0142393Y0020916D01*
X0142393Y0019084D01*
X0143094Y0017390D01*
X0144390Y0016094D01*
X0146084Y0015393D01*
X0147916Y0015393D01*
X0149610Y0016094D01*
X0150906Y0017390D01*
X0151607Y0019084D01*
X0151607Y0020916D01*
X0150906Y0022610D01*
X0149610Y0023906D01*
X0147916Y0024607D01*
X0146084Y0024607D01*
X0143774Y0023290D02*
X0140226Y0023290D01*
X0139610Y0023906D02*
X0137916Y0024607D01*
X0136084Y0024607D01*
X0134390Y0023906D01*
X0133094Y0022610D01*
X0132393Y0020916D01*
X0132393Y0019084D01*
X0133094Y0017390D01*
X0134390Y0016094D01*
X0136084Y0015393D01*
X0137916Y0015393D01*
X0139610Y0016094D01*
X0140906Y0017390D01*
X0141607Y0019084D01*
X0141607Y0020916D01*
X0140906Y0022610D01*
X0139610Y0023906D01*
X0141286Y0021691D02*
X0142714Y0021691D01*
X0142393Y0020093D02*
X0141607Y0020093D01*
X0141363Y0018494D02*
X0142637Y0018494D01*
X0143589Y0016896D02*
X0140411Y0016896D01*
X0133589Y0016896D02*
X0130411Y0016896D01*
X0130906Y0017390D02*
X0131607Y0019084D01*
X0131607Y0020916D01*
X0130906Y0022610D01*
X0129610Y0023906D01*
X0127916Y0024607D01*
X0126084Y0024607D01*
X0124390Y0023906D01*
X0123094Y0022610D01*
X0122393Y0020916D01*
X0122393Y0019084D01*
X0123094Y0017390D01*
X0124390Y0016094D01*
X0126084Y0015393D01*
X0127916Y0015393D01*
X0129610Y0016094D01*
X0130906Y0017390D01*
X0131363Y0018494D02*
X0132637Y0018494D01*
X0132393Y0020093D02*
X0131607Y0020093D01*
X0131286Y0021691D02*
X0132714Y0021691D01*
X0133774Y0023290D02*
X0130226Y0023290D01*
X0123774Y0023290D02*
X0120226Y0023290D01*
X0119610Y0023906D02*
X0117916Y0024607D01*
X0116084Y0024607D01*
X0114390Y0023906D01*
X0113094Y0022610D01*
X0112393Y0020916D01*
X0112393Y0019084D01*
X0113094Y0017390D01*
X0114390Y0016094D01*
X0116084Y0015393D01*
X0117916Y0015393D01*
X0119610Y0016094D01*
X0120906Y0017390D01*
X0121607Y0019084D01*
X0121607Y0020916D01*
X0120906Y0022610D01*
X0119610Y0023906D01*
X0121286Y0021691D02*
X0122714Y0021691D01*
X0122393Y0020093D02*
X0121607Y0020093D01*
X0121363Y0018494D02*
X0122637Y0018494D01*
X0123589Y0016896D02*
X0120411Y0016896D01*
X0113589Y0016896D02*
X0076382Y0016896D01*
X0077760Y0018494D02*
X0112637Y0018494D01*
X0112393Y0020093D02*
X0078088Y0020093D01*
X0077683Y0021691D02*
X0112714Y0021691D01*
X0113774Y0023290D02*
X0075934Y0023290D01*
X0070912Y0020093D02*
X0012050Y0020093D01*
X0012050Y0021691D02*
X0013296Y0021691D01*
X0012050Y0018494D02*
X0071240Y0018494D01*
X0072618Y0016896D02*
X0012246Y0016896D01*
X0012050Y0044070D02*
X0012398Y0044070D01*
X0012393Y0045669D02*
X0012050Y0045669D01*
X0012050Y0047268D02*
X0012953Y0047268D01*
X0012050Y0048866D02*
X0014351Y0048866D01*
X0021432Y0053662D02*
X0129707Y0053662D01*
X0128140Y0055260D02*
X0021607Y0055260D01*
X0020170Y0061654D02*
X0047303Y0061654D01*
X0052651Y0063253D02*
X0021263Y0063253D01*
X0013533Y0068048D02*
X0012050Y0068048D01*
X0012050Y0066450D02*
X0012614Y0066450D01*
X0012393Y0064851D02*
X0012050Y0064851D01*
X0012050Y0063253D02*
X0012737Y0063253D01*
X0150226Y0023290D02*
X0153774Y0023290D01*
X0152714Y0021691D02*
X0151286Y0021691D01*
X0151607Y0020093D02*
X0152393Y0020093D01*
X0152637Y0018494D02*
X0151363Y0018494D01*
X0150411Y0016896D02*
X0153589Y0016896D01*
X0207200Y0135200D02*
X0207378Y0135200D01*
X0208124Y0135318D01*
X0208843Y0135552D01*
X0209516Y0135895D01*
X0210127Y0136339D01*
X0210661Y0136873D01*
X0211105Y0137484D01*
X0211448Y0138157D01*
X0211682Y0138876D01*
X0211800Y0139622D01*
X0211800Y0139800D01*
X0207200Y0139800D01*
X0207200Y0135200D01*
X0207200Y0136784D02*
X0206800Y0136784D01*
X0206800Y0138383D02*
X0207200Y0138383D01*
X0207200Y0139981D02*
X0211950Y0139981D01*
X0211950Y0138383D02*
X0211521Y0138383D01*
X0211950Y0136784D02*
X0210572Y0136784D01*
X0211534Y0141580D02*
X0211950Y0141580D01*
X0211950Y0143178D02*
X0210610Y0143178D01*
X0210671Y0167156D02*
X0211950Y0167156D01*
X0211950Y0168754D02*
X0211471Y0168754D01*
X0211607Y0170353D02*
X0211950Y0170353D01*
X0211950Y0171951D02*
X0211178Y0171951D01*
X0211950Y0186338D02*
X0209853Y0186338D01*
X0211132Y0187937D02*
X0211950Y0187937D01*
X0211950Y0189535D02*
X0211607Y0189535D01*
X0211517Y0191134D02*
X0211950Y0191134D01*
X0211950Y0192732D02*
X0210783Y0192732D01*
X0211950Y0194331D02*
X0208584Y0194331D01*
X0209211Y0195929D02*
X0211950Y0195929D01*
X0211950Y0197528D02*
X0210963Y0197528D01*
X0211607Y0199126D02*
X0211950Y0199126D01*
X0211950Y0200725D02*
X0211607Y0200725D01*
X0211950Y0202323D02*
X0211024Y0202323D01*
X0211950Y0203922D02*
X0209571Y0203922D01*
X0208224Y0205520D02*
X0211950Y0205520D01*
X0211950Y0207119D02*
X0210634Y0207119D01*
X0211455Y0208717D02*
X0211950Y0208717D01*
X0211950Y0210316D02*
X0211607Y0210316D01*
X0211950Y0211914D02*
X0211194Y0211914D01*
X0211950Y0213513D02*
X0210003Y0213513D01*
X0203557Y0226301D02*
X0197948Y0226301D01*
X0198230Y0227899D02*
X0201959Y0227899D01*
X0200360Y0229498D02*
X0198511Y0229498D01*
X0198600Y0230000D02*
X0198600Y0230000D01*
X0198762Y0231096D02*
X0198407Y0231096D01*
D12*
X0149500Y0192500D03*
X0159500Y0165000D03*
X0177000Y0150000D03*
X0177000Y0140000D03*
X0142000Y0110000D03*
X0132000Y0107500D03*
X0134500Y0080000D03*
X0152000Y0057500D03*
X0141000Y0043000D03*
X0124500Y0045000D03*
X0109500Y0045000D03*
X0074500Y0020000D03*
X0064500Y0020000D03*
X0054500Y0030000D03*
X0064500Y0040000D03*
X0044500Y0040000D03*
X0044500Y0020000D03*
X0052000Y0070000D03*
X0047000Y0100000D03*
X0039500Y0122500D03*
X0062000Y0132500D03*
X0074500Y0132500D03*
X0089500Y0140000D03*
X0094500Y0132500D03*
X0097000Y0152500D03*
X0079500Y0155000D03*
X0072000Y0167500D03*
X0053500Y0162500D03*
X0052000Y0155000D03*
X0037000Y0187500D03*
X0117000Y0192500D03*
X0132000Y0162500D03*
X0122000Y0155000D03*
X0164500Y0097500D03*
X0169500Y0085000D03*
X0177000Y0082500D03*
X0194500Y0075000D03*
X0199500Y0067500D03*
X0207000Y0042500D03*
X0164500Y0037500D03*
D13*
X0164500Y0043750D03*
X0156375Y0029375D03*
X0147000Y0043750D03*
X0130750Y0043750D03*
X0131375Y0056875D03*
X0167000Y0071250D03*
X0179500Y0052500D03*
X0179500Y0047500D03*
X0184500Y0062500D03*
X0198875Y0062500D03*
X0198875Y0052500D03*
X0183875Y0030000D03*
X0183875Y0092500D03*
X0155750Y0113750D03*
X0150750Y0113750D03*
X0128875Y0111875D03*
X0123250Y0131250D03*
X0108250Y0128125D03*
X0156375Y0145000D03*
X0191375Y0160000D03*
X0102000Y0206250D03*
X0035125Y0166250D03*
X0032000Y0118125D03*
X0055125Y0096875D03*
X0026375Y0078125D03*
X0023250Y0081875D03*
X0050125Y0059375D03*
X0055125Y0060625D03*
M02*
