G75*
%MOIN*%
%OFA0B0*%
%FSLAX25Y25*%
%IPPOS*%
%LPD*%
%AMOC8*
5,1,8,0,0,1.08239X$1,22.5*
%
%ADD10C,0.07400*%
%ADD11R,0.07800X0.02100*%
%ADD12R,0.05118X0.05906*%
%ADD13R,0.05906X0.05118*%
%ADD14R,0.03150X0.03543*%
%ADD15R,0.07400X0.07400*%
%ADD16R,0.03150X0.04724*%
%ADD17R,0.04724X0.03150*%
%ADD18R,0.04800X0.02000*%
%ADD19R,0.04900X0.01700*%
%ADD20R,0.07200X0.08100*%
%ADD21R,0.05906X0.08661*%
%ADD22R,0.03937X0.04724*%
%ADD23R,0.04724X0.07874*%
%ADD24R,0.08900X0.09500*%
%ADD25R,0.07874X0.03937*%
%ADD26C,0.06811*%
%ADD27R,0.09252X0.07480*%
%ADD28R,0.05906X0.13386*%
%ADD29R,0.03937X0.03937*%
%ADD30R,0.04724X0.04724*%
%ADD31R,0.07098X0.06299*%
%ADD32R,0.04724X0.03937*%
%ADD33R,0.05787X0.05000*%
%ADD34R,0.03268X0.02480*%
%ADD35C,0.03937*%
%ADD36C,0.01600*%
%ADD37C,0.01000*%
%ADD38C,0.02400*%
%ADD39C,0.03962*%
%ADD40C,0.04000*%
%ADD41C,0.05600*%
%ADD42C,0.04000*%
D10*
X0017000Y0045000D03*
X0017000Y0055000D03*
X0017000Y0065000D03*
X0017000Y0075000D03*
X0017000Y0085000D03*
X0017000Y0095000D03*
X0017000Y0105000D03*
X0017000Y0115000D03*
X0017000Y0125000D03*
X0017000Y0135000D03*
X0017000Y0150000D03*
X0017000Y0160000D03*
X0017000Y0170000D03*
X0017000Y0180000D03*
X0017000Y0190000D03*
X0017000Y0200000D03*
X0017000Y0210000D03*
X0017000Y0220000D03*
X0042000Y0220000D03*
X0052000Y0220000D03*
X0107000Y0230000D03*
X0117000Y0230000D03*
X0127000Y0230000D03*
X0137000Y0230000D03*
X0147000Y0230000D03*
X0157000Y0230000D03*
X0167000Y0230000D03*
X0207000Y0220000D03*
X0207000Y0210000D03*
X0207000Y0200000D03*
X0207000Y0190000D03*
X0207000Y0180000D03*
X0207000Y0170000D03*
X0207000Y0150000D03*
X0207000Y0140000D03*
X0207000Y0130000D03*
X0207000Y0120000D03*
X0207000Y0110000D03*
X0207000Y0100000D03*
X0207000Y0090000D03*
X0207000Y0080000D03*
X0187000Y0020000D03*
X0177000Y0020000D03*
X0167000Y0020000D03*
X0157000Y0020000D03*
X0147000Y0020000D03*
X0137000Y0020000D03*
X0127000Y0020000D03*
D11*
X0172300Y0037500D03*
X0172300Y0042500D03*
X0172300Y0047500D03*
X0172300Y0052500D03*
X0172300Y0057500D03*
X0172300Y0062500D03*
X0172300Y0067500D03*
X0191700Y0067500D03*
X0191700Y0062500D03*
X0191700Y0057500D03*
X0191700Y0052500D03*
X0191700Y0047500D03*
X0191700Y0042500D03*
X0191700Y0037500D03*
D12*
X0185740Y0075000D03*
X0178260Y0075000D03*
X0145740Y0050000D03*
X0138260Y0050000D03*
X0105740Y0020000D03*
X0098260Y0020000D03*
X0088240Y0020000D03*
X0080760Y0020000D03*
D13*
X0034500Y0063760D03*
X0034500Y0071240D03*
X0034500Y0101260D03*
X0034500Y0108740D03*
X0037000Y0196260D03*
X0037000Y0203740D03*
X0097000Y0211260D03*
X0097000Y0218740D03*
X0107000Y0218740D03*
X0107000Y0211260D03*
X0117000Y0211260D03*
X0117000Y0218740D03*
X0184500Y0136240D03*
X0184500Y0128760D03*
X0207000Y0056240D03*
X0207000Y0048760D03*
D14*
X0145740Y0038937D03*
X0142000Y0030669D03*
X0138260Y0038937D03*
X0130740Y0038937D03*
X0123260Y0038937D03*
X0127000Y0030669D03*
X0115740Y0038937D03*
X0108260Y0038937D03*
X0112000Y0030669D03*
D15*
X0117000Y0020000D03*
X0097000Y0230000D03*
D16*
X0143457Y0162500D03*
X0150543Y0162500D03*
X0145543Y0085000D03*
X0138457Y0085000D03*
X0138457Y0060000D03*
X0145543Y0060000D03*
D17*
X0142000Y0091457D03*
X0142000Y0098543D03*
X0174500Y0093543D03*
X0174500Y0086457D03*
X0164500Y0133957D03*
X0164500Y0141043D03*
X0144500Y0141043D03*
X0144500Y0133957D03*
X0134500Y0133957D03*
X0134500Y0141043D03*
X0124500Y0143957D03*
X0124500Y0151043D03*
X0104500Y0143543D03*
X0104500Y0136457D03*
X0094500Y0143957D03*
X0094500Y0151043D03*
X0054500Y0138543D03*
X0054500Y0131457D03*
X0044500Y0136457D03*
X0044500Y0143543D03*
D18*
X0145000Y0148800D03*
X0145000Y0152500D03*
X0145000Y0156200D03*
X0154000Y0156200D03*
X0154000Y0152500D03*
X0154000Y0148800D03*
X0154700Y0093700D03*
X0154700Y0086300D03*
X0164300Y0086300D03*
X0164300Y0090000D03*
X0164300Y0093700D03*
D19*
X0083400Y0141200D03*
X0083400Y0143700D03*
X0083400Y0146300D03*
X0083400Y0148800D03*
X0065600Y0148800D03*
X0065600Y0146300D03*
X0065600Y0143700D03*
X0065600Y0141200D03*
D20*
X0074500Y0145000D03*
D21*
X0084598Y0192500D03*
X0059402Y0192500D03*
D22*
X0157000Y0071831D03*
X0157000Y0063169D03*
D23*
X0148299Y0072500D03*
X0135701Y0072500D03*
X0068299Y0165000D03*
X0055701Y0165000D03*
X0143201Y0182500D03*
X0155799Y0182500D03*
D24*
X0102900Y0165000D03*
X0086100Y0165000D03*
D25*
X0062472Y0114075D03*
X0062472Y0108169D03*
X0062472Y0102264D03*
X0062472Y0096358D03*
X0062472Y0090453D03*
X0062472Y0084547D03*
X0062472Y0078642D03*
X0062472Y0072736D03*
X0062472Y0066831D03*
X0062472Y0060925D03*
X0121528Y0060925D03*
X0121528Y0066831D03*
X0121528Y0072736D03*
X0121528Y0078642D03*
X0121528Y0084547D03*
X0121528Y0090453D03*
X0121528Y0096358D03*
X0121528Y0102264D03*
X0121528Y0108169D03*
X0121528Y0114075D03*
D26*
X0054500Y0030000D03*
D27*
X0045150Y0019764D03*
X0063850Y0019764D03*
X0063850Y0040236D03*
X0045150Y0040236D03*
D28*
X0043476Y0030000D03*
X0065524Y0030000D03*
D29*
X0047000Y0113563D03*
X0047000Y0121437D03*
D30*
X0034500Y0091634D03*
X0034500Y0083366D03*
D31*
X0184500Y0176902D03*
X0184500Y0188098D03*
D32*
X0153831Y0172500D03*
X0145169Y0172500D03*
D33*
X0184500Y0165965D03*
X0184500Y0149035D03*
D34*
X0164500Y0145472D03*
X0164500Y0154528D03*
D35*
X0032000Y0015000D03*
X0184500Y0205000D03*
X0032000Y0215000D03*
D36*
X0052000Y0200000D02*
X0052000Y0172500D01*
X0069500Y0172500D01*
X0069500Y0200000D01*
X0052000Y0200000D01*
X0052000Y0199126D02*
X0069500Y0199126D01*
X0069500Y0197528D02*
X0052000Y0197528D01*
X0052000Y0195929D02*
X0069500Y0195929D01*
X0069500Y0194331D02*
X0052000Y0194331D01*
X0052000Y0192732D02*
X0069500Y0192732D01*
X0069500Y0191134D02*
X0052000Y0191134D01*
X0052000Y0189535D02*
X0069500Y0189535D01*
X0069500Y0187937D02*
X0052000Y0187937D01*
X0052000Y0186338D02*
X0069500Y0186338D01*
X0069500Y0184739D02*
X0052000Y0184739D01*
X0052000Y0183141D02*
X0069500Y0183141D01*
X0069500Y0181542D02*
X0052000Y0181542D01*
X0052000Y0179944D02*
X0069500Y0179944D01*
X0069500Y0178345D02*
X0052000Y0178345D01*
X0052000Y0176747D02*
X0069500Y0176747D01*
X0069500Y0175148D02*
X0052000Y0175148D01*
X0052000Y0173550D02*
X0069500Y0173550D01*
X0067000Y0170000D02*
X0089500Y0170000D01*
X0089500Y0150000D01*
X0077000Y0150000D01*
X0077000Y0147500D01*
X0072000Y0147500D01*
X0072000Y0152500D01*
X0067000Y0152500D01*
X0067000Y0170000D01*
X0067000Y0168754D02*
X0089500Y0168754D01*
X0089500Y0167156D02*
X0067000Y0167156D01*
X0067000Y0165557D02*
X0089500Y0165557D01*
X0089500Y0163959D02*
X0067000Y0163959D01*
X0067000Y0162360D02*
X0089500Y0162360D01*
X0089500Y0160762D02*
X0067000Y0160762D01*
X0067000Y0159163D02*
X0089500Y0159163D01*
X0089500Y0157565D02*
X0067000Y0157565D01*
X0067000Y0155966D02*
X0089500Y0155966D01*
X0089500Y0154368D02*
X0067000Y0154368D01*
X0067000Y0152769D02*
X0089500Y0152769D01*
X0089500Y0151171D02*
X0072000Y0151171D01*
X0072000Y0149572D02*
X0077000Y0149572D01*
X0077000Y0147974D02*
X0072000Y0147974D01*
X0072000Y0142500D02*
X0077000Y0142500D01*
X0077000Y0135000D01*
X0107000Y0135000D01*
X0107000Y0131512D01*
X0106207Y0131183D01*
X0105192Y0130168D01*
X0105122Y0130000D01*
X0042000Y0130000D01*
X0042000Y0135000D01*
X0047000Y0135000D01*
X0047000Y0132500D01*
X0059500Y0132500D01*
X0059500Y0135000D01*
X0072000Y0135000D01*
X0072000Y0142500D01*
X0072000Y0141580D02*
X0077000Y0141580D01*
X0077000Y0139981D02*
X0072000Y0139981D01*
X0072000Y0138383D02*
X0077000Y0138383D01*
X0077000Y0136784D02*
X0072000Y0136784D01*
X0072000Y0135186D02*
X0077000Y0135186D01*
X0083400Y0141200D02*
X0088300Y0141200D01*
X0088367Y0141198D01*
X0088434Y0141192D01*
X0088501Y0141183D01*
X0088567Y0141170D01*
X0088632Y0141153D01*
X0088696Y0141133D01*
X0088759Y0141109D01*
X0088821Y0141081D01*
X0088880Y0141050D01*
X0088938Y0141016D01*
X0088994Y0140979D01*
X0089048Y0140938D01*
X0089100Y0140895D01*
X0089149Y0140849D01*
X0089195Y0140800D01*
X0089238Y0140748D01*
X0089279Y0140694D01*
X0089316Y0140638D01*
X0089350Y0140580D01*
X0089381Y0140521D01*
X0089409Y0140459D01*
X0089433Y0140396D01*
X0089453Y0140332D01*
X0089470Y0140267D01*
X0089483Y0140201D01*
X0089492Y0140134D01*
X0089498Y0140067D01*
X0089500Y0140000D01*
X0094500Y0143700D02*
X0083400Y0143700D01*
X0083400Y0148800D02*
X0084500Y0149900D01*
X0084500Y0152500D01*
X0094500Y0152769D02*
X0107000Y0152769D01*
X0107000Y0151171D02*
X0094500Y0151171D01*
X0094500Y0150000D02*
X0094500Y0177500D01*
X0077000Y0177500D01*
X0077000Y0200000D01*
X0107000Y0200000D01*
X0107000Y0150000D01*
X0094500Y0150000D01*
X0094500Y0154368D02*
X0107000Y0154368D01*
X0107000Y0155966D02*
X0094500Y0155966D01*
X0094500Y0157565D02*
X0107000Y0157565D01*
X0107000Y0159163D02*
X0094500Y0159163D01*
X0094500Y0160762D02*
X0107000Y0160762D01*
X0107000Y0162360D02*
X0094500Y0162360D01*
X0094500Y0163959D02*
X0107000Y0163959D01*
X0107000Y0165557D02*
X0094500Y0165557D01*
X0094500Y0167156D02*
X0107000Y0167156D01*
X0107000Y0168754D02*
X0094500Y0168754D01*
X0094500Y0170353D02*
X0107000Y0170353D01*
X0107000Y0171951D02*
X0094500Y0171951D01*
X0094500Y0173550D02*
X0107000Y0173550D01*
X0107000Y0175148D02*
X0094500Y0175148D01*
X0094500Y0176747D02*
X0107000Y0176747D01*
X0107000Y0178345D02*
X0077000Y0178345D01*
X0077000Y0179944D02*
X0107000Y0179944D01*
X0107000Y0181542D02*
X0077000Y0181542D01*
X0077000Y0183141D02*
X0107000Y0183141D01*
X0107000Y0184739D02*
X0077000Y0184739D01*
X0077000Y0186338D02*
X0107000Y0186338D01*
X0107000Y0187937D02*
X0077000Y0187937D01*
X0077000Y0189535D02*
X0107000Y0189535D01*
X0107000Y0191134D02*
X0077000Y0191134D01*
X0077000Y0192732D02*
X0107000Y0192732D01*
X0107000Y0194331D02*
X0077000Y0194331D01*
X0077000Y0195929D02*
X0107000Y0195929D01*
X0107000Y0197528D02*
X0077000Y0197528D01*
X0077000Y0199126D02*
X0107000Y0199126D01*
X0149500Y0161457D02*
X0149500Y0152500D01*
X0154000Y0152500D01*
X0162472Y0152500D01*
X0162560Y0152502D01*
X0162649Y0152508D01*
X0162737Y0152517D01*
X0162824Y0152531D01*
X0162911Y0152548D01*
X0162997Y0152569D01*
X0163082Y0152594D01*
X0163166Y0152622D01*
X0163248Y0152654D01*
X0163329Y0152690D01*
X0163408Y0152729D01*
X0163486Y0152772D01*
X0163562Y0152818D01*
X0163635Y0152867D01*
X0163707Y0152919D01*
X0163776Y0152974D01*
X0163842Y0153033D01*
X0163906Y0153094D01*
X0163967Y0153158D01*
X0164026Y0153224D01*
X0164081Y0153293D01*
X0164133Y0153365D01*
X0164182Y0153438D01*
X0164228Y0153514D01*
X0164271Y0153592D01*
X0164310Y0153671D01*
X0164346Y0153752D01*
X0164378Y0153834D01*
X0164406Y0153918D01*
X0164431Y0154003D01*
X0164452Y0154089D01*
X0164469Y0154176D01*
X0164483Y0154263D01*
X0164492Y0154351D01*
X0164498Y0154440D01*
X0164500Y0154528D01*
X0164500Y0145472D02*
X0164500Y0141043D01*
X0154000Y0152500D02*
X0154256Y0152756D01*
X0149500Y0161457D02*
X0150543Y0162500D01*
X0107000Y0133587D02*
X0059500Y0133587D01*
X0054500Y0138543D02*
X0054500Y0141200D01*
X0065600Y0141200D01*
X0065600Y0143700D02*
X0044500Y0143700D01*
X0044500Y0143543D01*
X0049500Y0146300D02*
X0049500Y0150000D01*
X0049500Y0149572D02*
X0057000Y0149572D01*
X0055701Y0150000D02*
X0055701Y0165000D01*
X0057000Y0165557D02*
X0049500Y0165557D01*
X0049500Y0163959D02*
X0057000Y0163959D01*
X0057000Y0162360D02*
X0049500Y0162360D01*
X0049500Y0160762D02*
X0057000Y0160762D01*
X0057000Y0159163D02*
X0049500Y0159163D01*
X0049500Y0157565D02*
X0057000Y0157565D01*
X0057000Y0155966D02*
X0049500Y0155966D01*
X0049500Y0154368D02*
X0057000Y0154368D01*
X0057000Y0152769D02*
X0049500Y0152769D01*
X0049500Y0151171D02*
X0057000Y0151171D01*
X0055701Y0150000D02*
X0052000Y0150000D01*
X0049500Y0147974D02*
X0057000Y0147974D01*
X0057000Y0147500D02*
X0057000Y0167500D01*
X0049500Y0167500D01*
X0049500Y0147500D01*
X0057000Y0147500D01*
X0062000Y0151300D02*
X0065600Y0148800D01*
X0065600Y0146300D02*
X0049500Y0146300D01*
X0047000Y0133587D02*
X0042000Y0133587D01*
X0042000Y0131989D02*
X0107000Y0131989D01*
X0105414Y0130390D02*
X0042000Y0130390D01*
X0039500Y0122500D02*
X0047000Y0122500D01*
X0047000Y0121437D01*
X0049500Y0167156D02*
X0057000Y0167156D01*
X0059402Y0190000D02*
X0059402Y0192500D01*
X0059402Y0190000D02*
X0062000Y0190000D01*
X0094500Y0143957D02*
X0104500Y0143957D01*
X0104500Y0143543D01*
X0094500Y0143700D02*
X0094500Y0143957D01*
X0142000Y0110000D02*
X0207000Y0110000D01*
X0174500Y0093700D02*
X0174500Y0093543D01*
X0174500Y0093700D02*
X0164300Y0093700D01*
X0164500Y0095000D02*
X0164500Y0097500D01*
X0164300Y0090000D02*
X0174500Y0090000D01*
X0174500Y0086457D01*
X0169500Y0086500D02*
X0169500Y0085000D01*
X0169500Y0086500D02*
X0164500Y0086500D01*
X0154700Y0086300D02*
X0154500Y0086300D01*
X0154500Y0072500D01*
X0148299Y0072500D01*
X0154500Y0072500D02*
X0157000Y0072500D01*
X0157000Y0071831D01*
X0152000Y0085000D02*
X0145543Y0085000D01*
X0145543Y0091457D01*
X0142000Y0091457D01*
X0142000Y0097500D02*
X0142000Y0098543D01*
X0142000Y0097500D02*
X0152000Y0097500D01*
X0152000Y0093700D01*
X0154700Y0093700D01*
X0154700Y0086300D02*
X0152000Y0086300D01*
X0152000Y0085000D01*
X0141000Y0043000D02*
X0138260Y0038937D01*
X0164500Y0037500D02*
X0172300Y0037500D01*
X0207000Y0042500D02*
X0207000Y0048760D01*
X0080760Y0020000D02*
X0074500Y0020000D01*
X0045150Y0040236D02*
X0044500Y0040000D01*
D37*
X0044500Y0030625D01*
X0043875Y0030000D01*
X0043476Y0030000D01*
X0044500Y0020000D02*
X0045125Y0020000D01*
X0045150Y0019764D01*
X0063850Y0019764D02*
X0063875Y0020000D01*
X0064500Y0020000D01*
X0065125Y0030000D02*
X0064500Y0030625D01*
X0064500Y0040000D01*
X0063875Y0040000D01*
X0063850Y0040236D01*
X0065125Y0030000D02*
X0065524Y0030000D01*
X0045150Y0040236D02*
X0045125Y0040625D01*
X0050125Y0056875D02*
X0050125Y0059375D01*
X0050125Y0056875D02*
X0058250Y0056875D01*
X0062000Y0060625D01*
X0062472Y0060925D01*
X0062000Y0066250D02*
X0062472Y0066831D01*
X0062000Y0066250D02*
X0055125Y0066250D01*
X0055125Y0060625D01*
X0034500Y0071240D02*
X0034500Y0083366D01*
X0034500Y0091250D02*
X0034500Y0091634D01*
X0034500Y0091250D02*
X0062000Y0091250D01*
X0062000Y0090625D01*
X0062472Y0090453D01*
X0062472Y0096358D02*
X0062000Y0096875D01*
X0055125Y0096875D01*
X0047000Y0108750D02*
X0047000Y0113563D01*
X0047000Y0113750D01*
X0062000Y0113750D01*
X0062472Y0114075D01*
X0047000Y0108750D02*
X0034500Y0108750D01*
X0034500Y0108740D01*
X0034500Y0118000D02*
X0034375Y0118125D01*
X0032000Y0118125D01*
X0034500Y0118000D02*
X0034500Y0140625D01*
X0031375Y0143750D01*
X0031375Y0198125D01*
X0037000Y0203750D01*
X0037000Y0203740D01*
X0037000Y0203750D02*
X0052000Y0218750D01*
X0052000Y0220000D01*
X0047625Y0211250D02*
X0047625Y0178750D01*
X0035125Y0166250D01*
X0017000Y0135000D02*
X0022625Y0129375D01*
X0022625Y0125000D01*
X0027000Y0120625D01*
X0027000Y0078750D01*
X0026375Y0078125D01*
X0023250Y0081875D02*
X0022625Y0082500D01*
X0022625Y0089375D01*
X0017000Y0095000D01*
X0088240Y0020000D02*
X0088250Y0020000D01*
X0093875Y0014375D01*
X0105125Y0014375D01*
X0105125Y0020000D01*
X0105740Y0020000D01*
X0117000Y0020000D01*
X0117000Y0025625D01*
X0112000Y0030625D01*
X0112000Y0030669D01*
X0107625Y0038125D02*
X0108260Y0038937D01*
X0107625Y0038125D02*
X0101375Y0031875D01*
X0101375Y0022500D01*
X0098875Y0020000D01*
X0098260Y0020000D01*
X0115740Y0038937D02*
X0115750Y0039375D01*
X0120750Y0044375D01*
X0120750Y0046250D01*
X0131375Y0056875D01*
X0138250Y0060000D02*
X0138250Y0050000D01*
X0138260Y0050000D01*
X0130750Y0043750D02*
X0130750Y0039375D01*
X0130740Y0038937D01*
X0127000Y0030669D02*
X0127000Y0020000D01*
X0137000Y0020000D02*
X0137000Y0025625D01*
X0142000Y0030625D01*
X0142000Y0030669D01*
X0145740Y0038937D02*
X0145750Y0039375D01*
X0147000Y0040625D01*
X0147000Y0043750D01*
X0152000Y0057500D02*
X0152000Y0060000D01*
X0145543Y0060000D01*
X0152000Y0060000D02*
X0157000Y0060000D01*
X0157000Y0063169D01*
X0158943Y0070000D02*
X0142000Y0070000D01*
X0142000Y0092500D01*
X0149500Y0092500D01*
X0149500Y0087500D01*
X0157000Y0087500D01*
X0157000Y0075000D01*
X0159500Y0075000D01*
X0159500Y0070681D01*
X0158943Y0070124D01*
X0158943Y0070000D01*
X0159500Y0070753D02*
X0142000Y0070753D01*
X0142000Y0071751D02*
X0159500Y0071751D01*
X0159500Y0072750D02*
X0142000Y0072750D01*
X0142000Y0073748D02*
X0159500Y0073748D01*
X0159500Y0074747D02*
X0142000Y0074747D01*
X0142000Y0075745D02*
X0157000Y0075745D01*
X0157000Y0076744D02*
X0142000Y0076744D01*
X0142000Y0077742D02*
X0157000Y0077742D01*
X0157000Y0078741D02*
X0142000Y0078741D01*
X0142000Y0079739D02*
X0157000Y0079739D01*
X0157000Y0080738D02*
X0142000Y0080738D01*
X0142000Y0081737D02*
X0157000Y0081737D01*
X0157000Y0082735D02*
X0142000Y0082735D01*
X0142000Y0083734D02*
X0157000Y0083734D01*
X0157000Y0084732D02*
X0142000Y0084732D01*
X0142000Y0085731D02*
X0157000Y0085731D01*
X0157000Y0086729D02*
X0142000Y0086729D01*
X0142000Y0087728D02*
X0149500Y0087728D01*
X0149500Y0088726D02*
X0142000Y0088726D01*
X0142000Y0089725D02*
X0149500Y0089725D01*
X0149500Y0090723D02*
X0142000Y0090723D01*
X0142000Y0091722D02*
X0149500Y0091722D01*
X0158875Y0095000D02*
X0158875Y0086250D01*
X0161375Y0083750D01*
X0161375Y0070000D01*
X0160750Y0069375D01*
X0160750Y0023750D01*
X0157000Y0020000D01*
X0156375Y0029375D02*
X0147000Y0020000D01*
X0167000Y0020000D02*
X0185125Y0038125D01*
X0185125Y0058125D01*
X0187000Y0060000D01*
X0196375Y0060000D01*
X0198875Y0062500D01*
X0191700Y0062500D02*
X0184500Y0062500D01*
X0183250Y0058750D02*
X0174500Y0067500D01*
X0172300Y0067500D01*
X0172300Y0062500D02*
X0167000Y0062500D01*
X0167000Y0071250D01*
X0170125Y0057500D02*
X0172300Y0057500D01*
X0170125Y0057500D02*
X0167000Y0054375D01*
X0167000Y0046250D01*
X0164500Y0043750D01*
X0172300Y0042500D02*
X0183250Y0042500D01*
X0183250Y0058750D01*
X0179500Y0052500D02*
X0172300Y0052500D01*
X0172300Y0047500D02*
X0179500Y0047500D01*
X0191700Y0047500D02*
X0192000Y0047500D01*
X0192000Y0042500D01*
X0191700Y0042500D01*
X0191700Y0037500D02*
X0191375Y0037500D01*
X0183875Y0030000D01*
X0191700Y0052500D02*
X0198875Y0052500D01*
X0203250Y0056250D02*
X0203250Y0073125D01*
X0183875Y0092500D01*
X0185740Y0075000D02*
X0187000Y0075000D01*
X0191700Y0057500D02*
X0192000Y0057500D01*
X0192000Y0056250D01*
X0203250Y0056250D01*
X0207000Y0056250D01*
X0207000Y0056240D01*
X0164500Y0086250D02*
X0164500Y0086500D01*
X0164500Y0086250D02*
X0164300Y0086300D01*
X0164300Y0093700D02*
X0164500Y0094375D01*
X0164500Y0095000D01*
X0158875Y0095000D02*
X0147625Y0106250D01*
X0138250Y0106250D01*
X0138250Y0130000D01*
X0135750Y0118750D02*
X0123250Y0131250D01*
X0125518Y0133659D02*
X0167000Y0133659D01*
X0167000Y0132661D02*
X0126245Y0132661D01*
X0126054Y0133123D02*
X0125123Y0134054D01*
X0123908Y0134557D01*
X0122592Y0134557D01*
X0121377Y0134054D01*
X0120446Y0133123D01*
X0119943Y0131908D01*
X0119943Y0130592D01*
X0120188Y0130000D01*
X0120181Y0130000D01*
X0119500Y0130681D01*
X0119500Y0145000D01*
X0127000Y0145000D01*
X0127000Y0135000D01*
X0167000Y0135000D01*
X0167000Y0132556D01*
X0164444Y0130000D01*
X0127056Y0130000D01*
X0126530Y0130526D01*
X0126557Y0130592D01*
X0126557Y0131908D01*
X0126054Y0133123D01*
X0126557Y0131662D02*
X0166106Y0131662D01*
X0165108Y0130664D02*
X0126557Y0130664D01*
X0127000Y0135656D02*
X0119500Y0135656D01*
X0119500Y0134658D02*
X0167000Y0134658D01*
X0170125Y0133125D02*
X0170125Y0216875D01*
X0157000Y0230000D01*
X0167000Y0230000D02*
X0167000Y0227500D01*
X0172000Y0222500D01*
X0172000Y0130000D01*
X0155750Y0113750D01*
X0150750Y0113750D02*
X0170125Y0133125D01*
X0156375Y0145000D02*
X0156375Y0146425D01*
X0154000Y0148800D01*
X0153875Y0149375D01*
X0151375Y0149375D01*
X0149500Y0149500D02*
X0149500Y0137500D01*
X0129500Y0137500D01*
X0129500Y0145000D01*
X0139500Y0145000D01*
X0139500Y0149500D01*
X0149500Y0149500D01*
X0149500Y0148637D02*
X0139500Y0148637D01*
X0139500Y0147638D02*
X0149500Y0147638D01*
X0149500Y0146640D02*
X0139500Y0146640D01*
X0139500Y0145641D02*
X0149500Y0145641D01*
X0149500Y0144643D02*
X0129500Y0144643D01*
X0129500Y0143644D02*
X0149500Y0143644D01*
X0149500Y0142646D02*
X0129500Y0142646D01*
X0129500Y0141647D02*
X0149500Y0141647D01*
X0149500Y0140649D02*
X0129500Y0140649D01*
X0129500Y0139650D02*
X0149500Y0139650D01*
X0149500Y0138652D02*
X0129500Y0138652D01*
X0129500Y0137653D02*
X0149500Y0137653D01*
X0145125Y0152500D02*
X0145000Y0152500D01*
X0144500Y0152500D01*
X0145016Y0155000D02*
X0144999Y0155007D01*
X0139500Y0155007D01*
X0139500Y0175000D01*
X0149500Y0175000D01*
X0149500Y0167500D01*
X0147000Y0167500D01*
X0147000Y0155000D01*
X0145016Y0155000D01*
X0147000Y0155626D02*
X0139500Y0155626D01*
X0139500Y0156625D02*
X0147000Y0156625D01*
X0147000Y0157623D02*
X0139500Y0157623D01*
X0139500Y0158622D02*
X0147000Y0158622D01*
X0147000Y0159620D02*
X0139500Y0159620D01*
X0139500Y0160619D02*
X0147000Y0160619D01*
X0147000Y0161617D02*
X0139500Y0161617D01*
X0139500Y0162616D02*
X0147000Y0162616D01*
X0147000Y0163614D02*
X0139500Y0163614D01*
X0139500Y0164613D02*
X0147000Y0164613D01*
X0147000Y0165611D02*
X0139500Y0165611D01*
X0139500Y0166610D02*
X0147000Y0166610D01*
X0149500Y0167608D02*
X0139500Y0167608D01*
X0139500Y0168607D02*
X0149500Y0168607D01*
X0149500Y0169605D02*
X0139500Y0169605D01*
X0139500Y0170604D02*
X0149500Y0170604D01*
X0149500Y0171603D02*
X0139500Y0171603D01*
X0139500Y0172601D02*
X0149500Y0172601D01*
X0149500Y0173600D02*
X0139500Y0173600D01*
X0139500Y0174598D02*
X0149500Y0174598D01*
X0152000Y0174598D02*
X0162000Y0174598D01*
X0162000Y0173600D02*
X0152000Y0173600D01*
X0152000Y0172601D02*
X0162000Y0172601D01*
X0162000Y0171603D02*
X0152000Y0171603D01*
X0152000Y0170604D02*
X0162000Y0170604D01*
X0162000Y0169605D02*
X0154500Y0169605D01*
X0154500Y0170000D02*
X0152000Y0170000D01*
X0152000Y0187500D01*
X0162000Y0187500D01*
X0162000Y0157500D01*
X0157000Y0157500D01*
X0157000Y0155000D01*
X0154500Y0155000D01*
X0154500Y0170000D01*
X0154500Y0168607D02*
X0162000Y0168607D01*
X0162000Y0167608D02*
X0154500Y0167608D01*
X0154500Y0166610D02*
X0162000Y0166610D01*
X0162000Y0165611D02*
X0154500Y0165611D01*
X0154500Y0164613D02*
X0162000Y0164613D01*
X0162000Y0163614D02*
X0154500Y0163614D01*
X0154500Y0162616D02*
X0162000Y0162616D01*
X0162000Y0161617D02*
X0154500Y0161617D01*
X0154500Y0160619D02*
X0162000Y0160619D01*
X0162000Y0159620D02*
X0154500Y0159620D01*
X0154500Y0158622D02*
X0162000Y0158622D01*
X0162000Y0157623D02*
X0154500Y0157623D01*
X0154500Y0156625D02*
X0157000Y0156625D01*
X0157000Y0155626D02*
X0154500Y0155626D01*
X0134500Y0155626D02*
X0119500Y0155626D01*
X0119500Y0154628D02*
X0134500Y0154628D01*
X0134500Y0153629D02*
X0119500Y0153629D01*
X0119500Y0152631D02*
X0134500Y0152631D01*
X0134500Y0151632D02*
X0119500Y0151632D01*
X0119500Y0150634D02*
X0134500Y0150634D01*
X0134500Y0149635D02*
X0119500Y0149635D01*
X0119500Y0148637D02*
X0134500Y0148637D01*
X0134500Y0147638D02*
X0119500Y0147638D01*
X0119500Y0147500D02*
X0119500Y0157500D01*
X0127000Y0157500D01*
X0127000Y0190000D01*
X0147000Y0190000D01*
X0147000Y0177500D01*
X0134500Y0177500D01*
X0134500Y0147500D01*
X0119500Y0147500D01*
X0119500Y0144643D02*
X0127000Y0144643D01*
X0127000Y0143644D02*
X0119500Y0143644D01*
X0119500Y0142646D02*
X0127000Y0142646D01*
X0127000Y0141647D02*
X0119500Y0141647D01*
X0119500Y0140649D02*
X0127000Y0140649D01*
X0127000Y0139650D02*
X0119500Y0139650D01*
X0119500Y0138652D02*
X0127000Y0138652D01*
X0127000Y0137653D02*
X0119500Y0137653D01*
X0119500Y0136655D02*
X0127000Y0136655D01*
X0120982Y0133659D02*
X0119500Y0133659D01*
X0119500Y0132661D02*
X0120255Y0132661D01*
X0119943Y0131662D02*
X0119500Y0131662D01*
X0119517Y0130664D02*
X0119943Y0130664D01*
X0117625Y0130000D02*
X0117625Y0192092D01*
X0117217Y0192500D01*
X0117000Y0192500D01*
X0127000Y0189576D02*
X0147000Y0189576D01*
X0147000Y0188577D02*
X0127000Y0188577D01*
X0127000Y0187579D02*
X0147000Y0187579D01*
X0147000Y0186580D02*
X0127000Y0186580D01*
X0127000Y0185582D02*
X0147000Y0185582D01*
X0147000Y0184583D02*
X0127000Y0184583D01*
X0127000Y0183585D02*
X0147000Y0183585D01*
X0147000Y0182586D02*
X0127000Y0182586D01*
X0127000Y0181588D02*
X0147000Y0181588D01*
X0147000Y0180589D02*
X0127000Y0180589D01*
X0127000Y0179591D02*
X0147000Y0179591D01*
X0147000Y0178592D02*
X0127000Y0178592D01*
X0127000Y0177594D02*
X0147000Y0177594D01*
X0152000Y0177594D02*
X0162000Y0177594D01*
X0162000Y0178592D02*
X0152000Y0178592D01*
X0152000Y0179591D02*
X0162000Y0179591D01*
X0162000Y0180589D02*
X0152000Y0180589D01*
X0152000Y0181588D02*
X0162000Y0181588D01*
X0162000Y0182586D02*
X0152000Y0182586D01*
X0152000Y0183585D02*
X0162000Y0183585D01*
X0162000Y0184583D02*
X0152000Y0184583D01*
X0152000Y0185582D02*
X0162000Y0185582D01*
X0162000Y0186580D02*
X0152000Y0186580D01*
X0152000Y0176595D02*
X0162000Y0176595D01*
X0162000Y0175597D02*
X0152000Y0175597D01*
X0134500Y0175597D02*
X0127000Y0175597D01*
X0127000Y0176595D02*
X0134500Y0176595D01*
X0134500Y0174598D02*
X0127000Y0174598D01*
X0127000Y0173600D02*
X0134500Y0173600D01*
X0134500Y0172601D02*
X0127000Y0172601D01*
X0127000Y0171603D02*
X0134500Y0171603D01*
X0134500Y0170604D02*
X0127000Y0170604D01*
X0127000Y0169605D02*
X0134500Y0169605D01*
X0134500Y0168607D02*
X0127000Y0168607D01*
X0127000Y0167608D02*
X0134500Y0167608D01*
X0134500Y0166610D02*
X0127000Y0166610D01*
X0127000Y0165611D02*
X0134500Y0165611D01*
X0134500Y0164613D02*
X0127000Y0164613D01*
X0127000Y0163614D02*
X0134500Y0163614D01*
X0134500Y0162616D02*
X0127000Y0162616D01*
X0127000Y0161617D02*
X0134500Y0161617D01*
X0134500Y0160619D02*
X0127000Y0160619D01*
X0127000Y0159620D02*
X0134500Y0159620D01*
X0134500Y0158622D02*
X0127000Y0158622D01*
X0127000Y0157623D02*
X0134500Y0157623D01*
X0134500Y0156625D02*
X0119500Y0156625D01*
X0117625Y0130000D02*
X0127000Y0120625D01*
X0127000Y0113750D01*
X0128875Y0111875D01*
X0135750Y0106250D02*
X0135750Y0118750D01*
X0135750Y0106250D02*
X0130750Y0101250D01*
X0130750Y0073125D01*
X0122000Y0073125D01*
X0121528Y0072736D01*
X0121528Y0060925D02*
X0122000Y0060625D01*
X0138250Y0060625D01*
X0138250Y0060000D01*
X0138457Y0060000D01*
X0108250Y0128125D02*
X0109500Y0129375D01*
X0109500Y0203750D01*
X0117000Y0211250D01*
X0117000Y0211260D01*
X0117000Y0218740D02*
X0117000Y0230000D01*
X0107000Y0230000D02*
X0107000Y0218740D01*
X0107000Y0211260D02*
X0107000Y0211250D01*
X0102000Y0206250D01*
X0097000Y0211250D02*
X0097000Y0211260D01*
X0097000Y0211250D02*
X0047625Y0211250D01*
X0097000Y0218740D02*
X0097000Y0230000D01*
X0184500Y0188098D02*
X0184500Y0187500D01*
X0191375Y0180625D01*
X0191375Y0160000D01*
X0184500Y0165965D02*
X0184500Y0176902D01*
X0184500Y0128760D02*
X0184500Y0128750D01*
X0201375Y0128750D01*
X0201375Y0125625D01*
X0207000Y0120000D01*
D38*
X0185760Y0137500D02*
X0184500Y0136240D01*
X0180740Y0140000D01*
X0177000Y0140000D01*
X0177000Y0150000D02*
X0183535Y0150000D01*
X0184500Y0149035D01*
X0184500Y0150000D01*
X0207000Y0150000D01*
X0174500Y0086457D02*
X0174500Y0082500D01*
X0177000Y0082500D01*
X0177000Y0075000D01*
X0178260Y0075000D01*
X0191700Y0067500D02*
X0199500Y0067500D01*
X0145740Y0050000D02*
X0138260Y0038937D01*
X0124500Y0038937D02*
X0124500Y0045000D01*
X0124500Y0038937D02*
X0123260Y0038937D01*
X0109500Y0038937D02*
X0109500Y0045000D01*
X0109500Y0038937D02*
X0108260Y0038937D01*
X0121528Y0066831D02*
X0134500Y0066831D01*
X0134500Y0072500D01*
X0135701Y0072500D01*
X0134500Y0072500D02*
X0134500Y0080000D01*
X0134500Y0085000D01*
X0138457Y0085000D01*
X0132000Y0107500D02*
X0122197Y0107500D01*
X0121528Y0108169D01*
X0132000Y0152500D02*
X0144500Y0152500D01*
X0062472Y0072736D02*
X0062472Y0072500D01*
X0052000Y0072500D01*
X0052000Y0070000D01*
X0052000Y0063760D01*
X0034500Y0063760D01*
X0034500Y0100000D02*
X0047000Y0100000D01*
X0034500Y0100000D02*
X0034500Y0101260D01*
X0037000Y0187500D02*
X0037000Y0196260D01*
D39*
X0037000Y0187500D03*
X0053500Y0162500D03*
X0052000Y0155000D03*
X0072000Y0167500D03*
X0079500Y0155000D03*
X0089500Y0140000D03*
X0094500Y0132500D03*
X0097000Y0152500D03*
X0074500Y0132500D03*
X0062000Y0132500D03*
X0039500Y0122500D03*
X0047000Y0100000D03*
X0052000Y0070000D03*
X0044500Y0040000D03*
X0054500Y0030000D03*
X0064500Y0020000D03*
X0074500Y0020000D03*
X0064500Y0040000D03*
X0044500Y0020000D03*
X0109500Y0045000D03*
X0124500Y0045000D03*
X0141000Y0043000D03*
X0152000Y0057500D03*
X0164500Y0037500D03*
X0194500Y0075000D03*
X0199500Y0067500D03*
X0207000Y0042500D03*
X0177000Y0082500D03*
X0169500Y0085000D03*
X0164500Y0097500D03*
X0142000Y0110000D03*
X0132000Y0107500D03*
X0134500Y0080000D03*
X0177000Y0140000D03*
X0177000Y0150000D03*
X0159500Y0165000D03*
X0149500Y0192500D03*
X0132000Y0162500D03*
X0122000Y0155000D03*
X0117000Y0192500D03*
D40*
X0102000Y0206250D03*
X0156375Y0145000D03*
X0155750Y0113750D03*
X0150750Y0113750D03*
X0128875Y0111875D03*
X0123250Y0131250D03*
X0108250Y0128125D03*
X0055125Y0096875D03*
X0032000Y0118125D03*
X0023250Y0081875D03*
X0026375Y0078125D03*
X0050125Y0059375D03*
X0055125Y0060625D03*
X0131375Y0056875D03*
X0130750Y0043750D03*
X0147000Y0043750D03*
X0156375Y0029375D03*
X0164500Y0043750D03*
X0179500Y0047500D03*
X0179500Y0052500D03*
X0184500Y0062500D03*
X0198875Y0062500D03*
X0198875Y0052500D03*
X0183875Y0030000D03*
X0167000Y0071250D03*
X0183875Y0092500D03*
X0191375Y0160000D03*
X0035125Y0166250D03*
D41*
X0155799Y0182500D02*
X0157000Y0182500D01*
X0187000Y0075000D02*
X0194500Y0075000D01*
D42*
X0062000Y0151300D02*
X0062000Y0190000D01*
M02*
