G75*
%MOIN*%
%OFA0B0*%
%FSLAX25Y25*%
%IPPOS*%
%LPD*%
%AMOC8*
5,1,8,0,0,1.08239X$1,22.5*
%
%ADD10C,0.01000*%
%ADD11C,0.00300*%
%ADD12C,0.00400*%
%ADD13C,0.01600*%
%ADD14C,0.00600*%
%ADD15C,0.00500*%
%ADD16C,0.00200*%
%ADD17C,0.00800*%
%ADD18C,0.00100*%
%ADD19C,0.00000*%
%ADD20C,0.00276*%
%ADD21R,0.01181X0.02756*%
%ADD22C,0.03200*%
%ADD23R,0.00787X0.00787*%
%ADD24R,0.02756X0.01181*%
D10*
X0010700Y0032500D02*
X0010702Y0032658D01*
X0010708Y0032817D01*
X0010718Y0032975D01*
X0010732Y0033132D01*
X0010750Y0033290D01*
X0010771Y0033446D01*
X0010797Y0033603D01*
X0010827Y0033758D01*
X0010860Y0033913D01*
X0010898Y0034067D01*
X0010939Y0034220D01*
X0010984Y0034371D01*
X0011033Y0034522D01*
X0011086Y0034671D01*
X0011142Y0034819D01*
X0011203Y0034966D01*
X0011266Y0035111D01*
X0011334Y0035254D01*
X0011405Y0035395D01*
X0011479Y0035535D01*
X0011557Y0035673D01*
X0011639Y0035809D01*
X0011724Y0035942D01*
X0011812Y0036074D01*
X0011903Y0036203D01*
X0011998Y0036330D01*
X0012096Y0036454D01*
X0012197Y0036576D01*
X0012301Y0036696D01*
X0012407Y0036813D01*
X0012517Y0036927D01*
X0012630Y0037038D01*
X0012745Y0037146D01*
X0012864Y0037252D01*
X0012984Y0037354D01*
X0013107Y0037454D01*
X0013233Y0037550D01*
X0013361Y0037643D01*
X0013492Y0037733D01*
X0013624Y0037819D01*
X0013759Y0037902D01*
X0013896Y0037982D01*
X0014035Y0038058D01*
X0014175Y0038131D01*
X0014318Y0038200D01*
X0014462Y0038266D01*
X0014607Y0038328D01*
X0014755Y0038386D01*
X0014903Y0038441D01*
X0015053Y0038492D01*
X0015204Y0038539D01*
X0015357Y0038582D01*
X0015510Y0038621D01*
X0015664Y0038657D01*
X0015819Y0038688D01*
X0015975Y0038716D01*
X0016132Y0038740D01*
X0016289Y0038760D01*
X0016447Y0038776D01*
X0016604Y0038788D01*
X0016763Y0038796D01*
X0016921Y0038800D01*
X0017079Y0038800D01*
X0017237Y0038796D01*
X0017396Y0038788D01*
X0017553Y0038776D01*
X0017711Y0038760D01*
X0017868Y0038740D01*
X0018025Y0038716D01*
X0018181Y0038688D01*
X0018336Y0038657D01*
X0018490Y0038621D01*
X0018643Y0038582D01*
X0018796Y0038539D01*
X0018947Y0038492D01*
X0019097Y0038441D01*
X0019245Y0038386D01*
X0019393Y0038328D01*
X0019538Y0038266D01*
X0019682Y0038200D01*
X0019825Y0038131D01*
X0019965Y0038058D01*
X0020104Y0037982D01*
X0020241Y0037902D01*
X0020376Y0037819D01*
X0020508Y0037733D01*
X0020639Y0037643D01*
X0020767Y0037550D01*
X0020893Y0037454D01*
X0021016Y0037354D01*
X0021136Y0037252D01*
X0021255Y0037146D01*
X0021370Y0037038D01*
X0021483Y0036927D01*
X0021593Y0036813D01*
X0021699Y0036696D01*
X0021803Y0036576D01*
X0021904Y0036454D01*
X0022002Y0036330D01*
X0022097Y0036203D01*
X0022188Y0036074D01*
X0022276Y0035942D01*
X0022361Y0035809D01*
X0022443Y0035673D01*
X0022521Y0035535D01*
X0022595Y0035395D01*
X0022666Y0035254D01*
X0022734Y0035111D01*
X0022797Y0034966D01*
X0022858Y0034819D01*
X0022914Y0034671D01*
X0022967Y0034522D01*
X0023016Y0034371D01*
X0023061Y0034220D01*
X0023102Y0034067D01*
X0023140Y0033913D01*
X0023173Y0033758D01*
X0023203Y0033603D01*
X0023229Y0033446D01*
X0023250Y0033290D01*
X0023268Y0033132D01*
X0023282Y0032975D01*
X0023292Y0032817D01*
X0023298Y0032658D01*
X0023300Y0032500D01*
X0023298Y0032342D01*
X0023292Y0032183D01*
X0023282Y0032025D01*
X0023268Y0031868D01*
X0023250Y0031710D01*
X0023229Y0031554D01*
X0023203Y0031397D01*
X0023173Y0031242D01*
X0023140Y0031087D01*
X0023102Y0030933D01*
X0023061Y0030780D01*
X0023016Y0030629D01*
X0022967Y0030478D01*
X0022914Y0030329D01*
X0022858Y0030181D01*
X0022797Y0030034D01*
X0022734Y0029889D01*
X0022666Y0029746D01*
X0022595Y0029605D01*
X0022521Y0029465D01*
X0022443Y0029327D01*
X0022361Y0029191D01*
X0022276Y0029058D01*
X0022188Y0028926D01*
X0022097Y0028797D01*
X0022002Y0028670D01*
X0021904Y0028546D01*
X0021803Y0028424D01*
X0021699Y0028304D01*
X0021593Y0028187D01*
X0021483Y0028073D01*
X0021370Y0027962D01*
X0021255Y0027854D01*
X0021136Y0027748D01*
X0021016Y0027646D01*
X0020893Y0027546D01*
X0020767Y0027450D01*
X0020639Y0027357D01*
X0020508Y0027267D01*
X0020376Y0027181D01*
X0020241Y0027098D01*
X0020104Y0027018D01*
X0019965Y0026942D01*
X0019825Y0026869D01*
X0019682Y0026800D01*
X0019538Y0026734D01*
X0019393Y0026672D01*
X0019245Y0026614D01*
X0019097Y0026559D01*
X0018947Y0026508D01*
X0018796Y0026461D01*
X0018643Y0026418D01*
X0018490Y0026379D01*
X0018336Y0026343D01*
X0018181Y0026312D01*
X0018025Y0026284D01*
X0017868Y0026260D01*
X0017711Y0026240D01*
X0017553Y0026224D01*
X0017396Y0026212D01*
X0017237Y0026204D01*
X0017079Y0026200D01*
X0016921Y0026200D01*
X0016763Y0026204D01*
X0016604Y0026212D01*
X0016447Y0026224D01*
X0016289Y0026240D01*
X0016132Y0026260D01*
X0015975Y0026284D01*
X0015819Y0026312D01*
X0015664Y0026343D01*
X0015510Y0026379D01*
X0015357Y0026418D01*
X0015204Y0026461D01*
X0015053Y0026508D01*
X0014903Y0026559D01*
X0014755Y0026614D01*
X0014607Y0026672D01*
X0014462Y0026734D01*
X0014318Y0026800D01*
X0014175Y0026869D01*
X0014035Y0026942D01*
X0013896Y0027018D01*
X0013759Y0027098D01*
X0013624Y0027181D01*
X0013492Y0027267D01*
X0013361Y0027357D01*
X0013233Y0027450D01*
X0013107Y0027546D01*
X0012984Y0027646D01*
X0012864Y0027748D01*
X0012745Y0027854D01*
X0012630Y0027962D01*
X0012517Y0028073D01*
X0012407Y0028187D01*
X0012301Y0028304D01*
X0012197Y0028424D01*
X0012096Y0028546D01*
X0011998Y0028670D01*
X0011903Y0028797D01*
X0011812Y0028926D01*
X0011724Y0029058D01*
X0011639Y0029191D01*
X0011557Y0029327D01*
X0011479Y0029465D01*
X0011405Y0029605D01*
X0011334Y0029746D01*
X0011266Y0029889D01*
X0011203Y0030034D01*
X0011142Y0030181D01*
X0011086Y0030329D01*
X0011033Y0030478D01*
X0010984Y0030629D01*
X0010939Y0030780D01*
X0010898Y0030933D01*
X0010860Y0031087D01*
X0010827Y0031242D01*
X0010797Y0031397D01*
X0010771Y0031554D01*
X0010750Y0031710D01*
X0010732Y0031868D01*
X0010718Y0032025D01*
X0010708Y0032183D01*
X0010702Y0032342D01*
X0010700Y0032500D01*
X0070700Y0230000D02*
X0070702Y0230158D01*
X0070708Y0230317D01*
X0070718Y0230475D01*
X0070732Y0230632D01*
X0070750Y0230790D01*
X0070771Y0230946D01*
X0070797Y0231103D01*
X0070827Y0231258D01*
X0070860Y0231413D01*
X0070898Y0231567D01*
X0070939Y0231720D01*
X0070984Y0231871D01*
X0071033Y0232022D01*
X0071086Y0232171D01*
X0071142Y0232319D01*
X0071203Y0232466D01*
X0071266Y0232611D01*
X0071334Y0232754D01*
X0071405Y0232895D01*
X0071479Y0233035D01*
X0071557Y0233173D01*
X0071639Y0233309D01*
X0071724Y0233442D01*
X0071812Y0233574D01*
X0071903Y0233703D01*
X0071998Y0233830D01*
X0072096Y0233954D01*
X0072197Y0234076D01*
X0072301Y0234196D01*
X0072407Y0234313D01*
X0072517Y0234427D01*
X0072630Y0234538D01*
X0072745Y0234646D01*
X0072864Y0234752D01*
X0072984Y0234854D01*
X0073107Y0234954D01*
X0073233Y0235050D01*
X0073361Y0235143D01*
X0073492Y0235233D01*
X0073624Y0235319D01*
X0073759Y0235402D01*
X0073896Y0235482D01*
X0074035Y0235558D01*
X0074175Y0235631D01*
X0074318Y0235700D01*
X0074462Y0235766D01*
X0074607Y0235828D01*
X0074755Y0235886D01*
X0074903Y0235941D01*
X0075053Y0235992D01*
X0075204Y0236039D01*
X0075357Y0236082D01*
X0075510Y0236121D01*
X0075664Y0236157D01*
X0075819Y0236188D01*
X0075975Y0236216D01*
X0076132Y0236240D01*
X0076289Y0236260D01*
X0076447Y0236276D01*
X0076604Y0236288D01*
X0076763Y0236296D01*
X0076921Y0236300D01*
X0077079Y0236300D01*
X0077237Y0236296D01*
X0077396Y0236288D01*
X0077553Y0236276D01*
X0077711Y0236260D01*
X0077868Y0236240D01*
X0078025Y0236216D01*
X0078181Y0236188D01*
X0078336Y0236157D01*
X0078490Y0236121D01*
X0078643Y0236082D01*
X0078796Y0236039D01*
X0078947Y0235992D01*
X0079097Y0235941D01*
X0079245Y0235886D01*
X0079393Y0235828D01*
X0079538Y0235766D01*
X0079682Y0235700D01*
X0079825Y0235631D01*
X0079965Y0235558D01*
X0080104Y0235482D01*
X0080241Y0235402D01*
X0080376Y0235319D01*
X0080508Y0235233D01*
X0080639Y0235143D01*
X0080767Y0235050D01*
X0080893Y0234954D01*
X0081016Y0234854D01*
X0081136Y0234752D01*
X0081255Y0234646D01*
X0081370Y0234538D01*
X0081483Y0234427D01*
X0081593Y0234313D01*
X0081699Y0234196D01*
X0081803Y0234076D01*
X0081904Y0233954D01*
X0082002Y0233830D01*
X0082097Y0233703D01*
X0082188Y0233574D01*
X0082276Y0233442D01*
X0082361Y0233309D01*
X0082443Y0233173D01*
X0082521Y0233035D01*
X0082595Y0232895D01*
X0082666Y0232754D01*
X0082734Y0232611D01*
X0082797Y0232466D01*
X0082858Y0232319D01*
X0082914Y0232171D01*
X0082967Y0232022D01*
X0083016Y0231871D01*
X0083061Y0231720D01*
X0083102Y0231567D01*
X0083140Y0231413D01*
X0083173Y0231258D01*
X0083203Y0231103D01*
X0083229Y0230946D01*
X0083250Y0230790D01*
X0083268Y0230632D01*
X0083282Y0230475D01*
X0083292Y0230317D01*
X0083298Y0230158D01*
X0083300Y0230000D01*
X0083298Y0229842D01*
X0083292Y0229683D01*
X0083282Y0229525D01*
X0083268Y0229368D01*
X0083250Y0229210D01*
X0083229Y0229054D01*
X0083203Y0228897D01*
X0083173Y0228742D01*
X0083140Y0228587D01*
X0083102Y0228433D01*
X0083061Y0228280D01*
X0083016Y0228129D01*
X0082967Y0227978D01*
X0082914Y0227829D01*
X0082858Y0227681D01*
X0082797Y0227534D01*
X0082734Y0227389D01*
X0082666Y0227246D01*
X0082595Y0227105D01*
X0082521Y0226965D01*
X0082443Y0226827D01*
X0082361Y0226691D01*
X0082276Y0226558D01*
X0082188Y0226426D01*
X0082097Y0226297D01*
X0082002Y0226170D01*
X0081904Y0226046D01*
X0081803Y0225924D01*
X0081699Y0225804D01*
X0081593Y0225687D01*
X0081483Y0225573D01*
X0081370Y0225462D01*
X0081255Y0225354D01*
X0081136Y0225248D01*
X0081016Y0225146D01*
X0080893Y0225046D01*
X0080767Y0224950D01*
X0080639Y0224857D01*
X0080508Y0224767D01*
X0080376Y0224681D01*
X0080241Y0224598D01*
X0080104Y0224518D01*
X0079965Y0224442D01*
X0079825Y0224369D01*
X0079682Y0224300D01*
X0079538Y0224234D01*
X0079393Y0224172D01*
X0079245Y0224114D01*
X0079097Y0224059D01*
X0078947Y0224008D01*
X0078796Y0223961D01*
X0078643Y0223918D01*
X0078490Y0223879D01*
X0078336Y0223843D01*
X0078181Y0223812D01*
X0078025Y0223784D01*
X0077868Y0223760D01*
X0077711Y0223740D01*
X0077553Y0223724D01*
X0077396Y0223712D01*
X0077237Y0223704D01*
X0077079Y0223700D01*
X0076921Y0223700D01*
X0076763Y0223704D01*
X0076604Y0223712D01*
X0076447Y0223724D01*
X0076289Y0223740D01*
X0076132Y0223760D01*
X0075975Y0223784D01*
X0075819Y0223812D01*
X0075664Y0223843D01*
X0075510Y0223879D01*
X0075357Y0223918D01*
X0075204Y0223961D01*
X0075053Y0224008D01*
X0074903Y0224059D01*
X0074755Y0224114D01*
X0074607Y0224172D01*
X0074462Y0224234D01*
X0074318Y0224300D01*
X0074175Y0224369D01*
X0074035Y0224442D01*
X0073896Y0224518D01*
X0073759Y0224598D01*
X0073624Y0224681D01*
X0073492Y0224767D01*
X0073361Y0224857D01*
X0073233Y0224950D01*
X0073107Y0225046D01*
X0072984Y0225146D01*
X0072864Y0225248D01*
X0072745Y0225354D01*
X0072630Y0225462D01*
X0072517Y0225573D01*
X0072407Y0225687D01*
X0072301Y0225804D01*
X0072197Y0225924D01*
X0072096Y0226046D01*
X0071998Y0226170D01*
X0071903Y0226297D01*
X0071812Y0226426D01*
X0071724Y0226558D01*
X0071639Y0226691D01*
X0071557Y0226827D01*
X0071479Y0226965D01*
X0071405Y0227105D01*
X0071334Y0227246D01*
X0071266Y0227389D01*
X0071203Y0227534D01*
X0071142Y0227681D01*
X0071086Y0227829D01*
X0071033Y0227978D01*
X0070984Y0228129D01*
X0070939Y0228280D01*
X0070898Y0228433D01*
X0070860Y0228587D01*
X0070827Y0228742D01*
X0070797Y0228897D01*
X0070771Y0229054D01*
X0070750Y0229210D01*
X0070732Y0229368D01*
X0070718Y0229525D01*
X0070708Y0229683D01*
X0070702Y0229842D01*
X0070700Y0230000D01*
X0180700Y0230000D02*
X0180702Y0230158D01*
X0180708Y0230317D01*
X0180718Y0230475D01*
X0180732Y0230632D01*
X0180750Y0230790D01*
X0180771Y0230946D01*
X0180797Y0231103D01*
X0180827Y0231258D01*
X0180860Y0231413D01*
X0180898Y0231567D01*
X0180939Y0231720D01*
X0180984Y0231871D01*
X0181033Y0232022D01*
X0181086Y0232171D01*
X0181142Y0232319D01*
X0181203Y0232466D01*
X0181266Y0232611D01*
X0181334Y0232754D01*
X0181405Y0232895D01*
X0181479Y0233035D01*
X0181557Y0233173D01*
X0181639Y0233309D01*
X0181724Y0233442D01*
X0181812Y0233574D01*
X0181903Y0233703D01*
X0181998Y0233830D01*
X0182096Y0233954D01*
X0182197Y0234076D01*
X0182301Y0234196D01*
X0182407Y0234313D01*
X0182517Y0234427D01*
X0182630Y0234538D01*
X0182745Y0234646D01*
X0182864Y0234752D01*
X0182984Y0234854D01*
X0183107Y0234954D01*
X0183233Y0235050D01*
X0183361Y0235143D01*
X0183492Y0235233D01*
X0183624Y0235319D01*
X0183759Y0235402D01*
X0183896Y0235482D01*
X0184035Y0235558D01*
X0184175Y0235631D01*
X0184318Y0235700D01*
X0184462Y0235766D01*
X0184607Y0235828D01*
X0184755Y0235886D01*
X0184903Y0235941D01*
X0185053Y0235992D01*
X0185204Y0236039D01*
X0185357Y0236082D01*
X0185510Y0236121D01*
X0185664Y0236157D01*
X0185819Y0236188D01*
X0185975Y0236216D01*
X0186132Y0236240D01*
X0186289Y0236260D01*
X0186447Y0236276D01*
X0186604Y0236288D01*
X0186763Y0236296D01*
X0186921Y0236300D01*
X0187079Y0236300D01*
X0187237Y0236296D01*
X0187396Y0236288D01*
X0187553Y0236276D01*
X0187711Y0236260D01*
X0187868Y0236240D01*
X0188025Y0236216D01*
X0188181Y0236188D01*
X0188336Y0236157D01*
X0188490Y0236121D01*
X0188643Y0236082D01*
X0188796Y0236039D01*
X0188947Y0235992D01*
X0189097Y0235941D01*
X0189245Y0235886D01*
X0189393Y0235828D01*
X0189538Y0235766D01*
X0189682Y0235700D01*
X0189825Y0235631D01*
X0189965Y0235558D01*
X0190104Y0235482D01*
X0190241Y0235402D01*
X0190376Y0235319D01*
X0190508Y0235233D01*
X0190639Y0235143D01*
X0190767Y0235050D01*
X0190893Y0234954D01*
X0191016Y0234854D01*
X0191136Y0234752D01*
X0191255Y0234646D01*
X0191370Y0234538D01*
X0191483Y0234427D01*
X0191593Y0234313D01*
X0191699Y0234196D01*
X0191803Y0234076D01*
X0191904Y0233954D01*
X0192002Y0233830D01*
X0192097Y0233703D01*
X0192188Y0233574D01*
X0192276Y0233442D01*
X0192361Y0233309D01*
X0192443Y0233173D01*
X0192521Y0233035D01*
X0192595Y0232895D01*
X0192666Y0232754D01*
X0192734Y0232611D01*
X0192797Y0232466D01*
X0192858Y0232319D01*
X0192914Y0232171D01*
X0192967Y0232022D01*
X0193016Y0231871D01*
X0193061Y0231720D01*
X0193102Y0231567D01*
X0193140Y0231413D01*
X0193173Y0231258D01*
X0193203Y0231103D01*
X0193229Y0230946D01*
X0193250Y0230790D01*
X0193268Y0230632D01*
X0193282Y0230475D01*
X0193292Y0230317D01*
X0193298Y0230158D01*
X0193300Y0230000D01*
X0193298Y0229842D01*
X0193292Y0229683D01*
X0193282Y0229525D01*
X0193268Y0229368D01*
X0193250Y0229210D01*
X0193229Y0229054D01*
X0193203Y0228897D01*
X0193173Y0228742D01*
X0193140Y0228587D01*
X0193102Y0228433D01*
X0193061Y0228280D01*
X0193016Y0228129D01*
X0192967Y0227978D01*
X0192914Y0227829D01*
X0192858Y0227681D01*
X0192797Y0227534D01*
X0192734Y0227389D01*
X0192666Y0227246D01*
X0192595Y0227105D01*
X0192521Y0226965D01*
X0192443Y0226827D01*
X0192361Y0226691D01*
X0192276Y0226558D01*
X0192188Y0226426D01*
X0192097Y0226297D01*
X0192002Y0226170D01*
X0191904Y0226046D01*
X0191803Y0225924D01*
X0191699Y0225804D01*
X0191593Y0225687D01*
X0191483Y0225573D01*
X0191370Y0225462D01*
X0191255Y0225354D01*
X0191136Y0225248D01*
X0191016Y0225146D01*
X0190893Y0225046D01*
X0190767Y0224950D01*
X0190639Y0224857D01*
X0190508Y0224767D01*
X0190376Y0224681D01*
X0190241Y0224598D01*
X0190104Y0224518D01*
X0189965Y0224442D01*
X0189825Y0224369D01*
X0189682Y0224300D01*
X0189538Y0224234D01*
X0189393Y0224172D01*
X0189245Y0224114D01*
X0189097Y0224059D01*
X0188947Y0224008D01*
X0188796Y0223961D01*
X0188643Y0223918D01*
X0188490Y0223879D01*
X0188336Y0223843D01*
X0188181Y0223812D01*
X0188025Y0223784D01*
X0187868Y0223760D01*
X0187711Y0223740D01*
X0187553Y0223724D01*
X0187396Y0223712D01*
X0187237Y0223704D01*
X0187079Y0223700D01*
X0186921Y0223700D01*
X0186763Y0223704D01*
X0186604Y0223712D01*
X0186447Y0223724D01*
X0186289Y0223740D01*
X0186132Y0223760D01*
X0185975Y0223784D01*
X0185819Y0223812D01*
X0185664Y0223843D01*
X0185510Y0223879D01*
X0185357Y0223918D01*
X0185204Y0223961D01*
X0185053Y0224008D01*
X0184903Y0224059D01*
X0184755Y0224114D01*
X0184607Y0224172D01*
X0184462Y0224234D01*
X0184318Y0224300D01*
X0184175Y0224369D01*
X0184035Y0224442D01*
X0183896Y0224518D01*
X0183759Y0224598D01*
X0183624Y0224681D01*
X0183492Y0224767D01*
X0183361Y0224857D01*
X0183233Y0224950D01*
X0183107Y0225046D01*
X0182984Y0225146D01*
X0182864Y0225248D01*
X0182745Y0225354D01*
X0182630Y0225462D01*
X0182517Y0225573D01*
X0182407Y0225687D01*
X0182301Y0225804D01*
X0182197Y0225924D01*
X0182096Y0226046D01*
X0181998Y0226170D01*
X0181903Y0226297D01*
X0181812Y0226426D01*
X0181724Y0226558D01*
X0181639Y0226691D01*
X0181557Y0226827D01*
X0181479Y0226965D01*
X0181405Y0227105D01*
X0181334Y0227246D01*
X0181266Y0227389D01*
X0181203Y0227534D01*
X0181142Y0227681D01*
X0181086Y0227829D01*
X0181033Y0227978D01*
X0180984Y0228129D01*
X0180939Y0228280D01*
X0180898Y0228433D01*
X0180860Y0228587D01*
X0180827Y0228742D01*
X0180797Y0228897D01*
X0180771Y0229054D01*
X0180750Y0229210D01*
X0180732Y0229368D01*
X0180718Y0229525D01*
X0180708Y0229683D01*
X0180702Y0229842D01*
X0180700Y0230000D01*
X0200700Y0025000D02*
X0200702Y0025158D01*
X0200708Y0025317D01*
X0200718Y0025475D01*
X0200732Y0025632D01*
X0200750Y0025790D01*
X0200771Y0025946D01*
X0200797Y0026103D01*
X0200827Y0026258D01*
X0200860Y0026413D01*
X0200898Y0026567D01*
X0200939Y0026720D01*
X0200984Y0026871D01*
X0201033Y0027022D01*
X0201086Y0027171D01*
X0201142Y0027319D01*
X0201203Y0027466D01*
X0201266Y0027611D01*
X0201334Y0027754D01*
X0201405Y0027895D01*
X0201479Y0028035D01*
X0201557Y0028173D01*
X0201639Y0028309D01*
X0201724Y0028442D01*
X0201812Y0028574D01*
X0201903Y0028703D01*
X0201998Y0028830D01*
X0202096Y0028954D01*
X0202197Y0029076D01*
X0202301Y0029196D01*
X0202407Y0029313D01*
X0202517Y0029427D01*
X0202630Y0029538D01*
X0202745Y0029646D01*
X0202864Y0029752D01*
X0202984Y0029854D01*
X0203107Y0029954D01*
X0203233Y0030050D01*
X0203361Y0030143D01*
X0203492Y0030233D01*
X0203624Y0030319D01*
X0203759Y0030402D01*
X0203896Y0030482D01*
X0204035Y0030558D01*
X0204175Y0030631D01*
X0204318Y0030700D01*
X0204462Y0030766D01*
X0204607Y0030828D01*
X0204755Y0030886D01*
X0204903Y0030941D01*
X0205053Y0030992D01*
X0205204Y0031039D01*
X0205357Y0031082D01*
X0205510Y0031121D01*
X0205664Y0031157D01*
X0205819Y0031188D01*
X0205975Y0031216D01*
X0206132Y0031240D01*
X0206289Y0031260D01*
X0206447Y0031276D01*
X0206604Y0031288D01*
X0206763Y0031296D01*
X0206921Y0031300D01*
X0207079Y0031300D01*
X0207237Y0031296D01*
X0207396Y0031288D01*
X0207553Y0031276D01*
X0207711Y0031260D01*
X0207868Y0031240D01*
X0208025Y0031216D01*
X0208181Y0031188D01*
X0208336Y0031157D01*
X0208490Y0031121D01*
X0208643Y0031082D01*
X0208796Y0031039D01*
X0208947Y0030992D01*
X0209097Y0030941D01*
X0209245Y0030886D01*
X0209393Y0030828D01*
X0209538Y0030766D01*
X0209682Y0030700D01*
X0209825Y0030631D01*
X0209965Y0030558D01*
X0210104Y0030482D01*
X0210241Y0030402D01*
X0210376Y0030319D01*
X0210508Y0030233D01*
X0210639Y0030143D01*
X0210767Y0030050D01*
X0210893Y0029954D01*
X0211016Y0029854D01*
X0211136Y0029752D01*
X0211255Y0029646D01*
X0211370Y0029538D01*
X0211483Y0029427D01*
X0211593Y0029313D01*
X0211699Y0029196D01*
X0211803Y0029076D01*
X0211904Y0028954D01*
X0212002Y0028830D01*
X0212097Y0028703D01*
X0212188Y0028574D01*
X0212276Y0028442D01*
X0212361Y0028309D01*
X0212443Y0028173D01*
X0212521Y0028035D01*
X0212595Y0027895D01*
X0212666Y0027754D01*
X0212734Y0027611D01*
X0212797Y0027466D01*
X0212858Y0027319D01*
X0212914Y0027171D01*
X0212967Y0027022D01*
X0213016Y0026871D01*
X0213061Y0026720D01*
X0213102Y0026567D01*
X0213140Y0026413D01*
X0213173Y0026258D01*
X0213203Y0026103D01*
X0213229Y0025946D01*
X0213250Y0025790D01*
X0213268Y0025632D01*
X0213282Y0025475D01*
X0213292Y0025317D01*
X0213298Y0025158D01*
X0213300Y0025000D01*
X0213298Y0024842D01*
X0213292Y0024683D01*
X0213282Y0024525D01*
X0213268Y0024368D01*
X0213250Y0024210D01*
X0213229Y0024054D01*
X0213203Y0023897D01*
X0213173Y0023742D01*
X0213140Y0023587D01*
X0213102Y0023433D01*
X0213061Y0023280D01*
X0213016Y0023129D01*
X0212967Y0022978D01*
X0212914Y0022829D01*
X0212858Y0022681D01*
X0212797Y0022534D01*
X0212734Y0022389D01*
X0212666Y0022246D01*
X0212595Y0022105D01*
X0212521Y0021965D01*
X0212443Y0021827D01*
X0212361Y0021691D01*
X0212276Y0021558D01*
X0212188Y0021426D01*
X0212097Y0021297D01*
X0212002Y0021170D01*
X0211904Y0021046D01*
X0211803Y0020924D01*
X0211699Y0020804D01*
X0211593Y0020687D01*
X0211483Y0020573D01*
X0211370Y0020462D01*
X0211255Y0020354D01*
X0211136Y0020248D01*
X0211016Y0020146D01*
X0210893Y0020046D01*
X0210767Y0019950D01*
X0210639Y0019857D01*
X0210508Y0019767D01*
X0210376Y0019681D01*
X0210241Y0019598D01*
X0210104Y0019518D01*
X0209965Y0019442D01*
X0209825Y0019369D01*
X0209682Y0019300D01*
X0209538Y0019234D01*
X0209393Y0019172D01*
X0209245Y0019114D01*
X0209097Y0019059D01*
X0208947Y0019008D01*
X0208796Y0018961D01*
X0208643Y0018918D01*
X0208490Y0018879D01*
X0208336Y0018843D01*
X0208181Y0018812D01*
X0208025Y0018784D01*
X0207868Y0018760D01*
X0207711Y0018740D01*
X0207553Y0018724D01*
X0207396Y0018712D01*
X0207237Y0018704D01*
X0207079Y0018700D01*
X0206921Y0018700D01*
X0206763Y0018704D01*
X0206604Y0018712D01*
X0206447Y0018724D01*
X0206289Y0018740D01*
X0206132Y0018760D01*
X0205975Y0018784D01*
X0205819Y0018812D01*
X0205664Y0018843D01*
X0205510Y0018879D01*
X0205357Y0018918D01*
X0205204Y0018961D01*
X0205053Y0019008D01*
X0204903Y0019059D01*
X0204755Y0019114D01*
X0204607Y0019172D01*
X0204462Y0019234D01*
X0204318Y0019300D01*
X0204175Y0019369D01*
X0204035Y0019442D01*
X0203896Y0019518D01*
X0203759Y0019598D01*
X0203624Y0019681D01*
X0203492Y0019767D01*
X0203361Y0019857D01*
X0203233Y0019950D01*
X0203107Y0020046D01*
X0202984Y0020146D01*
X0202864Y0020248D01*
X0202745Y0020354D01*
X0202630Y0020462D01*
X0202517Y0020573D01*
X0202407Y0020687D01*
X0202301Y0020804D01*
X0202197Y0020924D01*
X0202096Y0021046D01*
X0201998Y0021170D01*
X0201903Y0021297D01*
X0201812Y0021426D01*
X0201724Y0021558D01*
X0201639Y0021691D01*
X0201557Y0021827D01*
X0201479Y0021965D01*
X0201405Y0022105D01*
X0201334Y0022246D01*
X0201266Y0022389D01*
X0201203Y0022534D01*
X0201142Y0022681D01*
X0201086Y0022829D01*
X0201033Y0022978D01*
X0200984Y0023129D01*
X0200939Y0023280D01*
X0200898Y0023433D01*
X0200860Y0023587D01*
X0200827Y0023742D01*
X0200797Y0023897D01*
X0200771Y0024054D01*
X0200750Y0024210D01*
X0200732Y0024368D01*
X0200718Y0024525D01*
X0200708Y0024683D01*
X0200702Y0024842D01*
X0200700Y0025000D01*
D11*
X0194850Y0031830D02*
X0191714Y0034966D01*
X0191714Y0033398D02*
X0194850Y0033398D01*
X0194850Y0034966D02*
X0191714Y0031830D01*
X0193282Y0031830D02*
X0193282Y0034966D01*
X0171138Y0029852D02*
X0171138Y0027917D01*
X0170171Y0026950D01*
X0169203Y0027917D01*
X0169203Y0029852D01*
X0168192Y0029369D02*
X0167708Y0029852D01*
X0166741Y0029852D01*
X0166257Y0029369D01*
X0168192Y0029369D02*
X0168192Y0028885D01*
X0166257Y0026950D01*
X0168192Y0026950D01*
X0165245Y0026950D02*
X0163310Y0026950D01*
X0164278Y0026950D02*
X0164278Y0029852D01*
X0163310Y0028885D01*
X0156850Y0035150D02*
X0154915Y0035150D01*
X0153948Y0036117D01*
X0154915Y0037085D01*
X0156850Y0037085D01*
X0156850Y0038097D02*
X0156850Y0040031D01*
X0156366Y0041043D02*
X0156850Y0041527D01*
X0156850Y0042494D01*
X0156366Y0042978D01*
X0154431Y0042978D02*
X0153948Y0042494D01*
X0153948Y0041527D01*
X0154431Y0041043D01*
X0156366Y0041043D01*
X0156850Y0038097D02*
X0153948Y0038097D01*
X0155399Y0037085D02*
X0155399Y0035150D01*
X0151850Y0034511D02*
X0148948Y0034511D01*
X0148948Y0035478D02*
X0148948Y0033543D01*
X0149431Y0032531D02*
X0148948Y0032048D01*
X0148948Y0031080D01*
X0149431Y0030597D01*
X0149915Y0030597D01*
X0150399Y0031080D01*
X0150399Y0032048D01*
X0150883Y0032531D01*
X0151366Y0032531D01*
X0151850Y0032048D01*
X0151850Y0031080D01*
X0151366Y0030597D01*
X0151850Y0029585D02*
X0150883Y0028617D01*
X0150883Y0029101D02*
X0150883Y0027650D01*
X0151850Y0027650D02*
X0148948Y0027650D01*
X0148948Y0029101D01*
X0149431Y0029585D01*
X0150399Y0029585D01*
X0150883Y0029101D01*
X0146138Y0027352D02*
X0144203Y0027352D01*
X0145171Y0027352D02*
X0145171Y0024450D01*
X0142224Y0024450D02*
X0142224Y0027352D01*
X0141257Y0027352D02*
X0143192Y0027352D01*
X0140245Y0026869D02*
X0140245Y0025901D01*
X0139762Y0025417D01*
X0138310Y0025417D01*
X0138310Y0024450D02*
X0138310Y0027352D01*
X0139762Y0027352D01*
X0140245Y0026869D01*
X0131138Y0026869D02*
X0131138Y0027352D01*
X0131138Y0026869D02*
X0130171Y0025901D01*
X0130171Y0024450D01*
X0130171Y0025901D02*
X0129203Y0026869D01*
X0129203Y0027352D01*
X0128192Y0027352D02*
X0126257Y0027352D01*
X0126257Y0024450D01*
X0128192Y0024450D01*
X0127224Y0025901D02*
X0126257Y0025901D01*
X0125245Y0024450D02*
X0123794Y0025901D01*
X0123310Y0025417D02*
X0125245Y0027352D01*
X0123310Y0027352D02*
X0123310Y0024450D01*
X0116511Y0025150D02*
X0116511Y0028052D01*
X0117478Y0028052D02*
X0115543Y0028052D01*
X0114531Y0028052D02*
X0114531Y0025150D01*
X0112597Y0025150D02*
X0112597Y0028052D01*
X0113564Y0027085D01*
X0114531Y0028052D01*
X0111585Y0027569D02*
X0111585Y0026601D01*
X0111101Y0026117D01*
X0109650Y0026117D01*
X0109650Y0025150D02*
X0109650Y0028052D01*
X0111101Y0028052D01*
X0111585Y0027569D01*
X0110617Y0026117D02*
X0111585Y0025150D01*
X0111100Y0011353D02*
X0111718Y0010736D01*
X0109249Y0008267D01*
X0109866Y0007650D01*
X0111100Y0007650D01*
X0111718Y0008267D01*
X0111718Y0010736D01*
X0111100Y0011353D02*
X0109866Y0011353D01*
X0109249Y0010736D01*
X0109249Y0008267D01*
X0108034Y0008267D02*
X0107417Y0007650D01*
X0106183Y0007650D01*
X0105566Y0008267D01*
X0108034Y0010736D01*
X0108034Y0008267D01*
X0105566Y0008267D02*
X0105566Y0010736D01*
X0106183Y0011353D01*
X0107417Y0011353D01*
X0108034Y0010736D01*
X0104351Y0010736D02*
X0104351Y0008267D01*
X0103734Y0007650D01*
X0102500Y0007650D01*
X0101883Y0008267D01*
X0104351Y0010736D01*
X0103734Y0011353D01*
X0102500Y0011353D01*
X0101883Y0010736D01*
X0101883Y0008267D01*
X0100668Y0009502D02*
X0098199Y0009502D01*
X0096985Y0010736D02*
X0096985Y0008267D01*
X0096368Y0007650D01*
X0095133Y0007650D01*
X0094516Y0008267D01*
X0096985Y0010736D01*
X0096368Y0011353D01*
X0095133Y0011353D01*
X0094516Y0010736D01*
X0094516Y0008267D01*
X0093302Y0008267D02*
X0093302Y0010736D01*
X0090833Y0008267D01*
X0091450Y0007650D01*
X0092685Y0007650D01*
X0093302Y0008267D01*
X0090833Y0008267D02*
X0090833Y0010736D01*
X0091450Y0011353D01*
X0092685Y0011353D01*
X0093302Y0010736D01*
X0089619Y0007650D02*
X0087150Y0007650D01*
X0088384Y0007650D02*
X0088384Y0011353D01*
X0087150Y0010119D01*
X0112932Y0009502D02*
X0115401Y0009502D01*
X0116615Y0009502D02*
X0119084Y0009502D01*
X0120298Y0009502D02*
X0121533Y0010119D01*
X0122150Y0010119D01*
X0122767Y0009502D01*
X0122767Y0008267D01*
X0122150Y0007650D01*
X0120915Y0007650D01*
X0120298Y0008267D01*
X0120298Y0009502D02*
X0120298Y0011353D01*
X0122767Y0011353D01*
X0123981Y0010736D02*
X0123981Y0008267D01*
X0126450Y0010736D01*
X0126450Y0008267D01*
X0125833Y0007650D01*
X0124599Y0007650D01*
X0123981Y0008267D01*
X0123981Y0010736D02*
X0124599Y0011353D01*
X0125833Y0011353D01*
X0126450Y0010736D01*
X0127665Y0010736D02*
X0128282Y0011353D01*
X0129516Y0011353D01*
X0130133Y0010736D01*
X0127665Y0008267D01*
X0128282Y0007650D01*
X0129516Y0007650D01*
X0130133Y0008267D01*
X0130133Y0010736D01*
X0127665Y0010736D02*
X0127665Y0008267D01*
X0135031Y0007650D02*
X0135031Y0011353D01*
X0136882Y0011353D01*
X0137500Y0010736D01*
X0137500Y0009502D01*
X0136882Y0008884D01*
X0135031Y0008884D01*
X0136265Y0008884D02*
X0137500Y0007650D01*
X0138714Y0008267D02*
X0138714Y0009502D01*
X0139331Y0010119D01*
X0140566Y0010119D01*
X0141183Y0009502D01*
X0141183Y0008884D01*
X0138714Y0008884D01*
X0138714Y0008267D02*
X0139331Y0007650D01*
X0140566Y0007650D01*
X0143632Y0007650D02*
X0142397Y0010119D01*
X0144866Y0010119D02*
X0143632Y0007650D01*
X0149763Y0007650D02*
X0152232Y0007650D01*
X0150998Y0009502D02*
X0149763Y0009502D01*
X0149763Y0011353D02*
X0149763Y0007650D01*
X0149763Y0011353D02*
X0152232Y0011353D01*
X0114784Y0011353D02*
X0114784Y0007650D01*
X0112932Y0009502D02*
X0114784Y0011353D01*
X0164314Y0080730D02*
X0167450Y0083866D01*
X0165882Y0083866D02*
X0165882Y0080730D01*
X0167450Y0080730D02*
X0164314Y0083866D01*
X0164314Y0082298D02*
X0167450Y0082298D01*
X0176264Y0120150D02*
X0178733Y0120150D01*
X0179350Y0120767D01*
X0179350Y0122002D01*
X0178733Y0122619D01*
X0179350Y0123833D02*
X0179350Y0126302D01*
X0179350Y0125068D02*
X0175647Y0125068D01*
X0176881Y0123833D01*
X0176264Y0122619D02*
X0175647Y0122002D01*
X0175647Y0120767D01*
X0176264Y0120150D01*
X0144986Y0158634D02*
X0141850Y0161770D01*
X0141850Y0160202D02*
X0144986Y0160202D01*
X0144986Y0161770D02*
X0141850Y0158634D01*
X0143418Y0158634D02*
X0143418Y0161770D01*
X0189148Y0174757D02*
X0189148Y0176692D01*
X0190115Y0177703D02*
X0189148Y0178671D01*
X0192050Y0178671D01*
X0192050Y0179638D02*
X0192050Y0177703D01*
X0190599Y0175724D02*
X0190599Y0174757D01*
X0192050Y0174757D02*
X0189148Y0174757D01*
X0065686Y0154070D02*
X0062550Y0150934D01*
X0062550Y0152502D02*
X0065686Y0152502D01*
X0065686Y0150934D02*
X0062550Y0154070D01*
X0064118Y0154070D02*
X0064118Y0150934D01*
X0012084Y0103918D02*
X0012084Y0103301D01*
X0012084Y0103918D02*
X0011467Y0104535D01*
X0008381Y0104535D01*
X0008381Y0102684D01*
X0008998Y0102066D01*
X0010233Y0102066D01*
X0010850Y0102684D01*
X0010850Y0104535D01*
X0010850Y0105750D02*
X0007147Y0105750D01*
X0008381Y0106367D02*
X0008381Y0107601D01*
X0008998Y0108218D01*
X0010850Y0108218D01*
X0010233Y0110050D02*
X0007764Y0110050D01*
X0008381Y0109433D02*
X0008381Y0110667D01*
X0010233Y0110050D02*
X0010850Y0110667D01*
X0008381Y0106367D02*
X0008998Y0105750D01*
X0010850Y0100845D02*
X0010850Y0099611D01*
X0010850Y0100228D02*
X0008381Y0100228D01*
X0008381Y0099611D01*
X0008381Y0098393D02*
X0008381Y0097776D01*
X0009616Y0096542D01*
X0010850Y0096542D02*
X0008381Y0096542D01*
X0008381Y0095327D02*
X0011467Y0095327D01*
X0012084Y0094710D01*
X0012084Y0094093D01*
X0010850Y0093476D02*
X0010850Y0095327D01*
X0010850Y0093476D02*
X0010233Y0092859D01*
X0008381Y0092859D01*
X0008998Y0091644D02*
X0008381Y0091027D01*
X0008381Y0089175D01*
X0012084Y0089175D01*
X0010850Y0089175D02*
X0010850Y0091027D01*
X0010233Y0091644D01*
X0008998Y0091644D01*
X0008998Y0087961D02*
X0008381Y0087344D01*
X0008381Y0086109D01*
X0008998Y0085492D01*
X0010233Y0085492D01*
X0010850Y0086109D01*
X0010850Y0087344D01*
X0010233Y0087961D01*
X0008998Y0087961D01*
X0008381Y0084278D02*
X0008381Y0082426D01*
X0008998Y0081809D01*
X0010233Y0081809D01*
X0010850Y0082426D01*
X0010850Y0084278D01*
X0007147Y0100228D02*
X0006530Y0100228D01*
X0007764Y0119254D02*
X0007147Y0119872D01*
X0007147Y0121106D01*
X0007764Y0121723D01*
X0008381Y0121723D01*
X0010850Y0119254D01*
X0010850Y0121723D01*
X0010233Y0122938D02*
X0007764Y0125406D01*
X0010233Y0125406D01*
X0010850Y0124789D01*
X0010850Y0123555D01*
X0010233Y0122938D01*
X0007764Y0122938D01*
X0007147Y0123555D01*
X0007147Y0124789D01*
X0007764Y0125406D01*
X0008381Y0126621D02*
X0007147Y0127855D01*
X0010850Y0127855D01*
X0010850Y0126621D02*
X0010850Y0129089D01*
X0010233Y0130304D02*
X0010850Y0130921D01*
X0010850Y0132155D01*
X0010233Y0132773D01*
X0009616Y0132773D01*
X0008998Y0132155D01*
X0008998Y0130304D01*
X0010233Y0130304D01*
X0008998Y0130304D02*
X0007764Y0131538D01*
X0007147Y0132773D01*
X0007147Y0137670D02*
X0007147Y0138905D01*
X0007147Y0138287D02*
X0010850Y0138287D01*
X0010850Y0137670D02*
X0010850Y0138905D01*
X0010850Y0140126D02*
X0008381Y0140126D01*
X0008381Y0141360D02*
X0008381Y0141977D01*
X0008381Y0141360D02*
X0009616Y0140126D01*
X0010233Y0143195D02*
X0010850Y0143812D01*
X0010850Y0145046D01*
X0010233Y0145664D01*
X0008998Y0145664D01*
X0008381Y0145046D01*
X0008381Y0143812D01*
X0008998Y0143195D01*
X0010233Y0143195D01*
X0010850Y0146878D02*
X0008381Y0146878D01*
X0008381Y0148730D01*
X0008998Y0149347D01*
X0010850Y0149347D01*
X0010850Y0154244D02*
X0007147Y0154244D01*
X0008998Y0154244D02*
X0008998Y0156713D01*
X0008998Y0157927D02*
X0008381Y0158545D01*
X0008381Y0159779D01*
X0008998Y0160396D01*
X0009616Y0160396D01*
X0009616Y0157927D01*
X0010233Y0157927D02*
X0008998Y0157927D01*
X0010233Y0157927D02*
X0010850Y0158545D01*
X0010850Y0159779D01*
X0010233Y0161611D02*
X0009616Y0162228D01*
X0009616Y0164079D01*
X0008998Y0164079D02*
X0010850Y0164079D01*
X0010850Y0162228D01*
X0010233Y0161611D01*
X0008381Y0162228D02*
X0008381Y0163462D01*
X0008998Y0164079D01*
X0008381Y0165294D02*
X0010850Y0165294D01*
X0009616Y0165294D02*
X0008381Y0166528D01*
X0008381Y0167145D01*
X0008381Y0168363D02*
X0008381Y0169597D01*
X0007764Y0168980D02*
X0010233Y0168980D01*
X0010850Y0169597D01*
X0010233Y0174502D02*
X0007764Y0174502D01*
X0007147Y0175119D01*
X0007147Y0176353D01*
X0007764Y0176970D01*
X0008998Y0178185D02*
X0008381Y0178802D01*
X0008381Y0180036D01*
X0008998Y0180653D01*
X0010233Y0180653D01*
X0010850Y0180036D01*
X0010850Y0178802D01*
X0010233Y0178185D01*
X0008998Y0178185D01*
X0010233Y0176970D02*
X0010850Y0176353D01*
X0010850Y0175119D01*
X0010233Y0174502D01*
X0010850Y0181868D02*
X0008381Y0181868D01*
X0008381Y0183719D01*
X0008998Y0184337D01*
X0010850Y0184337D01*
X0010850Y0185551D02*
X0010850Y0187403D01*
X0010233Y0188020D01*
X0009616Y0187403D01*
X0009616Y0186168D01*
X0008998Y0185551D01*
X0008381Y0186168D01*
X0008381Y0188020D01*
X0008381Y0189234D02*
X0010233Y0189234D01*
X0010850Y0189851D01*
X0010850Y0191703D01*
X0008381Y0191703D01*
X0007147Y0192917D02*
X0007147Y0193534D01*
X0010850Y0193534D01*
X0010850Y0192917D02*
X0010850Y0194152D01*
X0010233Y0195990D02*
X0007764Y0195990D01*
X0008381Y0195373D02*
X0008381Y0196607D01*
X0008381Y0197828D02*
X0008381Y0198445D01*
X0010850Y0198445D01*
X0010850Y0197828D02*
X0010850Y0199063D01*
X0010850Y0200284D02*
X0008381Y0200284D01*
X0008381Y0202135D01*
X0008998Y0202752D01*
X0010850Y0202752D01*
X0010233Y0203967D02*
X0010850Y0204584D01*
X0010850Y0206435D01*
X0011467Y0206435D02*
X0008381Y0206435D01*
X0008381Y0204584D01*
X0008998Y0203967D01*
X0010233Y0203967D01*
X0012084Y0205201D02*
X0012084Y0205818D01*
X0011467Y0206435D01*
X0007147Y0198445D02*
X0006530Y0198445D01*
X0010233Y0195990D02*
X0010850Y0196607D01*
X0010850Y0156713D02*
X0007147Y0156713D01*
D12*
X0037967Y0012304D02*
X0037200Y0011537D01*
X0037200Y0008467D01*
X0037967Y0007700D01*
X0039502Y0007700D01*
X0040269Y0008467D01*
X0040269Y0010002D01*
X0038735Y0010002D01*
X0040269Y0011537D02*
X0039502Y0012304D01*
X0037967Y0012304D01*
X0041804Y0012304D02*
X0041804Y0007700D01*
X0041804Y0009235D02*
X0044106Y0009235D01*
X0044873Y0010002D01*
X0044873Y0011537D01*
X0044106Y0012304D01*
X0041804Y0012304D01*
X0046408Y0011537D02*
X0046408Y0010769D01*
X0047175Y0010002D01*
X0048710Y0010002D01*
X0049477Y0009235D01*
X0049477Y0008467D01*
X0048710Y0007700D01*
X0047175Y0007700D01*
X0046408Y0008467D01*
X0046408Y0011537D02*
X0047175Y0012304D01*
X0048710Y0012304D01*
X0049477Y0011537D01*
X0055616Y0010769D02*
X0055616Y0007700D01*
X0055616Y0010002D02*
X0058685Y0010002D01*
X0058685Y0010769D02*
X0058685Y0007700D01*
X0060220Y0007700D02*
X0060220Y0010769D01*
X0062522Y0010769D01*
X0063289Y0010002D01*
X0063289Y0007700D01*
X0065591Y0008467D02*
X0065591Y0011537D01*
X0064824Y0010769D02*
X0066358Y0010769D01*
X0065591Y0008467D02*
X0066358Y0007700D01*
X0058685Y0010769D02*
X0057150Y0012304D01*
X0055616Y0010769D01*
D13*
X0038500Y0083500D02*
X0038502Y0083544D01*
X0038508Y0083588D01*
X0038518Y0083631D01*
X0038531Y0083673D01*
X0038548Y0083714D01*
X0038569Y0083753D01*
X0038593Y0083790D01*
X0038620Y0083825D01*
X0038650Y0083857D01*
X0038683Y0083887D01*
X0038719Y0083913D01*
X0038756Y0083937D01*
X0038796Y0083956D01*
X0038837Y0083973D01*
X0038880Y0083985D01*
X0038923Y0083994D01*
X0038967Y0083999D01*
X0039011Y0084000D01*
X0039055Y0083997D01*
X0039099Y0083990D01*
X0039142Y0083979D01*
X0039184Y0083965D01*
X0039224Y0083947D01*
X0039263Y0083925D01*
X0039299Y0083901D01*
X0039333Y0083873D01*
X0039365Y0083842D01*
X0039394Y0083808D01*
X0039420Y0083772D01*
X0039442Y0083734D01*
X0039461Y0083694D01*
X0039476Y0083652D01*
X0039488Y0083610D01*
X0039496Y0083566D01*
X0039500Y0083522D01*
X0039500Y0083478D01*
X0039496Y0083434D01*
X0039488Y0083390D01*
X0039476Y0083348D01*
X0039461Y0083306D01*
X0039442Y0083266D01*
X0039420Y0083228D01*
X0039394Y0083192D01*
X0039365Y0083158D01*
X0039333Y0083127D01*
X0039299Y0083099D01*
X0039263Y0083075D01*
X0039224Y0083053D01*
X0039184Y0083035D01*
X0039142Y0083021D01*
X0039099Y0083010D01*
X0039055Y0083003D01*
X0039011Y0083000D01*
X0038967Y0083001D01*
X0038923Y0083006D01*
X0038880Y0083015D01*
X0038837Y0083027D01*
X0038796Y0083044D01*
X0038756Y0083063D01*
X0038719Y0083087D01*
X0038683Y0083113D01*
X0038650Y0083143D01*
X0038620Y0083175D01*
X0038593Y0083210D01*
X0038569Y0083247D01*
X0038548Y0083286D01*
X0038531Y0083327D01*
X0038518Y0083369D01*
X0038508Y0083412D01*
X0038502Y0083456D01*
X0038500Y0083500D01*
D14*
X0031368Y0076703D02*
X0031935Y0076136D01*
X0031935Y0073867D01*
X0031368Y0073300D01*
X0029666Y0073300D01*
X0029666Y0076703D01*
X0031368Y0076703D01*
X0028252Y0076703D02*
X0028252Y0073300D01*
X0025983Y0076703D01*
X0025983Y0073300D01*
X0024569Y0073867D02*
X0024569Y0075001D01*
X0023434Y0075001D01*
X0022300Y0073867D02*
X0022867Y0073300D01*
X0024001Y0073300D01*
X0024569Y0073867D01*
X0024569Y0076136D02*
X0024001Y0076703D01*
X0022867Y0076703D01*
X0022300Y0076136D01*
X0022300Y0073867D01*
X0023434Y0066703D02*
X0024569Y0065569D01*
X0024569Y0063300D01*
X0025983Y0063300D02*
X0025983Y0066703D01*
X0027685Y0066703D01*
X0028252Y0066136D01*
X0028252Y0065001D01*
X0027685Y0064434D01*
X0025983Y0064434D01*
X0027117Y0064434D02*
X0028252Y0063300D01*
X0029666Y0063300D02*
X0031935Y0063300D01*
X0033349Y0063300D02*
X0033349Y0066703D01*
X0035618Y0066703D01*
X0034484Y0065001D02*
X0033349Y0065001D01*
X0031935Y0066703D02*
X0029666Y0066703D01*
X0029666Y0063300D01*
X0029666Y0065001D02*
X0030801Y0065001D01*
X0024569Y0065001D02*
X0022300Y0065001D01*
X0022300Y0065569D02*
X0023434Y0066703D01*
X0022300Y0065569D02*
X0022300Y0063300D01*
X0022867Y0056703D02*
X0022300Y0056136D01*
X0022300Y0055569D01*
X0022867Y0055001D01*
X0024001Y0055001D01*
X0024569Y0054434D01*
X0024569Y0053867D01*
X0024001Y0053300D01*
X0022867Y0053300D01*
X0022300Y0053867D01*
X0022867Y0056703D02*
X0024001Y0056703D01*
X0024569Y0056136D01*
X0025983Y0056703D02*
X0025983Y0053300D01*
X0027685Y0053300D01*
X0028252Y0053867D01*
X0028252Y0056136D01*
X0027685Y0056703D01*
X0025983Y0056703D01*
X0029666Y0055569D02*
X0029666Y0053300D01*
X0029666Y0055001D02*
X0031935Y0055001D01*
X0031935Y0055569D02*
X0031935Y0053300D01*
X0031935Y0055569D02*
X0030801Y0056703D01*
X0029666Y0055569D01*
X0029666Y0046703D02*
X0029666Y0043300D01*
X0031935Y0043300D01*
X0028252Y0043867D02*
X0027685Y0043300D01*
X0026550Y0043300D01*
X0025983Y0043867D01*
X0025983Y0046136D01*
X0026550Y0046703D01*
X0027685Y0046703D01*
X0028252Y0046136D01*
X0024569Y0046136D02*
X0024001Y0046703D01*
X0022867Y0046703D01*
X0022300Y0046136D01*
X0022300Y0045569D01*
X0022867Y0045001D01*
X0024001Y0045001D01*
X0024569Y0044434D01*
X0024569Y0043867D01*
X0024001Y0043300D01*
X0022867Y0043300D01*
X0022300Y0043867D01*
X0003500Y0032500D02*
X0003504Y0032831D01*
X0003516Y0033162D01*
X0003537Y0033493D01*
X0003565Y0033823D01*
X0003602Y0034153D01*
X0003646Y0034481D01*
X0003699Y0034808D01*
X0003759Y0035134D01*
X0003828Y0035458D01*
X0003905Y0035780D01*
X0003989Y0036101D01*
X0004081Y0036419D01*
X0004181Y0036735D01*
X0004289Y0037048D01*
X0004405Y0037359D01*
X0004528Y0037666D01*
X0004658Y0037971D01*
X0004796Y0038272D01*
X0004941Y0038570D01*
X0005094Y0038864D01*
X0005254Y0039154D01*
X0005421Y0039440D01*
X0005594Y0039722D01*
X0005775Y0040000D01*
X0005963Y0040273D01*
X0006157Y0040542D01*
X0006357Y0040806D01*
X0006564Y0041064D01*
X0006778Y0041318D01*
X0006997Y0041566D01*
X0007223Y0041809D01*
X0007454Y0042046D01*
X0007691Y0042277D01*
X0007934Y0042503D01*
X0008182Y0042722D01*
X0008436Y0042936D01*
X0008694Y0043143D01*
X0008958Y0043343D01*
X0009227Y0043537D01*
X0009500Y0043725D01*
X0009778Y0043906D01*
X0010060Y0044079D01*
X0010346Y0044246D01*
X0010636Y0044406D01*
X0010930Y0044559D01*
X0011228Y0044704D01*
X0011529Y0044842D01*
X0011834Y0044972D01*
X0012141Y0045095D01*
X0012452Y0045211D01*
X0012765Y0045319D01*
X0013081Y0045419D01*
X0013399Y0045511D01*
X0013720Y0045595D01*
X0014042Y0045672D01*
X0014366Y0045741D01*
X0014692Y0045801D01*
X0015019Y0045854D01*
X0015347Y0045898D01*
X0015677Y0045935D01*
X0016007Y0045963D01*
X0016338Y0045984D01*
X0016669Y0045996D01*
X0017000Y0046000D01*
X0017331Y0045996D01*
X0017662Y0045984D01*
X0017993Y0045963D01*
X0018323Y0045935D01*
X0018653Y0045898D01*
X0018981Y0045854D01*
X0019308Y0045801D01*
X0019634Y0045741D01*
X0019958Y0045672D01*
X0020280Y0045595D01*
X0020601Y0045511D01*
X0020919Y0045419D01*
X0021235Y0045319D01*
X0021548Y0045211D01*
X0021859Y0045095D01*
X0022166Y0044972D01*
X0022471Y0044842D01*
X0022772Y0044704D01*
X0023070Y0044559D01*
X0023364Y0044406D01*
X0023654Y0044246D01*
X0023940Y0044079D01*
X0024222Y0043906D01*
X0024500Y0043725D01*
X0024773Y0043537D01*
X0025042Y0043343D01*
X0025306Y0043143D01*
X0025564Y0042936D01*
X0025818Y0042722D01*
X0026066Y0042503D01*
X0026309Y0042277D01*
X0026546Y0042046D01*
X0026777Y0041809D01*
X0027003Y0041566D01*
X0027222Y0041318D01*
X0027436Y0041064D01*
X0027643Y0040806D01*
X0027843Y0040542D01*
X0028037Y0040273D01*
X0028225Y0040000D01*
X0028406Y0039722D01*
X0028579Y0039440D01*
X0028746Y0039154D01*
X0028906Y0038864D01*
X0029059Y0038570D01*
X0029204Y0038272D01*
X0029342Y0037971D01*
X0029472Y0037666D01*
X0029595Y0037359D01*
X0029711Y0037048D01*
X0029819Y0036735D01*
X0029919Y0036419D01*
X0030011Y0036101D01*
X0030095Y0035780D01*
X0030172Y0035458D01*
X0030241Y0035134D01*
X0030301Y0034808D01*
X0030354Y0034481D01*
X0030398Y0034153D01*
X0030435Y0033823D01*
X0030463Y0033493D01*
X0030484Y0033162D01*
X0030496Y0032831D01*
X0030500Y0032500D01*
X0030496Y0032169D01*
X0030484Y0031838D01*
X0030463Y0031507D01*
X0030435Y0031177D01*
X0030398Y0030847D01*
X0030354Y0030519D01*
X0030301Y0030192D01*
X0030241Y0029866D01*
X0030172Y0029542D01*
X0030095Y0029220D01*
X0030011Y0028899D01*
X0029919Y0028581D01*
X0029819Y0028265D01*
X0029711Y0027952D01*
X0029595Y0027641D01*
X0029472Y0027334D01*
X0029342Y0027029D01*
X0029204Y0026728D01*
X0029059Y0026430D01*
X0028906Y0026136D01*
X0028746Y0025846D01*
X0028579Y0025560D01*
X0028406Y0025278D01*
X0028225Y0025000D01*
X0028037Y0024727D01*
X0027843Y0024458D01*
X0027643Y0024194D01*
X0027436Y0023936D01*
X0027222Y0023682D01*
X0027003Y0023434D01*
X0026777Y0023191D01*
X0026546Y0022954D01*
X0026309Y0022723D01*
X0026066Y0022497D01*
X0025818Y0022278D01*
X0025564Y0022064D01*
X0025306Y0021857D01*
X0025042Y0021657D01*
X0024773Y0021463D01*
X0024500Y0021275D01*
X0024222Y0021094D01*
X0023940Y0020921D01*
X0023654Y0020754D01*
X0023364Y0020594D01*
X0023070Y0020441D01*
X0022772Y0020296D01*
X0022471Y0020158D01*
X0022166Y0020028D01*
X0021859Y0019905D01*
X0021548Y0019789D01*
X0021235Y0019681D01*
X0020919Y0019581D01*
X0020601Y0019489D01*
X0020280Y0019405D01*
X0019958Y0019328D01*
X0019634Y0019259D01*
X0019308Y0019199D01*
X0018981Y0019146D01*
X0018653Y0019102D01*
X0018323Y0019065D01*
X0017993Y0019037D01*
X0017662Y0019016D01*
X0017331Y0019004D01*
X0017000Y0019000D01*
X0016669Y0019004D01*
X0016338Y0019016D01*
X0016007Y0019037D01*
X0015677Y0019065D01*
X0015347Y0019102D01*
X0015019Y0019146D01*
X0014692Y0019199D01*
X0014366Y0019259D01*
X0014042Y0019328D01*
X0013720Y0019405D01*
X0013399Y0019489D01*
X0013081Y0019581D01*
X0012765Y0019681D01*
X0012452Y0019789D01*
X0012141Y0019905D01*
X0011834Y0020028D01*
X0011529Y0020158D01*
X0011228Y0020296D01*
X0010930Y0020441D01*
X0010636Y0020594D01*
X0010346Y0020754D01*
X0010060Y0020921D01*
X0009778Y0021094D01*
X0009500Y0021275D01*
X0009227Y0021463D01*
X0008958Y0021657D01*
X0008694Y0021857D01*
X0008436Y0022064D01*
X0008182Y0022278D01*
X0007934Y0022497D01*
X0007691Y0022723D01*
X0007454Y0022954D01*
X0007223Y0023191D01*
X0006997Y0023434D01*
X0006778Y0023682D01*
X0006564Y0023936D01*
X0006357Y0024194D01*
X0006157Y0024458D01*
X0005963Y0024727D01*
X0005775Y0025000D01*
X0005594Y0025278D01*
X0005421Y0025560D01*
X0005254Y0025846D01*
X0005094Y0026136D01*
X0004941Y0026430D01*
X0004796Y0026728D01*
X0004658Y0027029D01*
X0004528Y0027334D01*
X0004405Y0027641D01*
X0004289Y0027952D01*
X0004181Y0028265D01*
X0004081Y0028581D01*
X0003989Y0028899D01*
X0003905Y0029220D01*
X0003828Y0029542D01*
X0003759Y0029866D01*
X0003699Y0030192D01*
X0003646Y0030519D01*
X0003602Y0030847D01*
X0003565Y0031177D01*
X0003537Y0031507D01*
X0003516Y0031838D01*
X0003504Y0032169D01*
X0003500Y0032500D01*
X0022300Y0083300D02*
X0024569Y0083300D01*
X0023434Y0083300D02*
X0023434Y0086703D01*
X0022300Y0085569D01*
X0025983Y0086136D02*
X0026550Y0086703D01*
X0027685Y0086703D01*
X0028252Y0086136D01*
X0028252Y0085569D01*
X0027685Y0085001D01*
X0028252Y0084434D01*
X0028252Y0083867D01*
X0027685Y0083300D01*
X0026550Y0083300D01*
X0025983Y0083867D01*
X0027117Y0085001D02*
X0027685Y0085001D01*
X0028252Y0093300D02*
X0025983Y0093300D01*
X0028252Y0095569D01*
X0028252Y0096136D01*
X0027685Y0096703D01*
X0026550Y0096703D01*
X0025983Y0096136D01*
X0023434Y0096703D02*
X0023434Y0093300D01*
X0022300Y0093300D02*
X0024569Y0093300D01*
X0022300Y0095569D02*
X0023434Y0096703D01*
X0023434Y0103300D02*
X0023434Y0106703D01*
X0022300Y0105569D01*
X0022300Y0103300D02*
X0024569Y0103300D01*
X0025983Y0103300D02*
X0028252Y0103300D01*
X0027117Y0103300D02*
X0027117Y0106703D01*
X0025983Y0105569D01*
X0026550Y0113300D02*
X0025983Y0113867D01*
X0028252Y0116136D01*
X0028252Y0113867D01*
X0027685Y0113300D01*
X0026550Y0113300D01*
X0025983Y0113867D02*
X0025983Y0116136D01*
X0026550Y0116703D01*
X0027685Y0116703D01*
X0028252Y0116136D01*
X0024569Y0113300D02*
X0022300Y0113300D01*
X0023434Y0113300D02*
X0023434Y0116703D01*
X0022300Y0115569D01*
X0022867Y0123300D02*
X0024001Y0123300D01*
X0024569Y0123867D01*
X0024569Y0126136D01*
X0024001Y0126703D01*
X0022867Y0126703D01*
X0022300Y0126136D01*
X0022300Y0125569D01*
X0022867Y0125001D01*
X0024569Y0125001D01*
X0022867Y0123300D02*
X0022300Y0123867D01*
X0022867Y0133300D02*
X0022300Y0133867D01*
X0022300Y0134434D01*
X0022867Y0135001D01*
X0024001Y0135001D01*
X0024569Y0134434D01*
X0024569Y0133867D01*
X0024001Y0133300D01*
X0022867Y0133300D01*
X0022867Y0135001D02*
X0022300Y0135569D01*
X0022300Y0136136D01*
X0022867Y0136703D01*
X0024001Y0136703D01*
X0024569Y0136136D01*
X0024569Y0135569D01*
X0024001Y0135001D01*
X0022300Y0148300D02*
X0022300Y0148867D01*
X0024569Y0151136D01*
X0024569Y0151703D01*
X0022300Y0151703D01*
X0022867Y0158300D02*
X0022300Y0158867D01*
X0022300Y0160001D01*
X0024001Y0160001D01*
X0024569Y0159434D01*
X0024569Y0158867D01*
X0024001Y0158300D01*
X0022867Y0158300D01*
X0022300Y0160001D02*
X0023434Y0161136D01*
X0024569Y0161703D01*
X0024001Y0168300D02*
X0022867Y0168300D01*
X0022300Y0168867D01*
X0022300Y0170001D02*
X0023434Y0170569D01*
X0024001Y0170569D01*
X0024569Y0170001D01*
X0024569Y0168867D01*
X0024001Y0168300D01*
X0022300Y0170001D02*
X0022300Y0171703D01*
X0024569Y0171703D01*
X0024001Y0178300D02*
X0024001Y0181703D01*
X0022300Y0180001D01*
X0024569Y0180001D01*
X0024001Y0188300D02*
X0022867Y0188300D01*
X0022300Y0188867D01*
X0023434Y0190001D02*
X0024001Y0190001D01*
X0024569Y0189434D01*
X0024569Y0188867D01*
X0024001Y0188300D01*
X0024001Y0190001D02*
X0024569Y0190569D01*
X0024569Y0191136D01*
X0024001Y0191703D01*
X0022867Y0191703D01*
X0022300Y0191136D01*
X0022300Y0198300D02*
X0024569Y0200569D01*
X0024569Y0201136D01*
X0024001Y0201703D01*
X0022867Y0201703D01*
X0022300Y0201136D01*
X0022300Y0198300D02*
X0024569Y0198300D01*
X0023434Y0208300D02*
X0023434Y0211703D01*
X0022300Y0211703D02*
X0024569Y0211703D01*
X0025983Y0211703D02*
X0028252Y0208300D01*
X0025983Y0208300D02*
X0028252Y0211703D01*
X0028252Y0218300D02*
X0025983Y0221703D01*
X0024569Y0221136D02*
X0024569Y0220001D01*
X0024001Y0219434D01*
X0022300Y0219434D01*
X0022300Y0218300D02*
X0022300Y0221703D01*
X0024001Y0221703D01*
X0024569Y0221136D01*
X0023434Y0219434D02*
X0024569Y0218300D01*
X0025983Y0218300D02*
X0028252Y0221703D01*
X0063500Y0230000D02*
X0063504Y0230331D01*
X0063516Y0230662D01*
X0063537Y0230993D01*
X0063565Y0231323D01*
X0063602Y0231653D01*
X0063646Y0231981D01*
X0063699Y0232308D01*
X0063759Y0232634D01*
X0063828Y0232958D01*
X0063905Y0233280D01*
X0063989Y0233601D01*
X0064081Y0233919D01*
X0064181Y0234235D01*
X0064289Y0234548D01*
X0064405Y0234859D01*
X0064528Y0235166D01*
X0064658Y0235471D01*
X0064796Y0235772D01*
X0064941Y0236070D01*
X0065094Y0236364D01*
X0065254Y0236654D01*
X0065421Y0236940D01*
X0065594Y0237222D01*
X0065775Y0237500D01*
X0065963Y0237773D01*
X0066157Y0238042D01*
X0066357Y0238306D01*
X0066564Y0238564D01*
X0066778Y0238818D01*
X0066997Y0239066D01*
X0067223Y0239309D01*
X0067454Y0239546D01*
X0067691Y0239777D01*
X0067934Y0240003D01*
X0068182Y0240222D01*
X0068436Y0240436D01*
X0068694Y0240643D01*
X0068958Y0240843D01*
X0069227Y0241037D01*
X0069500Y0241225D01*
X0069778Y0241406D01*
X0070060Y0241579D01*
X0070346Y0241746D01*
X0070636Y0241906D01*
X0070930Y0242059D01*
X0071228Y0242204D01*
X0071529Y0242342D01*
X0071834Y0242472D01*
X0072141Y0242595D01*
X0072452Y0242711D01*
X0072765Y0242819D01*
X0073081Y0242919D01*
X0073399Y0243011D01*
X0073720Y0243095D01*
X0074042Y0243172D01*
X0074366Y0243241D01*
X0074692Y0243301D01*
X0075019Y0243354D01*
X0075347Y0243398D01*
X0075677Y0243435D01*
X0076007Y0243463D01*
X0076338Y0243484D01*
X0076669Y0243496D01*
X0077000Y0243500D01*
X0077331Y0243496D01*
X0077662Y0243484D01*
X0077993Y0243463D01*
X0078323Y0243435D01*
X0078653Y0243398D01*
X0078981Y0243354D01*
X0079308Y0243301D01*
X0079634Y0243241D01*
X0079958Y0243172D01*
X0080280Y0243095D01*
X0080601Y0243011D01*
X0080919Y0242919D01*
X0081235Y0242819D01*
X0081548Y0242711D01*
X0081859Y0242595D01*
X0082166Y0242472D01*
X0082471Y0242342D01*
X0082772Y0242204D01*
X0083070Y0242059D01*
X0083364Y0241906D01*
X0083654Y0241746D01*
X0083940Y0241579D01*
X0084222Y0241406D01*
X0084500Y0241225D01*
X0084773Y0241037D01*
X0085042Y0240843D01*
X0085306Y0240643D01*
X0085564Y0240436D01*
X0085818Y0240222D01*
X0086066Y0240003D01*
X0086309Y0239777D01*
X0086546Y0239546D01*
X0086777Y0239309D01*
X0087003Y0239066D01*
X0087222Y0238818D01*
X0087436Y0238564D01*
X0087643Y0238306D01*
X0087843Y0238042D01*
X0088037Y0237773D01*
X0088225Y0237500D01*
X0088406Y0237222D01*
X0088579Y0236940D01*
X0088746Y0236654D01*
X0088906Y0236364D01*
X0089059Y0236070D01*
X0089204Y0235772D01*
X0089342Y0235471D01*
X0089472Y0235166D01*
X0089595Y0234859D01*
X0089711Y0234548D01*
X0089819Y0234235D01*
X0089919Y0233919D01*
X0090011Y0233601D01*
X0090095Y0233280D01*
X0090172Y0232958D01*
X0090241Y0232634D01*
X0090301Y0232308D01*
X0090354Y0231981D01*
X0090398Y0231653D01*
X0090435Y0231323D01*
X0090463Y0230993D01*
X0090484Y0230662D01*
X0090496Y0230331D01*
X0090500Y0230000D01*
X0090496Y0229669D01*
X0090484Y0229338D01*
X0090463Y0229007D01*
X0090435Y0228677D01*
X0090398Y0228347D01*
X0090354Y0228019D01*
X0090301Y0227692D01*
X0090241Y0227366D01*
X0090172Y0227042D01*
X0090095Y0226720D01*
X0090011Y0226399D01*
X0089919Y0226081D01*
X0089819Y0225765D01*
X0089711Y0225452D01*
X0089595Y0225141D01*
X0089472Y0224834D01*
X0089342Y0224529D01*
X0089204Y0224228D01*
X0089059Y0223930D01*
X0088906Y0223636D01*
X0088746Y0223346D01*
X0088579Y0223060D01*
X0088406Y0222778D01*
X0088225Y0222500D01*
X0088037Y0222227D01*
X0087843Y0221958D01*
X0087643Y0221694D01*
X0087436Y0221436D01*
X0087222Y0221182D01*
X0087003Y0220934D01*
X0086777Y0220691D01*
X0086546Y0220454D01*
X0086309Y0220223D01*
X0086066Y0219997D01*
X0085818Y0219778D01*
X0085564Y0219564D01*
X0085306Y0219357D01*
X0085042Y0219157D01*
X0084773Y0218963D01*
X0084500Y0218775D01*
X0084222Y0218594D01*
X0083940Y0218421D01*
X0083654Y0218254D01*
X0083364Y0218094D01*
X0083070Y0217941D01*
X0082772Y0217796D01*
X0082471Y0217658D01*
X0082166Y0217528D01*
X0081859Y0217405D01*
X0081548Y0217289D01*
X0081235Y0217181D01*
X0080919Y0217081D01*
X0080601Y0216989D01*
X0080280Y0216905D01*
X0079958Y0216828D01*
X0079634Y0216759D01*
X0079308Y0216699D01*
X0078981Y0216646D01*
X0078653Y0216602D01*
X0078323Y0216565D01*
X0077993Y0216537D01*
X0077662Y0216516D01*
X0077331Y0216504D01*
X0077000Y0216500D01*
X0076669Y0216504D01*
X0076338Y0216516D01*
X0076007Y0216537D01*
X0075677Y0216565D01*
X0075347Y0216602D01*
X0075019Y0216646D01*
X0074692Y0216699D01*
X0074366Y0216759D01*
X0074042Y0216828D01*
X0073720Y0216905D01*
X0073399Y0216989D01*
X0073081Y0217081D01*
X0072765Y0217181D01*
X0072452Y0217289D01*
X0072141Y0217405D01*
X0071834Y0217528D01*
X0071529Y0217658D01*
X0071228Y0217796D01*
X0070930Y0217941D01*
X0070636Y0218094D01*
X0070346Y0218254D01*
X0070060Y0218421D01*
X0069778Y0218594D01*
X0069500Y0218775D01*
X0069227Y0218963D01*
X0068958Y0219157D01*
X0068694Y0219357D01*
X0068436Y0219564D01*
X0068182Y0219778D01*
X0067934Y0219997D01*
X0067691Y0220223D01*
X0067454Y0220454D01*
X0067223Y0220691D01*
X0066997Y0220934D01*
X0066778Y0221182D01*
X0066564Y0221436D01*
X0066357Y0221694D01*
X0066157Y0221958D01*
X0065963Y0222227D01*
X0065775Y0222500D01*
X0065594Y0222778D01*
X0065421Y0223060D01*
X0065254Y0223346D01*
X0065094Y0223636D01*
X0064941Y0223930D01*
X0064796Y0224228D01*
X0064658Y0224529D01*
X0064528Y0224834D01*
X0064405Y0225141D01*
X0064289Y0225452D01*
X0064181Y0225765D01*
X0064081Y0226081D01*
X0063989Y0226399D01*
X0063905Y0226720D01*
X0063828Y0227042D01*
X0063759Y0227366D01*
X0063699Y0227692D01*
X0063646Y0228019D01*
X0063602Y0228347D01*
X0063565Y0228677D01*
X0063537Y0229007D01*
X0063516Y0229338D01*
X0063504Y0229669D01*
X0063500Y0230000D01*
X0082300Y0171700D02*
X0082300Y0171100D01*
X0082300Y0171700D02*
X0106700Y0171700D01*
X0106700Y0171100D01*
X0111400Y0165000D02*
X0114400Y0165000D01*
X0112900Y0163500D02*
X0112900Y0166500D01*
X0106700Y0158900D02*
X0106700Y0158300D01*
X0082300Y0158300D01*
X0082300Y0158900D01*
X0080400Y0150900D02*
X0068600Y0150900D01*
X0068600Y0139100D02*
X0080400Y0139100D01*
X0092138Y0146319D02*
X0092138Y0148681D01*
X0096862Y0148681D02*
X0096862Y0146319D01*
X0102138Y0141181D02*
X0102138Y0138819D01*
X0106862Y0138819D02*
X0106862Y0141181D01*
X0122138Y0146319D02*
X0122138Y0148681D01*
X0126862Y0148681D02*
X0126862Y0146319D01*
X0132138Y0138681D02*
X0132138Y0136319D01*
X0136862Y0136319D02*
X0136862Y0138681D01*
X0142138Y0138681D02*
X0142138Y0136319D01*
X0146862Y0136319D02*
X0146862Y0138681D01*
X0148200Y0146800D02*
X0150800Y0146800D01*
X0150800Y0158200D02*
X0148200Y0158200D01*
X0148700Y0157399D02*
X0148748Y0157355D01*
X0148799Y0157314D01*
X0148852Y0157275D01*
X0148907Y0157240D01*
X0148964Y0157208D01*
X0149023Y0157179D01*
X0149084Y0157154D01*
X0149145Y0157132D01*
X0149208Y0157114D01*
X0149272Y0157099D01*
X0149337Y0157088D01*
X0149402Y0157080D01*
X0149467Y0157076D01*
X0149533Y0157076D01*
X0149598Y0157080D01*
X0149663Y0157088D01*
X0149728Y0157099D01*
X0149792Y0157114D01*
X0149855Y0157132D01*
X0149916Y0157154D01*
X0149977Y0157179D01*
X0150036Y0157208D01*
X0150093Y0157240D01*
X0150148Y0157275D01*
X0150201Y0157314D01*
X0150252Y0157355D01*
X0150300Y0157399D01*
X0148181Y0160138D02*
X0145819Y0160138D01*
X0145819Y0164862D02*
X0148181Y0164862D01*
X0162138Y0138681D02*
X0162138Y0136319D01*
X0166862Y0136319D02*
X0166862Y0138681D01*
X0190801Y0138867D02*
X0191368Y0138300D01*
X0192502Y0138300D01*
X0193069Y0138867D01*
X0193069Y0140001D01*
X0191935Y0140001D01*
X0190801Y0138867D02*
X0190801Y0141136D01*
X0191368Y0141703D01*
X0192502Y0141703D01*
X0193069Y0141136D01*
X0194484Y0141703D02*
X0196752Y0138300D01*
X0196752Y0141703D01*
X0198167Y0141703D02*
X0199868Y0141703D01*
X0200435Y0141136D01*
X0200435Y0138867D01*
X0199868Y0138300D01*
X0198167Y0138300D01*
X0198167Y0141703D01*
X0194484Y0141703D02*
X0194484Y0138300D01*
X0194484Y0131703D02*
X0196752Y0128300D01*
X0196752Y0131703D01*
X0198167Y0131703D02*
X0199868Y0131703D01*
X0200435Y0131136D01*
X0200435Y0128867D01*
X0199868Y0128300D01*
X0198167Y0128300D01*
X0198167Y0131703D01*
X0194484Y0131703D02*
X0194484Y0128300D01*
X0193069Y0128867D02*
X0193069Y0130001D01*
X0191935Y0130001D01*
X0193069Y0128867D02*
X0192502Y0128300D01*
X0191368Y0128300D01*
X0190801Y0128867D01*
X0190801Y0131136D01*
X0191368Y0131703D01*
X0192502Y0131703D01*
X0193069Y0131136D01*
X0194484Y0121703D02*
X0194484Y0120001D01*
X0195618Y0120569D01*
X0196185Y0120569D01*
X0196752Y0120001D01*
X0196752Y0118867D01*
X0196185Y0118300D01*
X0195051Y0118300D01*
X0194484Y0118867D01*
X0193069Y0120001D02*
X0190801Y0120001D01*
X0191935Y0118867D02*
X0191935Y0121136D01*
X0194484Y0121703D02*
X0196752Y0121703D01*
X0198167Y0121703D02*
X0198167Y0119434D01*
X0199301Y0118300D01*
X0200435Y0119434D01*
X0200435Y0121703D01*
X0200435Y0111703D02*
X0200435Y0109434D01*
X0199301Y0108300D01*
X0198167Y0109434D01*
X0198167Y0111703D01*
X0196752Y0111136D02*
X0196752Y0110569D01*
X0196185Y0110001D01*
X0196752Y0109434D01*
X0196752Y0108867D01*
X0196185Y0108300D01*
X0195051Y0108300D01*
X0194484Y0108867D01*
X0193209Y0108867D02*
X0193209Y0108300D01*
X0192642Y0108300D01*
X0192642Y0108867D01*
X0193209Y0108867D01*
X0191228Y0108867D02*
X0190660Y0108300D01*
X0189526Y0108300D01*
X0188959Y0108867D01*
X0190093Y0110001D02*
X0190660Y0110001D01*
X0191228Y0109434D01*
X0191228Y0108867D01*
X0190660Y0110001D02*
X0191228Y0110569D01*
X0191228Y0111136D01*
X0190660Y0111703D01*
X0189526Y0111703D01*
X0188959Y0111136D01*
X0187544Y0110001D02*
X0185276Y0110001D01*
X0186410Y0108867D02*
X0186410Y0111136D01*
X0194484Y0111136D02*
X0195051Y0111703D01*
X0196185Y0111703D01*
X0196752Y0111136D01*
X0196185Y0110001D02*
X0195618Y0110001D01*
X0195051Y0101703D02*
X0194484Y0101136D01*
X0194484Y0100569D01*
X0195051Y0100001D01*
X0196185Y0100001D01*
X0196752Y0099434D01*
X0196752Y0098867D01*
X0196185Y0098300D01*
X0195051Y0098300D01*
X0194484Y0098867D01*
X0193069Y0098300D02*
X0191935Y0099434D01*
X0192502Y0099434D02*
X0190801Y0099434D01*
X0190801Y0098300D02*
X0190801Y0101703D01*
X0192502Y0101703D01*
X0193069Y0101136D01*
X0193069Y0100001D01*
X0192502Y0099434D01*
X0195051Y0101703D02*
X0196185Y0101703D01*
X0196752Y0101136D01*
X0198167Y0101703D02*
X0200435Y0101703D01*
X0199301Y0101703D02*
X0199301Y0098300D01*
X0198167Y0091703D02*
X0200435Y0091703D01*
X0199301Y0090001D02*
X0198167Y0090001D01*
X0198167Y0088300D02*
X0198167Y0091703D01*
X0196752Y0091703D02*
X0194484Y0091703D01*
X0194484Y0088300D01*
X0196752Y0088300D01*
X0195618Y0090001D02*
X0194484Y0090001D01*
X0193069Y0090001D02*
X0192502Y0089434D01*
X0190801Y0089434D01*
X0191935Y0089434D02*
X0193069Y0088300D01*
X0193069Y0090001D02*
X0193069Y0091136D01*
X0192502Y0091703D01*
X0190801Y0091703D01*
X0190801Y0088300D01*
X0189386Y0088867D02*
X0189386Y0091136D01*
X0188819Y0091703D01*
X0187685Y0091703D01*
X0187117Y0091136D01*
X0187117Y0088867D01*
X0187685Y0088300D01*
X0188819Y0088300D01*
X0189386Y0088867D01*
X0185796Y0088300D02*
X0184662Y0088300D01*
X0185229Y0088300D02*
X0185229Y0091703D01*
X0184662Y0091703D02*
X0185796Y0091703D01*
X0176862Y0091181D02*
X0176862Y0088819D01*
X0172138Y0088819D02*
X0172138Y0091181D01*
X0161100Y0095700D02*
X0157900Y0095700D01*
X0156100Y0091400D02*
X0156100Y0088600D01*
X0157900Y0084300D02*
X0158300Y0084300D01*
X0160700Y0084300D01*
X0161100Y0084300D01*
X0160700Y0084300D02*
X0160698Y0084369D01*
X0160692Y0084437D01*
X0160682Y0084505D01*
X0160669Y0084572D01*
X0160651Y0084638D01*
X0160630Y0084703D01*
X0160605Y0084767D01*
X0160577Y0084829D01*
X0160545Y0084890D01*
X0160510Y0084949D01*
X0160471Y0085005D01*
X0160429Y0085060D01*
X0160384Y0085111D01*
X0160336Y0085161D01*
X0160286Y0085207D01*
X0160233Y0085250D01*
X0160177Y0085291D01*
X0160120Y0085328D01*
X0160060Y0085361D01*
X0159998Y0085392D01*
X0159935Y0085418D01*
X0159871Y0085441D01*
X0159805Y0085461D01*
X0159738Y0085476D01*
X0159671Y0085488D01*
X0159603Y0085496D01*
X0159534Y0085500D01*
X0159466Y0085500D01*
X0159397Y0085496D01*
X0159329Y0085488D01*
X0159262Y0085476D01*
X0159195Y0085461D01*
X0159129Y0085441D01*
X0159065Y0085418D01*
X0159002Y0085392D01*
X0158940Y0085361D01*
X0158880Y0085328D01*
X0158823Y0085291D01*
X0158767Y0085250D01*
X0158714Y0085207D01*
X0158664Y0085161D01*
X0158616Y0085111D01*
X0158571Y0085060D01*
X0158529Y0085005D01*
X0158490Y0084949D01*
X0158455Y0084890D01*
X0158423Y0084829D01*
X0158395Y0084767D01*
X0158370Y0084703D01*
X0158349Y0084638D01*
X0158331Y0084572D01*
X0158318Y0084505D01*
X0158308Y0084437D01*
X0158302Y0084369D01*
X0158300Y0084300D01*
X0144362Y0093819D02*
X0144362Y0096181D01*
X0139638Y0096181D02*
X0139638Y0093819D01*
X0140819Y0087362D02*
X0143181Y0087362D01*
X0143181Y0082638D02*
X0140819Y0082638D01*
X0140819Y0062362D02*
X0143181Y0062362D01*
X0143181Y0057638D02*
X0140819Y0057638D01*
X0163200Y0057100D02*
X0167200Y0057100D01*
X0176800Y0069700D02*
X0187200Y0069700D01*
X0187200Y0035300D02*
X0183200Y0035300D01*
X0180800Y0035300D01*
X0176800Y0035300D01*
X0180800Y0035300D02*
X0180802Y0035369D01*
X0180808Y0035437D01*
X0180818Y0035505D01*
X0180831Y0035572D01*
X0180849Y0035638D01*
X0180870Y0035703D01*
X0180895Y0035767D01*
X0180923Y0035829D01*
X0180955Y0035890D01*
X0180990Y0035949D01*
X0181029Y0036005D01*
X0181071Y0036060D01*
X0181116Y0036111D01*
X0181164Y0036161D01*
X0181214Y0036207D01*
X0181267Y0036250D01*
X0181323Y0036291D01*
X0181380Y0036328D01*
X0181440Y0036361D01*
X0181502Y0036392D01*
X0181565Y0036418D01*
X0181629Y0036441D01*
X0181695Y0036461D01*
X0181762Y0036476D01*
X0181829Y0036488D01*
X0181897Y0036496D01*
X0181966Y0036500D01*
X0182034Y0036500D01*
X0182103Y0036496D01*
X0182171Y0036488D01*
X0182238Y0036476D01*
X0182305Y0036461D01*
X0182371Y0036441D01*
X0182435Y0036418D01*
X0182498Y0036392D01*
X0182560Y0036361D01*
X0182620Y0036328D01*
X0182677Y0036291D01*
X0182733Y0036250D01*
X0182786Y0036207D01*
X0182836Y0036161D01*
X0182884Y0036111D01*
X0182929Y0036060D01*
X0182971Y0036005D01*
X0183010Y0035949D01*
X0183045Y0035890D01*
X0183077Y0035829D01*
X0183105Y0035767D01*
X0183130Y0035703D01*
X0183151Y0035638D01*
X0183169Y0035572D01*
X0183182Y0035505D01*
X0183192Y0035437D01*
X0183198Y0035369D01*
X0183200Y0035300D01*
X0193500Y0025000D02*
X0193504Y0025331D01*
X0193516Y0025662D01*
X0193537Y0025993D01*
X0193565Y0026323D01*
X0193602Y0026653D01*
X0193646Y0026981D01*
X0193699Y0027308D01*
X0193759Y0027634D01*
X0193828Y0027958D01*
X0193905Y0028280D01*
X0193989Y0028601D01*
X0194081Y0028919D01*
X0194181Y0029235D01*
X0194289Y0029548D01*
X0194405Y0029859D01*
X0194528Y0030166D01*
X0194658Y0030471D01*
X0194796Y0030772D01*
X0194941Y0031070D01*
X0195094Y0031364D01*
X0195254Y0031654D01*
X0195421Y0031940D01*
X0195594Y0032222D01*
X0195775Y0032500D01*
X0195963Y0032773D01*
X0196157Y0033042D01*
X0196357Y0033306D01*
X0196564Y0033564D01*
X0196778Y0033818D01*
X0196997Y0034066D01*
X0197223Y0034309D01*
X0197454Y0034546D01*
X0197691Y0034777D01*
X0197934Y0035003D01*
X0198182Y0035222D01*
X0198436Y0035436D01*
X0198694Y0035643D01*
X0198958Y0035843D01*
X0199227Y0036037D01*
X0199500Y0036225D01*
X0199778Y0036406D01*
X0200060Y0036579D01*
X0200346Y0036746D01*
X0200636Y0036906D01*
X0200930Y0037059D01*
X0201228Y0037204D01*
X0201529Y0037342D01*
X0201834Y0037472D01*
X0202141Y0037595D01*
X0202452Y0037711D01*
X0202765Y0037819D01*
X0203081Y0037919D01*
X0203399Y0038011D01*
X0203720Y0038095D01*
X0204042Y0038172D01*
X0204366Y0038241D01*
X0204692Y0038301D01*
X0205019Y0038354D01*
X0205347Y0038398D01*
X0205677Y0038435D01*
X0206007Y0038463D01*
X0206338Y0038484D01*
X0206669Y0038496D01*
X0207000Y0038500D01*
X0207331Y0038496D01*
X0207662Y0038484D01*
X0207993Y0038463D01*
X0208323Y0038435D01*
X0208653Y0038398D01*
X0208981Y0038354D01*
X0209308Y0038301D01*
X0209634Y0038241D01*
X0209958Y0038172D01*
X0210280Y0038095D01*
X0210601Y0038011D01*
X0210919Y0037919D01*
X0211235Y0037819D01*
X0211548Y0037711D01*
X0211859Y0037595D01*
X0212166Y0037472D01*
X0212471Y0037342D01*
X0212772Y0037204D01*
X0213070Y0037059D01*
X0213364Y0036906D01*
X0213654Y0036746D01*
X0213940Y0036579D01*
X0214222Y0036406D01*
X0214500Y0036225D01*
X0214773Y0036037D01*
X0215042Y0035843D01*
X0215306Y0035643D01*
X0215564Y0035436D01*
X0215818Y0035222D01*
X0216066Y0035003D01*
X0216309Y0034777D01*
X0216546Y0034546D01*
X0216777Y0034309D01*
X0217003Y0034066D01*
X0217222Y0033818D01*
X0217436Y0033564D01*
X0217643Y0033306D01*
X0217843Y0033042D01*
X0218037Y0032773D01*
X0218225Y0032500D01*
X0218406Y0032222D01*
X0218579Y0031940D01*
X0218746Y0031654D01*
X0218906Y0031364D01*
X0219059Y0031070D01*
X0219204Y0030772D01*
X0219342Y0030471D01*
X0219472Y0030166D01*
X0219595Y0029859D01*
X0219711Y0029548D01*
X0219819Y0029235D01*
X0219919Y0028919D01*
X0220011Y0028601D01*
X0220095Y0028280D01*
X0220172Y0027958D01*
X0220241Y0027634D01*
X0220301Y0027308D01*
X0220354Y0026981D01*
X0220398Y0026653D01*
X0220435Y0026323D01*
X0220463Y0025993D01*
X0220484Y0025662D01*
X0220496Y0025331D01*
X0220500Y0025000D01*
X0220496Y0024669D01*
X0220484Y0024338D01*
X0220463Y0024007D01*
X0220435Y0023677D01*
X0220398Y0023347D01*
X0220354Y0023019D01*
X0220301Y0022692D01*
X0220241Y0022366D01*
X0220172Y0022042D01*
X0220095Y0021720D01*
X0220011Y0021399D01*
X0219919Y0021081D01*
X0219819Y0020765D01*
X0219711Y0020452D01*
X0219595Y0020141D01*
X0219472Y0019834D01*
X0219342Y0019529D01*
X0219204Y0019228D01*
X0219059Y0018930D01*
X0218906Y0018636D01*
X0218746Y0018346D01*
X0218579Y0018060D01*
X0218406Y0017778D01*
X0218225Y0017500D01*
X0218037Y0017227D01*
X0217843Y0016958D01*
X0217643Y0016694D01*
X0217436Y0016436D01*
X0217222Y0016182D01*
X0217003Y0015934D01*
X0216777Y0015691D01*
X0216546Y0015454D01*
X0216309Y0015223D01*
X0216066Y0014997D01*
X0215818Y0014778D01*
X0215564Y0014564D01*
X0215306Y0014357D01*
X0215042Y0014157D01*
X0214773Y0013963D01*
X0214500Y0013775D01*
X0214222Y0013594D01*
X0213940Y0013421D01*
X0213654Y0013254D01*
X0213364Y0013094D01*
X0213070Y0012941D01*
X0212772Y0012796D01*
X0212471Y0012658D01*
X0212166Y0012528D01*
X0211859Y0012405D01*
X0211548Y0012289D01*
X0211235Y0012181D01*
X0210919Y0012081D01*
X0210601Y0011989D01*
X0210280Y0011905D01*
X0209958Y0011828D01*
X0209634Y0011759D01*
X0209308Y0011699D01*
X0208981Y0011646D01*
X0208653Y0011602D01*
X0208323Y0011565D01*
X0207993Y0011537D01*
X0207662Y0011516D01*
X0207331Y0011504D01*
X0207000Y0011500D01*
X0206669Y0011504D01*
X0206338Y0011516D01*
X0206007Y0011537D01*
X0205677Y0011565D01*
X0205347Y0011602D01*
X0205019Y0011646D01*
X0204692Y0011699D01*
X0204366Y0011759D01*
X0204042Y0011828D01*
X0203720Y0011905D01*
X0203399Y0011989D01*
X0203081Y0012081D01*
X0202765Y0012181D01*
X0202452Y0012289D01*
X0202141Y0012405D01*
X0201834Y0012528D01*
X0201529Y0012658D01*
X0201228Y0012796D01*
X0200930Y0012941D01*
X0200636Y0013094D01*
X0200346Y0013254D01*
X0200060Y0013421D01*
X0199778Y0013594D01*
X0199500Y0013775D01*
X0199227Y0013963D01*
X0198958Y0014157D01*
X0198694Y0014357D01*
X0198436Y0014564D01*
X0198182Y0014778D01*
X0197934Y0014997D01*
X0197691Y0015223D01*
X0197454Y0015454D01*
X0197223Y0015691D01*
X0196997Y0015934D01*
X0196778Y0016182D01*
X0196564Y0016436D01*
X0196357Y0016694D01*
X0196157Y0016958D01*
X0195963Y0017227D01*
X0195775Y0017500D01*
X0195594Y0017778D01*
X0195421Y0018060D01*
X0195254Y0018346D01*
X0195094Y0018636D01*
X0194941Y0018930D01*
X0194796Y0019228D01*
X0194658Y0019529D01*
X0194528Y0019834D01*
X0194405Y0020141D01*
X0194289Y0020452D01*
X0194181Y0020765D01*
X0194081Y0021081D01*
X0193989Y0021399D01*
X0193905Y0021720D01*
X0193828Y0022042D01*
X0193759Y0022366D01*
X0193699Y0022692D01*
X0193646Y0023019D01*
X0193602Y0023347D01*
X0193565Y0023677D01*
X0193537Y0024007D01*
X0193516Y0024338D01*
X0193504Y0024669D01*
X0193500Y0025000D01*
X0193163Y0148300D02*
X0192028Y0149434D01*
X0192028Y0151703D01*
X0194297Y0151703D02*
X0194297Y0149434D01*
X0193163Y0148300D01*
X0195711Y0148300D02*
X0196846Y0148300D01*
X0196279Y0148300D02*
X0196279Y0151703D01*
X0196846Y0151703D02*
X0195711Y0151703D01*
X0198167Y0151703D02*
X0198167Y0148300D01*
X0200435Y0148300D02*
X0198167Y0151703D01*
X0200435Y0151703D02*
X0200435Y0148300D01*
X0199868Y0168300D02*
X0198734Y0168300D01*
X0198167Y0168867D01*
X0200435Y0171136D01*
X0200435Y0168867D01*
X0199868Y0168300D01*
X0198167Y0168867D02*
X0198167Y0171136D01*
X0198734Y0171703D01*
X0199868Y0171703D01*
X0200435Y0171136D01*
X0200435Y0178300D02*
X0198167Y0178300D01*
X0199301Y0178300D02*
X0199301Y0181703D01*
X0198167Y0180569D01*
X0195250Y0180107D02*
X0192981Y0180107D01*
X0191847Y0181241D01*
X0192981Y0182376D01*
X0195250Y0182376D01*
X0195250Y0183790D02*
X0192981Y0183790D01*
X0192981Y0185492D01*
X0193549Y0186059D01*
X0195250Y0186059D01*
X0194683Y0187473D02*
X0194116Y0188041D01*
X0194116Y0189742D01*
X0193549Y0189742D02*
X0195250Y0189742D01*
X0195250Y0188041D01*
X0194683Y0187473D01*
X0192981Y0188041D02*
X0192981Y0189175D01*
X0193549Y0189742D01*
X0195250Y0191157D02*
X0195250Y0192291D01*
X0195250Y0191724D02*
X0191847Y0191724D01*
X0191847Y0191157D01*
X0193549Y0193612D02*
X0194683Y0193612D01*
X0195250Y0194179D01*
X0195250Y0195313D01*
X0194683Y0195881D01*
X0193549Y0195881D01*
X0192981Y0195313D01*
X0192981Y0194179D01*
X0193549Y0193612D01*
X0193549Y0197295D02*
X0194683Y0197295D01*
X0195250Y0197862D01*
X0195250Y0199564D01*
X0195817Y0199564D02*
X0192981Y0199564D01*
X0192981Y0197862D01*
X0193549Y0197295D01*
X0196384Y0198429D02*
X0196384Y0198997D01*
X0195817Y0199564D01*
X0198167Y0198867D02*
X0198734Y0198300D01*
X0199868Y0198300D01*
X0200435Y0198867D01*
X0200435Y0199434D01*
X0199868Y0200001D01*
X0199301Y0200001D01*
X0199868Y0200001D02*
X0200435Y0200569D01*
X0200435Y0201136D01*
X0199868Y0201703D01*
X0198734Y0201703D01*
X0198167Y0201136D01*
X0195250Y0204661D02*
X0195250Y0205796D01*
X0195250Y0205229D02*
X0191847Y0205229D01*
X0191847Y0205796D02*
X0191847Y0204661D01*
X0192981Y0207117D02*
X0192981Y0208818D01*
X0193549Y0209385D01*
X0195250Y0209385D01*
X0195250Y0207117D02*
X0192981Y0207117D01*
X0198167Y0210001D02*
X0200435Y0210001D01*
X0199868Y0208300D02*
X0199868Y0211703D01*
X0198167Y0210001D01*
X0198734Y0218300D02*
X0198167Y0218867D01*
X0198734Y0218300D02*
X0199868Y0218300D01*
X0200435Y0218867D01*
X0200435Y0220001D01*
X0199868Y0220569D01*
X0199301Y0220569D01*
X0198167Y0220001D01*
X0198167Y0221703D01*
X0200435Y0221703D01*
X0173500Y0230000D02*
X0173504Y0230331D01*
X0173516Y0230662D01*
X0173537Y0230993D01*
X0173565Y0231323D01*
X0173602Y0231653D01*
X0173646Y0231981D01*
X0173699Y0232308D01*
X0173759Y0232634D01*
X0173828Y0232958D01*
X0173905Y0233280D01*
X0173989Y0233601D01*
X0174081Y0233919D01*
X0174181Y0234235D01*
X0174289Y0234548D01*
X0174405Y0234859D01*
X0174528Y0235166D01*
X0174658Y0235471D01*
X0174796Y0235772D01*
X0174941Y0236070D01*
X0175094Y0236364D01*
X0175254Y0236654D01*
X0175421Y0236940D01*
X0175594Y0237222D01*
X0175775Y0237500D01*
X0175963Y0237773D01*
X0176157Y0238042D01*
X0176357Y0238306D01*
X0176564Y0238564D01*
X0176778Y0238818D01*
X0176997Y0239066D01*
X0177223Y0239309D01*
X0177454Y0239546D01*
X0177691Y0239777D01*
X0177934Y0240003D01*
X0178182Y0240222D01*
X0178436Y0240436D01*
X0178694Y0240643D01*
X0178958Y0240843D01*
X0179227Y0241037D01*
X0179500Y0241225D01*
X0179778Y0241406D01*
X0180060Y0241579D01*
X0180346Y0241746D01*
X0180636Y0241906D01*
X0180930Y0242059D01*
X0181228Y0242204D01*
X0181529Y0242342D01*
X0181834Y0242472D01*
X0182141Y0242595D01*
X0182452Y0242711D01*
X0182765Y0242819D01*
X0183081Y0242919D01*
X0183399Y0243011D01*
X0183720Y0243095D01*
X0184042Y0243172D01*
X0184366Y0243241D01*
X0184692Y0243301D01*
X0185019Y0243354D01*
X0185347Y0243398D01*
X0185677Y0243435D01*
X0186007Y0243463D01*
X0186338Y0243484D01*
X0186669Y0243496D01*
X0187000Y0243500D01*
X0187331Y0243496D01*
X0187662Y0243484D01*
X0187993Y0243463D01*
X0188323Y0243435D01*
X0188653Y0243398D01*
X0188981Y0243354D01*
X0189308Y0243301D01*
X0189634Y0243241D01*
X0189958Y0243172D01*
X0190280Y0243095D01*
X0190601Y0243011D01*
X0190919Y0242919D01*
X0191235Y0242819D01*
X0191548Y0242711D01*
X0191859Y0242595D01*
X0192166Y0242472D01*
X0192471Y0242342D01*
X0192772Y0242204D01*
X0193070Y0242059D01*
X0193364Y0241906D01*
X0193654Y0241746D01*
X0193940Y0241579D01*
X0194222Y0241406D01*
X0194500Y0241225D01*
X0194773Y0241037D01*
X0195042Y0240843D01*
X0195306Y0240643D01*
X0195564Y0240436D01*
X0195818Y0240222D01*
X0196066Y0240003D01*
X0196309Y0239777D01*
X0196546Y0239546D01*
X0196777Y0239309D01*
X0197003Y0239066D01*
X0197222Y0238818D01*
X0197436Y0238564D01*
X0197643Y0238306D01*
X0197843Y0238042D01*
X0198037Y0237773D01*
X0198225Y0237500D01*
X0198406Y0237222D01*
X0198579Y0236940D01*
X0198746Y0236654D01*
X0198906Y0236364D01*
X0199059Y0236070D01*
X0199204Y0235772D01*
X0199342Y0235471D01*
X0199472Y0235166D01*
X0199595Y0234859D01*
X0199711Y0234548D01*
X0199819Y0234235D01*
X0199919Y0233919D01*
X0200011Y0233601D01*
X0200095Y0233280D01*
X0200172Y0232958D01*
X0200241Y0232634D01*
X0200301Y0232308D01*
X0200354Y0231981D01*
X0200398Y0231653D01*
X0200435Y0231323D01*
X0200463Y0230993D01*
X0200484Y0230662D01*
X0200496Y0230331D01*
X0200500Y0230000D01*
X0200496Y0229669D01*
X0200484Y0229338D01*
X0200463Y0229007D01*
X0200435Y0228677D01*
X0200398Y0228347D01*
X0200354Y0228019D01*
X0200301Y0227692D01*
X0200241Y0227366D01*
X0200172Y0227042D01*
X0200095Y0226720D01*
X0200011Y0226399D01*
X0199919Y0226081D01*
X0199819Y0225765D01*
X0199711Y0225452D01*
X0199595Y0225141D01*
X0199472Y0224834D01*
X0199342Y0224529D01*
X0199204Y0224228D01*
X0199059Y0223930D01*
X0198906Y0223636D01*
X0198746Y0223346D01*
X0198579Y0223060D01*
X0198406Y0222778D01*
X0198225Y0222500D01*
X0198037Y0222227D01*
X0197843Y0221958D01*
X0197643Y0221694D01*
X0197436Y0221436D01*
X0197222Y0221182D01*
X0197003Y0220934D01*
X0196777Y0220691D01*
X0196546Y0220454D01*
X0196309Y0220223D01*
X0196066Y0219997D01*
X0195818Y0219778D01*
X0195564Y0219564D01*
X0195306Y0219357D01*
X0195042Y0219157D01*
X0194773Y0218963D01*
X0194500Y0218775D01*
X0194222Y0218594D01*
X0193940Y0218421D01*
X0193654Y0218254D01*
X0193364Y0218094D01*
X0193070Y0217941D01*
X0192772Y0217796D01*
X0192471Y0217658D01*
X0192166Y0217528D01*
X0191859Y0217405D01*
X0191548Y0217289D01*
X0191235Y0217181D01*
X0190919Y0217081D01*
X0190601Y0216989D01*
X0190280Y0216905D01*
X0189958Y0216828D01*
X0189634Y0216759D01*
X0189308Y0216699D01*
X0188981Y0216646D01*
X0188653Y0216602D01*
X0188323Y0216565D01*
X0187993Y0216537D01*
X0187662Y0216516D01*
X0187331Y0216504D01*
X0187000Y0216500D01*
X0186669Y0216504D01*
X0186338Y0216516D01*
X0186007Y0216537D01*
X0185677Y0216565D01*
X0185347Y0216602D01*
X0185019Y0216646D01*
X0184692Y0216699D01*
X0184366Y0216759D01*
X0184042Y0216828D01*
X0183720Y0216905D01*
X0183399Y0216989D01*
X0183081Y0217081D01*
X0182765Y0217181D01*
X0182452Y0217289D01*
X0182141Y0217405D01*
X0181834Y0217528D01*
X0181529Y0217658D01*
X0181228Y0217796D01*
X0180930Y0217941D01*
X0180636Y0218094D01*
X0180346Y0218254D01*
X0180060Y0218421D01*
X0179778Y0218594D01*
X0179500Y0218775D01*
X0179227Y0218963D01*
X0178958Y0219157D01*
X0178694Y0219357D01*
X0178436Y0219564D01*
X0178182Y0219778D01*
X0177934Y0219997D01*
X0177691Y0220223D01*
X0177454Y0220454D01*
X0177223Y0220691D01*
X0176997Y0220934D01*
X0176778Y0221182D01*
X0176564Y0221436D01*
X0176357Y0221694D01*
X0176157Y0221958D01*
X0175963Y0222227D01*
X0175775Y0222500D01*
X0175594Y0222778D01*
X0175421Y0223060D01*
X0175254Y0223346D01*
X0175094Y0223636D01*
X0174941Y0223930D01*
X0174796Y0224228D01*
X0174658Y0224529D01*
X0174528Y0224834D01*
X0174405Y0225141D01*
X0174289Y0225452D01*
X0174181Y0225765D01*
X0174081Y0226081D01*
X0173989Y0226399D01*
X0173905Y0226720D01*
X0173828Y0227042D01*
X0173759Y0227366D01*
X0173699Y0227692D01*
X0173646Y0228019D01*
X0173602Y0228347D01*
X0173565Y0228677D01*
X0173537Y0229007D01*
X0173516Y0229338D01*
X0173504Y0229669D01*
X0173500Y0230000D01*
X0198734Y0191703D02*
X0198167Y0191136D01*
X0198734Y0191703D02*
X0199868Y0191703D01*
X0200435Y0191136D01*
X0200435Y0190569D01*
X0198167Y0188300D01*
X0200435Y0188300D01*
X0193549Y0182376D02*
X0193549Y0180107D01*
X0065485Y0123867D02*
X0063750Y0123867D01*
X0063750Y0122566D01*
X0064618Y0122999D01*
X0065052Y0122999D01*
X0065485Y0122566D01*
X0065485Y0121698D01*
X0065052Y0121265D01*
X0064184Y0121265D01*
X0063750Y0121698D01*
X0062539Y0121698D02*
X0062539Y0123867D01*
X0060804Y0123867D02*
X0060804Y0121698D01*
X0061238Y0121265D01*
X0062105Y0121265D01*
X0062539Y0121698D01*
X0056862Y0133819D02*
X0056862Y0136181D01*
X0052138Y0136181D02*
X0052138Y0133819D01*
X0046862Y0138819D02*
X0046862Y0141181D01*
X0042138Y0141181D02*
X0042138Y0138819D01*
D15*
X0007000Y0225000D02*
X0007000Y0015000D01*
X0017000Y0005000D01*
X0207000Y0005000D01*
X0217000Y0015000D01*
X0217000Y0230000D01*
X0207000Y0230000D01*
X0197000Y0240000D01*
X0067000Y0240000D01*
X0057000Y0230000D01*
X0012000Y0230000D01*
X0007000Y0225000D01*
X0060504Y0118996D02*
X0123496Y0118996D01*
X0123496Y0117028D01*
X0123496Y0111122D02*
X0123496Y0063878D01*
X0123496Y0057972D02*
X0123496Y0056004D01*
X0060504Y0056004D01*
X0157000Y0062776D02*
X0157000Y0072618D01*
X0173451Y0014454D02*
X0174953Y0014454D01*
X0174202Y0014454D02*
X0174202Y0010701D01*
X0173451Y0009950D01*
X0172701Y0009950D01*
X0171950Y0010701D01*
X0176554Y0011451D02*
X0178806Y0011451D01*
X0179556Y0012202D01*
X0179556Y0013703D01*
X0178806Y0014454D01*
X0176554Y0014454D01*
X0176554Y0009950D01*
X0181158Y0010701D02*
X0181908Y0009950D01*
X0183410Y0009950D01*
X0184160Y0010701D01*
X0184160Y0011451D01*
X0183410Y0012202D01*
X0182659Y0012202D01*
X0183410Y0012202D02*
X0184160Y0012953D01*
X0184160Y0013703D01*
X0183410Y0014454D01*
X0181908Y0014454D01*
X0181158Y0013703D01*
X0154618Y0172500D02*
X0144776Y0172500D01*
X0162701Y0219950D02*
X0163451Y0219950D01*
X0164202Y0220701D01*
X0164202Y0224454D01*
X0163451Y0224454D02*
X0164953Y0224454D01*
X0166554Y0224454D02*
X0166554Y0219950D01*
X0166554Y0221451D02*
X0168806Y0221451D01*
X0169556Y0222202D01*
X0169556Y0223703D01*
X0168806Y0224454D01*
X0166554Y0224454D01*
X0171158Y0222953D02*
X0172659Y0224454D01*
X0172659Y0219950D01*
X0171158Y0219950D02*
X0174160Y0219950D01*
X0162701Y0219950D02*
X0161950Y0220701D01*
D16*
X0124300Y0221491D02*
X0122098Y0221491D01*
X0123199Y0220390D01*
X0123199Y0221858D01*
X0123199Y0219648D02*
X0123566Y0219281D01*
X0123566Y0218180D01*
X0124300Y0218180D02*
X0122098Y0218180D01*
X0122098Y0219281D01*
X0122465Y0219648D01*
X0123199Y0219648D01*
X0123566Y0218914D02*
X0124300Y0219648D01*
X0109300Y0206491D02*
X0109300Y0205757D01*
X0108933Y0205390D01*
X0109300Y0204648D02*
X0108566Y0203914D01*
X0108566Y0204281D02*
X0108566Y0203180D01*
X0109300Y0203180D02*
X0107098Y0203180D01*
X0107098Y0204281D01*
X0107465Y0204648D01*
X0108199Y0204648D01*
X0108566Y0204281D01*
X0107465Y0205390D02*
X0107098Y0205757D01*
X0107098Y0206491D01*
X0107465Y0206858D01*
X0107832Y0206858D01*
X0108199Y0206491D01*
X0108566Y0206858D01*
X0108933Y0206858D01*
X0109300Y0206491D01*
X0108199Y0206491D02*
X0108199Y0206124D01*
X0094300Y0206124D02*
X0092098Y0206124D01*
X0092832Y0205390D01*
X0092465Y0204648D02*
X0093199Y0204648D01*
X0093566Y0204281D01*
X0093566Y0203180D01*
X0094300Y0203180D02*
X0092098Y0203180D01*
X0092098Y0204281D01*
X0092465Y0204648D01*
X0093566Y0203914D02*
X0094300Y0204648D01*
X0094300Y0205390D02*
X0094300Y0206858D01*
X0074498Y0208348D02*
X0073030Y0208348D01*
X0074498Y0209816D01*
X0074498Y0210183D01*
X0074131Y0210550D01*
X0073397Y0210550D01*
X0073030Y0210183D01*
X0072288Y0208348D02*
X0070820Y0208348D01*
X0070820Y0210550D01*
X0083967Y0176102D02*
X0083600Y0175735D01*
X0083600Y0174267D01*
X0083967Y0173900D01*
X0084701Y0173900D01*
X0085068Y0174267D01*
X0085810Y0173900D02*
X0087278Y0173900D01*
X0086544Y0173900D02*
X0086544Y0176102D01*
X0085810Y0175368D01*
X0085068Y0175735D02*
X0084701Y0176102D01*
X0083967Y0176102D01*
X0088020Y0175368D02*
X0088754Y0176102D01*
X0088754Y0173900D01*
X0088020Y0173900D02*
X0089488Y0173900D01*
X0071811Y0154802D02*
X0071077Y0154802D01*
X0070710Y0154435D01*
X0069968Y0154802D02*
X0069968Y0152967D01*
X0069601Y0152600D01*
X0068867Y0152600D01*
X0068500Y0152967D01*
X0068500Y0154802D01*
X0070710Y0152967D02*
X0071077Y0152600D01*
X0071811Y0152600D01*
X0072178Y0152967D01*
X0072178Y0153334D01*
X0071811Y0153701D01*
X0071444Y0153701D01*
X0071811Y0153701D02*
X0072178Y0154068D01*
X0072178Y0154435D01*
X0071811Y0154802D01*
X0053933Y0114358D02*
X0053566Y0114358D01*
X0053199Y0113991D01*
X0053199Y0113624D01*
X0053199Y0113991D02*
X0052832Y0114358D01*
X0052465Y0114358D01*
X0052098Y0113991D01*
X0052098Y0113257D01*
X0052465Y0112890D01*
X0053933Y0112890D02*
X0054300Y0113257D01*
X0054300Y0113991D01*
X0053933Y0114358D01*
X0054300Y0112148D02*
X0054300Y0110680D01*
X0052098Y0110680D01*
X0041800Y0108991D02*
X0041800Y0108257D01*
X0041433Y0107890D01*
X0040699Y0107890D02*
X0040332Y0108624D01*
X0040332Y0108991D01*
X0040699Y0109358D01*
X0041433Y0109358D01*
X0041800Y0108991D01*
X0040699Y0107890D02*
X0039598Y0107890D01*
X0039598Y0109358D01*
X0039598Y0106414D02*
X0041800Y0106414D01*
X0041800Y0105680D02*
X0041800Y0107148D01*
X0040332Y0105680D02*
X0039598Y0106414D01*
X0039965Y0104938D02*
X0039598Y0104571D01*
X0039598Y0103837D01*
X0039965Y0103470D01*
X0041433Y0103470D01*
X0041800Y0103837D01*
X0041800Y0104571D01*
X0041433Y0104938D01*
X0042098Y0094358D02*
X0043566Y0092890D01*
X0043199Y0093257D02*
X0044300Y0094358D01*
X0044300Y0092890D02*
X0042098Y0092890D01*
X0042465Y0092148D02*
X0042098Y0091781D01*
X0042098Y0091047D01*
X0042465Y0090680D01*
X0043933Y0090680D01*
X0044300Y0091047D01*
X0044300Y0091781D01*
X0043933Y0092148D01*
X0043933Y0089938D02*
X0042465Y0089938D01*
X0042098Y0089571D01*
X0042098Y0088837D01*
X0042465Y0088470D01*
X0043933Y0088470D01*
X0044300Y0088837D01*
X0044300Y0089571D01*
X0043933Y0089938D01*
X0044300Y0087728D02*
X0044300Y0086260D01*
X0042098Y0086260D01*
X0042465Y0085518D02*
X0042098Y0085151D01*
X0042098Y0084418D01*
X0042465Y0084051D01*
X0042832Y0084051D01*
X0043199Y0084418D01*
X0043199Y0085151D01*
X0043566Y0085518D01*
X0043933Y0085518D01*
X0044300Y0085151D01*
X0044300Y0084418D01*
X0043933Y0084051D01*
X0043199Y0083309D02*
X0042465Y0083309D01*
X0042098Y0082942D01*
X0042098Y0081841D01*
X0044300Y0081841D01*
X0043566Y0081841D02*
X0043566Y0082942D01*
X0043199Y0083309D01*
X0043199Y0081099D02*
X0043199Y0080365D01*
X0043199Y0081099D02*
X0043933Y0081099D01*
X0044300Y0080732D01*
X0044300Y0079998D01*
X0043933Y0079631D01*
X0042465Y0079631D01*
X0042098Y0079998D01*
X0042098Y0080732D01*
X0042465Y0081099D01*
X0041433Y0069358D02*
X0039965Y0069358D01*
X0041433Y0067890D01*
X0041800Y0068257D01*
X0041800Y0068991D01*
X0041433Y0069358D01*
X0039965Y0069358D02*
X0039598Y0068991D01*
X0039598Y0068257D01*
X0039965Y0067890D01*
X0041433Y0067890D01*
X0041800Y0067148D02*
X0041800Y0065680D01*
X0041800Y0066414D02*
X0039598Y0066414D01*
X0040332Y0065680D01*
X0039965Y0064938D02*
X0040699Y0064938D01*
X0041066Y0064571D01*
X0041066Y0063470D01*
X0041800Y0063470D02*
X0039598Y0063470D01*
X0039598Y0064571D01*
X0039965Y0064938D01*
X0041066Y0064204D02*
X0041800Y0064938D01*
X0044600Y0049802D02*
X0046068Y0047600D01*
X0046810Y0047600D02*
X0048278Y0049068D01*
X0048278Y0049435D01*
X0047911Y0049802D01*
X0047177Y0049802D01*
X0046810Y0049435D01*
X0046068Y0049802D02*
X0044600Y0047600D01*
X0046810Y0047600D02*
X0048278Y0047600D01*
X0082680Y0027402D02*
X0082680Y0025200D01*
X0082680Y0025934D02*
X0083781Y0025934D01*
X0084148Y0026301D01*
X0084148Y0027035D01*
X0083781Y0027402D01*
X0082680Y0027402D01*
X0083414Y0025934D02*
X0084148Y0025200D01*
X0084890Y0025567D02*
X0085257Y0025200D01*
X0085991Y0025200D01*
X0086358Y0025567D01*
X0086358Y0025934D01*
X0085991Y0026301D01*
X0084890Y0026301D01*
X0084890Y0025567D01*
X0084890Y0026301D02*
X0085624Y0027035D01*
X0086358Y0027402D01*
X0100180Y0027035D02*
X0100180Y0025567D01*
X0100547Y0025200D01*
X0101281Y0025200D01*
X0101648Y0025567D01*
X0102390Y0025567D02*
X0102757Y0025200D01*
X0103491Y0025200D01*
X0103858Y0025567D01*
X0103858Y0025934D01*
X0103491Y0026301D01*
X0103124Y0026301D01*
X0103491Y0026301D02*
X0103858Y0026668D01*
X0103858Y0027035D01*
X0103491Y0027402D01*
X0102757Y0027402D01*
X0102390Y0027035D01*
X0101648Y0027035D02*
X0101281Y0027402D01*
X0100547Y0027402D01*
X0100180Y0027035D01*
X0152100Y0050100D02*
X0152100Y0052302D01*
X0153201Y0052302D01*
X0153568Y0051935D01*
X0153568Y0051201D01*
X0153201Y0050834D01*
X0152100Y0050834D01*
X0152834Y0050834D02*
X0153568Y0050100D01*
X0154310Y0050100D02*
X0155778Y0050100D01*
X0155044Y0050100D02*
X0155044Y0052302D01*
X0154310Y0051568D01*
X0156520Y0051568D02*
X0157254Y0052302D01*
X0157254Y0050100D01*
X0156520Y0050100D02*
X0157988Y0050100D01*
X0158568Y0076350D02*
X0157100Y0076350D01*
X0157100Y0078552D01*
X0159310Y0077818D02*
X0160044Y0078552D01*
X0160044Y0076350D01*
X0159310Y0076350D02*
X0160778Y0076350D01*
X0159678Y0097600D02*
X0158210Y0097600D01*
X0159678Y0099068D01*
X0159678Y0099435D01*
X0159311Y0099802D01*
X0158577Y0099802D01*
X0158210Y0099435D01*
X0157468Y0099802D02*
X0157468Y0097967D01*
X0157101Y0097600D01*
X0156367Y0097600D01*
X0156000Y0097967D01*
X0156000Y0099802D01*
X0185180Y0082035D02*
X0185180Y0080567D01*
X0185547Y0080200D01*
X0186281Y0080200D01*
X0186648Y0080567D01*
X0187390Y0080200D02*
X0188858Y0081668D01*
X0188858Y0082035D01*
X0188491Y0082402D01*
X0187757Y0082402D01*
X0187390Y0082035D01*
X0186648Y0082035D02*
X0186281Y0082402D01*
X0185547Y0082402D01*
X0185180Y0082035D01*
X0187390Y0080200D02*
X0188858Y0080200D01*
X0207100Y0064802D02*
X0207100Y0062600D01*
X0207100Y0063334D02*
X0208201Y0063334D01*
X0208568Y0063701D01*
X0208568Y0064435D01*
X0208201Y0064802D01*
X0207100Y0064802D01*
X0207834Y0063334D02*
X0208568Y0062600D01*
X0209310Y0062600D02*
X0210778Y0064068D01*
X0210778Y0064435D01*
X0210411Y0064802D01*
X0209677Y0064802D01*
X0209310Y0064435D01*
X0209310Y0062600D02*
X0210778Y0062600D01*
X0201444Y0044802D02*
X0201444Y0042600D01*
X0200710Y0042600D02*
X0202178Y0042600D01*
X0200710Y0044068D02*
X0201444Y0044802D01*
X0199968Y0044802D02*
X0199968Y0042967D01*
X0199601Y0042600D01*
X0198867Y0042600D01*
X0198500Y0042967D01*
X0198500Y0044802D01*
X0139311Y0152600D02*
X0138577Y0152600D01*
X0138210Y0152967D01*
X0138210Y0153334D01*
X0138577Y0153701D01*
X0139311Y0153701D01*
X0139678Y0153334D01*
X0139678Y0152967D01*
X0139311Y0152600D01*
X0139311Y0153701D02*
X0139678Y0154068D01*
X0139678Y0154435D01*
X0139311Y0154802D01*
X0138577Y0154802D01*
X0138210Y0154435D01*
X0138210Y0154068D01*
X0138577Y0153701D01*
X0137468Y0152967D02*
X0137468Y0154802D01*
X0136000Y0154802D02*
X0136000Y0152967D01*
X0136367Y0152600D01*
X0137101Y0152600D01*
X0137468Y0152967D01*
X0157680Y0166450D02*
X0159148Y0166450D01*
X0159890Y0166817D02*
X0160257Y0166450D01*
X0160991Y0166450D01*
X0161358Y0166817D01*
X0161358Y0167551D01*
X0160991Y0167918D01*
X0160624Y0167918D01*
X0159890Y0167551D01*
X0159890Y0168652D01*
X0161358Y0168652D01*
X0157680Y0168652D02*
X0157680Y0166450D01*
X0193598Y0165781D02*
X0193598Y0164680D01*
X0195800Y0164680D01*
X0195800Y0165781D01*
X0195433Y0166148D01*
X0193965Y0166148D01*
X0193598Y0165781D01*
X0193965Y0166890D02*
X0193598Y0167257D01*
X0193598Y0167991D01*
X0193965Y0168358D01*
X0194332Y0168358D01*
X0195800Y0166890D01*
X0195800Y0168358D01*
X0031900Y0205100D02*
X0029698Y0205100D01*
X0029698Y0206201D01*
X0030065Y0206568D01*
X0030799Y0206568D01*
X0031166Y0206201D01*
X0031166Y0205100D01*
X0031166Y0205834D02*
X0031900Y0206568D01*
X0031533Y0207310D02*
X0031900Y0207677D01*
X0031900Y0208411D01*
X0031533Y0208778D01*
X0030799Y0208778D01*
X0030432Y0208411D01*
X0030432Y0208044D01*
X0030799Y0207310D01*
X0029698Y0207310D01*
X0029698Y0208778D01*
D17*
X0037000Y0217500D02*
X0039500Y0215000D01*
X0044500Y0215000D01*
X0047000Y0217500D01*
X0049500Y0215000D01*
X0054500Y0215000D01*
X0057000Y0217500D01*
X0057000Y0222500D01*
X0054500Y0225000D01*
X0049500Y0225000D01*
X0047000Y0222500D01*
X0044500Y0225000D01*
X0039500Y0225000D01*
X0037000Y0222500D01*
X0037000Y0217500D01*
X0058614Y0201752D02*
X0058614Y0198799D01*
X0058614Y0201752D02*
X0062748Y0201752D01*
X0062748Y0205886D01*
X0085386Y0205886D01*
X0085386Y0198799D01*
X0085386Y0186201D02*
X0085386Y0179114D01*
X0058614Y0179114D01*
X0058614Y0186004D01*
X0072000Y0204803D02*
X0072300Y0204799D01*
X0072599Y0204787D01*
X0072898Y0204768D01*
X0073196Y0204742D01*
X0073494Y0204709D01*
X0073791Y0204668D01*
X0074086Y0204621D01*
X0074380Y0204566D01*
X0074673Y0204504D01*
X0074965Y0204434D01*
X0075254Y0204358D01*
X0075542Y0204275D01*
X0075828Y0204185D01*
X0076111Y0204087D01*
X0076392Y0203983D01*
X0076670Y0203872D01*
X0076945Y0203755D01*
X0077218Y0203631D01*
X0077487Y0203500D01*
X0077753Y0203362D01*
X0078016Y0203219D01*
X0078275Y0203068D01*
X0078530Y0202912D01*
X0078782Y0202749D01*
X0079029Y0202581D01*
X0079272Y0202406D01*
X0079511Y0202226D01*
X0079746Y0202039D01*
X0079975Y0201847D01*
X0080201Y0201650D01*
X0080421Y0201447D01*
X0080636Y0201239D01*
X0080846Y0201025D01*
X0081051Y0200807D01*
X0081251Y0200584D01*
X0081445Y0200356D01*
X0081633Y0200123D01*
X0081816Y0199886D01*
X0081992Y0199644D01*
X0082163Y0199398D01*
X0082328Y0199148D01*
X0082487Y0198894D01*
X0082639Y0198636D01*
X0082786Y0198375D01*
X0082925Y0198110D01*
X0083122Y0187185D02*
X0082988Y0186915D01*
X0082848Y0186648D01*
X0082702Y0186385D01*
X0082549Y0186126D01*
X0082390Y0185870D01*
X0082224Y0185618D01*
X0082053Y0185371D01*
X0081875Y0185127D01*
X0081692Y0184888D01*
X0081503Y0184654D01*
X0081308Y0184424D01*
X0081107Y0184200D01*
X0080901Y0183980D01*
X0080690Y0183765D01*
X0080474Y0183556D01*
X0080252Y0183352D01*
X0080026Y0183153D01*
X0079794Y0182960D01*
X0079559Y0182773D01*
X0079318Y0182591D01*
X0079073Y0182416D01*
X0078824Y0182246D01*
X0078571Y0182083D01*
X0078314Y0181926D01*
X0078054Y0181775D01*
X0077789Y0181630D01*
X0077521Y0181493D01*
X0077250Y0181361D01*
X0076976Y0181237D01*
X0076699Y0181119D01*
X0076419Y0181008D01*
X0076136Y0180904D01*
X0075851Y0180807D01*
X0075564Y0180717D01*
X0075274Y0180634D01*
X0074983Y0180558D01*
X0074690Y0180489D01*
X0074395Y0180427D01*
X0074098Y0180373D01*
X0073801Y0180326D01*
X0073502Y0180286D01*
X0073203Y0180253D01*
X0072903Y0180228D01*
X0072602Y0180210D01*
X0072301Y0180200D01*
X0072000Y0180197D01*
X0068299Y0170118D02*
X0055701Y0170118D01*
X0055701Y0159882D02*
X0068299Y0159882D01*
X0064126Y0192500D02*
X0064128Y0192693D01*
X0064135Y0192886D01*
X0064147Y0193079D01*
X0064164Y0193272D01*
X0064185Y0193464D01*
X0064211Y0193655D01*
X0064242Y0193846D01*
X0064277Y0194036D01*
X0064317Y0194225D01*
X0064362Y0194413D01*
X0064411Y0194600D01*
X0064465Y0194786D01*
X0064523Y0194970D01*
X0064586Y0195153D01*
X0064654Y0195334D01*
X0064725Y0195513D01*
X0064802Y0195691D01*
X0064882Y0195867D01*
X0064967Y0196040D01*
X0065056Y0196212D01*
X0065149Y0196381D01*
X0065246Y0196548D01*
X0065348Y0196713D01*
X0065453Y0196875D01*
X0065562Y0197034D01*
X0065676Y0197191D01*
X0065793Y0197344D01*
X0065913Y0197495D01*
X0066038Y0197643D01*
X0066166Y0197788D01*
X0066297Y0197929D01*
X0066432Y0198068D01*
X0066571Y0198203D01*
X0066712Y0198334D01*
X0066857Y0198462D01*
X0067005Y0198587D01*
X0067156Y0198707D01*
X0067309Y0198824D01*
X0067466Y0198938D01*
X0067625Y0199047D01*
X0067787Y0199152D01*
X0067952Y0199254D01*
X0068119Y0199351D01*
X0068288Y0199444D01*
X0068460Y0199533D01*
X0068633Y0199618D01*
X0068809Y0199698D01*
X0068987Y0199775D01*
X0069166Y0199846D01*
X0069347Y0199914D01*
X0069530Y0199977D01*
X0069714Y0200035D01*
X0069900Y0200089D01*
X0070087Y0200138D01*
X0070275Y0200183D01*
X0070464Y0200223D01*
X0070654Y0200258D01*
X0070845Y0200289D01*
X0071036Y0200315D01*
X0071228Y0200336D01*
X0071421Y0200353D01*
X0071614Y0200365D01*
X0071807Y0200372D01*
X0072000Y0200374D01*
X0072193Y0200372D01*
X0072386Y0200365D01*
X0072579Y0200353D01*
X0072772Y0200336D01*
X0072964Y0200315D01*
X0073155Y0200289D01*
X0073346Y0200258D01*
X0073536Y0200223D01*
X0073725Y0200183D01*
X0073913Y0200138D01*
X0074100Y0200089D01*
X0074286Y0200035D01*
X0074470Y0199977D01*
X0074653Y0199914D01*
X0074834Y0199846D01*
X0075013Y0199775D01*
X0075191Y0199698D01*
X0075367Y0199618D01*
X0075540Y0199533D01*
X0075712Y0199444D01*
X0075881Y0199351D01*
X0076048Y0199254D01*
X0076213Y0199152D01*
X0076375Y0199047D01*
X0076534Y0198938D01*
X0076691Y0198824D01*
X0076844Y0198707D01*
X0076995Y0198587D01*
X0077143Y0198462D01*
X0077288Y0198334D01*
X0077429Y0198203D01*
X0077568Y0198068D01*
X0077703Y0197929D01*
X0077834Y0197788D01*
X0077962Y0197643D01*
X0078087Y0197495D01*
X0078207Y0197344D01*
X0078324Y0197191D01*
X0078438Y0197034D01*
X0078547Y0196875D01*
X0078652Y0196713D01*
X0078754Y0196548D01*
X0078851Y0196381D01*
X0078944Y0196212D01*
X0079033Y0196040D01*
X0079118Y0195867D01*
X0079198Y0195691D01*
X0079275Y0195513D01*
X0079346Y0195334D01*
X0079414Y0195153D01*
X0079477Y0194970D01*
X0079535Y0194786D01*
X0079589Y0194600D01*
X0079638Y0194413D01*
X0079683Y0194225D01*
X0079723Y0194036D01*
X0079758Y0193846D01*
X0079789Y0193655D01*
X0079815Y0193464D01*
X0079836Y0193272D01*
X0079853Y0193079D01*
X0079865Y0192886D01*
X0079872Y0192693D01*
X0079874Y0192500D01*
X0079872Y0192307D01*
X0079865Y0192114D01*
X0079853Y0191921D01*
X0079836Y0191728D01*
X0079815Y0191536D01*
X0079789Y0191345D01*
X0079758Y0191154D01*
X0079723Y0190964D01*
X0079683Y0190775D01*
X0079638Y0190587D01*
X0079589Y0190400D01*
X0079535Y0190214D01*
X0079477Y0190030D01*
X0079414Y0189847D01*
X0079346Y0189666D01*
X0079275Y0189487D01*
X0079198Y0189309D01*
X0079118Y0189133D01*
X0079033Y0188960D01*
X0078944Y0188788D01*
X0078851Y0188619D01*
X0078754Y0188452D01*
X0078652Y0188287D01*
X0078547Y0188125D01*
X0078438Y0187966D01*
X0078324Y0187809D01*
X0078207Y0187656D01*
X0078087Y0187505D01*
X0077962Y0187357D01*
X0077834Y0187212D01*
X0077703Y0187071D01*
X0077568Y0186932D01*
X0077429Y0186797D01*
X0077288Y0186666D01*
X0077143Y0186538D01*
X0076995Y0186413D01*
X0076844Y0186293D01*
X0076691Y0186176D01*
X0076534Y0186062D01*
X0076375Y0185953D01*
X0076213Y0185848D01*
X0076048Y0185746D01*
X0075881Y0185649D01*
X0075712Y0185556D01*
X0075540Y0185467D01*
X0075367Y0185382D01*
X0075191Y0185302D01*
X0075013Y0185225D01*
X0074834Y0185154D01*
X0074653Y0185086D01*
X0074470Y0185023D01*
X0074286Y0184965D01*
X0074100Y0184911D01*
X0073913Y0184862D01*
X0073725Y0184817D01*
X0073536Y0184777D01*
X0073346Y0184742D01*
X0073155Y0184711D01*
X0072964Y0184685D01*
X0072772Y0184664D01*
X0072579Y0184647D01*
X0072386Y0184635D01*
X0072193Y0184628D01*
X0072000Y0184626D01*
X0071807Y0184628D01*
X0071614Y0184635D01*
X0071421Y0184647D01*
X0071228Y0184664D01*
X0071036Y0184685D01*
X0070845Y0184711D01*
X0070654Y0184742D01*
X0070464Y0184777D01*
X0070275Y0184817D01*
X0070087Y0184862D01*
X0069900Y0184911D01*
X0069714Y0184965D01*
X0069530Y0185023D01*
X0069347Y0185086D01*
X0069166Y0185154D01*
X0068987Y0185225D01*
X0068809Y0185302D01*
X0068633Y0185382D01*
X0068460Y0185467D01*
X0068288Y0185556D01*
X0068119Y0185649D01*
X0067952Y0185746D01*
X0067787Y0185848D01*
X0067625Y0185953D01*
X0067466Y0186062D01*
X0067309Y0186176D01*
X0067156Y0186293D01*
X0067005Y0186413D01*
X0066857Y0186538D01*
X0066712Y0186666D01*
X0066571Y0186797D01*
X0066432Y0186932D01*
X0066297Y0187071D01*
X0066166Y0187212D01*
X0066038Y0187357D01*
X0065913Y0187505D01*
X0065793Y0187656D01*
X0065676Y0187809D01*
X0065562Y0187966D01*
X0065453Y0188125D01*
X0065348Y0188287D01*
X0065246Y0188452D01*
X0065149Y0188619D01*
X0065056Y0188788D01*
X0064967Y0188960D01*
X0064882Y0189133D01*
X0064802Y0189309D01*
X0064725Y0189487D01*
X0064654Y0189666D01*
X0064586Y0189847D01*
X0064523Y0190030D01*
X0064465Y0190214D01*
X0064411Y0190400D01*
X0064362Y0190587D01*
X0064317Y0190775D01*
X0064277Y0190964D01*
X0064242Y0191154D01*
X0064211Y0191345D01*
X0064185Y0191536D01*
X0064164Y0191728D01*
X0064147Y0191921D01*
X0064135Y0192114D01*
X0064128Y0192307D01*
X0064126Y0192500D01*
X0061075Y0198110D02*
X0061214Y0198375D01*
X0061361Y0198636D01*
X0061513Y0198894D01*
X0061672Y0199148D01*
X0061837Y0199398D01*
X0062008Y0199644D01*
X0062184Y0199886D01*
X0062367Y0200123D01*
X0062555Y0200356D01*
X0062749Y0200584D01*
X0062949Y0200807D01*
X0063154Y0201025D01*
X0063364Y0201239D01*
X0063579Y0201447D01*
X0063799Y0201650D01*
X0064025Y0201847D01*
X0064254Y0202039D01*
X0064489Y0202226D01*
X0064728Y0202406D01*
X0064971Y0202581D01*
X0065218Y0202749D01*
X0065470Y0202912D01*
X0065725Y0203068D01*
X0065984Y0203219D01*
X0066247Y0203362D01*
X0066513Y0203500D01*
X0066782Y0203631D01*
X0067055Y0203755D01*
X0067330Y0203872D01*
X0067608Y0203983D01*
X0067889Y0204087D01*
X0068172Y0204185D01*
X0068458Y0204275D01*
X0068746Y0204358D01*
X0069035Y0204434D01*
X0069327Y0204504D01*
X0069620Y0204566D01*
X0069914Y0204621D01*
X0070209Y0204668D01*
X0070506Y0204709D01*
X0070804Y0204742D01*
X0071102Y0204768D01*
X0071401Y0204787D01*
X0071700Y0204799D01*
X0072000Y0204803D01*
X0061075Y0186890D02*
X0061214Y0186625D01*
X0061361Y0186364D01*
X0061513Y0186106D01*
X0061672Y0185852D01*
X0061837Y0185602D01*
X0062008Y0185356D01*
X0062184Y0185114D01*
X0062367Y0184877D01*
X0062555Y0184644D01*
X0062749Y0184416D01*
X0062949Y0184193D01*
X0063154Y0183975D01*
X0063364Y0183761D01*
X0063579Y0183553D01*
X0063799Y0183350D01*
X0064025Y0183153D01*
X0064254Y0182961D01*
X0064489Y0182774D01*
X0064728Y0182594D01*
X0064971Y0182419D01*
X0065218Y0182251D01*
X0065470Y0182088D01*
X0065725Y0181932D01*
X0065984Y0181781D01*
X0066247Y0181638D01*
X0066513Y0181500D01*
X0066782Y0181369D01*
X0067055Y0181245D01*
X0067330Y0181128D01*
X0067608Y0181017D01*
X0067889Y0180913D01*
X0068172Y0180815D01*
X0068458Y0180725D01*
X0068746Y0180642D01*
X0069035Y0180566D01*
X0069327Y0180496D01*
X0069620Y0180434D01*
X0069914Y0180379D01*
X0070209Y0180332D01*
X0070506Y0180291D01*
X0070804Y0180258D01*
X0071102Y0180232D01*
X0071401Y0180213D01*
X0071700Y0180201D01*
X0072000Y0180197D01*
X0070307Y0230000D02*
X0070309Y0230164D01*
X0070315Y0230328D01*
X0070325Y0230492D01*
X0070339Y0230656D01*
X0070357Y0230819D01*
X0070379Y0230982D01*
X0070406Y0231144D01*
X0070436Y0231306D01*
X0070470Y0231466D01*
X0070508Y0231626D01*
X0070549Y0231785D01*
X0070595Y0231943D01*
X0070645Y0232099D01*
X0070698Y0232255D01*
X0070755Y0232409D01*
X0070816Y0232561D01*
X0070881Y0232712D01*
X0070950Y0232862D01*
X0071022Y0233009D01*
X0071097Y0233155D01*
X0071177Y0233299D01*
X0071259Y0233441D01*
X0071345Y0233581D01*
X0071435Y0233718D01*
X0071528Y0233854D01*
X0071624Y0233987D01*
X0071724Y0234118D01*
X0071826Y0234246D01*
X0071932Y0234372D01*
X0072041Y0234495D01*
X0072153Y0234615D01*
X0072267Y0234733D01*
X0072385Y0234847D01*
X0072505Y0234959D01*
X0072628Y0235068D01*
X0072754Y0235174D01*
X0072882Y0235276D01*
X0073013Y0235376D01*
X0073146Y0235472D01*
X0073282Y0235565D01*
X0073419Y0235655D01*
X0073559Y0235741D01*
X0073701Y0235823D01*
X0073845Y0235903D01*
X0073991Y0235978D01*
X0074138Y0236050D01*
X0074288Y0236119D01*
X0074439Y0236184D01*
X0074591Y0236245D01*
X0074745Y0236302D01*
X0074901Y0236355D01*
X0075057Y0236405D01*
X0075215Y0236451D01*
X0075374Y0236492D01*
X0075534Y0236530D01*
X0075694Y0236564D01*
X0075856Y0236594D01*
X0076018Y0236621D01*
X0076181Y0236643D01*
X0076344Y0236661D01*
X0076508Y0236675D01*
X0076672Y0236685D01*
X0076836Y0236691D01*
X0077000Y0236693D01*
X0077164Y0236691D01*
X0077328Y0236685D01*
X0077492Y0236675D01*
X0077656Y0236661D01*
X0077819Y0236643D01*
X0077982Y0236621D01*
X0078144Y0236594D01*
X0078306Y0236564D01*
X0078466Y0236530D01*
X0078626Y0236492D01*
X0078785Y0236451D01*
X0078943Y0236405D01*
X0079099Y0236355D01*
X0079255Y0236302D01*
X0079409Y0236245D01*
X0079561Y0236184D01*
X0079712Y0236119D01*
X0079862Y0236050D01*
X0080009Y0235978D01*
X0080155Y0235903D01*
X0080299Y0235823D01*
X0080441Y0235741D01*
X0080581Y0235655D01*
X0080718Y0235565D01*
X0080854Y0235472D01*
X0080987Y0235376D01*
X0081118Y0235276D01*
X0081246Y0235174D01*
X0081372Y0235068D01*
X0081495Y0234959D01*
X0081615Y0234847D01*
X0081733Y0234733D01*
X0081847Y0234615D01*
X0081959Y0234495D01*
X0082068Y0234372D01*
X0082174Y0234246D01*
X0082276Y0234118D01*
X0082376Y0233987D01*
X0082472Y0233854D01*
X0082565Y0233718D01*
X0082655Y0233581D01*
X0082741Y0233441D01*
X0082823Y0233299D01*
X0082903Y0233155D01*
X0082978Y0233009D01*
X0083050Y0232862D01*
X0083119Y0232712D01*
X0083184Y0232561D01*
X0083245Y0232409D01*
X0083302Y0232255D01*
X0083355Y0232099D01*
X0083405Y0231943D01*
X0083451Y0231785D01*
X0083492Y0231626D01*
X0083530Y0231466D01*
X0083564Y0231306D01*
X0083594Y0231144D01*
X0083621Y0230982D01*
X0083643Y0230819D01*
X0083661Y0230656D01*
X0083675Y0230492D01*
X0083685Y0230328D01*
X0083691Y0230164D01*
X0083693Y0230000D01*
X0083691Y0229836D01*
X0083685Y0229672D01*
X0083675Y0229508D01*
X0083661Y0229344D01*
X0083643Y0229181D01*
X0083621Y0229018D01*
X0083594Y0228856D01*
X0083564Y0228694D01*
X0083530Y0228534D01*
X0083492Y0228374D01*
X0083451Y0228215D01*
X0083405Y0228057D01*
X0083355Y0227901D01*
X0083302Y0227745D01*
X0083245Y0227591D01*
X0083184Y0227439D01*
X0083119Y0227288D01*
X0083050Y0227138D01*
X0082978Y0226991D01*
X0082903Y0226845D01*
X0082823Y0226701D01*
X0082741Y0226559D01*
X0082655Y0226419D01*
X0082565Y0226282D01*
X0082472Y0226146D01*
X0082376Y0226013D01*
X0082276Y0225882D01*
X0082174Y0225754D01*
X0082068Y0225628D01*
X0081959Y0225505D01*
X0081847Y0225385D01*
X0081733Y0225267D01*
X0081615Y0225153D01*
X0081495Y0225041D01*
X0081372Y0224932D01*
X0081246Y0224826D01*
X0081118Y0224724D01*
X0080987Y0224624D01*
X0080854Y0224528D01*
X0080718Y0224435D01*
X0080581Y0224345D01*
X0080441Y0224259D01*
X0080299Y0224177D01*
X0080155Y0224097D01*
X0080009Y0224022D01*
X0079862Y0223950D01*
X0079712Y0223881D01*
X0079561Y0223816D01*
X0079409Y0223755D01*
X0079255Y0223698D01*
X0079099Y0223645D01*
X0078943Y0223595D01*
X0078785Y0223549D01*
X0078626Y0223508D01*
X0078466Y0223470D01*
X0078306Y0223436D01*
X0078144Y0223406D01*
X0077982Y0223379D01*
X0077819Y0223357D01*
X0077656Y0223339D01*
X0077492Y0223325D01*
X0077328Y0223315D01*
X0077164Y0223309D01*
X0077000Y0223307D01*
X0076836Y0223309D01*
X0076672Y0223315D01*
X0076508Y0223325D01*
X0076344Y0223339D01*
X0076181Y0223357D01*
X0076018Y0223379D01*
X0075856Y0223406D01*
X0075694Y0223436D01*
X0075534Y0223470D01*
X0075374Y0223508D01*
X0075215Y0223549D01*
X0075057Y0223595D01*
X0074901Y0223645D01*
X0074745Y0223698D01*
X0074591Y0223755D01*
X0074439Y0223816D01*
X0074288Y0223881D01*
X0074138Y0223950D01*
X0073991Y0224022D01*
X0073845Y0224097D01*
X0073701Y0224177D01*
X0073559Y0224259D01*
X0073419Y0224345D01*
X0073282Y0224435D01*
X0073146Y0224528D01*
X0073013Y0224624D01*
X0072882Y0224724D01*
X0072754Y0224826D01*
X0072628Y0224932D01*
X0072505Y0225041D01*
X0072385Y0225153D01*
X0072267Y0225267D01*
X0072153Y0225385D01*
X0072041Y0225505D01*
X0071932Y0225628D01*
X0071826Y0225754D01*
X0071724Y0225882D01*
X0071624Y0226013D01*
X0071528Y0226146D01*
X0071435Y0226282D01*
X0071345Y0226419D01*
X0071259Y0226559D01*
X0071177Y0226701D01*
X0071097Y0226845D01*
X0071022Y0226991D01*
X0070950Y0227138D01*
X0070881Y0227288D01*
X0070816Y0227439D01*
X0070755Y0227591D01*
X0070698Y0227745D01*
X0070645Y0227901D01*
X0070595Y0228057D01*
X0070549Y0228215D01*
X0070508Y0228374D01*
X0070470Y0228534D01*
X0070436Y0228694D01*
X0070406Y0228856D01*
X0070379Y0229018D01*
X0070357Y0229181D01*
X0070339Y0229344D01*
X0070325Y0229508D01*
X0070315Y0229672D01*
X0070309Y0229836D01*
X0070307Y0230000D01*
X0143201Y0187618D02*
X0155799Y0187618D01*
X0155799Y0177382D02*
X0143201Y0177382D01*
X0161941Y0153543D02*
X0161941Y0151969D01*
X0167059Y0151969D01*
X0167059Y0146457D01*
X0161941Y0146457D02*
X0161941Y0151969D01*
X0167059Y0151969D02*
X0167059Y0153543D01*
X0178791Y0148445D02*
X0178791Y0166555D01*
X0180563Y0166555D01*
X0188437Y0166555D02*
X0190209Y0166555D01*
X0190209Y0148445D01*
X0188437Y0148445D01*
X0188437Y0153563D02*
X0180563Y0153563D01*
X0180563Y0148445D02*
X0178791Y0148445D01*
X0148299Y0077618D02*
X0135701Y0077618D01*
X0135701Y0067382D02*
X0148299Y0067382D01*
X0147512Y0035394D02*
X0147512Y0032244D01*
X0145150Y0032244D01*
X0138850Y0032244D02*
X0136488Y0032244D01*
X0136488Y0035394D01*
X0132512Y0035394D02*
X0132512Y0032244D01*
X0130150Y0032244D01*
X0123850Y0032244D02*
X0121488Y0032244D01*
X0121488Y0035394D01*
X0117512Y0035394D02*
X0117512Y0032244D01*
X0115150Y0032244D01*
X0108850Y0032244D02*
X0106488Y0032244D01*
X0106488Y0035394D01*
X0058831Y0042598D02*
X0050169Y0042598D01*
X0047807Y0030000D02*
X0047809Y0030164D01*
X0047815Y0030328D01*
X0047825Y0030492D01*
X0047839Y0030656D01*
X0047857Y0030819D01*
X0047879Y0030982D01*
X0047906Y0031144D01*
X0047936Y0031306D01*
X0047970Y0031466D01*
X0048008Y0031626D01*
X0048049Y0031785D01*
X0048095Y0031943D01*
X0048145Y0032099D01*
X0048198Y0032255D01*
X0048255Y0032409D01*
X0048316Y0032561D01*
X0048381Y0032712D01*
X0048450Y0032862D01*
X0048522Y0033009D01*
X0048597Y0033155D01*
X0048677Y0033299D01*
X0048759Y0033441D01*
X0048845Y0033581D01*
X0048935Y0033718D01*
X0049028Y0033854D01*
X0049124Y0033987D01*
X0049224Y0034118D01*
X0049326Y0034246D01*
X0049432Y0034372D01*
X0049541Y0034495D01*
X0049653Y0034615D01*
X0049767Y0034733D01*
X0049885Y0034847D01*
X0050005Y0034959D01*
X0050128Y0035068D01*
X0050254Y0035174D01*
X0050382Y0035276D01*
X0050513Y0035376D01*
X0050646Y0035472D01*
X0050782Y0035565D01*
X0050919Y0035655D01*
X0051059Y0035741D01*
X0051201Y0035823D01*
X0051345Y0035903D01*
X0051491Y0035978D01*
X0051638Y0036050D01*
X0051788Y0036119D01*
X0051939Y0036184D01*
X0052091Y0036245D01*
X0052245Y0036302D01*
X0052401Y0036355D01*
X0052557Y0036405D01*
X0052715Y0036451D01*
X0052874Y0036492D01*
X0053034Y0036530D01*
X0053194Y0036564D01*
X0053356Y0036594D01*
X0053518Y0036621D01*
X0053681Y0036643D01*
X0053844Y0036661D01*
X0054008Y0036675D01*
X0054172Y0036685D01*
X0054336Y0036691D01*
X0054500Y0036693D01*
X0054664Y0036691D01*
X0054828Y0036685D01*
X0054992Y0036675D01*
X0055156Y0036661D01*
X0055319Y0036643D01*
X0055482Y0036621D01*
X0055644Y0036594D01*
X0055806Y0036564D01*
X0055966Y0036530D01*
X0056126Y0036492D01*
X0056285Y0036451D01*
X0056443Y0036405D01*
X0056599Y0036355D01*
X0056755Y0036302D01*
X0056909Y0036245D01*
X0057061Y0036184D01*
X0057212Y0036119D01*
X0057362Y0036050D01*
X0057509Y0035978D01*
X0057655Y0035903D01*
X0057799Y0035823D01*
X0057941Y0035741D01*
X0058081Y0035655D01*
X0058218Y0035565D01*
X0058354Y0035472D01*
X0058487Y0035376D01*
X0058618Y0035276D01*
X0058746Y0035174D01*
X0058872Y0035068D01*
X0058995Y0034959D01*
X0059115Y0034847D01*
X0059233Y0034733D01*
X0059347Y0034615D01*
X0059459Y0034495D01*
X0059568Y0034372D01*
X0059674Y0034246D01*
X0059776Y0034118D01*
X0059876Y0033987D01*
X0059972Y0033854D01*
X0060065Y0033718D01*
X0060155Y0033581D01*
X0060241Y0033441D01*
X0060323Y0033299D01*
X0060403Y0033155D01*
X0060478Y0033009D01*
X0060550Y0032862D01*
X0060619Y0032712D01*
X0060684Y0032561D01*
X0060745Y0032409D01*
X0060802Y0032255D01*
X0060855Y0032099D01*
X0060905Y0031943D01*
X0060951Y0031785D01*
X0060992Y0031626D01*
X0061030Y0031466D01*
X0061064Y0031306D01*
X0061094Y0031144D01*
X0061121Y0030982D01*
X0061143Y0030819D01*
X0061161Y0030656D01*
X0061175Y0030492D01*
X0061185Y0030328D01*
X0061191Y0030164D01*
X0061193Y0030000D01*
X0061191Y0029836D01*
X0061185Y0029672D01*
X0061175Y0029508D01*
X0061161Y0029344D01*
X0061143Y0029181D01*
X0061121Y0029018D01*
X0061094Y0028856D01*
X0061064Y0028694D01*
X0061030Y0028534D01*
X0060992Y0028374D01*
X0060951Y0028215D01*
X0060905Y0028057D01*
X0060855Y0027901D01*
X0060802Y0027745D01*
X0060745Y0027591D01*
X0060684Y0027439D01*
X0060619Y0027288D01*
X0060550Y0027138D01*
X0060478Y0026991D01*
X0060403Y0026845D01*
X0060323Y0026701D01*
X0060241Y0026559D01*
X0060155Y0026419D01*
X0060065Y0026282D01*
X0059972Y0026146D01*
X0059876Y0026013D01*
X0059776Y0025882D01*
X0059674Y0025754D01*
X0059568Y0025628D01*
X0059459Y0025505D01*
X0059347Y0025385D01*
X0059233Y0025267D01*
X0059115Y0025153D01*
X0058995Y0025041D01*
X0058872Y0024932D01*
X0058746Y0024826D01*
X0058618Y0024724D01*
X0058487Y0024624D01*
X0058354Y0024528D01*
X0058218Y0024435D01*
X0058081Y0024345D01*
X0057941Y0024259D01*
X0057799Y0024177D01*
X0057655Y0024097D01*
X0057509Y0024022D01*
X0057362Y0023950D01*
X0057212Y0023881D01*
X0057061Y0023816D01*
X0056909Y0023755D01*
X0056755Y0023698D01*
X0056599Y0023645D01*
X0056443Y0023595D01*
X0056285Y0023549D01*
X0056126Y0023508D01*
X0055966Y0023470D01*
X0055806Y0023436D01*
X0055644Y0023406D01*
X0055482Y0023379D01*
X0055319Y0023357D01*
X0055156Y0023339D01*
X0054992Y0023325D01*
X0054828Y0023315D01*
X0054664Y0023309D01*
X0054500Y0023307D01*
X0054336Y0023309D01*
X0054172Y0023315D01*
X0054008Y0023325D01*
X0053844Y0023339D01*
X0053681Y0023357D01*
X0053518Y0023379D01*
X0053356Y0023406D01*
X0053194Y0023436D01*
X0053034Y0023470D01*
X0052874Y0023508D01*
X0052715Y0023549D01*
X0052557Y0023595D01*
X0052401Y0023645D01*
X0052245Y0023698D01*
X0052091Y0023755D01*
X0051939Y0023816D01*
X0051788Y0023881D01*
X0051638Y0023950D01*
X0051491Y0024022D01*
X0051345Y0024097D01*
X0051201Y0024177D01*
X0051059Y0024259D01*
X0050919Y0024345D01*
X0050782Y0024435D01*
X0050646Y0024528D01*
X0050513Y0024624D01*
X0050382Y0024724D01*
X0050254Y0024826D01*
X0050128Y0024932D01*
X0050005Y0025041D01*
X0049885Y0025153D01*
X0049767Y0025267D01*
X0049653Y0025385D01*
X0049541Y0025505D01*
X0049432Y0025628D01*
X0049326Y0025754D01*
X0049224Y0025882D01*
X0049124Y0026013D01*
X0049028Y0026146D01*
X0048935Y0026282D01*
X0048845Y0026419D01*
X0048759Y0026559D01*
X0048677Y0026701D01*
X0048597Y0026845D01*
X0048522Y0026991D01*
X0048450Y0027138D01*
X0048381Y0027288D01*
X0048316Y0027439D01*
X0048255Y0027591D01*
X0048198Y0027745D01*
X0048145Y0027901D01*
X0048095Y0028057D01*
X0048049Y0028215D01*
X0048008Y0028374D01*
X0047970Y0028534D01*
X0047936Y0028694D01*
X0047906Y0028856D01*
X0047879Y0029018D01*
X0047857Y0029181D01*
X0047839Y0029344D01*
X0047825Y0029508D01*
X0047815Y0029672D01*
X0047809Y0029836D01*
X0047807Y0030000D01*
X0050169Y0017402D02*
X0058831Y0017402D01*
X0010307Y0032500D02*
X0010309Y0032664D01*
X0010315Y0032828D01*
X0010325Y0032992D01*
X0010339Y0033156D01*
X0010357Y0033319D01*
X0010379Y0033482D01*
X0010406Y0033644D01*
X0010436Y0033806D01*
X0010470Y0033966D01*
X0010508Y0034126D01*
X0010549Y0034285D01*
X0010595Y0034443D01*
X0010645Y0034599D01*
X0010698Y0034755D01*
X0010755Y0034909D01*
X0010816Y0035061D01*
X0010881Y0035212D01*
X0010950Y0035362D01*
X0011022Y0035509D01*
X0011097Y0035655D01*
X0011177Y0035799D01*
X0011259Y0035941D01*
X0011345Y0036081D01*
X0011435Y0036218D01*
X0011528Y0036354D01*
X0011624Y0036487D01*
X0011724Y0036618D01*
X0011826Y0036746D01*
X0011932Y0036872D01*
X0012041Y0036995D01*
X0012153Y0037115D01*
X0012267Y0037233D01*
X0012385Y0037347D01*
X0012505Y0037459D01*
X0012628Y0037568D01*
X0012754Y0037674D01*
X0012882Y0037776D01*
X0013013Y0037876D01*
X0013146Y0037972D01*
X0013282Y0038065D01*
X0013419Y0038155D01*
X0013559Y0038241D01*
X0013701Y0038323D01*
X0013845Y0038403D01*
X0013991Y0038478D01*
X0014138Y0038550D01*
X0014288Y0038619D01*
X0014439Y0038684D01*
X0014591Y0038745D01*
X0014745Y0038802D01*
X0014901Y0038855D01*
X0015057Y0038905D01*
X0015215Y0038951D01*
X0015374Y0038992D01*
X0015534Y0039030D01*
X0015694Y0039064D01*
X0015856Y0039094D01*
X0016018Y0039121D01*
X0016181Y0039143D01*
X0016344Y0039161D01*
X0016508Y0039175D01*
X0016672Y0039185D01*
X0016836Y0039191D01*
X0017000Y0039193D01*
X0017164Y0039191D01*
X0017328Y0039185D01*
X0017492Y0039175D01*
X0017656Y0039161D01*
X0017819Y0039143D01*
X0017982Y0039121D01*
X0018144Y0039094D01*
X0018306Y0039064D01*
X0018466Y0039030D01*
X0018626Y0038992D01*
X0018785Y0038951D01*
X0018943Y0038905D01*
X0019099Y0038855D01*
X0019255Y0038802D01*
X0019409Y0038745D01*
X0019561Y0038684D01*
X0019712Y0038619D01*
X0019862Y0038550D01*
X0020009Y0038478D01*
X0020155Y0038403D01*
X0020299Y0038323D01*
X0020441Y0038241D01*
X0020581Y0038155D01*
X0020718Y0038065D01*
X0020854Y0037972D01*
X0020987Y0037876D01*
X0021118Y0037776D01*
X0021246Y0037674D01*
X0021372Y0037568D01*
X0021495Y0037459D01*
X0021615Y0037347D01*
X0021733Y0037233D01*
X0021847Y0037115D01*
X0021959Y0036995D01*
X0022068Y0036872D01*
X0022174Y0036746D01*
X0022276Y0036618D01*
X0022376Y0036487D01*
X0022472Y0036354D01*
X0022565Y0036218D01*
X0022655Y0036081D01*
X0022741Y0035941D01*
X0022823Y0035799D01*
X0022903Y0035655D01*
X0022978Y0035509D01*
X0023050Y0035362D01*
X0023119Y0035212D01*
X0023184Y0035061D01*
X0023245Y0034909D01*
X0023302Y0034755D01*
X0023355Y0034599D01*
X0023405Y0034443D01*
X0023451Y0034285D01*
X0023492Y0034126D01*
X0023530Y0033966D01*
X0023564Y0033806D01*
X0023594Y0033644D01*
X0023621Y0033482D01*
X0023643Y0033319D01*
X0023661Y0033156D01*
X0023675Y0032992D01*
X0023685Y0032828D01*
X0023691Y0032664D01*
X0023693Y0032500D01*
X0023691Y0032336D01*
X0023685Y0032172D01*
X0023675Y0032008D01*
X0023661Y0031844D01*
X0023643Y0031681D01*
X0023621Y0031518D01*
X0023594Y0031356D01*
X0023564Y0031194D01*
X0023530Y0031034D01*
X0023492Y0030874D01*
X0023451Y0030715D01*
X0023405Y0030557D01*
X0023355Y0030401D01*
X0023302Y0030245D01*
X0023245Y0030091D01*
X0023184Y0029939D01*
X0023119Y0029788D01*
X0023050Y0029638D01*
X0022978Y0029491D01*
X0022903Y0029345D01*
X0022823Y0029201D01*
X0022741Y0029059D01*
X0022655Y0028919D01*
X0022565Y0028782D01*
X0022472Y0028646D01*
X0022376Y0028513D01*
X0022276Y0028382D01*
X0022174Y0028254D01*
X0022068Y0028128D01*
X0021959Y0028005D01*
X0021847Y0027885D01*
X0021733Y0027767D01*
X0021615Y0027653D01*
X0021495Y0027541D01*
X0021372Y0027432D01*
X0021246Y0027326D01*
X0021118Y0027224D01*
X0020987Y0027124D01*
X0020854Y0027028D01*
X0020718Y0026935D01*
X0020581Y0026845D01*
X0020441Y0026759D01*
X0020299Y0026677D01*
X0020155Y0026597D01*
X0020009Y0026522D01*
X0019862Y0026450D01*
X0019712Y0026381D01*
X0019561Y0026316D01*
X0019409Y0026255D01*
X0019255Y0026198D01*
X0019099Y0026145D01*
X0018943Y0026095D01*
X0018785Y0026049D01*
X0018626Y0026008D01*
X0018466Y0025970D01*
X0018306Y0025936D01*
X0018144Y0025906D01*
X0017982Y0025879D01*
X0017819Y0025857D01*
X0017656Y0025839D01*
X0017492Y0025825D01*
X0017328Y0025815D01*
X0017164Y0025809D01*
X0017000Y0025807D01*
X0016836Y0025809D01*
X0016672Y0025815D01*
X0016508Y0025825D01*
X0016344Y0025839D01*
X0016181Y0025857D01*
X0016018Y0025879D01*
X0015856Y0025906D01*
X0015694Y0025936D01*
X0015534Y0025970D01*
X0015374Y0026008D01*
X0015215Y0026049D01*
X0015057Y0026095D01*
X0014901Y0026145D01*
X0014745Y0026198D01*
X0014591Y0026255D01*
X0014439Y0026316D01*
X0014288Y0026381D01*
X0014138Y0026450D01*
X0013991Y0026522D01*
X0013845Y0026597D01*
X0013701Y0026677D01*
X0013559Y0026759D01*
X0013419Y0026845D01*
X0013282Y0026935D01*
X0013146Y0027028D01*
X0013013Y0027124D01*
X0012882Y0027224D01*
X0012754Y0027326D01*
X0012628Y0027432D01*
X0012505Y0027541D01*
X0012385Y0027653D01*
X0012267Y0027767D01*
X0012153Y0027885D01*
X0012041Y0028005D01*
X0011932Y0028128D01*
X0011826Y0028254D01*
X0011724Y0028382D01*
X0011624Y0028513D01*
X0011528Y0028646D01*
X0011435Y0028782D01*
X0011345Y0028919D01*
X0011259Y0029059D01*
X0011177Y0029201D01*
X0011097Y0029345D01*
X0011022Y0029491D01*
X0010950Y0029638D01*
X0010881Y0029788D01*
X0010816Y0029939D01*
X0010755Y0030091D01*
X0010698Y0030245D01*
X0010645Y0030401D01*
X0010595Y0030557D01*
X0010549Y0030715D01*
X0010508Y0030874D01*
X0010470Y0031034D01*
X0010436Y0031194D01*
X0010406Y0031356D01*
X0010379Y0031518D01*
X0010357Y0031681D01*
X0010339Y0031844D01*
X0010325Y0032008D01*
X0010315Y0032172D01*
X0010309Y0032336D01*
X0010307Y0032500D01*
X0180307Y0230000D02*
X0180309Y0230164D01*
X0180315Y0230328D01*
X0180325Y0230492D01*
X0180339Y0230656D01*
X0180357Y0230819D01*
X0180379Y0230982D01*
X0180406Y0231144D01*
X0180436Y0231306D01*
X0180470Y0231466D01*
X0180508Y0231626D01*
X0180549Y0231785D01*
X0180595Y0231943D01*
X0180645Y0232099D01*
X0180698Y0232255D01*
X0180755Y0232409D01*
X0180816Y0232561D01*
X0180881Y0232712D01*
X0180950Y0232862D01*
X0181022Y0233009D01*
X0181097Y0233155D01*
X0181177Y0233299D01*
X0181259Y0233441D01*
X0181345Y0233581D01*
X0181435Y0233718D01*
X0181528Y0233854D01*
X0181624Y0233987D01*
X0181724Y0234118D01*
X0181826Y0234246D01*
X0181932Y0234372D01*
X0182041Y0234495D01*
X0182153Y0234615D01*
X0182267Y0234733D01*
X0182385Y0234847D01*
X0182505Y0234959D01*
X0182628Y0235068D01*
X0182754Y0235174D01*
X0182882Y0235276D01*
X0183013Y0235376D01*
X0183146Y0235472D01*
X0183282Y0235565D01*
X0183419Y0235655D01*
X0183559Y0235741D01*
X0183701Y0235823D01*
X0183845Y0235903D01*
X0183991Y0235978D01*
X0184138Y0236050D01*
X0184288Y0236119D01*
X0184439Y0236184D01*
X0184591Y0236245D01*
X0184745Y0236302D01*
X0184901Y0236355D01*
X0185057Y0236405D01*
X0185215Y0236451D01*
X0185374Y0236492D01*
X0185534Y0236530D01*
X0185694Y0236564D01*
X0185856Y0236594D01*
X0186018Y0236621D01*
X0186181Y0236643D01*
X0186344Y0236661D01*
X0186508Y0236675D01*
X0186672Y0236685D01*
X0186836Y0236691D01*
X0187000Y0236693D01*
X0187164Y0236691D01*
X0187328Y0236685D01*
X0187492Y0236675D01*
X0187656Y0236661D01*
X0187819Y0236643D01*
X0187982Y0236621D01*
X0188144Y0236594D01*
X0188306Y0236564D01*
X0188466Y0236530D01*
X0188626Y0236492D01*
X0188785Y0236451D01*
X0188943Y0236405D01*
X0189099Y0236355D01*
X0189255Y0236302D01*
X0189409Y0236245D01*
X0189561Y0236184D01*
X0189712Y0236119D01*
X0189862Y0236050D01*
X0190009Y0235978D01*
X0190155Y0235903D01*
X0190299Y0235823D01*
X0190441Y0235741D01*
X0190581Y0235655D01*
X0190718Y0235565D01*
X0190854Y0235472D01*
X0190987Y0235376D01*
X0191118Y0235276D01*
X0191246Y0235174D01*
X0191372Y0235068D01*
X0191495Y0234959D01*
X0191615Y0234847D01*
X0191733Y0234733D01*
X0191847Y0234615D01*
X0191959Y0234495D01*
X0192068Y0234372D01*
X0192174Y0234246D01*
X0192276Y0234118D01*
X0192376Y0233987D01*
X0192472Y0233854D01*
X0192565Y0233718D01*
X0192655Y0233581D01*
X0192741Y0233441D01*
X0192823Y0233299D01*
X0192903Y0233155D01*
X0192978Y0233009D01*
X0193050Y0232862D01*
X0193119Y0232712D01*
X0193184Y0232561D01*
X0193245Y0232409D01*
X0193302Y0232255D01*
X0193355Y0232099D01*
X0193405Y0231943D01*
X0193451Y0231785D01*
X0193492Y0231626D01*
X0193530Y0231466D01*
X0193564Y0231306D01*
X0193594Y0231144D01*
X0193621Y0230982D01*
X0193643Y0230819D01*
X0193661Y0230656D01*
X0193675Y0230492D01*
X0193685Y0230328D01*
X0193691Y0230164D01*
X0193693Y0230000D01*
X0193691Y0229836D01*
X0193685Y0229672D01*
X0193675Y0229508D01*
X0193661Y0229344D01*
X0193643Y0229181D01*
X0193621Y0229018D01*
X0193594Y0228856D01*
X0193564Y0228694D01*
X0193530Y0228534D01*
X0193492Y0228374D01*
X0193451Y0228215D01*
X0193405Y0228057D01*
X0193355Y0227901D01*
X0193302Y0227745D01*
X0193245Y0227591D01*
X0193184Y0227439D01*
X0193119Y0227288D01*
X0193050Y0227138D01*
X0192978Y0226991D01*
X0192903Y0226845D01*
X0192823Y0226701D01*
X0192741Y0226559D01*
X0192655Y0226419D01*
X0192565Y0226282D01*
X0192472Y0226146D01*
X0192376Y0226013D01*
X0192276Y0225882D01*
X0192174Y0225754D01*
X0192068Y0225628D01*
X0191959Y0225505D01*
X0191847Y0225385D01*
X0191733Y0225267D01*
X0191615Y0225153D01*
X0191495Y0225041D01*
X0191372Y0224932D01*
X0191246Y0224826D01*
X0191118Y0224724D01*
X0190987Y0224624D01*
X0190854Y0224528D01*
X0190718Y0224435D01*
X0190581Y0224345D01*
X0190441Y0224259D01*
X0190299Y0224177D01*
X0190155Y0224097D01*
X0190009Y0224022D01*
X0189862Y0223950D01*
X0189712Y0223881D01*
X0189561Y0223816D01*
X0189409Y0223755D01*
X0189255Y0223698D01*
X0189099Y0223645D01*
X0188943Y0223595D01*
X0188785Y0223549D01*
X0188626Y0223508D01*
X0188466Y0223470D01*
X0188306Y0223436D01*
X0188144Y0223406D01*
X0187982Y0223379D01*
X0187819Y0223357D01*
X0187656Y0223339D01*
X0187492Y0223325D01*
X0187328Y0223315D01*
X0187164Y0223309D01*
X0187000Y0223307D01*
X0186836Y0223309D01*
X0186672Y0223315D01*
X0186508Y0223325D01*
X0186344Y0223339D01*
X0186181Y0223357D01*
X0186018Y0223379D01*
X0185856Y0223406D01*
X0185694Y0223436D01*
X0185534Y0223470D01*
X0185374Y0223508D01*
X0185215Y0223549D01*
X0185057Y0223595D01*
X0184901Y0223645D01*
X0184745Y0223698D01*
X0184591Y0223755D01*
X0184439Y0223816D01*
X0184288Y0223881D01*
X0184138Y0223950D01*
X0183991Y0224022D01*
X0183845Y0224097D01*
X0183701Y0224177D01*
X0183559Y0224259D01*
X0183419Y0224345D01*
X0183282Y0224435D01*
X0183146Y0224528D01*
X0183013Y0224624D01*
X0182882Y0224724D01*
X0182754Y0224826D01*
X0182628Y0224932D01*
X0182505Y0225041D01*
X0182385Y0225153D01*
X0182267Y0225267D01*
X0182153Y0225385D01*
X0182041Y0225505D01*
X0181932Y0225628D01*
X0181826Y0225754D01*
X0181724Y0225882D01*
X0181624Y0226013D01*
X0181528Y0226146D01*
X0181435Y0226282D01*
X0181345Y0226419D01*
X0181259Y0226559D01*
X0181177Y0226701D01*
X0181097Y0226845D01*
X0181022Y0226991D01*
X0180950Y0227138D01*
X0180881Y0227288D01*
X0180816Y0227439D01*
X0180755Y0227591D01*
X0180698Y0227745D01*
X0180645Y0227901D01*
X0180595Y0228057D01*
X0180549Y0228215D01*
X0180508Y0228374D01*
X0180470Y0228534D01*
X0180436Y0228694D01*
X0180406Y0228856D01*
X0180379Y0229018D01*
X0180357Y0229181D01*
X0180339Y0229344D01*
X0180325Y0229508D01*
X0180315Y0229672D01*
X0180309Y0229836D01*
X0180307Y0230000D01*
X0200307Y0025000D02*
X0200309Y0025164D01*
X0200315Y0025328D01*
X0200325Y0025492D01*
X0200339Y0025656D01*
X0200357Y0025819D01*
X0200379Y0025982D01*
X0200406Y0026144D01*
X0200436Y0026306D01*
X0200470Y0026466D01*
X0200508Y0026626D01*
X0200549Y0026785D01*
X0200595Y0026943D01*
X0200645Y0027099D01*
X0200698Y0027255D01*
X0200755Y0027409D01*
X0200816Y0027561D01*
X0200881Y0027712D01*
X0200950Y0027862D01*
X0201022Y0028009D01*
X0201097Y0028155D01*
X0201177Y0028299D01*
X0201259Y0028441D01*
X0201345Y0028581D01*
X0201435Y0028718D01*
X0201528Y0028854D01*
X0201624Y0028987D01*
X0201724Y0029118D01*
X0201826Y0029246D01*
X0201932Y0029372D01*
X0202041Y0029495D01*
X0202153Y0029615D01*
X0202267Y0029733D01*
X0202385Y0029847D01*
X0202505Y0029959D01*
X0202628Y0030068D01*
X0202754Y0030174D01*
X0202882Y0030276D01*
X0203013Y0030376D01*
X0203146Y0030472D01*
X0203282Y0030565D01*
X0203419Y0030655D01*
X0203559Y0030741D01*
X0203701Y0030823D01*
X0203845Y0030903D01*
X0203991Y0030978D01*
X0204138Y0031050D01*
X0204288Y0031119D01*
X0204439Y0031184D01*
X0204591Y0031245D01*
X0204745Y0031302D01*
X0204901Y0031355D01*
X0205057Y0031405D01*
X0205215Y0031451D01*
X0205374Y0031492D01*
X0205534Y0031530D01*
X0205694Y0031564D01*
X0205856Y0031594D01*
X0206018Y0031621D01*
X0206181Y0031643D01*
X0206344Y0031661D01*
X0206508Y0031675D01*
X0206672Y0031685D01*
X0206836Y0031691D01*
X0207000Y0031693D01*
X0207164Y0031691D01*
X0207328Y0031685D01*
X0207492Y0031675D01*
X0207656Y0031661D01*
X0207819Y0031643D01*
X0207982Y0031621D01*
X0208144Y0031594D01*
X0208306Y0031564D01*
X0208466Y0031530D01*
X0208626Y0031492D01*
X0208785Y0031451D01*
X0208943Y0031405D01*
X0209099Y0031355D01*
X0209255Y0031302D01*
X0209409Y0031245D01*
X0209561Y0031184D01*
X0209712Y0031119D01*
X0209862Y0031050D01*
X0210009Y0030978D01*
X0210155Y0030903D01*
X0210299Y0030823D01*
X0210441Y0030741D01*
X0210581Y0030655D01*
X0210718Y0030565D01*
X0210854Y0030472D01*
X0210987Y0030376D01*
X0211118Y0030276D01*
X0211246Y0030174D01*
X0211372Y0030068D01*
X0211495Y0029959D01*
X0211615Y0029847D01*
X0211733Y0029733D01*
X0211847Y0029615D01*
X0211959Y0029495D01*
X0212068Y0029372D01*
X0212174Y0029246D01*
X0212276Y0029118D01*
X0212376Y0028987D01*
X0212472Y0028854D01*
X0212565Y0028718D01*
X0212655Y0028581D01*
X0212741Y0028441D01*
X0212823Y0028299D01*
X0212903Y0028155D01*
X0212978Y0028009D01*
X0213050Y0027862D01*
X0213119Y0027712D01*
X0213184Y0027561D01*
X0213245Y0027409D01*
X0213302Y0027255D01*
X0213355Y0027099D01*
X0213405Y0026943D01*
X0213451Y0026785D01*
X0213492Y0026626D01*
X0213530Y0026466D01*
X0213564Y0026306D01*
X0213594Y0026144D01*
X0213621Y0025982D01*
X0213643Y0025819D01*
X0213661Y0025656D01*
X0213675Y0025492D01*
X0213685Y0025328D01*
X0213691Y0025164D01*
X0213693Y0025000D01*
X0213691Y0024836D01*
X0213685Y0024672D01*
X0213675Y0024508D01*
X0213661Y0024344D01*
X0213643Y0024181D01*
X0213621Y0024018D01*
X0213594Y0023856D01*
X0213564Y0023694D01*
X0213530Y0023534D01*
X0213492Y0023374D01*
X0213451Y0023215D01*
X0213405Y0023057D01*
X0213355Y0022901D01*
X0213302Y0022745D01*
X0213245Y0022591D01*
X0213184Y0022439D01*
X0213119Y0022288D01*
X0213050Y0022138D01*
X0212978Y0021991D01*
X0212903Y0021845D01*
X0212823Y0021701D01*
X0212741Y0021559D01*
X0212655Y0021419D01*
X0212565Y0021282D01*
X0212472Y0021146D01*
X0212376Y0021013D01*
X0212276Y0020882D01*
X0212174Y0020754D01*
X0212068Y0020628D01*
X0211959Y0020505D01*
X0211847Y0020385D01*
X0211733Y0020267D01*
X0211615Y0020153D01*
X0211495Y0020041D01*
X0211372Y0019932D01*
X0211246Y0019826D01*
X0211118Y0019724D01*
X0210987Y0019624D01*
X0210854Y0019528D01*
X0210718Y0019435D01*
X0210581Y0019345D01*
X0210441Y0019259D01*
X0210299Y0019177D01*
X0210155Y0019097D01*
X0210009Y0019022D01*
X0209862Y0018950D01*
X0209712Y0018881D01*
X0209561Y0018816D01*
X0209409Y0018755D01*
X0209255Y0018698D01*
X0209099Y0018645D01*
X0208943Y0018595D01*
X0208785Y0018549D01*
X0208626Y0018508D01*
X0208466Y0018470D01*
X0208306Y0018436D01*
X0208144Y0018406D01*
X0207982Y0018379D01*
X0207819Y0018357D01*
X0207656Y0018339D01*
X0207492Y0018325D01*
X0207328Y0018315D01*
X0207164Y0018309D01*
X0207000Y0018307D01*
X0206836Y0018309D01*
X0206672Y0018315D01*
X0206508Y0018325D01*
X0206344Y0018339D01*
X0206181Y0018357D01*
X0206018Y0018379D01*
X0205856Y0018406D01*
X0205694Y0018436D01*
X0205534Y0018470D01*
X0205374Y0018508D01*
X0205215Y0018549D01*
X0205057Y0018595D01*
X0204901Y0018645D01*
X0204745Y0018698D01*
X0204591Y0018755D01*
X0204439Y0018816D01*
X0204288Y0018881D01*
X0204138Y0018950D01*
X0203991Y0019022D01*
X0203845Y0019097D01*
X0203701Y0019177D01*
X0203559Y0019259D01*
X0203419Y0019345D01*
X0203282Y0019435D01*
X0203146Y0019528D01*
X0203013Y0019624D01*
X0202882Y0019724D01*
X0202754Y0019826D01*
X0202628Y0019932D01*
X0202505Y0020041D01*
X0202385Y0020153D01*
X0202267Y0020267D01*
X0202153Y0020385D01*
X0202041Y0020505D01*
X0201932Y0020628D01*
X0201826Y0020754D01*
X0201724Y0020882D01*
X0201624Y0021013D01*
X0201528Y0021146D01*
X0201435Y0021282D01*
X0201345Y0021419D01*
X0201259Y0021559D01*
X0201177Y0021701D01*
X0201097Y0021845D01*
X0201022Y0021991D01*
X0200950Y0022138D01*
X0200881Y0022288D01*
X0200816Y0022439D01*
X0200755Y0022591D01*
X0200698Y0022745D01*
X0200645Y0022901D01*
X0200595Y0023057D01*
X0200549Y0023215D01*
X0200508Y0023374D01*
X0200470Y0023534D01*
X0200436Y0023694D01*
X0200406Y0023856D01*
X0200379Y0024018D01*
X0200357Y0024181D01*
X0200339Y0024344D01*
X0200325Y0024508D01*
X0200315Y0024672D01*
X0200309Y0024836D01*
X0200307Y0025000D01*
D18*
X0147328Y0029200D02*
X0147077Y0028950D01*
X0146577Y0028950D01*
X0146327Y0029200D01*
X0145854Y0029200D02*
X0145604Y0028950D01*
X0145104Y0028950D01*
X0144853Y0029200D01*
X0144853Y0030201D01*
X0145104Y0030451D01*
X0145604Y0030451D01*
X0145854Y0030201D01*
X0145854Y0029200D01*
X0145854Y0028950D02*
X0145354Y0029450D01*
X0146327Y0030201D02*
X0146577Y0030451D01*
X0147077Y0030451D01*
X0147328Y0030201D01*
X0147328Y0029951D01*
X0147077Y0029701D01*
X0147328Y0029450D01*
X0147328Y0029200D01*
X0147077Y0029701D02*
X0146827Y0029701D01*
X0132328Y0029951D02*
X0132328Y0030201D01*
X0132077Y0030451D01*
X0131577Y0030451D01*
X0131327Y0030201D01*
X0130854Y0030201D02*
X0130854Y0029200D01*
X0130604Y0028950D01*
X0130104Y0028950D01*
X0129853Y0029200D01*
X0129853Y0030201D01*
X0130104Y0030451D01*
X0130604Y0030451D01*
X0130854Y0030201D01*
X0130354Y0029450D02*
X0130854Y0028950D01*
X0131327Y0028950D02*
X0132328Y0029951D01*
X0132328Y0028950D02*
X0131327Y0028950D01*
X0117328Y0028950D02*
X0116327Y0028950D01*
X0115854Y0028950D02*
X0115354Y0029450D01*
X0115604Y0028950D02*
X0115104Y0028950D01*
X0114853Y0029200D01*
X0114853Y0030201D01*
X0115104Y0030451D01*
X0115604Y0030451D01*
X0115854Y0030201D01*
X0115854Y0029200D01*
X0115604Y0028950D01*
X0116827Y0028950D02*
X0116827Y0030451D01*
X0116327Y0029951D01*
X0140880Y0055200D02*
X0141381Y0055200D01*
X0141631Y0055450D01*
X0142103Y0055200D02*
X0143104Y0055200D01*
X0142604Y0055200D02*
X0142604Y0056701D01*
X0142103Y0056201D01*
X0141631Y0056451D02*
X0141381Y0056701D01*
X0140880Y0056701D01*
X0140630Y0056451D01*
X0140630Y0055450D01*
X0140880Y0055200D01*
X0143577Y0055450D02*
X0144578Y0056451D01*
X0144578Y0055450D01*
X0144327Y0055200D01*
X0143827Y0055200D01*
X0143577Y0055450D01*
X0143577Y0056451D01*
X0143827Y0056701D01*
X0144327Y0056701D01*
X0144578Y0056451D01*
X0141226Y0063981D02*
X0141226Y0064232D01*
X0142227Y0065233D01*
X0142227Y0065483D01*
X0141226Y0065483D01*
X0140754Y0065233D02*
X0140504Y0065483D01*
X0140003Y0065483D01*
X0139753Y0065233D01*
X0139753Y0064232D01*
X0140003Y0063981D01*
X0140504Y0063981D01*
X0140754Y0064232D01*
X0142354Y0080200D02*
X0142854Y0080200D01*
X0143104Y0080450D01*
X0143577Y0080450D02*
X0143577Y0080700D01*
X0143827Y0080951D01*
X0144327Y0080951D01*
X0144578Y0080700D01*
X0144578Y0080450D01*
X0144327Y0080200D01*
X0143827Y0080200D01*
X0143577Y0080450D01*
X0143827Y0080951D02*
X0143577Y0081201D01*
X0143577Y0081451D01*
X0143827Y0081701D01*
X0144327Y0081701D01*
X0144578Y0081451D01*
X0144578Y0081201D01*
X0144327Y0080951D01*
X0143104Y0081451D02*
X0142854Y0081701D01*
X0142354Y0081701D01*
X0142103Y0081451D01*
X0142103Y0080450D01*
X0142354Y0080200D01*
X0138450Y0092050D02*
X0138700Y0092300D01*
X0138700Y0092801D01*
X0138450Y0093051D01*
X0138450Y0093523D02*
X0138700Y0093773D01*
X0138700Y0094274D01*
X0138450Y0094524D01*
X0138200Y0094524D01*
X0137949Y0094274D01*
X0137949Y0093523D01*
X0138450Y0093523D01*
X0137949Y0093523D02*
X0137449Y0094024D01*
X0137199Y0094524D01*
X0137449Y0093051D02*
X0137199Y0092801D01*
X0137199Y0092300D01*
X0137449Y0092050D01*
X0138450Y0092050D01*
X0101200Y0132050D02*
X0099699Y0132050D01*
X0099699Y0132801D01*
X0099949Y0133051D01*
X0100449Y0133051D01*
X0100700Y0132801D01*
X0100700Y0132050D01*
X0100700Y0132550D02*
X0101200Y0133051D01*
X0100950Y0133523D02*
X0101200Y0133773D01*
X0101200Y0134274D01*
X0100950Y0134524D01*
X0099949Y0134524D01*
X0099699Y0134274D01*
X0099699Y0133773D01*
X0099949Y0133523D01*
X0100199Y0133523D01*
X0100449Y0133773D01*
X0100449Y0134524D01*
X0091200Y0144550D02*
X0089699Y0144550D01*
X0089699Y0145301D01*
X0089949Y0145551D01*
X0090449Y0145551D01*
X0090700Y0145301D01*
X0090700Y0144550D01*
X0090700Y0145050D02*
X0091200Y0145551D01*
X0091200Y0146023D02*
X0091200Y0147024D01*
X0091200Y0147497D02*
X0090199Y0148497D01*
X0089949Y0148497D01*
X0089699Y0148247D01*
X0089699Y0147747D01*
X0089949Y0147497D01*
X0089699Y0146524D02*
X0091200Y0146524D01*
X0091200Y0147497D02*
X0091200Y0148497D01*
X0089699Y0146524D02*
X0090199Y0146023D01*
X0063874Y0172269D02*
X0063624Y0172019D01*
X0063124Y0172019D01*
X0062874Y0172269D01*
X0062401Y0172269D02*
X0062151Y0172019D01*
X0061651Y0172019D01*
X0061400Y0172269D01*
X0061400Y0173270D01*
X0061651Y0173520D01*
X0062151Y0173520D01*
X0062401Y0173270D01*
X0062874Y0173520D02*
X0062874Y0172769D01*
X0063374Y0173019D01*
X0063624Y0173019D01*
X0063874Y0172769D01*
X0063874Y0172269D01*
X0063874Y0173520D02*
X0062874Y0173520D01*
X0043700Y0148523D02*
X0043450Y0148523D01*
X0042449Y0149524D01*
X0042199Y0149524D01*
X0042199Y0148523D01*
X0042449Y0148051D02*
X0042949Y0148051D01*
X0043200Y0147801D01*
X0043200Y0147050D01*
X0043700Y0147050D02*
X0042199Y0147050D01*
X0042199Y0147801D01*
X0042449Y0148051D01*
X0043200Y0147550D02*
X0043700Y0148051D01*
X0051550Y0142051D02*
X0051550Y0141050D01*
X0051800Y0140800D01*
X0052301Y0140800D01*
X0052551Y0141050D01*
X0053023Y0141050D02*
X0053273Y0140800D01*
X0053774Y0140800D01*
X0054024Y0141050D01*
X0054024Y0142051D01*
X0053774Y0142301D01*
X0053273Y0142301D01*
X0053023Y0142051D01*
X0053023Y0141801D01*
X0053273Y0141551D01*
X0054024Y0141551D01*
X0052551Y0142051D02*
X0052301Y0142301D01*
X0051800Y0142301D01*
X0051550Y0142051D01*
X0119699Y0144800D02*
X0119949Y0144550D01*
X0120950Y0144550D01*
X0121200Y0144800D01*
X0121200Y0145301D01*
X0120950Y0145551D01*
X0121200Y0146023D02*
X0120199Y0147024D01*
X0119949Y0147024D01*
X0119699Y0146774D01*
X0119699Y0146273D01*
X0119949Y0146023D01*
X0119949Y0145551D02*
X0119699Y0145301D01*
X0119699Y0144800D01*
X0121200Y0146023D02*
X0121200Y0147024D01*
X0121200Y0147497D02*
X0120199Y0148497D01*
X0119949Y0148497D01*
X0119699Y0148247D01*
X0119699Y0147747D01*
X0119949Y0147497D01*
X0121200Y0147497D02*
X0121200Y0148497D01*
X0129699Y0138497D02*
X0129949Y0138497D01*
X0130950Y0137497D01*
X0131200Y0137497D01*
X0131200Y0137024D02*
X0131200Y0136023D01*
X0131200Y0135551D02*
X0130700Y0135050D01*
X0130700Y0135301D02*
X0130700Y0134550D01*
X0131200Y0134550D02*
X0129699Y0134550D01*
X0129699Y0135301D01*
X0129949Y0135551D01*
X0130449Y0135551D01*
X0130700Y0135301D01*
X0130199Y0136023D02*
X0129699Y0136524D01*
X0131200Y0136524D01*
X0129699Y0137497D02*
X0129699Y0138497D01*
X0139699Y0138247D02*
X0139949Y0138497D01*
X0140950Y0137497D01*
X0141200Y0137747D01*
X0141200Y0138247D01*
X0140950Y0138497D01*
X0139949Y0138497D01*
X0139699Y0138247D02*
X0139699Y0137747D01*
X0139949Y0137497D01*
X0140950Y0137497D01*
X0141200Y0137024D02*
X0141200Y0136023D01*
X0140199Y0137024D01*
X0139949Y0137024D01*
X0139699Y0136774D01*
X0139699Y0136273D01*
X0139949Y0136023D01*
X0139949Y0135551D02*
X0139699Y0135301D01*
X0139699Y0134800D01*
X0139949Y0134550D01*
X0140950Y0134550D01*
X0141200Y0134800D01*
X0141200Y0135301D01*
X0140950Y0135551D01*
X0159699Y0137050D02*
X0159699Y0137801D01*
X0159949Y0138051D01*
X0160449Y0138051D01*
X0160700Y0137801D01*
X0160700Y0137050D01*
X0161200Y0137050D02*
X0159699Y0137050D01*
X0160700Y0137550D02*
X0161200Y0138051D01*
X0161200Y0138523D02*
X0161200Y0139524D01*
X0161200Y0139024D02*
X0159699Y0139024D01*
X0160199Y0138523D01*
X0160449Y0139997D02*
X0160449Y0140747D01*
X0160700Y0140997D01*
X0160950Y0140997D01*
X0161200Y0140747D01*
X0161200Y0140247D01*
X0160950Y0139997D01*
X0160449Y0139997D01*
X0159949Y0140497D01*
X0159699Y0140997D01*
X0167549Y0152103D02*
X0167549Y0152854D01*
X0167799Y0153104D01*
X0168800Y0153104D01*
X0169050Y0152854D01*
X0169050Y0152103D01*
X0167549Y0152103D01*
X0167799Y0153577D02*
X0167549Y0153827D01*
X0167549Y0154327D01*
X0167799Y0154578D01*
X0168049Y0154578D01*
X0168299Y0154327D01*
X0168550Y0154578D01*
X0168800Y0154578D01*
X0169050Y0154327D01*
X0169050Y0153827D01*
X0168800Y0153577D01*
X0168299Y0154077D02*
X0168299Y0154327D01*
X0159578Y0162950D02*
X0159578Y0163200D01*
X0159327Y0163451D01*
X0159077Y0163451D01*
X0159327Y0163451D02*
X0159578Y0163701D01*
X0159578Y0163951D01*
X0159327Y0164201D01*
X0158827Y0164201D01*
X0158577Y0163951D01*
X0158104Y0163951D02*
X0157854Y0164201D01*
X0157354Y0164201D01*
X0157103Y0163951D01*
X0156631Y0163951D02*
X0156381Y0164201D01*
X0155880Y0164201D01*
X0155630Y0163951D01*
X0155630Y0162950D01*
X0155880Y0162700D01*
X0156381Y0162700D01*
X0156631Y0162950D01*
X0157103Y0162700D02*
X0158104Y0163701D01*
X0158104Y0163951D01*
X0158577Y0162950D02*
X0158827Y0162700D01*
X0159327Y0162700D01*
X0159578Y0162950D01*
X0158104Y0162700D02*
X0157103Y0162700D01*
X0139727Y0188981D02*
X0138726Y0188981D01*
X0138254Y0188981D02*
X0137253Y0188981D01*
X0138254Y0189982D01*
X0138254Y0190233D01*
X0138004Y0190483D01*
X0137503Y0190483D01*
X0137253Y0190233D01*
X0136781Y0190233D02*
X0136530Y0190483D01*
X0136030Y0190483D01*
X0135780Y0190233D01*
X0135780Y0189232D01*
X0136030Y0188981D01*
X0136530Y0188981D01*
X0136781Y0189232D01*
X0138726Y0189982D02*
X0139227Y0190483D01*
X0139227Y0188981D01*
X0177799Y0092327D02*
X0178549Y0091577D01*
X0178549Y0092578D01*
X0177799Y0092327D02*
X0179300Y0092327D01*
X0179050Y0091104D02*
X0179300Y0090854D01*
X0179300Y0090354D01*
X0179050Y0090103D01*
X0178049Y0090103D01*
X0177799Y0090354D01*
X0177799Y0090854D01*
X0178049Y0091104D01*
D19*
X0200701Y0025000D02*
X0200703Y0025158D01*
X0200709Y0025316D01*
X0200719Y0025474D01*
X0200733Y0025632D01*
X0200751Y0025789D01*
X0200772Y0025946D01*
X0200798Y0026102D01*
X0200828Y0026258D01*
X0200861Y0026413D01*
X0200899Y0026566D01*
X0200940Y0026719D01*
X0200985Y0026871D01*
X0201034Y0027022D01*
X0201087Y0027171D01*
X0201143Y0027319D01*
X0201203Y0027465D01*
X0201267Y0027610D01*
X0201335Y0027753D01*
X0201406Y0027895D01*
X0201480Y0028035D01*
X0201558Y0028172D01*
X0201640Y0028308D01*
X0201724Y0028442D01*
X0201813Y0028573D01*
X0201904Y0028702D01*
X0201999Y0028829D01*
X0202096Y0028954D01*
X0202197Y0029076D01*
X0202301Y0029195D01*
X0202408Y0029312D01*
X0202518Y0029426D01*
X0202631Y0029537D01*
X0202746Y0029646D01*
X0202864Y0029751D01*
X0202985Y0029853D01*
X0203108Y0029953D01*
X0203234Y0030049D01*
X0203362Y0030142D01*
X0203492Y0030232D01*
X0203625Y0030318D01*
X0203760Y0030402D01*
X0203896Y0030481D01*
X0204035Y0030558D01*
X0204176Y0030630D01*
X0204318Y0030700D01*
X0204462Y0030765D01*
X0204608Y0030827D01*
X0204755Y0030885D01*
X0204904Y0030940D01*
X0205054Y0030991D01*
X0205205Y0031038D01*
X0205357Y0031081D01*
X0205510Y0031120D01*
X0205665Y0031156D01*
X0205820Y0031187D01*
X0205976Y0031215D01*
X0206132Y0031239D01*
X0206289Y0031259D01*
X0206447Y0031275D01*
X0206604Y0031287D01*
X0206763Y0031295D01*
X0206921Y0031299D01*
X0207079Y0031299D01*
X0207237Y0031295D01*
X0207396Y0031287D01*
X0207553Y0031275D01*
X0207711Y0031259D01*
X0207868Y0031239D01*
X0208024Y0031215D01*
X0208180Y0031187D01*
X0208335Y0031156D01*
X0208490Y0031120D01*
X0208643Y0031081D01*
X0208795Y0031038D01*
X0208946Y0030991D01*
X0209096Y0030940D01*
X0209245Y0030885D01*
X0209392Y0030827D01*
X0209538Y0030765D01*
X0209682Y0030700D01*
X0209824Y0030630D01*
X0209965Y0030558D01*
X0210104Y0030481D01*
X0210240Y0030402D01*
X0210375Y0030318D01*
X0210508Y0030232D01*
X0210638Y0030142D01*
X0210766Y0030049D01*
X0210892Y0029953D01*
X0211015Y0029853D01*
X0211136Y0029751D01*
X0211254Y0029646D01*
X0211369Y0029537D01*
X0211482Y0029426D01*
X0211592Y0029312D01*
X0211699Y0029195D01*
X0211803Y0029076D01*
X0211904Y0028954D01*
X0212001Y0028829D01*
X0212096Y0028702D01*
X0212187Y0028573D01*
X0212276Y0028442D01*
X0212360Y0028308D01*
X0212442Y0028172D01*
X0212520Y0028035D01*
X0212594Y0027895D01*
X0212665Y0027753D01*
X0212733Y0027610D01*
X0212797Y0027465D01*
X0212857Y0027319D01*
X0212913Y0027171D01*
X0212966Y0027022D01*
X0213015Y0026871D01*
X0213060Y0026719D01*
X0213101Y0026566D01*
X0213139Y0026413D01*
X0213172Y0026258D01*
X0213202Y0026102D01*
X0213228Y0025946D01*
X0213249Y0025789D01*
X0213267Y0025632D01*
X0213281Y0025474D01*
X0213291Y0025316D01*
X0213297Y0025158D01*
X0213299Y0025000D01*
X0213297Y0024842D01*
X0213291Y0024684D01*
X0213281Y0024526D01*
X0213267Y0024368D01*
X0213249Y0024211D01*
X0213228Y0024054D01*
X0213202Y0023898D01*
X0213172Y0023742D01*
X0213139Y0023587D01*
X0213101Y0023434D01*
X0213060Y0023281D01*
X0213015Y0023129D01*
X0212966Y0022978D01*
X0212913Y0022829D01*
X0212857Y0022681D01*
X0212797Y0022535D01*
X0212733Y0022390D01*
X0212665Y0022247D01*
X0212594Y0022105D01*
X0212520Y0021965D01*
X0212442Y0021828D01*
X0212360Y0021692D01*
X0212276Y0021558D01*
X0212187Y0021427D01*
X0212096Y0021298D01*
X0212001Y0021171D01*
X0211904Y0021046D01*
X0211803Y0020924D01*
X0211699Y0020805D01*
X0211592Y0020688D01*
X0211482Y0020574D01*
X0211369Y0020463D01*
X0211254Y0020354D01*
X0211136Y0020249D01*
X0211015Y0020147D01*
X0210892Y0020047D01*
X0210766Y0019951D01*
X0210638Y0019858D01*
X0210508Y0019768D01*
X0210375Y0019682D01*
X0210240Y0019598D01*
X0210104Y0019519D01*
X0209965Y0019442D01*
X0209824Y0019370D01*
X0209682Y0019300D01*
X0209538Y0019235D01*
X0209392Y0019173D01*
X0209245Y0019115D01*
X0209096Y0019060D01*
X0208946Y0019009D01*
X0208795Y0018962D01*
X0208643Y0018919D01*
X0208490Y0018880D01*
X0208335Y0018844D01*
X0208180Y0018813D01*
X0208024Y0018785D01*
X0207868Y0018761D01*
X0207711Y0018741D01*
X0207553Y0018725D01*
X0207396Y0018713D01*
X0207237Y0018705D01*
X0207079Y0018701D01*
X0206921Y0018701D01*
X0206763Y0018705D01*
X0206604Y0018713D01*
X0206447Y0018725D01*
X0206289Y0018741D01*
X0206132Y0018761D01*
X0205976Y0018785D01*
X0205820Y0018813D01*
X0205665Y0018844D01*
X0205510Y0018880D01*
X0205357Y0018919D01*
X0205205Y0018962D01*
X0205054Y0019009D01*
X0204904Y0019060D01*
X0204755Y0019115D01*
X0204608Y0019173D01*
X0204462Y0019235D01*
X0204318Y0019300D01*
X0204176Y0019370D01*
X0204035Y0019442D01*
X0203896Y0019519D01*
X0203760Y0019598D01*
X0203625Y0019682D01*
X0203492Y0019768D01*
X0203362Y0019858D01*
X0203234Y0019951D01*
X0203108Y0020047D01*
X0202985Y0020147D01*
X0202864Y0020249D01*
X0202746Y0020354D01*
X0202631Y0020463D01*
X0202518Y0020574D01*
X0202408Y0020688D01*
X0202301Y0020805D01*
X0202197Y0020924D01*
X0202096Y0021046D01*
X0201999Y0021171D01*
X0201904Y0021298D01*
X0201813Y0021427D01*
X0201724Y0021558D01*
X0201640Y0021692D01*
X0201558Y0021828D01*
X0201480Y0021965D01*
X0201406Y0022105D01*
X0201335Y0022247D01*
X0201267Y0022390D01*
X0201203Y0022535D01*
X0201143Y0022681D01*
X0201087Y0022829D01*
X0201034Y0022978D01*
X0200985Y0023129D01*
X0200940Y0023281D01*
X0200899Y0023434D01*
X0200861Y0023587D01*
X0200828Y0023742D01*
X0200798Y0023898D01*
X0200772Y0024054D01*
X0200751Y0024211D01*
X0200733Y0024368D01*
X0200719Y0024526D01*
X0200709Y0024684D01*
X0200703Y0024842D01*
X0200701Y0025000D01*
X0088063Y0090846D02*
X0088065Y0090999D01*
X0088071Y0091153D01*
X0088081Y0091306D01*
X0088095Y0091458D01*
X0088113Y0091611D01*
X0088135Y0091762D01*
X0088160Y0091913D01*
X0088190Y0092064D01*
X0088224Y0092214D01*
X0088261Y0092362D01*
X0088302Y0092510D01*
X0088347Y0092656D01*
X0088396Y0092802D01*
X0088449Y0092946D01*
X0088505Y0093088D01*
X0088565Y0093229D01*
X0088629Y0093369D01*
X0088696Y0093507D01*
X0088767Y0093643D01*
X0088842Y0093777D01*
X0088919Y0093909D01*
X0089001Y0094039D01*
X0089085Y0094167D01*
X0089173Y0094293D01*
X0089264Y0094416D01*
X0089358Y0094537D01*
X0089456Y0094655D01*
X0089556Y0094771D01*
X0089660Y0094884D01*
X0089766Y0094995D01*
X0089875Y0095103D01*
X0089987Y0095208D01*
X0090101Y0095309D01*
X0090219Y0095408D01*
X0090338Y0095504D01*
X0090460Y0095597D01*
X0090585Y0095686D01*
X0090712Y0095773D01*
X0090841Y0095855D01*
X0090972Y0095935D01*
X0091105Y0096011D01*
X0091240Y0096084D01*
X0091377Y0096153D01*
X0091516Y0096218D01*
X0091656Y0096280D01*
X0091798Y0096338D01*
X0091941Y0096393D01*
X0092086Y0096444D01*
X0092232Y0096491D01*
X0092379Y0096534D01*
X0092527Y0096573D01*
X0092676Y0096609D01*
X0092826Y0096640D01*
X0092977Y0096668D01*
X0093128Y0096692D01*
X0093281Y0096712D01*
X0093433Y0096728D01*
X0093586Y0096740D01*
X0093739Y0096748D01*
X0093892Y0096752D01*
X0094046Y0096752D01*
X0094199Y0096748D01*
X0094352Y0096740D01*
X0094505Y0096728D01*
X0094657Y0096712D01*
X0094810Y0096692D01*
X0094961Y0096668D01*
X0095112Y0096640D01*
X0095262Y0096609D01*
X0095411Y0096573D01*
X0095559Y0096534D01*
X0095706Y0096491D01*
X0095852Y0096444D01*
X0095997Y0096393D01*
X0096140Y0096338D01*
X0096282Y0096280D01*
X0096422Y0096218D01*
X0096561Y0096153D01*
X0096698Y0096084D01*
X0096833Y0096011D01*
X0096966Y0095935D01*
X0097097Y0095855D01*
X0097226Y0095773D01*
X0097353Y0095686D01*
X0097478Y0095597D01*
X0097600Y0095504D01*
X0097719Y0095408D01*
X0097837Y0095309D01*
X0097951Y0095208D01*
X0098063Y0095103D01*
X0098172Y0094995D01*
X0098278Y0094884D01*
X0098382Y0094771D01*
X0098482Y0094655D01*
X0098580Y0094537D01*
X0098674Y0094416D01*
X0098765Y0094293D01*
X0098853Y0094167D01*
X0098937Y0094039D01*
X0099019Y0093909D01*
X0099096Y0093777D01*
X0099171Y0093643D01*
X0099242Y0093507D01*
X0099309Y0093369D01*
X0099373Y0093229D01*
X0099433Y0093088D01*
X0099489Y0092946D01*
X0099542Y0092802D01*
X0099591Y0092656D01*
X0099636Y0092510D01*
X0099677Y0092362D01*
X0099714Y0092214D01*
X0099748Y0092064D01*
X0099778Y0091913D01*
X0099803Y0091762D01*
X0099825Y0091611D01*
X0099843Y0091458D01*
X0099857Y0091306D01*
X0099867Y0091153D01*
X0099873Y0090999D01*
X0099875Y0090846D01*
X0099873Y0090693D01*
X0099867Y0090539D01*
X0099857Y0090386D01*
X0099843Y0090234D01*
X0099825Y0090081D01*
X0099803Y0089930D01*
X0099778Y0089779D01*
X0099748Y0089628D01*
X0099714Y0089478D01*
X0099677Y0089330D01*
X0099636Y0089182D01*
X0099591Y0089036D01*
X0099542Y0088890D01*
X0099489Y0088746D01*
X0099433Y0088604D01*
X0099373Y0088463D01*
X0099309Y0088323D01*
X0099242Y0088185D01*
X0099171Y0088049D01*
X0099096Y0087915D01*
X0099019Y0087783D01*
X0098937Y0087653D01*
X0098853Y0087525D01*
X0098765Y0087399D01*
X0098674Y0087276D01*
X0098580Y0087155D01*
X0098482Y0087037D01*
X0098382Y0086921D01*
X0098278Y0086808D01*
X0098172Y0086697D01*
X0098063Y0086589D01*
X0097951Y0086484D01*
X0097837Y0086383D01*
X0097719Y0086284D01*
X0097600Y0086188D01*
X0097478Y0086095D01*
X0097353Y0086006D01*
X0097226Y0085919D01*
X0097097Y0085837D01*
X0096966Y0085757D01*
X0096833Y0085681D01*
X0096698Y0085608D01*
X0096561Y0085539D01*
X0096422Y0085474D01*
X0096282Y0085412D01*
X0096140Y0085354D01*
X0095997Y0085299D01*
X0095852Y0085248D01*
X0095706Y0085201D01*
X0095559Y0085158D01*
X0095411Y0085119D01*
X0095262Y0085083D01*
X0095112Y0085052D01*
X0094961Y0085024D01*
X0094810Y0085000D01*
X0094657Y0084980D01*
X0094505Y0084964D01*
X0094352Y0084952D01*
X0094199Y0084944D01*
X0094046Y0084940D01*
X0093892Y0084940D01*
X0093739Y0084944D01*
X0093586Y0084952D01*
X0093433Y0084964D01*
X0093281Y0084980D01*
X0093128Y0085000D01*
X0092977Y0085024D01*
X0092826Y0085052D01*
X0092676Y0085083D01*
X0092527Y0085119D01*
X0092379Y0085158D01*
X0092232Y0085201D01*
X0092086Y0085248D01*
X0091941Y0085299D01*
X0091798Y0085354D01*
X0091656Y0085412D01*
X0091516Y0085474D01*
X0091377Y0085539D01*
X0091240Y0085608D01*
X0091105Y0085681D01*
X0090972Y0085757D01*
X0090841Y0085837D01*
X0090712Y0085919D01*
X0090585Y0086006D01*
X0090460Y0086095D01*
X0090338Y0086188D01*
X0090219Y0086284D01*
X0090101Y0086383D01*
X0089987Y0086484D01*
X0089875Y0086589D01*
X0089766Y0086697D01*
X0089660Y0086808D01*
X0089556Y0086921D01*
X0089456Y0087037D01*
X0089358Y0087155D01*
X0089264Y0087276D01*
X0089173Y0087399D01*
X0089085Y0087525D01*
X0089001Y0087653D01*
X0088919Y0087783D01*
X0088842Y0087915D01*
X0088767Y0088049D01*
X0088696Y0088185D01*
X0088629Y0088323D01*
X0088565Y0088463D01*
X0088505Y0088604D01*
X0088449Y0088746D01*
X0088396Y0088890D01*
X0088347Y0089036D01*
X0088302Y0089182D01*
X0088261Y0089330D01*
X0088224Y0089478D01*
X0088190Y0089628D01*
X0088160Y0089779D01*
X0088135Y0089930D01*
X0088113Y0090081D01*
X0088095Y0090234D01*
X0088081Y0090386D01*
X0088071Y0090539D01*
X0088065Y0090693D01*
X0088063Y0090846D01*
X0010701Y0032500D02*
X0010703Y0032658D01*
X0010709Y0032816D01*
X0010719Y0032974D01*
X0010733Y0033132D01*
X0010751Y0033289D01*
X0010772Y0033446D01*
X0010798Y0033602D01*
X0010828Y0033758D01*
X0010861Y0033913D01*
X0010899Y0034066D01*
X0010940Y0034219D01*
X0010985Y0034371D01*
X0011034Y0034522D01*
X0011087Y0034671D01*
X0011143Y0034819D01*
X0011203Y0034965D01*
X0011267Y0035110D01*
X0011335Y0035253D01*
X0011406Y0035395D01*
X0011480Y0035535D01*
X0011558Y0035672D01*
X0011640Y0035808D01*
X0011724Y0035942D01*
X0011813Y0036073D01*
X0011904Y0036202D01*
X0011999Y0036329D01*
X0012096Y0036454D01*
X0012197Y0036576D01*
X0012301Y0036695D01*
X0012408Y0036812D01*
X0012518Y0036926D01*
X0012631Y0037037D01*
X0012746Y0037146D01*
X0012864Y0037251D01*
X0012985Y0037353D01*
X0013108Y0037453D01*
X0013234Y0037549D01*
X0013362Y0037642D01*
X0013492Y0037732D01*
X0013625Y0037818D01*
X0013760Y0037902D01*
X0013896Y0037981D01*
X0014035Y0038058D01*
X0014176Y0038130D01*
X0014318Y0038200D01*
X0014462Y0038265D01*
X0014608Y0038327D01*
X0014755Y0038385D01*
X0014904Y0038440D01*
X0015054Y0038491D01*
X0015205Y0038538D01*
X0015357Y0038581D01*
X0015510Y0038620D01*
X0015665Y0038656D01*
X0015820Y0038687D01*
X0015976Y0038715D01*
X0016132Y0038739D01*
X0016289Y0038759D01*
X0016447Y0038775D01*
X0016604Y0038787D01*
X0016763Y0038795D01*
X0016921Y0038799D01*
X0017079Y0038799D01*
X0017237Y0038795D01*
X0017396Y0038787D01*
X0017553Y0038775D01*
X0017711Y0038759D01*
X0017868Y0038739D01*
X0018024Y0038715D01*
X0018180Y0038687D01*
X0018335Y0038656D01*
X0018490Y0038620D01*
X0018643Y0038581D01*
X0018795Y0038538D01*
X0018946Y0038491D01*
X0019096Y0038440D01*
X0019245Y0038385D01*
X0019392Y0038327D01*
X0019538Y0038265D01*
X0019682Y0038200D01*
X0019824Y0038130D01*
X0019965Y0038058D01*
X0020104Y0037981D01*
X0020240Y0037902D01*
X0020375Y0037818D01*
X0020508Y0037732D01*
X0020638Y0037642D01*
X0020766Y0037549D01*
X0020892Y0037453D01*
X0021015Y0037353D01*
X0021136Y0037251D01*
X0021254Y0037146D01*
X0021369Y0037037D01*
X0021482Y0036926D01*
X0021592Y0036812D01*
X0021699Y0036695D01*
X0021803Y0036576D01*
X0021904Y0036454D01*
X0022001Y0036329D01*
X0022096Y0036202D01*
X0022187Y0036073D01*
X0022276Y0035942D01*
X0022360Y0035808D01*
X0022442Y0035672D01*
X0022520Y0035535D01*
X0022594Y0035395D01*
X0022665Y0035253D01*
X0022733Y0035110D01*
X0022797Y0034965D01*
X0022857Y0034819D01*
X0022913Y0034671D01*
X0022966Y0034522D01*
X0023015Y0034371D01*
X0023060Y0034219D01*
X0023101Y0034066D01*
X0023139Y0033913D01*
X0023172Y0033758D01*
X0023202Y0033602D01*
X0023228Y0033446D01*
X0023249Y0033289D01*
X0023267Y0033132D01*
X0023281Y0032974D01*
X0023291Y0032816D01*
X0023297Y0032658D01*
X0023299Y0032500D01*
X0023297Y0032342D01*
X0023291Y0032184D01*
X0023281Y0032026D01*
X0023267Y0031868D01*
X0023249Y0031711D01*
X0023228Y0031554D01*
X0023202Y0031398D01*
X0023172Y0031242D01*
X0023139Y0031087D01*
X0023101Y0030934D01*
X0023060Y0030781D01*
X0023015Y0030629D01*
X0022966Y0030478D01*
X0022913Y0030329D01*
X0022857Y0030181D01*
X0022797Y0030035D01*
X0022733Y0029890D01*
X0022665Y0029747D01*
X0022594Y0029605D01*
X0022520Y0029465D01*
X0022442Y0029328D01*
X0022360Y0029192D01*
X0022276Y0029058D01*
X0022187Y0028927D01*
X0022096Y0028798D01*
X0022001Y0028671D01*
X0021904Y0028546D01*
X0021803Y0028424D01*
X0021699Y0028305D01*
X0021592Y0028188D01*
X0021482Y0028074D01*
X0021369Y0027963D01*
X0021254Y0027854D01*
X0021136Y0027749D01*
X0021015Y0027647D01*
X0020892Y0027547D01*
X0020766Y0027451D01*
X0020638Y0027358D01*
X0020508Y0027268D01*
X0020375Y0027182D01*
X0020240Y0027098D01*
X0020104Y0027019D01*
X0019965Y0026942D01*
X0019824Y0026870D01*
X0019682Y0026800D01*
X0019538Y0026735D01*
X0019392Y0026673D01*
X0019245Y0026615D01*
X0019096Y0026560D01*
X0018946Y0026509D01*
X0018795Y0026462D01*
X0018643Y0026419D01*
X0018490Y0026380D01*
X0018335Y0026344D01*
X0018180Y0026313D01*
X0018024Y0026285D01*
X0017868Y0026261D01*
X0017711Y0026241D01*
X0017553Y0026225D01*
X0017396Y0026213D01*
X0017237Y0026205D01*
X0017079Y0026201D01*
X0016921Y0026201D01*
X0016763Y0026205D01*
X0016604Y0026213D01*
X0016447Y0026225D01*
X0016289Y0026241D01*
X0016132Y0026261D01*
X0015976Y0026285D01*
X0015820Y0026313D01*
X0015665Y0026344D01*
X0015510Y0026380D01*
X0015357Y0026419D01*
X0015205Y0026462D01*
X0015054Y0026509D01*
X0014904Y0026560D01*
X0014755Y0026615D01*
X0014608Y0026673D01*
X0014462Y0026735D01*
X0014318Y0026800D01*
X0014176Y0026870D01*
X0014035Y0026942D01*
X0013896Y0027019D01*
X0013760Y0027098D01*
X0013625Y0027182D01*
X0013492Y0027268D01*
X0013362Y0027358D01*
X0013234Y0027451D01*
X0013108Y0027547D01*
X0012985Y0027647D01*
X0012864Y0027749D01*
X0012746Y0027854D01*
X0012631Y0027963D01*
X0012518Y0028074D01*
X0012408Y0028188D01*
X0012301Y0028305D01*
X0012197Y0028424D01*
X0012096Y0028546D01*
X0011999Y0028671D01*
X0011904Y0028798D01*
X0011813Y0028927D01*
X0011724Y0029058D01*
X0011640Y0029192D01*
X0011558Y0029328D01*
X0011480Y0029465D01*
X0011406Y0029605D01*
X0011335Y0029747D01*
X0011267Y0029890D01*
X0011203Y0030035D01*
X0011143Y0030181D01*
X0011087Y0030329D01*
X0011034Y0030478D01*
X0010985Y0030629D01*
X0010940Y0030781D01*
X0010899Y0030934D01*
X0010861Y0031087D01*
X0010828Y0031242D01*
X0010798Y0031398D01*
X0010772Y0031554D01*
X0010751Y0031711D01*
X0010733Y0031868D01*
X0010719Y0032026D01*
X0010709Y0032184D01*
X0010703Y0032342D01*
X0010701Y0032500D01*
X0070701Y0230000D02*
X0070703Y0230158D01*
X0070709Y0230316D01*
X0070719Y0230474D01*
X0070733Y0230632D01*
X0070751Y0230789D01*
X0070772Y0230946D01*
X0070798Y0231102D01*
X0070828Y0231258D01*
X0070861Y0231413D01*
X0070899Y0231566D01*
X0070940Y0231719D01*
X0070985Y0231871D01*
X0071034Y0232022D01*
X0071087Y0232171D01*
X0071143Y0232319D01*
X0071203Y0232465D01*
X0071267Y0232610D01*
X0071335Y0232753D01*
X0071406Y0232895D01*
X0071480Y0233035D01*
X0071558Y0233172D01*
X0071640Y0233308D01*
X0071724Y0233442D01*
X0071813Y0233573D01*
X0071904Y0233702D01*
X0071999Y0233829D01*
X0072096Y0233954D01*
X0072197Y0234076D01*
X0072301Y0234195D01*
X0072408Y0234312D01*
X0072518Y0234426D01*
X0072631Y0234537D01*
X0072746Y0234646D01*
X0072864Y0234751D01*
X0072985Y0234853D01*
X0073108Y0234953D01*
X0073234Y0235049D01*
X0073362Y0235142D01*
X0073492Y0235232D01*
X0073625Y0235318D01*
X0073760Y0235402D01*
X0073896Y0235481D01*
X0074035Y0235558D01*
X0074176Y0235630D01*
X0074318Y0235700D01*
X0074462Y0235765D01*
X0074608Y0235827D01*
X0074755Y0235885D01*
X0074904Y0235940D01*
X0075054Y0235991D01*
X0075205Y0236038D01*
X0075357Y0236081D01*
X0075510Y0236120D01*
X0075665Y0236156D01*
X0075820Y0236187D01*
X0075976Y0236215D01*
X0076132Y0236239D01*
X0076289Y0236259D01*
X0076447Y0236275D01*
X0076604Y0236287D01*
X0076763Y0236295D01*
X0076921Y0236299D01*
X0077079Y0236299D01*
X0077237Y0236295D01*
X0077396Y0236287D01*
X0077553Y0236275D01*
X0077711Y0236259D01*
X0077868Y0236239D01*
X0078024Y0236215D01*
X0078180Y0236187D01*
X0078335Y0236156D01*
X0078490Y0236120D01*
X0078643Y0236081D01*
X0078795Y0236038D01*
X0078946Y0235991D01*
X0079096Y0235940D01*
X0079245Y0235885D01*
X0079392Y0235827D01*
X0079538Y0235765D01*
X0079682Y0235700D01*
X0079824Y0235630D01*
X0079965Y0235558D01*
X0080104Y0235481D01*
X0080240Y0235402D01*
X0080375Y0235318D01*
X0080508Y0235232D01*
X0080638Y0235142D01*
X0080766Y0235049D01*
X0080892Y0234953D01*
X0081015Y0234853D01*
X0081136Y0234751D01*
X0081254Y0234646D01*
X0081369Y0234537D01*
X0081482Y0234426D01*
X0081592Y0234312D01*
X0081699Y0234195D01*
X0081803Y0234076D01*
X0081904Y0233954D01*
X0082001Y0233829D01*
X0082096Y0233702D01*
X0082187Y0233573D01*
X0082276Y0233442D01*
X0082360Y0233308D01*
X0082442Y0233172D01*
X0082520Y0233035D01*
X0082594Y0232895D01*
X0082665Y0232753D01*
X0082733Y0232610D01*
X0082797Y0232465D01*
X0082857Y0232319D01*
X0082913Y0232171D01*
X0082966Y0232022D01*
X0083015Y0231871D01*
X0083060Y0231719D01*
X0083101Y0231566D01*
X0083139Y0231413D01*
X0083172Y0231258D01*
X0083202Y0231102D01*
X0083228Y0230946D01*
X0083249Y0230789D01*
X0083267Y0230632D01*
X0083281Y0230474D01*
X0083291Y0230316D01*
X0083297Y0230158D01*
X0083299Y0230000D01*
X0083297Y0229842D01*
X0083291Y0229684D01*
X0083281Y0229526D01*
X0083267Y0229368D01*
X0083249Y0229211D01*
X0083228Y0229054D01*
X0083202Y0228898D01*
X0083172Y0228742D01*
X0083139Y0228587D01*
X0083101Y0228434D01*
X0083060Y0228281D01*
X0083015Y0228129D01*
X0082966Y0227978D01*
X0082913Y0227829D01*
X0082857Y0227681D01*
X0082797Y0227535D01*
X0082733Y0227390D01*
X0082665Y0227247D01*
X0082594Y0227105D01*
X0082520Y0226965D01*
X0082442Y0226828D01*
X0082360Y0226692D01*
X0082276Y0226558D01*
X0082187Y0226427D01*
X0082096Y0226298D01*
X0082001Y0226171D01*
X0081904Y0226046D01*
X0081803Y0225924D01*
X0081699Y0225805D01*
X0081592Y0225688D01*
X0081482Y0225574D01*
X0081369Y0225463D01*
X0081254Y0225354D01*
X0081136Y0225249D01*
X0081015Y0225147D01*
X0080892Y0225047D01*
X0080766Y0224951D01*
X0080638Y0224858D01*
X0080508Y0224768D01*
X0080375Y0224682D01*
X0080240Y0224598D01*
X0080104Y0224519D01*
X0079965Y0224442D01*
X0079824Y0224370D01*
X0079682Y0224300D01*
X0079538Y0224235D01*
X0079392Y0224173D01*
X0079245Y0224115D01*
X0079096Y0224060D01*
X0078946Y0224009D01*
X0078795Y0223962D01*
X0078643Y0223919D01*
X0078490Y0223880D01*
X0078335Y0223844D01*
X0078180Y0223813D01*
X0078024Y0223785D01*
X0077868Y0223761D01*
X0077711Y0223741D01*
X0077553Y0223725D01*
X0077396Y0223713D01*
X0077237Y0223705D01*
X0077079Y0223701D01*
X0076921Y0223701D01*
X0076763Y0223705D01*
X0076604Y0223713D01*
X0076447Y0223725D01*
X0076289Y0223741D01*
X0076132Y0223761D01*
X0075976Y0223785D01*
X0075820Y0223813D01*
X0075665Y0223844D01*
X0075510Y0223880D01*
X0075357Y0223919D01*
X0075205Y0223962D01*
X0075054Y0224009D01*
X0074904Y0224060D01*
X0074755Y0224115D01*
X0074608Y0224173D01*
X0074462Y0224235D01*
X0074318Y0224300D01*
X0074176Y0224370D01*
X0074035Y0224442D01*
X0073896Y0224519D01*
X0073760Y0224598D01*
X0073625Y0224682D01*
X0073492Y0224768D01*
X0073362Y0224858D01*
X0073234Y0224951D01*
X0073108Y0225047D01*
X0072985Y0225147D01*
X0072864Y0225249D01*
X0072746Y0225354D01*
X0072631Y0225463D01*
X0072518Y0225574D01*
X0072408Y0225688D01*
X0072301Y0225805D01*
X0072197Y0225924D01*
X0072096Y0226046D01*
X0071999Y0226171D01*
X0071904Y0226298D01*
X0071813Y0226427D01*
X0071724Y0226558D01*
X0071640Y0226692D01*
X0071558Y0226828D01*
X0071480Y0226965D01*
X0071406Y0227105D01*
X0071335Y0227247D01*
X0071267Y0227390D01*
X0071203Y0227535D01*
X0071143Y0227681D01*
X0071087Y0227829D01*
X0071034Y0227978D01*
X0070985Y0228129D01*
X0070940Y0228281D01*
X0070899Y0228434D01*
X0070861Y0228587D01*
X0070828Y0228742D01*
X0070798Y0228898D01*
X0070772Y0229054D01*
X0070751Y0229211D01*
X0070733Y0229368D01*
X0070719Y0229526D01*
X0070709Y0229684D01*
X0070703Y0229842D01*
X0070701Y0230000D01*
X0180701Y0230000D02*
X0180703Y0230158D01*
X0180709Y0230316D01*
X0180719Y0230474D01*
X0180733Y0230632D01*
X0180751Y0230789D01*
X0180772Y0230946D01*
X0180798Y0231102D01*
X0180828Y0231258D01*
X0180861Y0231413D01*
X0180899Y0231566D01*
X0180940Y0231719D01*
X0180985Y0231871D01*
X0181034Y0232022D01*
X0181087Y0232171D01*
X0181143Y0232319D01*
X0181203Y0232465D01*
X0181267Y0232610D01*
X0181335Y0232753D01*
X0181406Y0232895D01*
X0181480Y0233035D01*
X0181558Y0233172D01*
X0181640Y0233308D01*
X0181724Y0233442D01*
X0181813Y0233573D01*
X0181904Y0233702D01*
X0181999Y0233829D01*
X0182096Y0233954D01*
X0182197Y0234076D01*
X0182301Y0234195D01*
X0182408Y0234312D01*
X0182518Y0234426D01*
X0182631Y0234537D01*
X0182746Y0234646D01*
X0182864Y0234751D01*
X0182985Y0234853D01*
X0183108Y0234953D01*
X0183234Y0235049D01*
X0183362Y0235142D01*
X0183492Y0235232D01*
X0183625Y0235318D01*
X0183760Y0235402D01*
X0183896Y0235481D01*
X0184035Y0235558D01*
X0184176Y0235630D01*
X0184318Y0235700D01*
X0184462Y0235765D01*
X0184608Y0235827D01*
X0184755Y0235885D01*
X0184904Y0235940D01*
X0185054Y0235991D01*
X0185205Y0236038D01*
X0185357Y0236081D01*
X0185510Y0236120D01*
X0185665Y0236156D01*
X0185820Y0236187D01*
X0185976Y0236215D01*
X0186132Y0236239D01*
X0186289Y0236259D01*
X0186447Y0236275D01*
X0186604Y0236287D01*
X0186763Y0236295D01*
X0186921Y0236299D01*
X0187079Y0236299D01*
X0187237Y0236295D01*
X0187396Y0236287D01*
X0187553Y0236275D01*
X0187711Y0236259D01*
X0187868Y0236239D01*
X0188024Y0236215D01*
X0188180Y0236187D01*
X0188335Y0236156D01*
X0188490Y0236120D01*
X0188643Y0236081D01*
X0188795Y0236038D01*
X0188946Y0235991D01*
X0189096Y0235940D01*
X0189245Y0235885D01*
X0189392Y0235827D01*
X0189538Y0235765D01*
X0189682Y0235700D01*
X0189824Y0235630D01*
X0189965Y0235558D01*
X0190104Y0235481D01*
X0190240Y0235402D01*
X0190375Y0235318D01*
X0190508Y0235232D01*
X0190638Y0235142D01*
X0190766Y0235049D01*
X0190892Y0234953D01*
X0191015Y0234853D01*
X0191136Y0234751D01*
X0191254Y0234646D01*
X0191369Y0234537D01*
X0191482Y0234426D01*
X0191592Y0234312D01*
X0191699Y0234195D01*
X0191803Y0234076D01*
X0191904Y0233954D01*
X0192001Y0233829D01*
X0192096Y0233702D01*
X0192187Y0233573D01*
X0192276Y0233442D01*
X0192360Y0233308D01*
X0192442Y0233172D01*
X0192520Y0233035D01*
X0192594Y0232895D01*
X0192665Y0232753D01*
X0192733Y0232610D01*
X0192797Y0232465D01*
X0192857Y0232319D01*
X0192913Y0232171D01*
X0192966Y0232022D01*
X0193015Y0231871D01*
X0193060Y0231719D01*
X0193101Y0231566D01*
X0193139Y0231413D01*
X0193172Y0231258D01*
X0193202Y0231102D01*
X0193228Y0230946D01*
X0193249Y0230789D01*
X0193267Y0230632D01*
X0193281Y0230474D01*
X0193291Y0230316D01*
X0193297Y0230158D01*
X0193299Y0230000D01*
X0193297Y0229842D01*
X0193291Y0229684D01*
X0193281Y0229526D01*
X0193267Y0229368D01*
X0193249Y0229211D01*
X0193228Y0229054D01*
X0193202Y0228898D01*
X0193172Y0228742D01*
X0193139Y0228587D01*
X0193101Y0228434D01*
X0193060Y0228281D01*
X0193015Y0228129D01*
X0192966Y0227978D01*
X0192913Y0227829D01*
X0192857Y0227681D01*
X0192797Y0227535D01*
X0192733Y0227390D01*
X0192665Y0227247D01*
X0192594Y0227105D01*
X0192520Y0226965D01*
X0192442Y0226828D01*
X0192360Y0226692D01*
X0192276Y0226558D01*
X0192187Y0226427D01*
X0192096Y0226298D01*
X0192001Y0226171D01*
X0191904Y0226046D01*
X0191803Y0225924D01*
X0191699Y0225805D01*
X0191592Y0225688D01*
X0191482Y0225574D01*
X0191369Y0225463D01*
X0191254Y0225354D01*
X0191136Y0225249D01*
X0191015Y0225147D01*
X0190892Y0225047D01*
X0190766Y0224951D01*
X0190638Y0224858D01*
X0190508Y0224768D01*
X0190375Y0224682D01*
X0190240Y0224598D01*
X0190104Y0224519D01*
X0189965Y0224442D01*
X0189824Y0224370D01*
X0189682Y0224300D01*
X0189538Y0224235D01*
X0189392Y0224173D01*
X0189245Y0224115D01*
X0189096Y0224060D01*
X0188946Y0224009D01*
X0188795Y0223962D01*
X0188643Y0223919D01*
X0188490Y0223880D01*
X0188335Y0223844D01*
X0188180Y0223813D01*
X0188024Y0223785D01*
X0187868Y0223761D01*
X0187711Y0223741D01*
X0187553Y0223725D01*
X0187396Y0223713D01*
X0187237Y0223705D01*
X0187079Y0223701D01*
X0186921Y0223701D01*
X0186763Y0223705D01*
X0186604Y0223713D01*
X0186447Y0223725D01*
X0186289Y0223741D01*
X0186132Y0223761D01*
X0185976Y0223785D01*
X0185820Y0223813D01*
X0185665Y0223844D01*
X0185510Y0223880D01*
X0185357Y0223919D01*
X0185205Y0223962D01*
X0185054Y0224009D01*
X0184904Y0224060D01*
X0184755Y0224115D01*
X0184608Y0224173D01*
X0184462Y0224235D01*
X0184318Y0224300D01*
X0184176Y0224370D01*
X0184035Y0224442D01*
X0183896Y0224519D01*
X0183760Y0224598D01*
X0183625Y0224682D01*
X0183492Y0224768D01*
X0183362Y0224858D01*
X0183234Y0224951D01*
X0183108Y0225047D01*
X0182985Y0225147D01*
X0182864Y0225249D01*
X0182746Y0225354D01*
X0182631Y0225463D01*
X0182518Y0225574D01*
X0182408Y0225688D01*
X0182301Y0225805D01*
X0182197Y0225924D01*
X0182096Y0226046D01*
X0181999Y0226171D01*
X0181904Y0226298D01*
X0181813Y0226427D01*
X0181724Y0226558D01*
X0181640Y0226692D01*
X0181558Y0226828D01*
X0181480Y0226965D01*
X0181406Y0227105D01*
X0181335Y0227247D01*
X0181267Y0227390D01*
X0181203Y0227535D01*
X0181143Y0227681D01*
X0181087Y0227829D01*
X0181034Y0227978D01*
X0180985Y0228129D01*
X0180940Y0228281D01*
X0180899Y0228434D01*
X0180861Y0228587D01*
X0180828Y0228742D01*
X0180798Y0228898D01*
X0180772Y0229054D01*
X0180751Y0229211D01*
X0180733Y0229368D01*
X0180719Y0229526D01*
X0180709Y0229684D01*
X0180703Y0229842D01*
X0180701Y0230000D01*
D20*
X0153437Y0174961D02*
X0145563Y0174961D01*
X0145563Y0170039D02*
X0153437Y0170039D01*
X0154539Y0071437D02*
X0154539Y0063563D01*
X0159461Y0063563D02*
X0159461Y0071437D01*
D21*
X0157000Y0067500D03*
D22*
X0054928Y0120571D02*
X0054930Y0120641D01*
X0054936Y0120712D01*
X0054946Y0120781D01*
X0054960Y0120850D01*
X0054978Y0120919D01*
X0054999Y0120986D01*
X0055024Y0121052D01*
X0055053Y0121116D01*
X0055086Y0121178D01*
X0055122Y0121239D01*
X0055162Y0121297D01*
X0055204Y0121353D01*
X0055250Y0121407D01*
X0055299Y0121458D01*
X0055350Y0121506D01*
X0055405Y0121551D01*
X0055461Y0121593D01*
X0055520Y0121631D01*
X0055581Y0121666D01*
X0055644Y0121698D01*
X0055709Y0121726D01*
X0055775Y0121751D01*
X0055842Y0121771D01*
X0055911Y0121788D01*
X0055980Y0121801D01*
X0056050Y0121810D01*
X0056120Y0121815D01*
X0056191Y0121816D01*
X0056261Y0121813D01*
X0056331Y0121806D01*
X0056401Y0121795D01*
X0056470Y0121780D01*
X0056538Y0121761D01*
X0056604Y0121739D01*
X0056670Y0121713D01*
X0056734Y0121683D01*
X0056796Y0121649D01*
X0056856Y0121612D01*
X0056913Y0121572D01*
X0056969Y0121528D01*
X0057022Y0121482D01*
X0057072Y0121432D01*
X0057119Y0121380D01*
X0057163Y0121325D01*
X0057204Y0121268D01*
X0057242Y0121209D01*
X0057277Y0121147D01*
X0057307Y0121084D01*
X0057335Y0121019D01*
X0057358Y0120952D01*
X0057378Y0120885D01*
X0057394Y0120816D01*
X0057406Y0120747D01*
X0057414Y0120677D01*
X0057418Y0120606D01*
X0057418Y0120536D01*
X0057414Y0120465D01*
X0057406Y0120395D01*
X0057394Y0120326D01*
X0057378Y0120257D01*
X0057358Y0120190D01*
X0057335Y0120123D01*
X0057307Y0120058D01*
X0057277Y0119995D01*
X0057242Y0119933D01*
X0057204Y0119874D01*
X0057163Y0119817D01*
X0057119Y0119762D01*
X0057072Y0119710D01*
X0057022Y0119660D01*
X0056969Y0119614D01*
X0056913Y0119570D01*
X0056856Y0119530D01*
X0056795Y0119493D01*
X0056734Y0119459D01*
X0056670Y0119429D01*
X0056604Y0119403D01*
X0056538Y0119381D01*
X0056470Y0119362D01*
X0056401Y0119347D01*
X0056331Y0119336D01*
X0056261Y0119329D01*
X0056191Y0119326D01*
X0056120Y0119327D01*
X0056050Y0119332D01*
X0055980Y0119341D01*
X0055911Y0119354D01*
X0055842Y0119371D01*
X0055775Y0119391D01*
X0055709Y0119416D01*
X0055644Y0119444D01*
X0055581Y0119476D01*
X0055520Y0119511D01*
X0055461Y0119549D01*
X0055405Y0119591D01*
X0055350Y0119636D01*
X0055299Y0119684D01*
X0055250Y0119735D01*
X0055204Y0119789D01*
X0055162Y0119845D01*
X0055122Y0119903D01*
X0055086Y0119964D01*
X0055053Y0120026D01*
X0055024Y0120090D01*
X0054999Y0120156D01*
X0054978Y0120223D01*
X0054960Y0120292D01*
X0054946Y0120361D01*
X0054936Y0120430D01*
X0054930Y0120501D01*
X0054928Y0120571D01*
D23*
X0034500Y0087106D03*
D24*
X0149500Y0172500D03*
M02*
