%
M48
M72
T01C0.0236
T02C0.0240
T03C0.0400
T04C0.1181
T05C0.1260
%
T01
X4450Y2000
X5450Y3000
X6450Y2000
X7450Y2000
X6450Y4000
X4450Y4000
X5200Y7000
X4700Y10000
X3950Y12250
X6200Y13250
X7450Y13250
X8950Y14000
X9450Y13250
X9700Y15250
X7950Y15500
X7200Y16750
X5350Y16250
X5200Y15500
X3700Y18750
X11700Y19250
X13200Y16250
X12200Y15500
X14950Y19250
X15950Y16500
X17700Y15000
X17700Y14000
X14200Y11000
X13200Y10750
X13450Y8000
X15200Y5750
X14100Y4300
X12450Y4500
X10950Y4500
X16450Y3750
X19450Y7500
X19950Y6750
X20700Y4250
X17700Y8250
X16950Y8500
X16450Y9750
T02
X15575Y11375
X15075Y11375
X12888Y11188
X12325Y13125
X10825Y12813
X15638Y14500
X19138Y16000
X18388Y9250
X16700Y7125
X17950Y5250
X17950Y4750
X18450Y6250
X19888Y6250
X19888Y5250
X18388Y3000
X16450Y4375
X15638Y2938
X14700Y4375
X13075Y4375
X13138Y5688
X5513Y6063
X5013Y5938
X2638Y7813
X2325Y8188
X5513Y9688
X3200Y11813
X3513Y16625
X10200Y20625
T03
X9700Y23000
X10700Y23000
X11700Y23000
X12700Y23000
X13700Y23000
X14700Y23000
X15700Y23000
X16700Y23000
X20700Y22000
X20700Y21000
X20700Y20000
X20700Y19000
X20700Y18000
X20700Y17000
X20700Y15000
X20700Y14000
X20700Y13000
X20700Y12000
X20700Y11000
X20700Y10000
X20700Y9000
X20700Y8000
X18700Y2000
X17700Y2000
X16700Y2000
X15700Y2000
X14700Y2000
X13700Y2000
X12700Y2000
X11700Y2000
X1700Y4500
X1700Y5500
X1700Y6500
X1700Y7500
X1700Y8500
X1700Y9500
X1700Y10500
X1700Y11500
X1700Y12500
X1700Y13500
X1700Y15000
X1700Y16000
X1700Y17000
X1700Y18000
X1700Y19000
X1700Y20000
X1700Y21000
X1700Y22000
X4200Y22000
X5200Y22000
T04
X9397Y9085
T05
X1700Y3250
X7700Y23000
X18700Y23000
X20700Y2500
M30
