G75*
%MOIN*%
%OFA0B0*%
%FSLAX25Y25*%
%IPPOS*%
%LPD*%
%AMOC8*
5,1,8,0,0,1.08239X$1,22.5*
%
%ADD10C,0.08200*%
%ADD11R,0.08600X0.02900*%
%ADD12R,0.05918X0.06706*%
%ADD13R,0.06706X0.05918*%
%ADD14R,0.03950X0.04343*%
%ADD15R,0.08200X0.08200*%
%ADD16C,0.13398*%
%ADD17R,0.03950X0.05524*%
%ADD18R,0.05524X0.03950*%
%ADD19R,0.05600X0.02800*%
%ADD20R,0.05700X0.02500*%
%ADD21R,0.08000X0.08900*%
%ADD22R,0.06706X0.09461*%
%ADD23R,0.04737X0.05524*%
%ADD24R,0.05524X0.08674*%
%ADD25R,0.09700X0.10300*%
%ADD26R,0.08674X0.04737*%
%ADD27C,0.12611*%
%ADD28C,0.07611*%
%ADD29R,0.10052X0.08280*%
%ADD30R,0.06706X0.14186*%
%ADD31R,0.04737X0.04737*%
%ADD32R,0.05524X0.05524*%
%ADD33R,0.07898X0.07099*%
%ADD34R,0.05524X0.04737*%
%ADD35R,0.06587X0.05800*%
%ADD36R,0.04068X0.03280*%
%ADD37C,0.00500*%
%ADD38C,0.04762*%
%ADD39C,0.04800*%
D10*
X0017000Y0045000D03*
X0017000Y0055000D03*
X0017000Y0065000D03*
X0017000Y0075000D03*
X0017000Y0085000D03*
X0017000Y0095000D03*
X0017000Y0105000D03*
X0017000Y0115000D03*
X0017000Y0125000D03*
X0017000Y0135000D03*
X0017000Y0150000D03*
X0017000Y0160000D03*
X0017000Y0170000D03*
X0017000Y0180000D03*
X0017000Y0190000D03*
X0017000Y0200000D03*
X0017000Y0210000D03*
X0017000Y0220000D03*
X0042000Y0220000D03*
X0052000Y0220000D03*
X0107000Y0230000D03*
X0117000Y0230000D03*
X0127000Y0230000D03*
X0137000Y0230000D03*
X0147000Y0230000D03*
X0157000Y0230000D03*
X0167000Y0230000D03*
X0207000Y0220000D03*
X0207000Y0210000D03*
X0207000Y0200000D03*
X0207000Y0190000D03*
X0207000Y0180000D03*
X0207000Y0170000D03*
X0207000Y0150000D03*
X0207000Y0140000D03*
X0207000Y0130000D03*
X0207000Y0120000D03*
X0207000Y0110000D03*
X0207000Y0100000D03*
X0207000Y0090000D03*
X0207000Y0080000D03*
X0187000Y0020000D03*
X0177000Y0020000D03*
X0167000Y0020000D03*
X0157000Y0020000D03*
X0147000Y0020000D03*
X0137000Y0020000D03*
X0127000Y0020000D03*
D11*
X0172300Y0037500D03*
X0172300Y0042500D03*
X0172300Y0047500D03*
X0172300Y0052500D03*
X0172300Y0057500D03*
X0172300Y0062500D03*
X0172300Y0067500D03*
X0191700Y0067500D03*
X0191700Y0062500D03*
X0191700Y0057500D03*
X0191700Y0052500D03*
X0191700Y0047500D03*
X0191700Y0042500D03*
X0191700Y0037500D03*
D12*
X0185740Y0075000D03*
X0178260Y0075000D03*
X0145740Y0050000D03*
X0138260Y0050000D03*
X0105740Y0020000D03*
X0098260Y0020000D03*
X0088240Y0020000D03*
X0080760Y0020000D03*
D13*
X0034500Y0063760D03*
X0034500Y0071240D03*
X0034500Y0101260D03*
X0034500Y0108740D03*
X0037000Y0196260D03*
X0037000Y0203740D03*
X0097000Y0211260D03*
X0097000Y0218740D03*
X0107000Y0218740D03*
X0107000Y0211260D03*
X0117000Y0211260D03*
X0117000Y0218740D03*
X0184500Y0136240D03*
X0184500Y0128760D03*
X0207000Y0056240D03*
X0207000Y0048760D03*
D14*
X0145740Y0038937D03*
X0142000Y0030669D03*
X0138260Y0038937D03*
X0130740Y0038937D03*
X0123260Y0038937D03*
X0127000Y0030669D03*
X0115740Y0038937D03*
X0108260Y0038937D03*
X0112000Y0030669D03*
D15*
X0117000Y0020000D03*
X0097000Y0230000D03*
D16*
X0077000Y0230000D03*
X0187000Y0230000D03*
X0017000Y0032500D03*
X0207000Y0025000D03*
D17*
X0145543Y0060000D03*
X0138457Y0060000D03*
X0138457Y0085000D03*
X0145543Y0085000D03*
X0143457Y0162500D03*
X0150543Y0162500D03*
D18*
X0144500Y0141043D03*
X0144500Y0133957D03*
X0134500Y0133957D03*
X0134500Y0141043D03*
X0124500Y0143957D03*
X0124500Y0151043D03*
X0104500Y0143543D03*
X0104500Y0136457D03*
X0094500Y0143957D03*
X0094500Y0151043D03*
X0054500Y0138543D03*
X0054500Y0131457D03*
X0044500Y0136457D03*
X0044500Y0143543D03*
X0142000Y0098543D03*
X0142000Y0091457D03*
X0174500Y0093543D03*
X0174500Y0086457D03*
X0164500Y0133957D03*
X0164500Y0141043D03*
D19*
X0154000Y0148800D03*
X0154000Y0152500D03*
X0154000Y0156200D03*
X0145000Y0156200D03*
X0145000Y0152500D03*
X0145000Y0148800D03*
X0154700Y0093700D03*
X0154700Y0086300D03*
X0164300Y0086300D03*
X0164300Y0090000D03*
X0164300Y0093700D03*
D20*
X0083400Y0141200D03*
X0083400Y0143700D03*
X0083400Y0146300D03*
X0083400Y0148800D03*
X0065600Y0148800D03*
X0065600Y0146300D03*
X0065600Y0143700D03*
X0065600Y0141200D03*
D21*
X0074500Y0145000D03*
D22*
X0084598Y0192500D03*
X0059402Y0192500D03*
D23*
X0157000Y0071831D03*
X0157000Y0063169D03*
D24*
X0148299Y0072500D03*
X0135701Y0072500D03*
X0068299Y0165000D03*
X0055701Y0165000D03*
X0143201Y0182500D03*
X0155799Y0182500D03*
D25*
X0102900Y0165000D03*
X0086100Y0165000D03*
D26*
X0062472Y0114075D03*
X0062472Y0108169D03*
X0062472Y0102264D03*
X0062472Y0096358D03*
X0062472Y0090453D03*
X0062472Y0084547D03*
X0062472Y0078642D03*
X0062472Y0072736D03*
X0062472Y0066831D03*
X0062472Y0060925D03*
X0121528Y0060925D03*
X0121528Y0066831D03*
X0121528Y0072736D03*
X0121528Y0078642D03*
X0121528Y0084547D03*
X0121528Y0090453D03*
X0121528Y0096358D03*
X0121528Y0102264D03*
X0121528Y0108169D03*
X0121528Y0114075D03*
D27*
X0093969Y0090846D03*
D28*
X0054500Y0030000D03*
D29*
X0045150Y0019764D03*
X0063850Y0019764D03*
X0063850Y0040236D03*
X0045150Y0040236D03*
D30*
X0043476Y0030000D03*
X0065524Y0030000D03*
D31*
X0047000Y0113563D03*
X0047000Y0121437D03*
D32*
X0034500Y0091634D03*
X0034500Y0083366D03*
D33*
X0184500Y0176902D03*
X0184500Y0188098D03*
D34*
X0153831Y0172500D03*
X0145169Y0172500D03*
D35*
X0184500Y0165965D03*
X0184500Y0149035D03*
D36*
X0164500Y0145472D03*
X0164500Y0154528D03*
D37*
X0035477Y0013177D02*
X0028523Y0013177D01*
X0028590Y0013031D02*
X0028984Y0012469D01*
X0029469Y0011984D01*
X0030031Y0011590D01*
X0030653Y0011300D01*
X0031316Y0011123D01*
X0032000Y0011063D01*
X0032684Y0011123D01*
X0033347Y0011300D01*
X0033969Y0011590D01*
X0034531Y0011984D01*
X0035016Y0012469D01*
X0035410Y0013031D01*
X0035700Y0013653D01*
X0035877Y0014316D01*
X0035937Y0015000D01*
X0035877Y0015684D01*
X0035700Y0016347D01*
X0035410Y0016969D01*
X0035016Y0017531D01*
X0034531Y0018016D01*
X0033969Y0018410D01*
X0033347Y0018700D01*
X0032684Y0018877D01*
X0032000Y0018937D01*
X0031316Y0018877D01*
X0030653Y0018700D01*
X0030031Y0018410D01*
X0029469Y0018016D01*
X0028984Y0017531D01*
X0028590Y0016969D01*
X0028300Y0016347D01*
X0028123Y0015684D01*
X0028063Y0015000D01*
X0028123Y0014316D01*
X0028300Y0013653D01*
X0028590Y0013031D01*
X0028838Y0012678D02*
X0035162Y0012678D01*
X0034727Y0012180D02*
X0029273Y0012180D01*
X0029902Y0011681D02*
X0034098Y0011681D01*
X0032908Y0011183D02*
X0031092Y0011183D01*
X0028295Y0013675D02*
X0035705Y0013675D01*
X0035839Y0014174D02*
X0028161Y0014174D01*
X0028092Y0014672D02*
X0035908Y0014672D01*
X0035922Y0015171D02*
X0028078Y0015171D01*
X0028122Y0015670D02*
X0035878Y0015670D01*
X0035747Y0016168D02*
X0028253Y0016168D01*
X0028450Y0016667D02*
X0035550Y0016667D01*
X0035272Y0017165D02*
X0028728Y0017165D01*
X0029117Y0017664D02*
X0034883Y0017664D01*
X0034322Y0018162D02*
X0029678Y0018162D01*
X0030570Y0018661D02*
X0033430Y0018661D01*
X0181969Y0201984D02*
X0182531Y0201590D01*
X0183153Y0201300D01*
X0183816Y0201123D01*
X0184500Y0201063D01*
X0185184Y0201123D01*
X0185847Y0201300D01*
X0186469Y0201590D01*
X0187031Y0201984D01*
X0187516Y0202469D01*
X0187910Y0203031D01*
X0188200Y0203653D01*
X0188377Y0204316D01*
X0188437Y0205000D01*
X0188377Y0205684D01*
X0188200Y0206347D01*
X0187910Y0206969D01*
X0187516Y0207531D01*
X0187031Y0208016D01*
X0186469Y0208410D01*
X0185847Y0208700D01*
X0185184Y0208877D01*
X0184500Y0208937D01*
X0183816Y0208877D01*
X0183153Y0208700D01*
X0182531Y0208410D01*
X0181969Y0208016D01*
X0181484Y0207531D01*
X0181090Y0206969D01*
X0180800Y0206347D01*
X0180623Y0205684D01*
X0180563Y0205000D01*
X0180623Y0204316D01*
X0180800Y0203653D01*
X0181090Y0203031D01*
X0181484Y0202469D01*
X0181969Y0201984D01*
X0181841Y0202113D02*
X0187159Y0202113D01*
X0187615Y0202611D02*
X0181385Y0202611D01*
X0181054Y0203110D02*
X0187946Y0203110D01*
X0188179Y0203608D02*
X0180821Y0203608D01*
X0180679Y0204107D02*
X0188321Y0204107D01*
X0188402Y0204605D02*
X0180598Y0204605D01*
X0180572Y0205104D02*
X0188428Y0205104D01*
X0188384Y0205602D02*
X0180616Y0205602D01*
X0180735Y0206101D02*
X0188265Y0206101D01*
X0188082Y0206599D02*
X0180918Y0206599D01*
X0181181Y0207098D02*
X0187819Y0207098D01*
X0187450Y0207596D02*
X0181550Y0207596D01*
X0182082Y0208095D02*
X0186918Y0208095D01*
X0186074Y0208593D02*
X0182926Y0208593D01*
X0182498Y0201614D02*
X0186502Y0201614D01*
X0185103Y0201116D02*
X0183897Y0201116D01*
X0035877Y0214316D02*
X0035937Y0215000D01*
X0035877Y0215684D01*
X0035700Y0216347D01*
X0035410Y0216969D01*
X0035016Y0217531D01*
X0034531Y0218016D01*
X0033969Y0218410D01*
X0033347Y0218700D01*
X0032684Y0218877D01*
X0032000Y0218937D01*
X0031316Y0218877D01*
X0030653Y0218700D01*
X0030031Y0218410D01*
X0029469Y0218016D01*
X0028984Y0217531D01*
X0028590Y0216969D01*
X0028300Y0216347D01*
X0028123Y0215684D01*
X0028063Y0215000D01*
X0028123Y0214316D01*
X0028300Y0213653D01*
X0028590Y0213031D01*
X0028984Y0212469D01*
X0029469Y0211984D01*
X0030031Y0211590D01*
X0030653Y0211300D01*
X0031316Y0211123D01*
X0032000Y0211063D01*
X0032684Y0211123D01*
X0033347Y0211300D01*
X0033969Y0211590D01*
X0034531Y0211984D01*
X0035016Y0212469D01*
X0035410Y0213031D01*
X0035700Y0213653D01*
X0035877Y0214316D01*
X0035813Y0214077D02*
X0028187Y0214077D01*
X0028100Y0214576D02*
X0035900Y0214576D01*
X0035931Y0215074D02*
X0028069Y0215074D01*
X0028113Y0215573D02*
X0035887Y0215573D01*
X0035773Y0216071D02*
X0028227Y0216071D01*
X0028404Y0216570D02*
X0035596Y0216570D01*
X0035340Y0217068D02*
X0028660Y0217068D01*
X0029020Y0217567D02*
X0034980Y0217567D01*
X0034460Y0218065D02*
X0029540Y0218065D01*
X0030362Y0218564D02*
X0033638Y0218564D01*
X0035665Y0213579D02*
X0028335Y0213579D01*
X0028568Y0213080D02*
X0035432Y0213080D01*
X0035094Y0212581D02*
X0028906Y0212581D01*
X0029370Y0212083D02*
X0034630Y0212083D01*
X0033956Y0211584D02*
X0030044Y0211584D01*
X0031738Y0211086D02*
X0032262Y0211086D01*
D38*
X0037000Y0187500D03*
X0053500Y0162500D03*
X0052000Y0155000D03*
X0072000Y0167500D03*
X0079500Y0155000D03*
X0089500Y0140000D03*
X0094500Y0132500D03*
X0097000Y0152500D03*
X0074500Y0132500D03*
X0062000Y0132500D03*
X0039500Y0122500D03*
X0047000Y0100000D03*
X0052000Y0070000D03*
X0044500Y0040000D03*
X0054500Y0030000D03*
X0064500Y0020000D03*
X0074500Y0020000D03*
X0064500Y0040000D03*
X0044500Y0020000D03*
X0109500Y0045000D03*
X0124500Y0045000D03*
X0141000Y0043000D03*
X0152000Y0057500D03*
X0164500Y0037500D03*
X0194500Y0075000D03*
X0199500Y0067500D03*
X0207000Y0042500D03*
X0177000Y0082500D03*
X0169500Y0085000D03*
X0164500Y0097500D03*
X0142000Y0110000D03*
X0132000Y0107500D03*
X0134500Y0080000D03*
X0177000Y0140000D03*
X0177000Y0150000D03*
X0159500Y0165000D03*
X0149500Y0192500D03*
X0132000Y0162500D03*
X0122000Y0155000D03*
X0117000Y0192500D03*
D39*
X0102000Y0206250D03*
X0156375Y0145000D03*
X0155750Y0113750D03*
X0150750Y0113750D03*
X0128875Y0111875D03*
X0123250Y0131250D03*
X0108250Y0128125D03*
X0055125Y0096875D03*
X0032000Y0118125D03*
X0023250Y0081875D03*
X0026375Y0078125D03*
X0050125Y0059375D03*
X0055125Y0060625D03*
X0131375Y0056875D03*
X0130750Y0043750D03*
X0147000Y0043750D03*
X0156375Y0029375D03*
X0164500Y0043750D03*
X0179500Y0047500D03*
X0179500Y0052500D03*
X0184500Y0062500D03*
X0198875Y0062500D03*
X0198875Y0052500D03*
X0183875Y0030000D03*
X0167000Y0071250D03*
X0183875Y0092500D03*
X0191375Y0160000D03*
X0035125Y0166250D03*
M02*
